<?xml version="1.0" encoding="UTF-8"?>
<svg width="42px" height="42px" viewBox="0 0 42 42" version="1.1" xmlns="http://www.w3.org/2000/svg" xmlns:xlink="http://www.w3.org/1999/xlink">
    <title>icon-algebra</title>
    <g id="Coding" stroke="none" stroke-width="1" fill="none" fill-rule="evenodd">
        <g id="Screen01" transform="translate(-1162.000000, -3838.000000)" fill="#000000" fill-rule="nonzero">
            <g id="Group-11" transform="translate(349.000000, 3746.000000)">
                <g id="Group-23" transform="translate(140.000000, 80.000000)">
                    <g id="icons8-root" transform="translate(673.000000, 12.000000)">
                        <path d="M5,0 C2.2504839,0 0,2.2504839 0,5 L0,37 C0,39.749516 2.2504839,42 5,42 L37,42 C39.749516,42 42,39.749516 42,37 L42,5 C42,2.2504839 39.749516,0 37,0 L5,0 Z M5,2 L37,2 C38.668484,2 40,3.3315161 40,5 L40,37 C40,38.668484 38.668484,40 37,40 L5,40 C3.3315161,40 2,38.668484 2,37 L2,5 C2,3.3315161 3.3315161,2 5,2 Z M26.599609,8 C26.1909105,8.00037973 25.8235661,8.24940057 25.671875,8.628906 L16.929688,30.484375 L12.306641,20.576172 C12.1420358,20.2244602 11.7887156,19.9998277 11.400391,20 L8,20 L8,22 L10.763672,22 L16.09375,33.423828 C16.2628304,33.784522 16.6298469,34.0104775 17.0280393,33.999028 C17.4262318,33.9875784 17.7796584,33.7409074 17.927734,33.371094 L27.277344,10 L34,10 L34,8 L26.599609,8 Z" id="icon-algebra"></path>
                    </g>
                </g>
            </g>
        </g>
    </g>
</svg>