<?xml version="1.0" encoding="UTF-8"?>
<svg width="44px" height="46px" viewBox="0 0 44 46" version="1.1" xmlns="http://www.w3.org/2000/svg" xmlns:xlink="http://www.w3.org/1999/xlink">
    <title>icon-structure</title>
    <g id="Coding" stroke="none" stroke-width="1" fill="none" fill-rule="evenodd">
        <g id="Screen01" transform="translate(-1367.000000, -3836.000000)" fill="#000000" fill-rule="nonzero">
            <g id="Group-11" transform="translate(349.000000, 3746.000000)">
                <g id="Group-23" transform="translate(140.000000, 80.000000)">
                    <g id="icons8-decentralized_network" transform="translate(878.000000, 10.000000)">
                        <path d="M22,0 C20.75,0 19.685226,0.5047556 19.001953,1.2734375 C18.318681,2.0421194 18,3.0277779 18,4 C18,4.2803741 18.033783,4.5608078 18.087891,4.8378906 L7.056641,10.353516 C7.035057,10.3279 7.02041,10.298597 6.9980469,10.273438 C6.3147744,9.504755 5.2499997,9 4,9 C2.7500003,9 1.6852256,9.504756 1.0019531,10.273438 C0.3186806,11.042118 0,12.027778 0,13 C0,13.972222 0.3186806,14.957881 1.0019531,15.726562 C1.6852256,16.495244 2.7500003,17 4,17 C5.2195743,17 6.2567585,16.514641 6.9414062,15.777344 L17.818359,21.820312 C17.9197719,21.8796372 18.0308451,21.9206286 18.146484,21.941406 C18.058792,22.28966 18,22.64404 18,23 C18,23.972222 18.318681,24.957882 19.001953,25.726562 C19.489074,26.274573 20.213961,26.608408 21.017578,26.800781 C21.005077,26.8664332 20.9991882,26.9331731 21,27 L21,38.203125 C20.203964,38.397281 19.485551,38.72939 19.001953,39.273438 C18.97959,39.298597 18.964943,39.3279 18.943359,39.353516 L7.912109,33.837891 C7.966217,33.560808 8,33.280374 8,33 C8,32.027778 7.681319,31.042119 6.9980469,30.273438 C6.3147744,29.504756 5.2499997,29 4,29 C2.7500003,29 1.6852256,29.504756 1.0019531,30.273438 C0.3186806,31.042119 0,32.027778 0,33 C0,33.972222 0.3186806,34.957881 1.0019531,35.726562 C1.6852256,36.495244 2.7500003,37 4,37 C5.2499997,37 6.3147744,36.495244 6.9980469,35.726562 C7.020767,35.701003 7.034725,35.670562 7.056641,35.644531 L18.087891,41.162109 C18.033783,41.439192 18,41.719626 18,42 C18,42.972222 18.318681,43.957881 19.001953,44.726562 C19.685226,45.495244 20.75,46 22,46 C23.25,46 24.314774,45.495245 24.998047,44.726562 C25.681319,43.957881 26,42.972222 26,42 C26,41.719626 25.966217,41.439192 25.912109,41.162109 L36.943359,35.646484 C36.964943,35.6721 36.97959,35.701403 37.001953,35.726562 C37.685226,36.495244 38.75,37 40,37 C41.25,37 42.314774,36.495244 42.998047,35.726562 C43.681319,34.957881 44,33.972222 44,33 C44,32.027778 43.681319,31.042119 42.998047,30.273438 C42.314774,29.504756 41.25,29 40,29 C38.75,29 37.685226,29.504756 37.001953,30.273438 C36.318681,31.042119 36,32.027778 36,33 C36,33.280374 36.033783,33.560808 36.087891,33.837891 L25.056641,39.353516 C25.035057,39.3279 25.02041,39.298597 24.998047,39.273438 C24.514449,38.72939 23.796036,38.397281 23,38.203125 L23,27 C23.0008118,26.9331731 22.994923,26.8664332 22.982422,26.800781 C23.786039,26.608408 24.510926,26.274573 24.998047,25.726562 C25.681321,24.957881 26,23.972222 26,23 C26,22.652036 25.943124,22.305686 25.859375,21.964844 C25.9477875,21.9413756 26.0325622,21.9058883 26.111328,21.859375 L37.058594,15.779297 C37.743256,16.516058 38.780949,17 40,17 C41.25,17 42.314774,16.495244 42.998047,15.726562 C43.681319,14.957881 44,13.972222 44,13 C44,12.027778 43.681319,11.042119 42.998047,10.273438 C42.314774,9.504755 41.25,9 40,9 C38.75,9 37.685226,9.504756 37.001953,10.273438 C36.318681,11.042118 36,12.027778 36,13 C36,13.337927 36.053883,13.674361 36.132812,14.005859 L25.140625,20.111328 C25.0749757,20.1460488 25.013398,20.1879739 24.957031,20.236328 C24.272647,19.490501 23.227878,19 22,19 C20.765503,19 19.715365,19.4954 19.03125,20.248047 C18.9597935,20.1776384 18.8781504,20.1183815 18.789062,20.072266 L7.867188,14.005859 C7.946117,13.674361 8,13.337927 8,13 C8,12.719626 7.966217,12.439192 7.912109,12.162109 L18.943359,6.6464844 C18.964943,6.6721002 18.97959,6.7014035 19.001953,6.7265625 C19.685226,7.4952444 20.75,8 22,8 C23.25,8 24.314774,7.4952444 24.998047,6.7265625 C25.681319,5.9578806 26,4.9722221 26,4 C26,3.0277779 25.681319,2.0421194 24.998047,1.2734375 C24.314774,0.5047556 23.25,0 22,0 Z M22,2 C22.749999,2 23.185226,2.2452444 23.501953,2.6015625 C23.81868,2.9578806 24,3.4722221 24,4 C24,4.5277779 23.81868,5.0421194 23.501953,5.3984375 C23.185226,5.7547556 22.749999,6 22,6 C21.250001,6 20.814774,5.7547556 20.498047,5.3984375 C20.18132,5.0421194 20,4.5277779 20,4 C20,3.4722221 20.18132,2.9578806 20.498047,2.6015625 C20.814774,2.2452444 21.250001,2 22,2 Z M4,11 C4.7499995,11 5.1852261,11.245244 5.5019531,11.601562 C5.8186802,11.957882 6,12.472222 6,13 C6,13.527778 5.8186802,14.042119 5.5019531,14.398438 C5.1852261,14.754756 4.7499995,15 4,15 C3.2500005,15 2.8147739,14.754756 2.4980469,14.398438 C2.1813198,14.042119 2,13.527778 2,13 C2,12.472222 2.1813198,11.957881 2.4980469,11.601562 C2.8147739,11.245245 3.2500005,11 4,11 Z M40,11 C40.749999,11 41.185226,11.245244 41.501953,11.601562 C41.81868,11.957882 42,12.472222 42,13 C42,13.527778 41.81868,14.042119 41.501953,14.398438 C41.185226,14.754756 40.749999,15 40,15 C39.250001,15 38.814774,14.754756 38.498047,14.398438 C38.18132,14.042119 38,13.527778 38,13 C38,12.472222 38.18132,11.957881 38.498047,11.601562 C38.814774,11.245245 39.250001,11 40,11 Z M22,21 C22.749999,21 23.185226,21.245244 23.501953,21.601562 C23.81868,21.957881 24,22.472222 24,23 C24,23.527778 23.81868,24.042118 23.501953,24.398438 C23.185226,24.754756 22.749999,25 22,25 C21.250001,25 20.814774,24.754756 20.498047,24.398438 C20.18132,24.042119 20,23.527778 20,23 C20,22.472222 20.18132,21.957882 20.498047,21.601562 C20.814774,21.245244 21.250001,21 22,21 Z M4,31 C4.7499995,31 5.1852261,31.245244 5.5019531,31.601562 C5.8186802,31.957881 6,32.472222 6,33 C6,33.527778 5.8186802,34.042119 5.5019531,34.398438 C5.1852261,34.754756 4.7499995,35 4,35 C3.2500005,35 2.8147739,34.754756 2.4980469,34.398438 C2.1813198,34.042119 2,33.527778 2,33 C2,32.472222 2.1813198,31.957881 2.4980469,31.601562 C2.8147739,31.245244 3.2500005,31 4,31 Z M40,31 C40.749999,31 41.185226,31.245244 41.501953,31.601562 C41.81868,31.957881 42,32.472222 42,33 C42,33.527778 41.81868,34.042119 41.501953,34.398438 C41.185226,34.754756 40.749999,35 40,35 C39.250001,35 38.814774,34.754756 38.498047,34.398438 C38.18132,34.042119 38,33.527778 38,33 C38,32.472222 38.18132,31.957881 38.498047,31.601562 C38.814774,31.245244 39.250001,31 40,31 Z M21.970703,40.011719 C21.990861,40.0129812 22.0110526,40.0136325 22.03125,40.013672 C22.75257,40.023742 23.1919,40.252753 23.501953,40.601562 C23.818677,40.957834 24,41.472222 24,42 C24,42.527778 23.81868,43.042119 23.501953,43.398438 C23.185226,43.754756 22.749999,44 22,44 C21.250001,44 20.814774,43.754755 20.498047,43.398438 C20.18132,43.042119 20,42.527778 20,42 C20,41.472222 20.18132,40.957881 20.498047,40.601562 C20.808597,40.252193 21.247272,40.021059 21.970703,40.011719 Z" id="icon-structure"></path>
                    </g>
                </g>
            </g>
        </g>
    </g>
</svg>