<?xml version="1.0" encoding="UTF-8"?>
<svg width="17px" height="18px" viewBox="0 0 17 18" version="1.1" xmlns="http://www.w3.org/2000/svg" xmlns:xlink="http://www.w3.org/1999/xlink">
    <title>icon-play</title>
    <g id="Coding" stroke="none" stroke-width="1" fill="none" fill-rule="evenodd">
        <g id="Screen01" transform="translate(-355.000000, -2606.000000)" fill="#FFFFFF" fill-rule="nonzero">
            <g id="Group-15" transform="translate(297.000000, 1996.000000)">
                <g id="Group-10" transform="translate(0.000000, 200.000000)">
                    <g id="Group-4" transform="translate(0.000000, 390.000000)">
                        <path d="M66.4444444,20.7407407 C61.866546,20.7407407 58.1481481,24.4591386 58.1481481,29.037037 C58.1481481,33.6149355 61.866546,37.3333333 66.4444444,37.3333333 C71.0223429,37.3333333 74.7407407,33.6149355 74.7407407,29.037037 C74.7407407,24.4591386 71.0223429,20.7407407 66.4444444,20.7407407 Z M66.4444444,21.4621578 C70.6320451,21.4621578 74.0193237,24.8494364 74.0193237,29.037037 C74.0193237,33.2246377 70.6320451,36.6119163 66.4444444,36.6119163 C62.2568438,36.6119163 58.8695652,33.2246377 58.8695652,29.037037 C58.8695652,24.8494364 62.2568438,21.4621578 66.4444444,21.4621578 Z M63.9194847,24.7987118 L63.9194847,33.2753623 L64.4605475,32.9597424 L70.5925926,29.352657 L71.1223833,29.037037 L70.5925926,28.7214171 L64.4605475,25.1143317 L63.9194847,24.7987118 Z M64.6409018,26.0611916 L69.6908213,29.037037 L64.6409018,32.0128824 L64.6409018,26.0611916 Z" id="icon-play"></path>
                    </g>
                </g>
            </g>
        </g>
    </g>
</svg>