<?xml version="1.0" encoding="UTF-8"?>
<svg width="59px" height="54px" viewBox="0 0 59 54" version="1.1" xmlns="http://www.w3.org/2000/svg" xmlns:xlink="http://www.w3.org/1999/xlink">
    <title>icon-creative</title>
    <g id="Coding" stroke="none" stroke-width="1" fill="none" fill-rule="evenodd">
        <g id="Screen01" transform="translate(-931.000000, -3832.000000)" fill="#000000" fill-rule="nonzero">
            <g id="Group-11" transform="translate(349.000000, 3746.000000)">
                <g id="Group-23" transform="translate(140.000000, 80.000000)">
                    <g id="icons8-critical_thinking" transform="translate(442.000000, 6.000000)">
                        <path d="M27.6136364,0 C25.0296517,0 23.251066,1.12180459 21.8560017,2.25319664 C20.9978693,1.75461709 19.8041551,1.22727273 17.9488636,1.22727273 C15.0868256,1.22727273 13.034979,2.81409832 11.6111512,4.90909091 C11.433771,4.91388464 11.2036574,4.91388464 11.102983,4.90909091 C6.38565341,4.70294714 2.61274827,8.65323123 2.49289773,13.2890625 C1.03071764,14.3197801 0,15.9161932 0,17.7954545 C0,19.4398085 0.824573864,20.9211648 1.97514205,22.0621455 C0.882102273,23.0928619 0,24.382458 0,26.0795455 C0,27.8101915 0.882102273,29.5408387 2.45454545,30.6674358 L2.45454545,31.9090909 C2.45454545,36.1422233 5.49396368,39.2727273 9.20454545,39.2727273 L9.39630682,39.2727273 C9.94282732,40.2363278 10.7386364,41.1184301 12.0761722,41.4923654 L10.4749642,50.3181818 L10.0962364,52.403587 L9.80859436,54 L12.3062858,54 L12.5172233,52.8350494 L12.9678619,50.3181818 L14.7080966,40.7157312 C14.7704187,40.3609733 14.674538,39.991833 14.4396307,39.7137784 C14.209517,39.435725 13.8643466,39.2727273 13.5,39.2727273 C11.8172937,39.2727273 11.390625,38.5440341 11.1557176,37.7098728 C11.0023085,37.1825284 10.5229051,36.8181818 9.97159091,36.8181818 L9.20454545,36.8181818 C6.81232214,36.8181818 4.90909091,35.0395949 4.90909091,31.9090909 L4.90909091,30.2215909 C4.90909091,29.7326 4.62144886,29.2915489 4.17081027,29.0949926 C2.94353755,28.5580608 2.45454545,27.4170813 2.45454545,26.0795455 C2.45454545,24.799538 3.17844491,23.8407312 4.32421936,23.1360091 C4.70294714,22.9058955 4.92826705,22.4840205 4.90909091,22.0429694 C4.8947085,21.5971233 4.63583127,21.1992194 4.24271986,20.9978693 C3.42294095,20.5759943 2.45454545,18.9364353 2.45454545,17.7954545 C2.45454545,16.5490057 3.2072085,15.3840551 4.20436759,14.9190341 C4.65500741,14.7033029 4.93306077,14.2382819 4.90909091,13.744496 C4.90429718,13.6534091 4.90909091,13.6821739 4.90909091,13.5 C4.90909091,10.0962364 7.65607214,7.215021 10.9879261,7.36363636 C11.390625,7.37801877 11.7885301,7.35884264 12.100142,7.36363636 C12.5507819,7.36843009 12.9678619,7.128729 13.1883881,6.74041255 C14.3149864,4.74129941 15.6237574,3.68181818 17.9488636,3.68181818 C19.8041551,3.68181818 20.6910511,4.28107214 21.2040131,4.66459486 C21.6690341,5.01456027 22.316229,4.98579545 22.7524864,4.60227273 C24.0660511,3.43252841 25.3892045,2.45454545 27.6136364,2.45454545 C30.4756744,2.45454545 32.019354,3.07297555 33.4959165,4.54953805 C33.8890267,4.94264945 34.502663,5.02414773 34.9820665,4.74129941 C36.6408029,3.77290514 37.6139921,3.68181818 39.5795455,3.68181818 C42.3984375,3.68181818 45.1310375,5.46999259 46.118608,7.83345232 C46.3055756,8.29367959 46.7562142,8.59090909 47.25,8.59090909 C49.9250716,8.59090909 52.135121,10.4749642 52.6576705,12.9822443 C52.7535511,13.456854 53.1226915,13.8259943 53.5973011,13.9266687 C54.5417255,14.1328125 55.265625,14.4588068 55.7114699,14.899858 C56.1621097,15.3361154 56.4545455,15.897017 56.4545455,17.0284091 C56.4545455,17.8386005 56.286754,18.2940341 56.1045813,18.6344108 C55.9176136,18.9699926 55.7258523,19.1281966 55.4334165,19.5692478 C55.0738636,20.1109733 55.1985091,20.8396665 55.7210585,21.2327767 C55.7210585,21.2327767 55.7929694,21.2615415 55.9991119,21.6258881 C56.2100494,21.9902347 56.4545455,22.603871 56.4545455,23.625 C56.4545455,24.5023085 56.1812858,25.2981176 55.5484733,25.9021665 C54.9156608,26.5062142 53.8513846,27 52.0056818,27 L51.6365415,27 C51.1235795,27 50.6633523,27.3212006 50.4859733,27.8053977 C50.2270949,28.5149148 49.8100148,28.8457028 49.1724074,29.1045813 C48.5395949,29.3634585 47.7006398,29.4545455 46.9431818,29.4545455 L45.4090909,29.4545455 C44.896129,29.4545455 44.4406966,29.7709523 44.2585227,30.2503557 C44.07635,30.7393466 43.8174716,31.1708103 43.501066,31.4488636 C43.1846591,31.731712 42.8346949,31.9090909 42.1875,31.9090909 C40.9794034,31.9090909 40.6821739,31.5830966 40.1404471,31.041371 C39.8288352,30.7297591 39.368608,30.6099074 38.9419392,30.7297591 C38.5152705,30.8496097 38.1844812,31.1899864 38.0838068,31.6214489 C37.9447801,32.1871455 37.412642,32.9302199 36.6743614,33.4815341 C35.9360795,34.0328483 35.0300074,34.3636364 34.3636364,34.3636364 L33.1363636,34.3636364 C32.4651989,34.3636364 31.9186796,34.9005682 31.9090909,35.571733 C31.8611512,38.9275568 29.1237574,41.7272727 25.7727273,41.7272727 C22.8771307,41.7272727 20.45135,43.0216625 18.6823505,44.9584523 C16.918146,46.8952421 15.7484017,49.450462 15.0724432,52.1686796 C15.0724432,52.178267 15.0676495,52.1830608 15.0676495,52.1926495 C15.0676495,52.1926495 14.8471233,53.1466625 14.6553619,54 L17.1674358,54 C17.3160511,53.3480114 17.4502841,52.7631398 17.4502841,52.7631398 C17.5797233,52.2549716 17.7379261,51.7611858 17.9057176,51.2769886 C17.963246,51.0996097 18.0303619,50.9174358 18.1022727,50.7256744 C18.7063216,49.1292614 19.5069244,47.6958449 20.4992898,46.6123938 C21.894354,45.0783029 23.581854,44.1818182 25.7727273,44.1818182 C30.0537994,44.1818182 33.4431818,40.9122875 34.1047591,36.8181818 L34.3636364,36.8181818 C35.7395245,36.8181818 37.0530892,36.2620739 38.1413352,35.4518824 C38.7741477,34.9772727 39.2966971,34.3876062 39.7281608,33.7356176 C40.3801495,34.0903767 41.1759585,34.3636364 42.1875,34.3636364 C43.3812142,34.3636364 44.4119318,33.927379 45.1310375,33.2897727 C45.5864699,32.8822801 45.7782312,32.3837006 46.0371097,31.9090909 L46.9431818,31.9090909 C47.873225,31.9090909 48.9950284,31.8227989 50.0928619,31.3769528 C50.9509943,31.0317824 51.7180398,30.3222653 52.2933239,29.4113995 C54.4362574,29.353871 56.1333449,28.7450284 57.2455608,27.6759585 C58.4153051,26.5541551 58.9090909,25.0488278 58.9090909,23.625 C58.9090909,22.1915835 58.5399506,21.1177199 58.1372517,20.4082028 C58.0653409,20.2883523 58.0461648,20.3171171 57.974254,20.2116477 C58.0988995,20.0390625 58.132458,20.0390625 58.261896,19.7945665 C58.6166551,19.1377841 58.9090909,18.2125358 58.9090909,17.0284091 C58.9090909,15.3984375 58.3577767,14.0417255 57.4277347,13.1356534 C56.6942478,12.4261364 55.7450284,12.148083 54.8149864,11.8700284 C53.9041193,8.816229 51.2578125,6.58700345 47.9978693,6.27059659 C46.4158387,3.24556077 43.1415131,1.22727273 39.5795455,1.22727273 C37.7578125,1.22727273 36.190163,1.50532732 34.4786932,2.32990118 C32.685725,0.848543727 30.5140267,0 27.6136364,0 Z M33.1363636,8.59090909 L33.1363636,11.1605114 C32.3549358,11.3187142 31.640625,11.6399148 30.9934301,12.0617898 L29.152521,10.2304694 L27.421875,11.9659091 L29.2627841,13.8020245 C28.8313216,14.4492194 28.5149148,15.1683239 28.356712,15.9545455 L25.7727273,15.9545455 L25.7727273,18.4090909 L28.3710944,18.4090909 C28.5340909,19.1713426 28.8409091,19.876066 29.2627841,20.5088785 L27.421875,22.3401989 L29.152521,24.0804335 L30.9934301,22.2443182 C31.640625,22.6709869 32.3549358,22.9921875 33.1363636,23.1503903 L33.1363636,25.7151989 L35.5909091,25.7151989 L35.5909091,23.1503903 C36.372337,22.9921875 37.0866477,22.6709869 37.7338426,22.2443182 L39.5747517,24.0804335 L41.3053977,22.3401989 L39.4644886,20.5088785 C39.8863636,19.876066 40.1931818,19.1713426 40.3561796,18.4090909 L42.9545455,18.4090909 L42.9545455,15.9545455 L40.3705608,15.9545455 C40.212358,15.1683239 39.8959523,14.4492194 39.4644886,13.8020245 L41.3053977,11.9659091 L39.5747517,10.2304694 L37.7338426,12.0617898 C37.0866477,11.6399148 36.372337,11.3187142 35.5909091,11.1605114 L35.5909091,8.59090909 L33.1363636,8.59090909 Z M34.3636364,13.4856176 C36.415483,13.4856176 38.0454545,15.1203841 38.0454545,17.1578483 C38.0454545,19.1905188 36.415483,20.8204904 34.3636364,20.8204904 C32.3117898,20.8204904 30.6818182,19.1905188 30.6818182,17.1578483 C30.6818182,15.1203841 32.3117898,13.4856176 34.3636364,13.4856176 Z M18.4090909,18.4666193 L18.4090909,21.0314279 C17.627663,21.1896307 16.9037648,21.5012426 16.2613636,21.9279125 L14.4252483,20.1013846 L12.6946023,21.8416193 L14.521129,23.6633523 C14.1040489,24.291371 13.7924358,25.0056818 13.634233,25.7727273 L11.0454545,25.7727273 L11.0454545,28.2272727 L13.6198505,28.2272727 C13.7780546,29.0134943 14.0944602,29.7421875 14.521129,30.3941761 L12.6946023,32.2159091 L14.4252483,33.95135 L16.2613636,32.1248221 C16.9037648,32.5514921 17.627663,32.863104 18.4090909,33.0213068 L18.4090909,35.5909091 L20.8636364,35.5909091 L20.8636364,33.0213068 C21.6450642,32.863104 22.3689637,32.5514921 23.0113636,32.1248221 L24.847479,33.95135 L26.578125,32.2159091 L24.7515983,30.3941761 C25.178267,29.7421875 25.4946739,29.0134943 25.6528767,28.2272727 L28.2272727,28.2272727 L28.2272727,25.7727273 L25.6384943,25.7727273 C25.4802915,25.0056818 25.1686796,24.291371 24.7515983,23.6633523 L26.578125,21.8416193 L24.847479,20.1013846 L23.0113636,21.9279125 C22.3689637,21.5012426 21.6450642,21.1896307 20.8636364,21.0314279 L20.8636364,18.4666193 L18.4090909,18.4666193 Z M19.6363636,23.3613278 C21.6882102,23.3613278 23.3181818,24.9912994 23.3181818,27.0239699 C23.3181818,29.0614353 21.6882102,30.6962006 19.6363636,30.6962006 C17.584517,30.6962006 15.9545455,29.0614353 15.9545455,27.0239699 C15.9545455,24.9912994 17.584517,23.3613278 19.6363636,23.3613278 Z" id="icon-creative"></path>
                    </g>
                </g>
            </g>
        </g>
    </g>
</svg>