<?xml version="1.0" encoding="UTF-8"?>
<svg width="65px" height="62px" viewBox="0 0 65 62" version="1.1" xmlns="http://www.w3.org/2000/svg" xmlns:xlink="http://www.w3.org/1999/xlink">
    <title>icon-logical</title>
    <g id="Coding" stroke="none" stroke-width="1" fill="none" fill-rule="evenodd">
        <g id="Screen01" transform="translate(-707.000000, -3826.000000)" fill="#000000" fill-rule="nonzero">
            <g id="Group-11" transform="translate(349.000000, 3746.000000)">
                <g id="Group-23" transform="translate(140.000000, 80.000000)">
                    <g id="icons8-thinking_male" transform="translate(218.000000, 0.000000)">
                        <path d="M24.726563,0 C15.410156,0 7.539063,9.960938 7.210938,10.386719 L6.3125,11.542969 L7.71875,11.957031 C7.742188,11.96875 10.277344,12.761719 10.277344,16.75 C10.277344,19.570313 10.699219,21.808594 10.914063,22.765625 C10.355469,23.273438 10,23.996094 10,24.800781 C10,25.359375 10.214844,26.074219 10.417969,26.765625 C10.5,27.042969 10.613281,27.425781 10.625,27.5 C10.625,28.820313 11.683594,29.90625 13.015625,29.996094 C13.199219,33.867188 15.085938,37.332031 18,39.605469 L18,43.25 C16.558594,43.6875 13.097656,44.804688 9.574219,46.46875 C7.273438,47.554688 4.960938,48.863281 3.160156,50.414063 C1.359375,51.964844 0,53.820313 0,56 L0,62 L52,62 L52,56 C52,53.820313 50.640625,51.964844 48.839844,50.414063 C47.039063,48.863281 44.726563,47.554688 42.425781,46.46875 C38.902344,44.804688 35.441406,43.6875 34,43.25 L34,39.605469 C36.914063,37.332031 38.800781,33.867188 38.984375,29.996094 C40.320313,29.90625 41.375,28.824219 41.375,27.542969 C41.382813,27.46875 41.429688,27.289063 41.484375,27.097656 C40.878906,26.628906 40.335938,26.082031 39.871094,25.476563 C39.804688,25.730469 39.722656,25.996094 39.664063,26.195313 C39.472656,26.839844 39.375,27.1875 39.375,27.5 C39.375,27.773438 39.121094,28 38.8125,28 L37,28 L37,29.367188 C37,34.699219 33.191406,39.25 27.941406,40.1875 L27.65625,40.234375 L27.441406,40.429688 C26.636719,41.164063 25.363281,41.164063 24.554688,40.429688 L24.34375,40.234375 L24.058594,40.1875 C18.8125,39.25 15,34.699219 15,29.367188 L15,28 L13.1875,28 C12.875,28 12.625,27.773438 12.625,27.5 C12.625,27.1875 12.527344,26.839844 12.335938,26.195313 C12.210938,25.773438 12,25.066406 12,24.800781 C12,24.402344 12.320313,24.070313 12.738281,24.011719 C12.851563,24.0625 13.074219,24.179688 13.496094,24.421875 L15,25.308594 L15,22.050781 C15,17.128906 20.296875,15 23,15 C28.652344,15 31.9375,13.054688 33.15625,12.160156 C33.628906,12.402344 34.386719,12.875 35.109375,13.671875 C35.21875,12.910156 35.429688,12.175781 35.722656,11.484375 C34.863281,10.75 33.988281,10.277344 33.316406,10.050781 L32.75,9.863281 L32.3125,10.273438 C32.285156,10.300781 29.328125,13 23,13 C19.519531,13 13.03125,15.644531 13,22.003906 C12.957031,22 12.914063,22 12.875,22 C12.847656,22 12.824219,22.007813 12.796875,22.007813 C12.59375,21.011719 12.273438,19.085938 12.273438,16.75 C12.273438,13.277344 10.730469,11.527344 9.5625,10.703125 C11.695313,8.304688 17.941406,2 24.726563,2 C30.273438,2 32.035156,5.308594 32.105469,5.441406 L32.378906,6 L33,6 C34.398438,6 36.515625,6.566406 38.058594,8.261719 C38.398438,7.960938 38.75,7.679688 39.136719,7.433594 C39.183594,7.179688 39.238281,6.929688 39.304688,6.683594 C37.621094,4.972656 35.429688,4.160156 33.574219,4.019531 C32.738281,2.8125 30.214844,0 24.726563,0 Z M48,3 C44.699219,3 42,5.699219 42,9 C42,9.152344 42.039063,9.285156 42.050781,9.433594 C39.714844,10.253906 38,12.394531 38,15 C38,17.167969 39.269531,18.929688 41,19.984375 C41,19.992188 41,19.992188 41,20 C41,23.300781 43.699219,26 47,26 C48.640625,26 50.03125,25.226563 51.109375,24.15625 C51.972656,24.648438 52.929688,25 54,25 C56.636719,25 58.8125,23.253906 59.613281,20.875 C62.613281,20.550781 65,18.085938 65,15 C65,11.992188 62.726563,9.589844 59.832031,9.167969 C59.410156,6.273438 57.007813,4 54,4 C53.214844,4 52.535156,4.277344 51.863281,4.550781 C50.816406,3.636719 49.503906,3 48,3 Z M48,5 C49.160156,5 50.1875,5.496094 50.921875,6.289063 L51.449219,6.855469 L52.125,6.488281 C52.703125,6.179688 53.332031,6 54,6 C56.21875,6 58,7.78125 58,10 L58,11 L59,11 C61.21875,11 63,12.78125 63,15 C63,17.21875 61.21875,19 59,19 C59.140625,19 59.121094,18.996094 58.929688,18.988281 L58.085938,18.964844 L57.921875,19.792969 C57.554688,21.621094 55.949219,23 54,23 C53.097656,23 52.28125,22.691406 51.601563,22.175781 L50.796875,21.570313 L50.199219,22.375 C49.460938,23.363281 48.316406,24 47,24 C44.78125,24 43,22.21875 43,20 C43,20.007813 43.019531,19.910156 43.035156,19.671875 L43.089844,18.960938 L42.433594,18.679688 C41.003906,18.070313 40,16.660156 40,15 C40,13.019531 41.421875,11.40625 43.300781,11.074219 L44.332031,10.890625 L44.105469,9.871094 C44.039063,9.578125 44,9.289063 44,9 C44,6.78125 45.78125,5 48,5 Z M48,14 C47.449219,14 47,14.449219 47,15 C47,15.550781 47.449219,16 48,16 C48.550781,16 49,15.550781 49,15 C49,14.449219 48.550781,14 48,14 Z M52,14 C51.449219,14 51,14.449219 51,15 C51,15.550781 51.449219,16 52,16 C52.550781,16 53,15.550781 53,15 C53,14.449219 52.550781,14 52,14 Z M56,14 C55.449219,14 55,14.449219 55,15 C55,15.550781 55.449219,16 56,16 C56.550781,16 57,15.550781 57,15 C57,14.449219 56.550781,14 56,14 Z M20.5,24 C19.671875,24 19,24.671875 19,25.5 C19,26.328125 19.671875,27 20.5,27 C21.328125,27 22,26.328125 22,25.5 C22,24.671875 21.328125,24 20.5,24 Z M31.5,24 C30.671875,24 30,24.671875 30,25.5 C30,26.328125 30.671875,27 31.5,27 C32.328125,27 33,26.328125 33,25.5 C33,24.671875 32.328125,24 31.5,24 Z M20,40.886719 C21.0625,41.4375 22.214844,41.859375 23.4375,42.105469 C24.175781,42.683594 25.070313,43 26,43 C26.929688,43 27.828125,42.683594 28.5625,42.105469 C29.785156,41.859375 30.9375,41.4375 32,40.886719 L32,46.6875 C31.878906,46.929688 30.296875,50 26,50 C21.703125,50 20.121094,46.929688 20,46.6875 L20,40.886719 Z M18,45.355469 L18,47.234375 L18.105469,47.449219 C18.105469,47.449219 20.464844,52 26,52 C31.535156,52 33.894531,47.449219 33.894531,47.449219 L34,47.234375 L34,45.355469 C35.605469,45.859375 38.546875,46.851563 41.574219,48.28125 C43.773438,49.320313 45.960938,50.574219 47.535156,51.929688 C49.109375,53.285156 50,54.679688 50,56 L50,60 L2,60 L2,56 C2,54.679688 2.890625,53.285156 4.464844,51.929688 C6.039063,50.574219 8.226563,49.320313 10.425781,48.28125 C13.453125,46.851563 16.394531,45.859375 18,45.355469 Z M6,56 C5.449219,56 5,56.449219 5,57 C5,57.550781 5.449219,58 6,58 C6.550781,58 7,57.550781 7,57 C7,56.449219 6.550781,56 6,56 Z M10,56 C9.449219,56 9,56.449219 9,57 C9,57.550781 9.449219,58 10,58 C10.550781,58 11,57.550781 11,57 C11,56.449219 10.550781,56 10,56 Z M14,56 C13.449219,56 13,56.449219 13,57 C13,57.550781 13.449219,58 14,58 C14.550781,58 15,57.550781 15,57 C15,56.449219 14.550781,56 14,56 Z M18,56 C17.449219,56 17,56.449219 17,57 C17,57.550781 17.449219,58 18,58 C18.550781,58 19,57.550781 19,57 C19,56.449219 18.550781,56 18,56 Z M22,56 C21.449219,56 21,56.449219 21,57 C21,57.550781 21.449219,58 22,58 C22.550781,58 23,57.550781 23,57 C23,56.449219 22.550781,56 22,56 Z M26,56 C25.449219,56 25,56.449219 25,57 C25,57.550781 25.449219,58 26,58 C26.550781,58 27,57.550781 27,57 C27,56.449219 26.550781,56 26,56 Z M30,56 C29.449219,56 29,56.449219 29,57 C29,57.550781 29.449219,58 30,58 C30.550781,58 31,57.550781 31,57 C31,56.449219 30.550781,56 30,56 Z M34,56 C33.449219,56 33,56.449219 33,57 C33,57.550781 33.449219,58 34,58 C34.550781,58 35,57.550781 35,57 C35,56.449219 34.550781,56 34,56 Z M38,56 C37.449219,56 37,56.449219 37,57 C37,57.550781 37.449219,58 38,58 C38.550781,58 39,57.550781 39,57 C39,56.449219 38.550781,56 38,56 Z M42,56 C41.449219,56 41,56.449219 41,57 C41,57.550781 41.449219,58 42,58 C42.550781,58 43,57.550781 43,57 C43,56.449219 42.550781,56 42,56 Z M46,56 C45.449219,56 45,56.449219 45,57 C45,57.550781 45.449219,58 46,58 C46.550781,58 47,57.550781 47,57 C47,56.449219 46.550781,56 46,56 Z" id="icon-logical"></path>
                    </g>
                </g>
            </g>
        </g>
    </g>
</svg>