<?xml version="1.0" encoding="UTF-8"?>
<svg width="238px" height="492px" viewBox="0 0 238 492" version="1.1" xmlns="http://www.w3.org/2000/svg" xmlns:xlink="http://www.w3.org/1999/xlink">
    <title>pattern-bg-blue</title>
    <g id="Coding" stroke="none" stroke-width="1" fill="none" fill-rule="evenodd">
        <g id="Screen01" transform="translate(0.000000, -730.000000)" fill="#105CF8" fill-rule="nonzero">
            <g id="Group-7" transform="translate(0.000000, 162.000000)">
                <g id="pattern-bg-blue" transform="translate(0.000000, 568.000000)">
                    <path d="M231.653333,231.653333 L231.653333,228.48 L234.826667,228.48 L234.826667,231.653333 L238,231.653333 L238,234.826667 L234.826667,234.826667 L234.826667,238 L231.653333,238 L231.653333,234.826667 L228.48,234.826667 L228.48,231.653333 L231.653333,231.653333 Z M206.266667,231.653333 L206.266667,228.48 L209.44,228.48 L209.44,231.653333 L212.613333,231.653333 L212.613333,234.826667 L209.44,234.826667 L209.44,238 L206.266667,238 L206.266667,234.826667 L203.093333,234.826667 L203.093333,231.653333 L206.266667,231.653333 Z M180.88,231.653333 L180.88,228.48 L184.053333,228.48 L184.053333,231.653333 L187.226667,231.653333 L187.226667,234.826667 L184.053333,234.826667 L184.053333,238 L180.88,238 L180.88,234.826667 L177.706667,234.826667 L177.706667,231.653333 L180.88,231.653333 Z M155.493333,231.653333 L155.493333,228.48 L158.666667,228.48 L158.666667,231.653333 L161.84,231.653333 L161.84,234.826667 L158.666667,234.826667 L158.666667,238 L155.493333,238 L155.493333,234.826667 L152.32,234.826667 L152.32,231.653333 L155.493333,231.653333 Z M130.106667,231.653333 L130.106667,228.48 L133.28,228.48 L133.28,231.653333 L136.453333,231.653333 L136.453333,234.826667 L133.28,234.826667 L133.28,238 L130.106667,238 L130.106667,234.826667 L126.933333,234.826667 L126.933333,231.653333 L130.106667,231.653333 Z M104.72,231.653333 L104.72,228.48 L107.893333,228.48 L107.893333,231.653333 L111.066667,231.653333 L111.066667,234.826667 L107.893333,234.826667 L107.893333,238 L104.72,238 L104.72,234.826667 L101.546667,234.826667 L101.546667,231.653333 L104.72,231.653333 Z M79.3333333,231.653333 L79.3333333,228.48 L82.5066667,228.48 L82.5066667,231.653333 L85.68,231.653333 L85.68,234.826667 L82.5066667,234.826667 L82.5066667,238 L79.3333333,238 L79.3333333,234.826667 L76.16,234.826667 L76.16,231.653333 L79.3333333,231.653333 Z M53.9466667,231.653333 L53.9466667,228.48 L57.12,228.48 L57.12,231.653333 L60.2933333,231.653333 L60.2933333,234.826667 L57.12,234.826667 L57.12,238 L53.9466667,238 L53.9466667,234.826667 L50.7733333,234.826667 L50.7733333,231.653333 L53.9466667,231.653333 Z M28.56,231.653333 L28.56,228.48 L31.7333333,228.48 L31.7333333,231.653333 L34.9066667,231.653333 L34.9066667,234.826667 L31.7333333,234.826667 L31.7333333,238 L28.56,238 L28.56,234.826667 L25.3866667,234.826667 L25.3866667,231.653333 L28.56,231.653333 Z M3.17333333,231.653333 L3.17333333,228.48 L6.34666667,228.48 L6.34666667,231.653333 L9.52,231.653333 L9.52,234.826667 L6.34666667,234.826667 L6.34666667,238 L3.17333333,238 L3.17333333,234.826667 L0,234.826667 L0,231.653333 L3.17333333,231.653333 Z M231.653333,206.266667 L231.653333,203.093333 L234.826667,203.093333 L234.826667,206.266667 L238,206.266667 L238,209.44 L234.826667,209.44 L234.826667,212.613333 L231.653333,212.613333 L231.653333,209.44 L228.48,209.44 L228.48,206.266667 L231.653333,206.266667 Z M206.266667,206.266667 L206.266667,203.093333 L209.44,203.093333 L209.44,206.266667 L212.613333,206.266667 L212.613333,209.44 L209.44,209.44 L209.44,212.613333 L206.266667,212.613333 L206.266667,209.44 L203.093333,209.44 L203.093333,206.266667 L206.266667,206.266667 Z M180.88,206.266667 L180.88,203.093333 L184.053333,203.093333 L184.053333,206.266667 L187.226667,206.266667 L187.226667,209.44 L184.053333,209.44 L184.053333,212.613333 L180.88,212.613333 L180.88,209.44 L177.706667,209.44 L177.706667,206.266667 L180.88,206.266667 Z M155.493333,206.266667 L155.493333,203.093333 L158.666667,203.093333 L158.666667,206.266667 L161.84,206.266667 L161.84,209.44 L158.666667,209.44 L158.666667,212.613333 L155.493333,212.613333 L155.493333,209.44 L152.32,209.44 L152.32,206.266667 L155.493333,206.266667 Z M130.106667,206.266667 L130.106667,203.093333 L133.28,203.093333 L133.28,206.266667 L136.453333,206.266667 L136.453333,209.44 L133.28,209.44 L133.28,212.613333 L130.106667,212.613333 L130.106667,209.44 L126.933333,209.44 L126.933333,206.266667 L130.106667,206.266667 Z M104.72,206.266667 L104.72,203.093333 L107.893333,203.093333 L107.893333,206.266667 L111.066667,206.266667 L111.066667,209.44 L107.893333,209.44 L107.893333,212.613333 L104.72,212.613333 L104.72,209.44 L101.546667,209.44 L101.546667,206.266667 L104.72,206.266667 Z M79.3333333,206.266667 L79.3333333,203.093333 L82.5066667,203.093333 L82.5066667,206.266667 L85.68,206.266667 L85.68,209.44 L82.5066667,209.44 L82.5066667,212.613333 L79.3333333,212.613333 L79.3333333,209.44 L76.16,209.44 L76.16,206.266667 L79.3333333,206.266667 Z M53.9466667,206.266667 L53.9466667,203.093333 L57.12,203.093333 L57.12,206.266667 L60.2933333,206.266667 L60.2933333,209.44 L57.12,209.44 L57.12,212.613333 L53.9466667,212.613333 L53.9466667,209.44 L50.7733333,209.44 L50.7733333,206.266667 L53.9466667,206.266667 Z M28.56,206.266667 L28.56,203.093333 L31.7333333,203.093333 L31.7333333,206.266667 L34.9066667,206.266667 L34.9066667,209.44 L31.7333333,209.44 L31.7333333,212.613333 L28.56,212.613333 L28.56,209.44 L25.3866667,209.44 L25.3866667,206.266667 L28.56,206.266667 Z M3.17333333,206.266667 L3.17333333,203.093333 L6.34666667,203.093333 L6.34666667,206.266667 L9.52,206.266667 L9.52,209.44 L6.34666667,209.44 L6.34666667,212.613333 L3.17333333,212.613333 L3.17333333,209.44 L0,209.44 L0,206.266667 L3.17333333,206.266667 Z M231.653333,180.88 L231.653333,177.706667 L234.826667,177.706667 L234.826667,180.88 L238,180.88 L238,184.053333 L234.826667,184.053333 L234.826667,187.226667 L231.653333,187.226667 L231.653333,184.053333 L228.48,184.053333 L228.48,180.88 L231.653333,180.88 Z M206.266667,180.88 L206.266667,177.706667 L209.44,177.706667 L209.44,180.88 L212.613333,180.88 L212.613333,184.053333 L209.44,184.053333 L209.44,187.226667 L206.266667,187.226667 L206.266667,184.053333 L203.093333,184.053333 L203.093333,180.88 L206.266667,180.88 Z M180.88,180.88 L180.88,177.706667 L184.053333,177.706667 L184.053333,180.88 L187.226667,180.88 L187.226667,184.053333 L184.053333,184.053333 L184.053333,187.226667 L180.88,187.226667 L180.88,184.053333 L177.706667,184.053333 L177.706667,180.88 L180.88,180.88 Z M155.493333,180.88 L155.493333,177.706667 L158.666667,177.706667 L158.666667,180.88 L161.84,180.88 L161.84,184.053333 L158.666667,184.053333 L158.666667,187.226667 L155.493333,187.226667 L155.493333,184.053333 L152.32,184.053333 L152.32,180.88 L155.493333,180.88 Z M130.106667,180.88 L130.106667,177.706667 L133.28,177.706667 L133.28,180.88 L136.453333,180.88 L136.453333,184.053333 L133.28,184.053333 L133.28,187.226667 L130.106667,187.226667 L130.106667,184.053333 L126.933333,184.053333 L126.933333,180.88 L130.106667,180.88 Z M104.72,180.88 L104.72,177.706667 L107.893333,177.706667 L107.893333,180.88 L111.066667,180.88 L111.066667,184.053333 L107.893333,184.053333 L107.893333,187.226667 L104.72,187.226667 L104.72,184.053333 L101.546667,184.053333 L101.546667,180.88 L104.72,180.88 Z M79.3333333,180.88 L79.3333333,177.706667 L82.5066667,177.706667 L82.5066667,180.88 L85.68,180.88 L85.68,184.053333 L82.5066667,184.053333 L82.5066667,187.226667 L79.3333333,187.226667 L79.3333333,184.053333 L76.16,184.053333 L76.16,180.88 L79.3333333,180.88 Z M53.9466667,180.88 L53.9466667,177.706667 L57.12,177.706667 L57.12,180.88 L60.2933333,180.88 L60.2933333,184.053333 L57.12,184.053333 L57.12,187.226667 L53.9466667,187.226667 L53.9466667,184.053333 L50.7733333,184.053333 L50.7733333,180.88 L53.9466667,180.88 Z M28.56,180.88 L28.56,177.706667 L31.7333333,177.706667 L31.7333333,180.88 L34.9066667,180.88 L34.9066667,184.053333 L31.7333333,184.053333 L31.7333333,187.226667 L28.56,187.226667 L28.56,184.053333 L25.3866667,184.053333 L25.3866667,180.88 L28.56,180.88 Z M3.17333333,180.88 L3.17333333,177.706667 L6.34666667,177.706667 L6.34666667,180.88 L9.52,180.88 L9.52,184.053333 L6.34666667,184.053333 L6.34666667,187.226667 L3.17333333,187.226667 L3.17333333,184.053333 L0,184.053333 L0,180.88 L3.17333333,180.88 Z M231.653333,155.493333 L231.653333,152.32 L234.826667,152.32 L234.826667,155.493333 L238,155.493333 L238,158.666667 L234.826667,158.666667 L234.826667,161.84 L231.653333,161.84 L231.653333,158.666667 L228.48,158.666667 L228.48,155.493333 L231.653333,155.493333 Z M206.266667,155.493333 L206.266667,152.32 L209.44,152.32 L209.44,155.493333 L212.613333,155.493333 L212.613333,158.666667 L209.44,158.666667 L209.44,161.84 L206.266667,161.84 L206.266667,158.666667 L203.093333,158.666667 L203.093333,155.493333 L206.266667,155.493333 Z M180.88,155.493333 L180.88,152.32 L184.053333,152.32 L184.053333,155.493333 L187.226667,155.493333 L187.226667,158.666667 L184.053333,158.666667 L184.053333,161.84 L180.88,161.84 L180.88,158.666667 L177.706667,158.666667 L177.706667,155.493333 L180.88,155.493333 Z M155.493333,155.493333 L155.493333,152.32 L158.666667,152.32 L158.666667,155.493333 L161.84,155.493333 L161.84,158.666667 L158.666667,158.666667 L158.666667,161.84 L155.493333,161.84 L155.493333,158.666667 L152.32,158.666667 L152.32,155.493333 L155.493333,155.493333 Z M130.106667,155.493333 L130.106667,152.32 L133.28,152.32 L133.28,155.493333 L136.453333,155.493333 L136.453333,158.666667 L133.28,158.666667 L133.28,161.84 L130.106667,161.84 L130.106667,158.666667 L126.933333,158.666667 L126.933333,155.493333 L130.106667,155.493333 Z M104.72,155.493333 L104.72,152.32 L107.893333,152.32 L107.893333,155.493333 L111.066667,155.493333 L111.066667,158.666667 L107.893333,158.666667 L107.893333,161.84 L104.72,161.84 L104.72,158.666667 L101.546667,158.666667 L101.546667,155.493333 L104.72,155.493333 Z M79.3333333,155.493333 L79.3333333,152.32 L82.5066667,152.32 L82.5066667,155.493333 L85.68,155.493333 L85.68,158.666667 L82.5066667,158.666667 L82.5066667,161.84 L79.3333333,161.84 L79.3333333,158.666667 L76.16,158.666667 L76.16,155.493333 L79.3333333,155.493333 Z M53.9466667,155.493333 L53.9466667,152.32 L57.12,152.32 L57.12,155.493333 L60.2933333,155.493333 L60.2933333,158.666667 L57.12,158.666667 L57.12,161.84 L53.9466667,161.84 L53.9466667,158.666667 L50.7733333,158.666667 L50.7733333,155.493333 L53.9466667,155.493333 Z M28.56,155.493333 L28.56,152.32 L31.7333333,152.32 L31.7333333,155.493333 L34.9066667,155.493333 L34.9066667,158.666667 L31.7333333,158.666667 L31.7333333,161.84 L28.56,161.84 L28.56,158.666667 L25.3866667,158.666667 L25.3866667,155.493333 L28.56,155.493333 Z M3.17333333,155.493333 L3.17333333,152.32 L6.34666667,152.32 L6.34666667,155.493333 L9.52,155.493333 L9.52,158.666667 L6.34666667,158.666667 L6.34666667,161.84 L3.17333333,161.84 L3.17333333,158.666667 L0,158.666667 L0,155.493333 L3.17333333,155.493333 Z M231.653333,130.106667 L231.653333,126.933333 L234.826667,126.933333 L234.826667,130.106667 L238,130.106667 L238,133.28 L234.826667,133.28 L234.826667,136.453333 L231.653333,136.453333 L231.653333,133.28 L228.48,133.28 L228.48,130.106667 L231.653333,130.106667 Z M206.266667,130.106667 L206.266667,126.933333 L209.44,126.933333 L209.44,130.106667 L212.613333,130.106667 L212.613333,133.28 L209.44,133.28 L209.44,136.453333 L206.266667,136.453333 L206.266667,133.28 L203.093333,133.28 L203.093333,130.106667 L206.266667,130.106667 Z M180.88,130.106667 L180.88,126.933333 L184.053333,126.933333 L184.053333,130.106667 L187.226667,130.106667 L187.226667,133.28 L184.053333,133.28 L184.053333,136.453333 L180.88,136.453333 L180.88,133.28 L177.706667,133.28 L177.706667,130.106667 L180.88,130.106667 Z M155.493333,130.106667 L155.493333,126.933333 L158.666667,126.933333 L158.666667,130.106667 L161.84,130.106667 L161.84,133.28 L158.666667,133.28 L158.666667,136.453333 L155.493333,136.453333 L155.493333,133.28 L152.32,133.28 L152.32,130.106667 L155.493333,130.106667 Z M130.106667,130.106667 L130.106667,126.933333 L133.28,126.933333 L133.28,130.106667 L136.453333,130.106667 L136.453333,133.28 L133.28,133.28 L133.28,136.453333 L130.106667,136.453333 L130.106667,133.28 L126.933333,133.28 L126.933333,130.106667 L130.106667,130.106667 Z M104.72,130.106667 L104.72,126.933333 L107.893333,126.933333 L107.893333,130.106667 L111.066667,130.106667 L111.066667,133.28 L107.893333,133.28 L107.893333,136.453333 L104.72,136.453333 L104.72,133.28 L101.546667,133.28 L101.546667,130.106667 L104.72,130.106667 Z M79.3333333,130.106667 L79.3333333,126.933333 L82.5066667,126.933333 L82.5066667,130.106667 L85.68,130.106667 L85.68,133.28 L82.5066667,133.28 L82.5066667,136.453333 L79.3333333,136.453333 L79.3333333,133.28 L76.16,133.28 L76.16,130.106667 L79.3333333,130.106667 Z M53.9466667,130.106667 L53.9466667,126.933333 L57.12,126.933333 L57.12,130.106667 L60.2933333,130.106667 L60.2933333,133.28 L57.12,133.28 L57.12,136.453333 L53.9466667,136.453333 L53.9466667,133.28 L50.7733333,133.28 L50.7733333,130.106667 L53.9466667,130.106667 Z M28.56,130.106667 L28.56,126.933333 L31.7333333,126.933333 L31.7333333,130.106667 L34.9066667,130.106667 L34.9066667,133.28 L31.7333333,133.28 L31.7333333,136.453333 L28.56,136.453333 L28.56,133.28 L25.3866667,133.28 L25.3866667,130.106667 L28.56,130.106667 Z M3.17333333,130.106667 L3.17333333,126.933333 L6.34666667,126.933333 L6.34666667,130.106667 L9.52,130.106667 L9.52,133.28 L6.34666667,133.28 L6.34666667,136.453333 L3.17333333,136.453333 L3.17333333,133.28 L0,133.28 L0,130.106667 L3.17333333,130.106667 Z M231.653333,104.72 L231.653333,101.546667 L234.826667,101.546667 L234.826667,104.72 L238,104.72 L238,107.893333 L234.826667,107.893333 L234.826667,111.066667 L231.653333,111.066667 L231.653333,107.893333 L228.48,107.893333 L228.48,104.72 L231.653333,104.72 Z M206.266667,104.72 L206.266667,101.546667 L209.44,101.546667 L209.44,104.72 L212.613333,104.72 L212.613333,107.893333 L209.44,107.893333 L209.44,111.066667 L206.266667,111.066667 L206.266667,107.893333 L203.093333,107.893333 L203.093333,104.72 L206.266667,104.72 Z M180.88,104.72 L180.88,101.546667 L184.053333,101.546667 L184.053333,104.72 L187.226667,104.72 L187.226667,107.893333 L184.053333,107.893333 L184.053333,111.066667 L180.88,111.066667 L180.88,107.893333 L177.706667,107.893333 L177.706667,104.72 L180.88,104.72 Z M155.493333,104.72 L155.493333,101.546667 L158.666667,101.546667 L158.666667,104.72 L161.84,104.72 L161.84,107.893333 L158.666667,107.893333 L158.666667,111.066667 L155.493333,111.066667 L155.493333,107.893333 L152.32,107.893333 L152.32,104.72 L155.493333,104.72 Z M130.106667,104.72 L130.106667,101.546667 L133.28,101.546667 L133.28,104.72 L136.453333,104.72 L136.453333,107.893333 L133.28,107.893333 L133.28,111.066667 L130.106667,111.066667 L130.106667,107.893333 L126.933333,107.893333 L126.933333,104.72 L130.106667,104.72 Z M104.72,104.72 L104.72,101.546667 L107.893333,101.546667 L107.893333,104.72 L111.066667,104.72 L111.066667,107.893333 L107.893333,107.893333 L107.893333,111.066667 L104.72,111.066667 L104.72,107.893333 L101.546667,107.893333 L101.546667,104.72 L104.72,104.72 Z M79.3333333,104.72 L79.3333333,101.546667 L82.5066667,101.546667 L82.5066667,104.72 L85.68,104.72 L85.68,107.893333 L82.5066667,107.893333 L82.5066667,111.066667 L79.3333333,111.066667 L79.3333333,107.893333 L76.16,107.893333 L76.16,104.72 L79.3333333,104.72 Z M53.9466667,104.72 L53.9466667,101.546667 L57.12,101.546667 L57.12,104.72 L60.2933333,104.72 L60.2933333,107.893333 L57.12,107.893333 L57.12,111.066667 L53.9466667,111.066667 L53.9466667,107.893333 L50.7733333,107.893333 L50.7733333,104.72 L53.9466667,104.72 Z M28.56,104.72 L28.56,101.546667 L31.7333333,101.546667 L31.7333333,104.72 L34.9066667,104.72 L34.9066667,107.893333 L31.7333333,107.893333 L31.7333333,111.066667 L28.56,111.066667 L28.56,107.893333 L25.3866667,107.893333 L25.3866667,104.72 L28.56,104.72 Z M3.17333333,104.72 L3.17333333,101.546667 L6.34666667,101.546667 L6.34666667,104.72 L9.52,104.72 L9.52,107.893333 L6.34666667,107.893333 L6.34666667,111.066667 L3.17333333,111.066667 L3.17333333,107.893333 L0,107.893333 L0,104.72 L3.17333333,104.72 Z M231.653333,79.3333333 L231.653333,76.16 L234.826667,76.16 L234.826667,79.3333333 L238,79.3333333 L238,82.5066667 L234.826667,82.5066667 L234.826667,85.68 L231.653333,85.68 L231.653333,82.5066667 L228.48,82.5066667 L228.48,79.3333333 L231.653333,79.3333333 Z M206.266667,79.3333333 L206.266667,76.16 L209.44,76.16 L209.44,79.3333333 L212.613333,79.3333333 L212.613333,82.5066667 L209.44,82.5066667 L209.44,85.68 L206.266667,85.68 L206.266667,82.5066667 L203.093333,82.5066667 L203.093333,79.3333333 L206.266667,79.3333333 Z M180.88,79.3333333 L180.88,76.16 L184.053333,76.16 L184.053333,79.3333333 L187.226667,79.3333333 L187.226667,82.5066667 L184.053333,82.5066667 L184.053333,85.68 L180.88,85.68 L180.88,82.5066667 L177.706667,82.5066667 L177.706667,79.3333333 L180.88,79.3333333 Z M155.493333,79.3333333 L155.493333,76.16 L158.666667,76.16 L158.666667,79.3333333 L161.84,79.3333333 L161.84,82.5066667 L158.666667,82.5066667 L158.666667,85.68 L155.493333,85.68 L155.493333,82.5066667 L152.32,82.5066667 L152.32,79.3333333 L155.493333,79.3333333 Z M130.106667,79.3333333 L130.106667,76.16 L133.28,76.16 L133.28,79.3333333 L136.453333,79.3333333 L136.453333,82.5066667 L133.28,82.5066667 L133.28,85.68 L130.106667,85.68 L130.106667,82.5066667 L126.933333,82.5066667 L126.933333,79.3333333 L130.106667,79.3333333 Z M104.72,79.3333333 L104.72,76.16 L107.893333,76.16 L107.893333,79.3333333 L111.066667,79.3333333 L111.066667,82.5066667 L107.893333,82.5066667 L107.893333,85.68 L104.72,85.68 L104.72,82.5066667 L101.546667,82.5066667 L101.546667,79.3333333 L104.72,79.3333333 Z M79.3333333,79.3333333 L79.3333333,76.16 L82.5066667,76.16 L82.5066667,79.3333333 L85.68,79.3333333 L85.68,82.5066667 L82.5066667,82.5066667 L82.5066667,85.68 L79.3333333,85.68 L79.3333333,82.5066667 L76.16,82.5066667 L76.16,79.3333333 L79.3333333,79.3333333 Z M53.9466667,79.3333333 L53.9466667,76.16 L57.12,76.16 L57.12,79.3333333 L60.2933333,79.3333333 L60.2933333,82.5066667 L57.12,82.5066667 L57.12,85.68 L53.9466667,85.68 L53.9466667,82.5066667 L50.7733333,82.5066667 L50.7733333,79.3333333 L53.9466667,79.3333333 Z M28.56,79.3333333 L28.56,76.16 L31.7333333,76.16 L31.7333333,79.3333333 L34.9066667,79.3333333 L34.9066667,82.5066667 L31.7333333,82.5066667 L31.7333333,85.68 L28.56,85.68 L28.56,82.5066667 L25.3866667,82.5066667 L25.3866667,79.3333333 L28.56,79.3333333 Z M3.17333333,79.3333333 L3.17333333,76.16 L6.34666667,76.16 L6.34666667,79.3333333 L9.52,79.3333333 L9.52,82.5066667 L6.34666667,82.5066667 L6.34666667,85.68 L3.17333333,85.68 L3.17333333,82.5066667 L0,82.5066667 L0,79.3333333 L3.17333333,79.3333333 Z M231.653333,53.9466667 L231.653333,50.7733333 L234.826667,50.7733333 L234.826667,53.9466667 L238,53.9466667 L238,57.12 L234.826667,57.12 L234.826667,60.2933333 L231.653333,60.2933333 L231.653333,57.12 L228.48,57.12 L228.48,53.9466667 L231.653333,53.9466667 Z M206.266667,53.9466667 L206.266667,50.7733333 L209.44,50.7733333 L209.44,53.9466667 L212.613333,53.9466667 L212.613333,57.12 L209.44,57.12 L209.44,60.2933333 L206.266667,60.2933333 L206.266667,57.12 L203.093333,57.12 L203.093333,53.9466667 L206.266667,53.9466667 Z M180.88,53.9466667 L180.88,50.7733333 L184.053333,50.7733333 L184.053333,53.9466667 L187.226667,53.9466667 L187.226667,57.12 L184.053333,57.12 L184.053333,60.2933333 L180.88,60.2933333 L180.88,57.12 L177.706667,57.12 L177.706667,53.9466667 L180.88,53.9466667 Z M155.493333,53.9466667 L155.493333,50.7733333 L158.666667,50.7733333 L158.666667,53.9466667 L161.84,53.9466667 L161.84,57.12 L158.666667,57.12 L158.666667,60.2933333 L155.493333,60.2933333 L155.493333,57.12 L152.32,57.12 L152.32,53.9466667 L155.493333,53.9466667 Z M130.106667,53.9466667 L130.106667,50.7733333 L133.28,50.7733333 L133.28,53.9466667 L136.453333,53.9466667 L136.453333,57.12 L133.28,57.12 L133.28,60.2933333 L130.106667,60.2933333 L130.106667,57.12 L126.933333,57.12 L126.933333,53.9466667 L130.106667,53.9466667 Z M104.72,53.9466667 L104.72,50.7733333 L107.893333,50.7733333 L107.893333,53.9466667 L111.066667,53.9466667 L111.066667,57.12 L107.893333,57.12 L107.893333,60.2933333 L104.72,60.2933333 L104.72,57.12 L101.546667,57.12 L101.546667,53.9466667 L104.72,53.9466667 Z M79.3333333,53.9466667 L79.3333333,50.7733333 L82.5066667,50.7733333 L82.5066667,53.9466667 L85.68,53.9466667 L85.68,57.12 L82.5066667,57.12 L82.5066667,60.2933333 L79.3333333,60.2933333 L79.3333333,57.12 L76.16,57.12 L76.16,53.9466667 L79.3333333,53.9466667 Z M53.9466667,53.9466667 L53.9466667,50.7733333 L57.12,50.7733333 L57.12,53.9466667 L60.2933333,53.9466667 L60.2933333,57.12 L57.12,57.12 L57.12,60.2933333 L53.9466667,60.2933333 L53.9466667,57.12 L50.7733333,57.12 L50.7733333,53.9466667 L53.9466667,53.9466667 Z M28.56,53.9466667 L28.56,50.7733333 L31.7333333,50.7733333 L31.7333333,53.9466667 L34.9066667,53.9466667 L34.9066667,57.12 L31.7333333,57.12 L31.7333333,60.2933333 L28.56,60.2933333 L28.56,57.12 L25.3866667,57.12 L25.3866667,53.9466667 L28.56,53.9466667 Z M3.17333333,53.9466667 L3.17333333,50.7733333 L6.34666667,50.7733333 L6.34666667,53.9466667 L9.52,53.9466667 L9.52,57.12 L6.34666667,57.12 L6.34666667,60.2933333 L3.17333333,60.2933333 L3.17333333,57.12 L0,57.12 L0,53.9466667 L3.17333333,53.9466667 Z M231.653333,28.56 L231.653333,25.3866667 L234.826667,25.3866667 L234.826667,28.56 L238,28.56 L238,31.7333333 L234.826667,31.7333333 L234.826667,34.9066667 L231.653333,34.9066667 L231.653333,31.7333333 L228.48,31.7333333 L228.48,28.56 L231.653333,28.56 Z M206.266667,28.56 L206.266667,25.3866667 L209.44,25.3866667 L209.44,28.56 L212.613333,28.56 L212.613333,31.7333333 L209.44,31.7333333 L209.44,34.9066667 L206.266667,34.9066667 L206.266667,31.7333333 L203.093333,31.7333333 L203.093333,28.56 L206.266667,28.56 Z M180.88,28.56 L180.88,25.3866667 L184.053333,25.3866667 L184.053333,28.56 L187.226667,28.56 L187.226667,31.7333333 L184.053333,31.7333333 L184.053333,34.9066667 L180.88,34.9066667 L180.88,31.7333333 L177.706667,31.7333333 L177.706667,28.56 L180.88,28.56 Z M155.493333,28.56 L155.493333,25.3866667 L158.666667,25.3866667 L158.666667,28.56 L161.84,28.56 L161.84,31.7333333 L158.666667,31.7333333 L158.666667,34.9066667 L155.493333,34.9066667 L155.493333,31.7333333 L152.32,31.7333333 L152.32,28.56 L155.493333,28.56 Z M130.106667,28.56 L130.106667,25.3866667 L133.28,25.3866667 L133.28,28.56 L136.453333,28.56 L136.453333,31.7333333 L133.28,31.7333333 L133.28,34.9066667 L130.106667,34.9066667 L130.106667,31.7333333 L126.933333,31.7333333 L126.933333,28.56 L130.106667,28.56 Z M104.72,28.56 L104.72,25.3866667 L107.893333,25.3866667 L107.893333,28.56 L111.066667,28.56 L111.066667,31.7333333 L107.893333,31.7333333 L107.893333,34.9066667 L104.72,34.9066667 L104.72,31.7333333 L101.546667,31.7333333 L101.546667,28.56 L104.72,28.56 Z M79.3333333,28.56 L79.3333333,25.3866667 L82.5066667,25.3866667 L82.5066667,28.56 L85.68,28.56 L85.68,31.7333333 L82.5066667,31.7333333 L82.5066667,34.9066667 L79.3333333,34.9066667 L79.3333333,31.7333333 L76.16,31.7333333 L76.16,28.56 L79.3333333,28.56 Z M53.9466667,28.56 L53.9466667,25.3866667 L57.12,25.3866667 L57.12,28.56 L60.2933333,28.56 L60.2933333,31.7333333 L57.12,31.7333333 L57.12,34.9066667 L53.9466667,34.9066667 L53.9466667,31.7333333 L50.7733333,31.7333333 L50.7733333,28.56 L53.9466667,28.56 Z M28.56,28.56 L28.56,25.3866667 L31.7333333,25.3866667 L31.7333333,28.56 L34.9066667,28.56 L34.9066667,31.7333333 L31.7333333,31.7333333 L31.7333333,34.9066667 L28.56,34.9066667 L28.56,31.7333333 L25.3866667,31.7333333 L25.3866667,28.56 L28.56,28.56 Z M3.17333333,28.56 L3.17333333,25.3866667 L6.34666667,25.3866667 L6.34666667,28.56 L9.52,28.56 L9.52,31.7333333 L6.34666667,31.7333333 L6.34666667,34.9066667 L3.17333333,34.9066667 L3.17333333,31.7333333 L0,31.7333333 L0,28.56 L3.17333333,28.56 Z M231.653333,3.17333333 L231.653333,0 L234.826667,0 L234.826667,3.17333333 L238,3.17333333 L238,6.34666667 L234.826667,6.34666667 L234.826667,9.52 L231.653333,9.52 L231.653333,6.34666667 L228.48,6.34666667 L228.48,3.17333333 L231.653333,3.17333333 Z M206.266667,3.17333333 L206.266667,0 L209.44,0 L209.44,3.17333333 L212.613333,3.17333333 L212.613333,6.34666667 L209.44,6.34666667 L209.44,9.52 L206.266667,9.52 L206.266667,6.34666667 L203.093333,6.34666667 L203.093333,3.17333333 L206.266667,3.17333333 Z M180.88,3.17333333 L180.88,0 L184.053333,0 L184.053333,3.17333333 L187.226667,3.17333333 L187.226667,6.34666667 L184.053333,6.34666667 L184.053333,9.52 L180.88,9.52 L180.88,6.34666667 L177.706667,6.34666667 L177.706667,3.17333333 L180.88,3.17333333 Z M155.493333,3.17333333 L155.493333,0 L158.666667,0 L158.666667,3.17333333 L161.84,3.17333333 L161.84,6.34666667 L158.666667,6.34666667 L158.666667,9.52 L155.493333,9.52 L155.493333,6.34666667 L152.32,6.34666667 L152.32,3.17333333 L155.493333,3.17333333 Z M130.106667,3.17333333 L130.106667,0 L133.28,0 L133.28,3.17333333 L136.453333,3.17333333 L136.453333,6.34666667 L133.28,6.34666667 L133.28,9.52 L130.106667,9.52 L130.106667,6.34666667 L126.933333,6.34666667 L126.933333,3.17333333 L130.106667,3.17333333 Z M104.72,3.17333333 L104.72,0 L107.893333,0 L107.893333,3.17333333 L111.066667,3.17333333 L111.066667,6.34666667 L107.893333,6.34666667 L107.893333,9.52 L104.72,9.52 L104.72,6.34666667 L101.546667,6.34666667 L101.546667,3.17333333 L104.72,3.17333333 Z M79.3333333,3.17333333 L79.3333333,0 L82.5066667,0 L82.5066667,3.17333333 L85.68,3.17333333 L85.68,6.34666667 L82.5066667,6.34666667 L82.5066667,9.52 L79.3333333,9.52 L79.3333333,6.34666667 L76.16,6.34666667 L76.16,3.17333333 L79.3333333,3.17333333 Z M53.9466667,3.17333333 L53.9466667,0 L57.12,0 L57.12,3.17333333 L60.2933333,3.17333333 L60.2933333,6.34666667 L57.12,6.34666667 L57.12,9.52 L53.9466667,9.52 L53.9466667,6.34666667 L50.7733333,6.34666667 L50.7733333,3.17333333 L53.9466667,3.17333333 Z M28.56,3.17333333 L28.56,0 L31.7333333,0 L31.7333333,3.17333333 L34.9066667,3.17333333 L34.9066667,6.34666667 L31.7333333,6.34666667 L31.7333333,9.52 L28.56,9.52 L28.56,6.34666667 L25.3866667,6.34666667 L25.3866667,3.17333333 L28.56,3.17333333 Z M3.17333333,3.17333333 L3.17333333,0 L6.34666667,0 L6.34666667,3.17333333 L9.52,3.17333333 L9.52,6.34666667 L6.34666667,6.34666667 L6.34666667,9.52 L3.17333333,9.52 L3.17333333,6.34666667 L0,6.34666667 L0,3.17333333 L3.17333333,3.17333333 Z" id="Combined-Shape-Copy-6"></path>
                    <path d="M231.653333,485.653333 L231.653333,482.48 L234.826667,482.48 L234.826667,485.653333 L238,485.653333 L238,488.826667 L234.826667,488.826667 L234.826667,492 L231.653333,492 L231.653333,488.826667 L228.48,488.826667 L228.48,485.653333 L231.653333,485.653333 Z M206.266667,485.653333 L206.266667,482.48 L209.44,482.48 L209.44,485.653333 L212.613333,485.653333 L212.613333,488.826667 L209.44,488.826667 L209.44,492 L206.266667,492 L206.266667,488.826667 L203.093333,488.826667 L203.093333,485.653333 L206.266667,485.653333 Z M180.88,485.653333 L180.88,482.48 L184.053333,482.48 L184.053333,485.653333 L187.226667,485.653333 L187.226667,488.826667 L184.053333,488.826667 L184.053333,492 L180.88,492 L180.88,488.826667 L177.706667,488.826667 L177.706667,485.653333 L180.88,485.653333 Z M155.493333,485.653333 L155.493333,482.48 L158.666667,482.48 L158.666667,485.653333 L161.84,485.653333 L161.84,488.826667 L158.666667,488.826667 L158.666667,492 L155.493333,492 L155.493333,488.826667 L152.32,488.826667 L152.32,485.653333 L155.493333,485.653333 Z M130.106667,485.653333 L130.106667,482.48 L133.28,482.48 L133.28,485.653333 L136.453333,485.653333 L136.453333,488.826667 L133.28,488.826667 L133.28,492 L130.106667,492 L130.106667,488.826667 L126.933333,488.826667 L126.933333,485.653333 L130.106667,485.653333 Z M104.72,485.653333 L104.72,482.48 L107.893333,482.48 L107.893333,485.653333 L111.066667,485.653333 L111.066667,488.826667 L107.893333,488.826667 L107.893333,492 L104.72,492 L104.72,488.826667 L101.546667,488.826667 L101.546667,485.653333 L104.72,485.653333 Z M79.3333333,485.653333 L79.3333333,482.48 L82.5066667,482.48 L82.5066667,485.653333 L85.68,485.653333 L85.68,488.826667 L82.5066667,488.826667 L82.5066667,492 L79.3333333,492 L79.3333333,488.826667 L76.16,488.826667 L76.16,485.653333 L79.3333333,485.653333 Z M53.9466667,485.653333 L53.9466667,482.48 L57.12,482.48 L57.12,485.653333 L60.2933333,485.653333 L60.2933333,488.826667 L57.12,488.826667 L57.12,492 L53.9466667,492 L53.9466667,488.826667 L50.7733333,488.826667 L50.7733333,485.653333 L53.9466667,485.653333 Z M28.56,485.653333 L28.56,482.48 L31.7333333,482.48 L31.7333333,485.653333 L34.9066667,485.653333 L34.9066667,488.826667 L31.7333333,488.826667 L31.7333333,492 L28.56,492 L28.56,488.826667 L25.3866667,488.826667 L25.3866667,485.653333 L28.56,485.653333 Z M3.17333333,485.653333 L3.17333333,482.48 L6.34666667,482.48 L6.34666667,485.653333 L9.52,485.653333 L9.52,488.826667 L6.34666667,488.826667 L6.34666667,492 L3.17333333,492 L3.17333333,488.826667 L0,488.826667 L0,485.653333 L3.17333333,485.653333 Z M231.653333,460.266667 L231.653333,457.093333 L234.826667,457.093333 L234.826667,460.266667 L238,460.266667 L238,463.44 L234.826667,463.44 L234.826667,466.613333 L231.653333,466.613333 L231.653333,463.44 L228.48,463.44 L228.48,460.266667 L231.653333,460.266667 Z M206.266667,460.266667 L206.266667,457.093333 L209.44,457.093333 L209.44,460.266667 L212.613333,460.266667 L212.613333,463.44 L209.44,463.44 L209.44,466.613333 L206.266667,466.613333 L206.266667,463.44 L203.093333,463.44 L203.093333,460.266667 L206.266667,460.266667 Z M180.88,460.266667 L180.88,457.093333 L184.053333,457.093333 L184.053333,460.266667 L187.226667,460.266667 L187.226667,463.44 L184.053333,463.44 L184.053333,466.613333 L180.88,466.613333 L180.88,463.44 L177.706667,463.44 L177.706667,460.266667 L180.88,460.266667 Z M155.493333,460.266667 L155.493333,457.093333 L158.666667,457.093333 L158.666667,460.266667 L161.84,460.266667 L161.84,463.44 L158.666667,463.44 L158.666667,466.613333 L155.493333,466.613333 L155.493333,463.44 L152.32,463.44 L152.32,460.266667 L155.493333,460.266667 Z M130.106667,460.266667 L130.106667,457.093333 L133.28,457.093333 L133.28,460.266667 L136.453333,460.266667 L136.453333,463.44 L133.28,463.44 L133.28,466.613333 L130.106667,466.613333 L130.106667,463.44 L126.933333,463.44 L126.933333,460.266667 L130.106667,460.266667 Z M104.72,460.266667 L104.72,457.093333 L107.893333,457.093333 L107.893333,460.266667 L111.066667,460.266667 L111.066667,463.44 L107.893333,463.44 L107.893333,466.613333 L104.72,466.613333 L104.72,463.44 L101.546667,463.44 L101.546667,460.266667 L104.72,460.266667 Z M79.3333333,460.266667 L79.3333333,457.093333 L82.5066667,457.093333 L82.5066667,460.266667 L85.68,460.266667 L85.68,463.44 L82.5066667,463.44 L82.5066667,466.613333 L79.3333333,466.613333 L79.3333333,463.44 L76.16,463.44 L76.16,460.266667 L79.3333333,460.266667 Z M53.9466667,460.266667 L53.9466667,457.093333 L57.12,457.093333 L57.12,460.266667 L60.2933333,460.266667 L60.2933333,463.44 L57.12,463.44 L57.12,466.613333 L53.9466667,466.613333 L53.9466667,463.44 L50.7733333,463.44 L50.7733333,460.266667 L53.9466667,460.266667 Z M28.56,460.266667 L28.56,457.093333 L31.7333333,457.093333 L31.7333333,460.266667 L34.9066667,460.266667 L34.9066667,463.44 L31.7333333,463.44 L31.7333333,466.613333 L28.56,466.613333 L28.56,463.44 L25.3866667,463.44 L25.3866667,460.266667 L28.56,460.266667 Z M3.17333333,460.266667 L3.17333333,457.093333 L6.34666667,457.093333 L6.34666667,460.266667 L9.52,460.266667 L9.52,463.44 L6.34666667,463.44 L6.34666667,466.613333 L3.17333333,466.613333 L3.17333333,463.44 L0,463.44 L0,460.266667 L3.17333333,460.266667 Z M231.653333,434.88 L231.653333,431.706667 L234.826667,431.706667 L234.826667,434.88 L238,434.88 L238,438.053333 L234.826667,438.053333 L234.826667,441.226667 L231.653333,441.226667 L231.653333,438.053333 L228.48,438.053333 L228.48,434.88 L231.653333,434.88 Z M206.266667,434.88 L206.266667,431.706667 L209.44,431.706667 L209.44,434.88 L212.613333,434.88 L212.613333,438.053333 L209.44,438.053333 L209.44,441.226667 L206.266667,441.226667 L206.266667,438.053333 L203.093333,438.053333 L203.093333,434.88 L206.266667,434.88 Z M180.88,434.88 L180.88,431.706667 L184.053333,431.706667 L184.053333,434.88 L187.226667,434.88 L187.226667,438.053333 L184.053333,438.053333 L184.053333,441.226667 L180.88,441.226667 L180.88,438.053333 L177.706667,438.053333 L177.706667,434.88 L180.88,434.88 Z M155.493333,434.88 L155.493333,431.706667 L158.666667,431.706667 L158.666667,434.88 L161.84,434.88 L161.84,438.053333 L158.666667,438.053333 L158.666667,441.226667 L155.493333,441.226667 L155.493333,438.053333 L152.32,438.053333 L152.32,434.88 L155.493333,434.88 Z M130.106667,434.88 L130.106667,431.706667 L133.28,431.706667 L133.28,434.88 L136.453333,434.88 L136.453333,438.053333 L133.28,438.053333 L133.28,441.226667 L130.106667,441.226667 L130.106667,438.053333 L126.933333,438.053333 L126.933333,434.88 L130.106667,434.88 Z M104.72,434.88 L104.72,431.706667 L107.893333,431.706667 L107.893333,434.88 L111.066667,434.88 L111.066667,438.053333 L107.893333,438.053333 L107.893333,441.226667 L104.72,441.226667 L104.72,438.053333 L101.546667,438.053333 L101.546667,434.88 L104.72,434.88 Z M79.3333333,434.88 L79.3333333,431.706667 L82.5066667,431.706667 L82.5066667,434.88 L85.68,434.88 L85.68,438.053333 L82.5066667,438.053333 L82.5066667,441.226667 L79.3333333,441.226667 L79.3333333,438.053333 L76.16,438.053333 L76.16,434.88 L79.3333333,434.88 Z M53.9466667,434.88 L53.9466667,431.706667 L57.12,431.706667 L57.12,434.88 L60.2933333,434.88 L60.2933333,438.053333 L57.12,438.053333 L57.12,441.226667 L53.9466667,441.226667 L53.9466667,438.053333 L50.7733333,438.053333 L50.7733333,434.88 L53.9466667,434.88 Z M28.56,434.88 L28.56,431.706667 L31.7333333,431.706667 L31.7333333,434.88 L34.9066667,434.88 L34.9066667,438.053333 L31.7333333,438.053333 L31.7333333,441.226667 L28.56,441.226667 L28.56,438.053333 L25.3866667,438.053333 L25.3866667,434.88 L28.56,434.88 Z M3.17333333,434.88 L3.17333333,431.706667 L6.34666667,431.706667 L6.34666667,434.88 L9.52,434.88 L9.52,438.053333 L6.34666667,438.053333 L6.34666667,441.226667 L3.17333333,441.226667 L3.17333333,438.053333 L0,438.053333 L0,434.88 L3.17333333,434.88 Z M231.653333,409.493333 L231.653333,406.32 L234.826667,406.32 L234.826667,409.493333 L238,409.493333 L238,412.666667 L234.826667,412.666667 L234.826667,415.84 L231.653333,415.84 L231.653333,412.666667 L228.48,412.666667 L228.48,409.493333 L231.653333,409.493333 Z M206.266667,409.493333 L206.266667,406.32 L209.44,406.32 L209.44,409.493333 L212.613333,409.493333 L212.613333,412.666667 L209.44,412.666667 L209.44,415.84 L206.266667,415.84 L206.266667,412.666667 L203.093333,412.666667 L203.093333,409.493333 L206.266667,409.493333 Z M180.88,409.493333 L180.88,406.32 L184.053333,406.32 L184.053333,409.493333 L187.226667,409.493333 L187.226667,412.666667 L184.053333,412.666667 L184.053333,415.84 L180.88,415.84 L180.88,412.666667 L177.706667,412.666667 L177.706667,409.493333 L180.88,409.493333 Z M155.493333,409.493333 L155.493333,406.32 L158.666667,406.32 L158.666667,409.493333 L161.84,409.493333 L161.84,412.666667 L158.666667,412.666667 L158.666667,415.84 L155.493333,415.84 L155.493333,412.666667 L152.32,412.666667 L152.32,409.493333 L155.493333,409.493333 Z M130.106667,409.493333 L130.106667,406.32 L133.28,406.32 L133.28,409.493333 L136.453333,409.493333 L136.453333,412.666667 L133.28,412.666667 L133.28,415.84 L130.106667,415.84 L130.106667,412.666667 L126.933333,412.666667 L126.933333,409.493333 L130.106667,409.493333 Z M104.72,409.493333 L104.72,406.32 L107.893333,406.32 L107.893333,409.493333 L111.066667,409.493333 L111.066667,412.666667 L107.893333,412.666667 L107.893333,415.84 L104.72,415.84 L104.72,412.666667 L101.546667,412.666667 L101.546667,409.493333 L104.72,409.493333 Z M79.3333333,409.493333 L79.3333333,406.32 L82.5066667,406.32 L82.5066667,409.493333 L85.68,409.493333 L85.68,412.666667 L82.5066667,412.666667 L82.5066667,415.84 L79.3333333,415.84 L79.3333333,412.666667 L76.16,412.666667 L76.16,409.493333 L79.3333333,409.493333 Z M53.9466667,409.493333 L53.9466667,406.32 L57.12,406.32 L57.12,409.493333 L60.2933333,409.493333 L60.2933333,412.666667 L57.12,412.666667 L57.12,415.84 L53.9466667,415.84 L53.9466667,412.666667 L50.7733333,412.666667 L50.7733333,409.493333 L53.9466667,409.493333 Z M28.56,409.493333 L28.56,406.32 L31.7333333,406.32 L31.7333333,409.493333 L34.9066667,409.493333 L34.9066667,412.666667 L31.7333333,412.666667 L31.7333333,415.84 L28.56,415.84 L28.56,412.666667 L25.3866667,412.666667 L25.3866667,409.493333 L28.56,409.493333 Z M3.17333333,409.493333 L3.17333333,406.32 L6.34666667,406.32 L6.34666667,409.493333 L9.52,409.493333 L9.52,412.666667 L6.34666667,412.666667 L6.34666667,415.84 L3.17333333,415.84 L3.17333333,412.666667 L0,412.666667 L0,409.493333 L3.17333333,409.493333 Z M231.653333,384.106667 L231.653333,380.933333 L234.826667,380.933333 L234.826667,384.106667 L238,384.106667 L238,387.28 L234.826667,387.28 L234.826667,390.453333 L231.653333,390.453333 L231.653333,387.28 L228.48,387.28 L228.48,384.106667 L231.653333,384.106667 Z M206.266667,384.106667 L206.266667,380.933333 L209.44,380.933333 L209.44,384.106667 L212.613333,384.106667 L212.613333,387.28 L209.44,387.28 L209.44,390.453333 L206.266667,390.453333 L206.266667,387.28 L203.093333,387.28 L203.093333,384.106667 L206.266667,384.106667 Z M180.88,384.106667 L180.88,380.933333 L184.053333,380.933333 L184.053333,384.106667 L187.226667,384.106667 L187.226667,387.28 L184.053333,387.28 L184.053333,390.453333 L180.88,390.453333 L180.88,387.28 L177.706667,387.28 L177.706667,384.106667 L180.88,384.106667 Z M155.493333,384.106667 L155.493333,380.933333 L158.666667,380.933333 L158.666667,384.106667 L161.84,384.106667 L161.84,387.28 L158.666667,387.28 L158.666667,390.453333 L155.493333,390.453333 L155.493333,387.28 L152.32,387.28 L152.32,384.106667 L155.493333,384.106667 Z M130.106667,384.106667 L130.106667,380.933333 L133.28,380.933333 L133.28,384.106667 L136.453333,384.106667 L136.453333,387.28 L133.28,387.28 L133.28,390.453333 L130.106667,390.453333 L130.106667,387.28 L126.933333,387.28 L126.933333,384.106667 L130.106667,384.106667 Z M104.72,384.106667 L104.72,380.933333 L107.893333,380.933333 L107.893333,384.106667 L111.066667,384.106667 L111.066667,387.28 L107.893333,387.28 L107.893333,390.453333 L104.72,390.453333 L104.72,387.28 L101.546667,387.28 L101.546667,384.106667 L104.72,384.106667 Z M79.3333333,384.106667 L79.3333333,380.933333 L82.5066667,380.933333 L82.5066667,384.106667 L85.68,384.106667 L85.68,387.28 L82.5066667,387.28 L82.5066667,390.453333 L79.3333333,390.453333 L79.3333333,387.28 L76.16,387.28 L76.16,384.106667 L79.3333333,384.106667 Z M53.9466667,384.106667 L53.9466667,380.933333 L57.12,380.933333 L57.12,384.106667 L60.2933333,384.106667 L60.2933333,387.28 L57.12,387.28 L57.12,390.453333 L53.9466667,390.453333 L53.9466667,387.28 L50.7733333,387.28 L50.7733333,384.106667 L53.9466667,384.106667 Z M28.56,384.106667 L28.56,380.933333 L31.7333333,380.933333 L31.7333333,384.106667 L34.9066667,384.106667 L34.9066667,387.28 L31.7333333,387.28 L31.7333333,390.453333 L28.56,390.453333 L28.56,387.28 L25.3866667,387.28 L25.3866667,384.106667 L28.56,384.106667 Z M3.17333333,384.106667 L3.17333333,380.933333 L6.34666667,380.933333 L6.34666667,384.106667 L9.52,384.106667 L9.52,387.28 L6.34666667,387.28 L6.34666667,390.453333 L3.17333333,390.453333 L3.17333333,387.28 L0,387.28 L0,384.106667 L3.17333333,384.106667 Z M231.653333,358.72 L231.653333,355.546667 L234.826667,355.546667 L234.826667,358.72 L238,358.72 L238,361.893333 L234.826667,361.893333 L234.826667,365.066667 L231.653333,365.066667 L231.653333,361.893333 L228.48,361.893333 L228.48,358.72 L231.653333,358.72 Z M206.266667,358.72 L206.266667,355.546667 L209.44,355.546667 L209.44,358.72 L212.613333,358.72 L212.613333,361.893333 L209.44,361.893333 L209.44,365.066667 L206.266667,365.066667 L206.266667,361.893333 L203.093333,361.893333 L203.093333,358.72 L206.266667,358.72 Z M180.88,358.72 L180.88,355.546667 L184.053333,355.546667 L184.053333,358.72 L187.226667,358.72 L187.226667,361.893333 L184.053333,361.893333 L184.053333,365.066667 L180.88,365.066667 L180.88,361.893333 L177.706667,361.893333 L177.706667,358.72 L180.88,358.72 Z M155.493333,358.72 L155.493333,355.546667 L158.666667,355.546667 L158.666667,358.72 L161.84,358.72 L161.84,361.893333 L158.666667,361.893333 L158.666667,365.066667 L155.493333,365.066667 L155.493333,361.893333 L152.32,361.893333 L152.32,358.72 L155.493333,358.72 Z M130.106667,358.72 L130.106667,355.546667 L133.28,355.546667 L133.28,358.72 L136.453333,358.72 L136.453333,361.893333 L133.28,361.893333 L133.28,365.066667 L130.106667,365.066667 L130.106667,361.893333 L126.933333,361.893333 L126.933333,358.72 L130.106667,358.72 Z M104.72,358.72 L104.72,355.546667 L107.893333,355.546667 L107.893333,358.72 L111.066667,358.72 L111.066667,361.893333 L107.893333,361.893333 L107.893333,365.066667 L104.72,365.066667 L104.72,361.893333 L101.546667,361.893333 L101.546667,358.72 L104.72,358.72 Z M79.3333333,358.72 L79.3333333,355.546667 L82.5066667,355.546667 L82.5066667,358.72 L85.68,358.72 L85.68,361.893333 L82.5066667,361.893333 L82.5066667,365.066667 L79.3333333,365.066667 L79.3333333,361.893333 L76.16,361.893333 L76.16,358.72 L79.3333333,358.72 Z M53.9466667,358.72 L53.9466667,355.546667 L57.12,355.546667 L57.12,358.72 L60.2933333,358.72 L60.2933333,361.893333 L57.12,361.893333 L57.12,365.066667 L53.9466667,365.066667 L53.9466667,361.893333 L50.7733333,361.893333 L50.7733333,358.72 L53.9466667,358.72 Z M28.56,358.72 L28.56,355.546667 L31.7333333,355.546667 L31.7333333,358.72 L34.9066667,358.72 L34.9066667,361.893333 L31.7333333,361.893333 L31.7333333,365.066667 L28.56,365.066667 L28.56,361.893333 L25.3866667,361.893333 L25.3866667,358.72 L28.56,358.72 Z M3.17333333,358.72 L3.17333333,355.546667 L6.34666667,355.546667 L6.34666667,358.72 L9.52,358.72 L9.52,361.893333 L6.34666667,361.893333 L6.34666667,365.066667 L3.17333333,365.066667 L3.17333333,361.893333 L0,361.893333 L0,358.72 L3.17333333,358.72 Z M231.653333,333.333333 L231.653333,330.16 L234.826667,330.16 L234.826667,333.333333 L238,333.333333 L238,336.506667 L234.826667,336.506667 L234.826667,339.68 L231.653333,339.68 L231.653333,336.506667 L228.48,336.506667 L228.48,333.333333 L231.653333,333.333333 Z M206.266667,333.333333 L206.266667,330.16 L209.44,330.16 L209.44,333.333333 L212.613333,333.333333 L212.613333,336.506667 L209.44,336.506667 L209.44,339.68 L206.266667,339.68 L206.266667,336.506667 L203.093333,336.506667 L203.093333,333.333333 L206.266667,333.333333 Z M180.88,333.333333 L180.88,330.16 L184.053333,330.16 L184.053333,333.333333 L187.226667,333.333333 L187.226667,336.506667 L184.053333,336.506667 L184.053333,339.68 L180.88,339.68 L180.88,336.506667 L177.706667,336.506667 L177.706667,333.333333 L180.88,333.333333 Z M155.493333,333.333333 L155.493333,330.16 L158.666667,330.16 L158.666667,333.333333 L161.84,333.333333 L161.84,336.506667 L158.666667,336.506667 L158.666667,339.68 L155.493333,339.68 L155.493333,336.506667 L152.32,336.506667 L152.32,333.333333 L155.493333,333.333333 Z M130.106667,333.333333 L130.106667,330.16 L133.28,330.16 L133.28,333.333333 L136.453333,333.333333 L136.453333,336.506667 L133.28,336.506667 L133.28,339.68 L130.106667,339.68 L130.106667,336.506667 L126.933333,336.506667 L126.933333,333.333333 L130.106667,333.333333 Z M104.72,333.333333 L104.72,330.16 L107.893333,330.16 L107.893333,333.333333 L111.066667,333.333333 L111.066667,336.506667 L107.893333,336.506667 L107.893333,339.68 L104.72,339.68 L104.72,336.506667 L101.546667,336.506667 L101.546667,333.333333 L104.72,333.333333 Z M79.3333333,333.333333 L79.3333333,330.16 L82.5066667,330.16 L82.5066667,333.333333 L85.68,333.333333 L85.68,336.506667 L82.5066667,336.506667 L82.5066667,339.68 L79.3333333,339.68 L79.3333333,336.506667 L76.16,336.506667 L76.16,333.333333 L79.3333333,333.333333 Z M53.9466667,333.333333 L53.9466667,330.16 L57.12,330.16 L57.12,333.333333 L60.2933333,333.333333 L60.2933333,336.506667 L57.12,336.506667 L57.12,339.68 L53.9466667,339.68 L53.9466667,336.506667 L50.7733333,336.506667 L50.7733333,333.333333 L53.9466667,333.333333 Z M28.56,333.333333 L28.56,330.16 L31.7333333,330.16 L31.7333333,333.333333 L34.9066667,333.333333 L34.9066667,336.506667 L31.7333333,336.506667 L31.7333333,339.68 L28.56,339.68 L28.56,336.506667 L25.3866667,336.506667 L25.3866667,333.333333 L28.56,333.333333 Z M3.17333333,333.333333 L3.17333333,330.16 L6.34666667,330.16 L6.34666667,333.333333 L9.52,333.333333 L9.52,336.506667 L6.34666667,336.506667 L6.34666667,339.68 L3.17333333,339.68 L3.17333333,336.506667 L0,336.506667 L0,333.333333 L3.17333333,333.333333 Z M231.653333,307.946667 L231.653333,304.773333 L234.826667,304.773333 L234.826667,307.946667 L238,307.946667 L238,311.12 L234.826667,311.12 L234.826667,314.293333 L231.653333,314.293333 L231.653333,311.12 L228.48,311.12 L228.48,307.946667 L231.653333,307.946667 Z M206.266667,307.946667 L206.266667,304.773333 L209.44,304.773333 L209.44,307.946667 L212.613333,307.946667 L212.613333,311.12 L209.44,311.12 L209.44,314.293333 L206.266667,314.293333 L206.266667,311.12 L203.093333,311.12 L203.093333,307.946667 L206.266667,307.946667 Z M180.88,307.946667 L180.88,304.773333 L184.053333,304.773333 L184.053333,307.946667 L187.226667,307.946667 L187.226667,311.12 L184.053333,311.12 L184.053333,314.293333 L180.88,314.293333 L180.88,311.12 L177.706667,311.12 L177.706667,307.946667 L180.88,307.946667 Z M155.493333,307.946667 L155.493333,304.773333 L158.666667,304.773333 L158.666667,307.946667 L161.84,307.946667 L161.84,311.12 L158.666667,311.12 L158.666667,314.293333 L155.493333,314.293333 L155.493333,311.12 L152.32,311.12 L152.32,307.946667 L155.493333,307.946667 Z M130.106667,307.946667 L130.106667,304.773333 L133.28,304.773333 L133.28,307.946667 L136.453333,307.946667 L136.453333,311.12 L133.28,311.12 L133.28,314.293333 L130.106667,314.293333 L130.106667,311.12 L126.933333,311.12 L126.933333,307.946667 L130.106667,307.946667 Z M104.72,307.946667 L104.72,304.773333 L107.893333,304.773333 L107.893333,307.946667 L111.066667,307.946667 L111.066667,311.12 L107.893333,311.12 L107.893333,314.293333 L104.72,314.293333 L104.72,311.12 L101.546667,311.12 L101.546667,307.946667 L104.72,307.946667 Z M79.3333333,307.946667 L79.3333333,304.773333 L82.5066667,304.773333 L82.5066667,307.946667 L85.68,307.946667 L85.68,311.12 L82.5066667,311.12 L82.5066667,314.293333 L79.3333333,314.293333 L79.3333333,311.12 L76.16,311.12 L76.16,307.946667 L79.3333333,307.946667 Z M53.9466667,307.946667 L53.9466667,304.773333 L57.12,304.773333 L57.12,307.946667 L60.2933333,307.946667 L60.2933333,311.12 L57.12,311.12 L57.12,314.293333 L53.9466667,314.293333 L53.9466667,311.12 L50.7733333,311.12 L50.7733333,307.946667 L53.9466667,307.946667 Z M28.56,307.946667 L28.56,304.773333 L31.7333333,304.773333 L31.7333333,307.946667 L34.9066667,307.946667 L34.9066667,311.12 L31.7333333,311.12 L31.7333333,314.293333 L28.56,314.293333 L28.56,311.12 L25.3866667,311.12 L25.3866667,307.946667 L28.56,307.946667 Z M3.17333333,307.946667 L3.17333333,304.773333 L6.34666667,304.773333 L6.34666667,307.946667 L9.52,307.946667 L9.52,311.12 L6.34666667,311.12 L6.34666667,314.293333 L3.17333333,314.293333 L3.17333333,311.12 L0,311.12 L0,307.946667 L3.17333333,307.946667 Z M231.653333,282.56 L231.653333,279.386667 L234.826667,279.386667 L234.826667,282.56 L238,282.56 L238,285.733333 L234.826667,285.733333 L234.826667,288.906667 L231.653333,288.906667 L231.653333,285.733333 L228.48,285.733333 L228.48,282.56 L231.653333,282.56 Z M206.266667,282.56 L206.266667,279.386667 L209.44,279.386667 L209.44,282.56 L212.613333,282.56 L212.613333,285.733333 L209.44,285.733333 L209.44,288.906667 L206.266667,288.906667 L206.266667,285.733333 L203.093333,285.733333 L203.093333,282.56 L206.266667,282.56 Z M180.88,282.56 L180.88,279.386667 L184.053333,279.386667 L184.053333,282.56 L187.226667,282.56 L187.226667,285.733333 L184.053333,285.733333 L184.053333,288.906667 L180.88,288.906667 L180.88,285.733333 L177.706667,285.733333 L177.706667,282.56 L180.88,282.56 Z M155.493333,282.56 L155.493333,279.386667 L158.666667,279.386667 L158.666667,282.56 L161.84,282.56 L161.84,285.733333 L158.666667,285.733333 L158.666667,288.906667 L155.493333,288.906667 L155.493333,285.733333 L152.32,285.733333 L152.32,282.56 L155.493333,282.56 Z M130.106667,282.56 L130.106667,279.386667 L133.28,279.386667 L133.28,282.56 L136.453333,282.56 L136.453333,285.733333 L133.28,285.733333 L133.28,288.906667 L130.106667,288.906667 L130.106667,285.733333 L126.933333,285.733333 L126.933333,282.56 L130.106667,282.56 Z M104.72,282.56 L104.72,279.386667 L107.893333,279.386667 L107.893333,282.56 L111.066667,282.56 L111.066667,285.733333 L107.893333,285.733333 L107.893333,288.906667 L104.72,288.906667 L104.72,285.733333 L101.546667,285.733333 L101.546667,282.56 L104.72,282.56 Z M79.3333333,282.56 L79.3333333,279.386667 L82.5066667,279.386667 L82.5066667,282.56 L85.68,282.56 L85.68,285.733333 L82.5066667,285.733333 L82.5066667,288.906667 L79.3333333,288.906667 L79.3333333,285.733333 L76.16,285.733333 L76.16,282.56 L79.3333333,282.56 Z M53.9466667,282.56 L53.9466667,279.386667 L57.12,279.386667 L57.12,282.56 L60.2933333,282.56 L60.2933333,285.733333 L57.12,285.733333 L57.12,288.906667 L53.9466667,288.906667 L53.9466667,285.733333 L50.7733333,285.733333 L50.7733333,282.56 L53.9466667,282.56 Z M28.56,282.56 L28.56,279.386667 L31.7333333,279.386667 L31.7333333,282.56 L34.9066667,282.56 L34.9066667,285.733333 L31.7333333,285.733333 L31.7333333,288.906667 L28.56,288.906667 L28.56,285.733333 L25.3866667,285.733333 L25.3866667,282.56 L28.56,282.56 Z M3.17333333,282.56 L3.17333333,279.386667 L6.34666667,279.386667 L6.34666667,282.56 L9.52,282.56 L9.52,285.733333 L6.34666667,285.733333 L6.34666667,288.906667 L3.17333333,288.906667 L3.17333333,285.733333 L0,285.733333 L0,282.56 L3.17333333,282.56 Z M231.653333,257.173333 L231.653333,254 L234.826667,254 L234.826667,257.173333 L238,257.173333 L238,260.346667 L234.826667,260.346667 L234.826667,263.52 L231.653333,263.52 L231.653333,260.346667 L228.48,260.346667 L228.48,257.173333 L231.653333,257.173333 Z M206.266667,257.173333 L206.266667,254 L209.44,254 L209.44,257.173333 L212.613333,257.173333 L212.613333,260.346667 L209.44,260.346667 L209.44,263.52 L206.266667,263.52 L206.266667,260.346667 L203.093333,260.346667 L203.093333,257.173333 L206.266667,257.173333 Z M180.88,257.173333 L180.88,254 L184.053333,254 L184.053333,257.173333 L187.226667,257.173333 L187.226667,260.346667 L184.053333,260.346667 L184.053333,263.52 L180.88,263.52 L180.88,260.346667 L177.706667,260.346667 L177.706667,257.173333 L180.88,257.173333 Z M155.493333,257.173333 L155.493333,254 L158.666667,254 L158.666667,257.173333 L161.84,257.173333 L161.84,260.346667 L158.666667,260.346667 L158.666667,263.52 L155.493333,263.52 L155.493333,260.346667 L152.32,260.346667 L152.32,257.173333 L155.493333,257.173333 Z M130.106667,257.173333 L130.106667,254 L133.28,254 L133.28,257.173333 L136.453333,257.173333 L136.453333,260.346667 L133.28,260.346667 L133.28,263.52 L130.106667,263.52 L130.106667,260.346667 L126.933333,260.346667 L126.933333,257.173333 L130.106667,257.173333 Z M104.72,257.173333 L104.72,254 L107.893333,254 L107.893333,257.173333 L111.066667,257.173333 L111.066667,260.346667 L107.893333,260.346667 L107.893333,263.52 L104.72,263.52 L104.72,260.346667 L101.546667,260.346667 L101.546667,257.173333 L104.72,257.173333 Z M79.3333333,257.173333 L79.3333333,254 L82.5066667,254 L82.5066667,257.173333 L85.68,257.173333 L85.68,260.346667 L82.5066667,260.346667 L82.5066667,263.52 L79.3333333,263.52 L79.3333333,260.346667 L76.16,260.346667 L76.16,257.173333 L79.3333333,257.173333 Z M53.9466667,257.173333 L53.9466667,254 L57.12,254 L57.12,257.173333 L60.2933333,257.173333 L60.2933333,260.346667 L57.12,260.346667 L57.12,263.52 L53.9466667,263.52 L53.9466667,260.346667 L50.7733333,260.346667 L50.7733333,257.173333 L53.9466667,257.173333 Z M28.56,257.173333 L28.56,254 L31.7333333,254 L31.7333333,257.173333 L34.9066667,257.173333 L34.9066667,260.346667 L31.7333333,260.346667 L31.7333333,263.52 L28.56,263.52 L28.56,260.346667 L25.3866667,260.346667 L25.3866667,257.173333 L28.56,257.173333 Z M3.17333333,257.173333 L3.17333333,254 L6.34666667,254 L6.34666667,257.173333 L9.52,257.173333 L9.52,260.346667 L6.34666667,260.346667 L6.34666667,263.52 L3.17333333,263.52 L3.17333333,260.346667 L0,260.346667 L0,257.173333 L3.17333333,257.173333 Z" id="Combined-Shape-Copy-9"></path>
                </g>
            </g>
        </g>
    </g>
</svg>