<?xml version="1.0" encoding="UTF-8"?>
<svg width="52px" height="60px" viewBox="0 0 52 60" version="1.1" xmlns="http://www.w3.org/2000/svg" xmlns:xlink="http://www.w3.org/1999/xlink">
    <title>planning</title>
    <g id="Coding" stroke="none" stroke-width="1" fill="none" fill-rule="evenodd">
        <g id="Screen01" transform="translate(-523.000000, -3826.000000)" fill="#000000" fill-rule="nonzero">
            <g id="Group-11" transform="translate(349.000000, 3746.000000)">
                <g id="Group-23" transform="translate(140.000000, 80.000000)">
                    <g id="icons8-task_planning" transform="translate(34.000000, 0.000000)">
                        <path d="M21.6,0 C19.3876872,0 17.5913748,1.55236416 17.04375,3.6 L12,3.6 L3.6,3.6 C1.6152,3.6 0,5.2152 0,7.2 L0,54 C0,55.9848 1.6152,57.6 3.6,57.6 L28.8890628,57.6 C28.2278628,56.8632 27.6398244,56.0616 27.1406256,55.2 L3.6,55.2 C2.9388,55.2 2.4,54.6624 2.4,54 L2.4,7.2 C2.4,6.5376 2.9388,6 3.6,6 L10.8,6 L10.8,9.6 C10.8,11.5739638 12.426036,13.2 14.4,13.2 L28.8,13.2 C30.773964,13.2 32.4,11.5739638 32.4,9.6 L32.4,6 L39.6,6 C40.2612,6 40.8,6.5376 40.8,7.2 L40.8,33.6609372 C41.6232,33.7293372 42.4224,33.8706936 43.2,34.0710936 L43.2,7.2 C43.2,5.2152 41.5848,3.6 39.6,3.6 L31.2,3.6 L26.15625,3.6 C25.6086252,1.55236416 23.8123128,0 21.6,0 Z M21.6,2.4 C22.9399992,2.4 24,3.46000068 24,4.8 C24.0000663,5.46271425 24.5372857,5.99993374 25.2,6 L30,6 L30,9.6 C30,10.2780362 29.478036,10.8 28.8,10.8 L14.4,10.8 C13.721964,10.8 13.2,10.2780362 13.2,9.6 L13.2,6 L18,6 C18.6627143,5.99993374 19.1999337,5.46271425 19.2,4.8 C19.2,3.46000068 20.2600008,2.4 21.6,2.4 Z M8.4,21.6 C7.9672369,21.5938797 7.56470236,21.8212504 7.34653473,22.1950474 C7.12836711,22.5688445 7.12836711,23.0311555 7.34653473,23.4049526 C7.56470236,23.7787496 7.9672369,24.0061203 8.4,24 L34.8,24 C35.2327631,24.0061203 35.6352976,23.7787496 35.8534653,23.4049526 C36.0716329,23.0311555 36.0716329,22.5688445 35.8534653,22.1950474 C35.6352976,21.8212504 35.2327631,21.5938797 34.8,21.6 L8.4,21.6 Z M8.4,28.8 C7.9672369,28.7938797 7.56470236,29.0212504 7.34653473,29.3950474 C7.12836711,29.7688445 7.12836711,30.2311555 7.34653473,30.6049526 C7.56470236,30.9787496 7.9672369,31.2061203 8.4,31.2 L34.8,31.2 C35.2327631,31.2061203 35.6352976,30.9787496 35.8534653,30.6049526 C36.0716329,30.2311555 36.0716329,29.7688445 35.8534653,29.3950474 C35.6352976,29.0212504 35.2327631,28.7938797 34.8,28.8 L8.4,28.8 Z M8.4,36 C7.9672369,35.9938797 7.56470236,36.2212504 7.34653473,36.5950474 C7.12836711,36.9688445 7.12836711,37.4311555 7.34653473,37.8049526 C7.56470236,38.1787496 7.9672369,38.4061203 8.4,38.4 L27.6,38.4 C28.0327631,38.4061203 28.4352976,38.1787496 28.6534653,37.8049526 C28.8716329,37.4311555 28.8716329,36.9688445 28.6534653,36.5950474 C28.4352976,36.2212504 28.0327631,35.9938797 27.6,36 L8.4,36 Z M39.6,36 C33,36 27.6,41.4 27.6,48 C27.6,54.6 33,60 39.6,60 C46.2,60 51.6,54.6 51.6,48 C51.6,41.4 46.2,36 39.6,36 Z M39.6,38.4 C44.88,38.4 49.2,42.72 49.2,48 C49.2,53.28 44.88,57.6 39.6,57.6 C34.32,57.6 30,53.28 30,48 C30,42.72 34.32,38.4 39.6,38.4 Z M38.4,40.8 L38.4,47.4 L34.0804692,50.6390628 L35.5195308,52.5609372 L40.8,48.6 L40.8,40.8 L38.4,40.8 Z M8.4,43.2 C7.9672369,43.1938797 7.56470236,43.4212504 7.34653473,43.7950474 C7.12836711,44.1688445 7.12836711,44.6311555 7.34653473,45.0049526 C7.56470236,45.3787496 7.9672369,45.6061203 8.4,45.6 L24,45.6 C24.4327631,45.6061203 24.8352976,45.3787496 25.0534653,45.0049526 C25.2716329,44.6311555 25.2716329,44.1688445 25.0534653,43.7950474 C24.8352976,43.4212504 24.4327631,43.1938797 24,43.2 L8.4,43.2 Z" id="planning"></path>
                    </g>
                </g>
            </g>
        </g>
    </g>
</svg>