<?xml version="1.0" encoding="UTF-8"?>
<svg width="19px" height="18px" viewBox="0 0 19 18" version="1.1" xmlns="http://www.w3.org/2000/svg" xmlns:xlink="http://www.w3.org/1999/xlink">
    <title>star</title>
    <g id="Coding" stroke="none" stroke-width="1" fill="none" fill-rule="evenodd">
        <g id="Screen01" transform="translate(-489.000000, -3915.000000)" fill="#AF3439" fill-rule="nonzero">
            <g id="Group-11" transform="translate(349.000000, 3746.000000)">
                <g id="Group-23" transform="translate(140.000000, 80.000000)">
                    <path d="M3.83852549,106.85 C3.76352549,106.85 3.68852549,106.8125 3.61352549,106.775 C3.50102549,106.7 3.42602549,106.5125 3.46352549,106.3625 L5.11352549,100.2125 L0.163525492,96.2 C0.0135254916,96.125 -0.0239745084,95.9375 0.0135254916,95.7875 C0.0510254916,95.6375 0.201025492,95.525 0.351025492,95.525 L6.72602549,95.1875 L9.01352549,89.225 C9.08852549,89.1125 9.23852549,89 9.38852549,89 C9.53852549,89 9.68852549,89.1125 9.72602549,89.225 L12.0135255,95.1875 L18.3885255,95.525 C18.5385255,95.525 18.6885255,95.6375 18.7260255,95.7875 C18.7635255,95.9375 18.7260255,96.0875 18.6135255,96.2 L13.6635255,100.2125 L15.3135255,106.3625 C15.3510255,106.5125 15.3135255,106.6625 15.1635255,106.775 C15.0510255,106.85 14.8635255,106.8875 14.7510255,106.775 L9.38852549,103.325 L4.02602549,106.775 C3.95102549,106.85 3.91352549,106.85 3.83852549,106.85 Z" id="star"></path>
                </g>
            </g>
        </g>
    </g>
</svg>