<?xml version="1.0" encoding="UTF-8"?>
<svg width="265px" height="248px" viewBox="0 0 265 248" version="1.1" xmlns="http://www.w3.org/2000/svg" xmlns:xlink="http://www.w3.org/1999/xlink">
    <title>Group 26</title>
    <g id="landing-Page" stroke="none" stroke-width="1" fill="none" fill-rule="evenodd">
        <g id="Design-wireframes" transform="translate(-1545.000000, -4619.000000)">
            <g id="Group-23" transform="translate(-12.000000, 760.000000)">
                <g id="Group-32" transform="translate(12.000000, 3614.000000)">
                    <g id="Group-43" transform="translate(1460.000000, 213.000000)">
                        <g id="Group-26" transform="translate(85.000000, 32.000000)">
                            <rect id="Rectangle" fill="#F3F6F9" x="0" y="0" width="265" height="248" rx="40"></rect>
                            <g id="icons8-super_mario" transform="translate(52.000000, 38.000000)" fill-rule="nonzero">
                                <path d="M16.7941176,94 C16.5083824,93.6539091 4,83.5061818 4,68.3636364 C4,50.4566364 29.0679412,0 76.8966176,0 C124.209265,0 149,50.5890909 149,68.3636364 C149,84.5957273 136.901029,93.2095455 136.205882,94 L127.676471,94 C127.676471,94 134.606618,51.2727273 76.5,51.2727273 C18.3933824,51.2727273 25.3235294,94 25.3235294,94 L16.7941176,94 Z" id="Path" fill="#F44336"></path>
                                <path d="M23.1904775,132 C22.8140226,132 22.424734,131.995729 22.0226117,131.987186 L21.389483,131.982915 C10.5749604,131.982915 0,116.687841 0,102.084696 C0,90.8685932 6.45534598,85 12.8336898,85 C17.8816078,85 25.8941082,87.4601963 31.8660518,94.3923119 L33.0253618,95.7462741 L29.8340509,130.902308 L26.895136,131.67112 C25.8812745,131.940204 24.6492403,132 23.1904775,132 Z M127.104864,131.675391 L124.165949,130.906579 L120.974638,95.7505453 L122.133948,94.3965831 C128.105892,87.4644675 136.12267,85.0042712 141.16631,85.0042712 C147.544654,85.0042712 154,90.8728644 154,102.088968 C154,116.692112 143.42504,131.987186 132.610517,131.987186 L131.981666,131.991458 C131.579544,131.995729 131.190255,132 130.8138,132 C129.355038,132 128.123003,131.940204 127.104864,131.675391 Z" id="Shape" fill="#FFA726"></path>
                                <path d="M25.8,108.5 C25.8,112.088 22.9328,115 19.4,115 C15.8672,115 13,112.088 13,108.5 C13,104.912 15.8672,102 19.4,102 C22.9328,102 25.8,104.912 25.8,108.5 Z M128.2,108.5 C128.2,112.088 131.0672,115 134.6,115 C138.1328,115 141,112.088 141,108.5 C141,104.912 138.1328,102 134.6,102 C131.0672,102 128.2,104.912 128.2,108.5 Z" id="Shape" fill="#F57F17"></path>
                                <path d="M76.5,13 C64.6258779,13 55,22.6258779 55,34.5 C55,46.3741221 64.6258779,56 76.5,56 C88.3741221,56 98,46.3741221 98,34.5 C98,22.6258779 88.3741221,13 76.5,13 L76.5,13 Z" id="Path" fill="#FFFFFF"></path>
                                <path d="M66.0576658,37.7186 C66.0576658,37.7186 60.1589646,34.7786 60.0017226,34.3586 C59.8487303,33.9344 69.9377192,17.1386 69.9377192,17.1386 L76.9243652,23.72 L84.2212455,17 L94,34.3586 L87.9440568,38 L83.1333006,24.0014 L77.2345995,30.5828 L70.71118,23.8628 L66.0576658,37.7186 Z" id="Path" fill="#F44336"></path>
                                <path d="M76.5,170 C64.8620769,170 59.1754615,166.583 53.6766923,163.28075 C52.2080769,162.401 50.6967692,161.48725 48.9890769,160.60325 C48.0711923,160.123 46.9611923,159.63 45.7316538,159.09025 C36.9199615,155.16325 21,146.336 21,123.25 C21,118.524 21.7215,112.85025 22.7888077,106.505 C23.5316538,102.085 25.2692308,95.3445 25.2692308,93.5 C25.2692308,90.45275 23.1645,77.39675 21,72.25 L21,72.25 C21,72.25 35.5879615,51 76.5,51 C117.412038,51 127.730769,72.25 127.730769,72.25 L132,72.25 C129.8355,77.39675 127.730769,90.45275 127.730769,93.5 C127.730769,95.3445 129.464077,102.085 130.206923,106.505 C131.274231,112.85025 132,118.524 132,123.25 C132,146.336 116.075769,155.16325 107.255538,159.09025 C106.030269,159.6385 104.920269,160.12725 104.002385,160.60325 C102.298962,161.48725 100.779115,162.401 99.3105,163.285 C93.8202692,166.583 88.1336538,170 76.5,170 Z" id="Path" fill="#FFB74D"></path>
                                <path d="M98.4285714,85 C103.164286,85 107,89.6998 107,95.5 C107,101.3002 103.164286,106 98.4285714,106 C93.6928571,106 89.8571429,101.3002 89.8571429,95.5 C89.8571429,89.6998 93.6928571,85 98.4285714,85 Z M64.1428571,95.5 C64.1428571,101.3002 60.3071429,106 55.5714286,106 C50.8357143,106 47,101.3002 47,95.5 C47,89.6998 50.8357143,85 55.5714286,85 C60.3071429,85 64.1428571,89.6998 64.1428571,95.5 Z" id="Shape" fill="#FFFFFF"></path>
                                <path d="M95.625,89 C99.144,89 102,92.80375 102,97.5 C102,102.19625 99.144,106 95.625,106 C92.106,106 89.25,102.19625 89.25,97.5 C89.25,92.80375 92.106,89 95.625,89 Z M63.75,97.5 C63.75,102.19625 60.894,106 57.375,106 C53.856,106 51,102.19625 51,97.5 C51,92.80375 53.856,89 57.375,89 C60.894,89 63.75,92.80375 63.75,97.5 Z" id="Shape" fill="#2196F3"></path>
                                <path d="M94.2055897,93.5205479 C96.579071,93.5205479 98.5053747,96.3884089 98.5053747,99.9220232 C98.5053747,103.455638 96.579071,106.323498 94.2055897,106.323498 C91.8321084,106.323498 89.9058047,103.455638 89.9058047,99.9220232 C89.9058047,96.3884089 91.8321084,93.5205479 94.2055897,93.5205479 Z M64.1070946,99.9220232 C64.1070946,103.455638 62.180791,106.323498 59.8073096,106.323498 C57.4338283,106.323498 55.5075246,103.455638 55.5075246,99.9220232 C55.5075246,96.3884089 57.4338283,93.5205479 59.8073096,93.5205479 C62.180791,93.5205479 64.1070946,96.3884089 64.1070946,99.9220232 Z M115.704515,80.7175975 C115.704515,80.7175975 113.090245,79.6720232 109.951402,78.2636986 C108.338983,77.6320864 106.576071,76.8980506 104.989451,76.539568 C104.219789,76.3987355 103.484526,76.283509 102.981451,76.3645943 L102.882556,76.3645943 L102.830958,76.3645943 L102.818059,76.3645943 L102.813759,76.3645943 C102.964252,76.3603267 102.474076,76.3773973 103.144843,76.3517914 L103.088946,76.3603267 L102.650367,76.4243414 L101.764612,76.5182297 C101.080946,76.5609062 101.136843,76.7486828 100.775661,76.7700211 C100.134993,76.9407271 99.2320384,77.2778714 98.4236788,77.6235511 C97.5895205,77.9991043 96.7424629,78.4344046 95.8868057,78.8953109 C94.1926904,79.8299262 92.5286736,80.8797682 91.0065497,81.7802424 C88.039698,83.6580084 85.606013,84.9852476 85.606013,84.9852476 C85.606013,84.9852476 85.5888206,82.1771338 87.300135,78.6349842 C88.1170941,76.8425711 89.359732,74.8709168 91.1742413,73.0230242 C92.0685966,72.0884089 93.1435428,71.2220759 94.3517824,70.4368282 C95.5987201,69.647313 96.9015549,69.0199684 98.5569722,68.5334563 C99.3653317,68.3286091 100.560672,68.0768177 101.072346,68.0725501 L101.962402,68.0213383 L102.40528,68.012803 L102.461177,68.012803 L102.822359,68 L102.843858,68 L102.886856,68.0042677 L103.058847,68.0213383 L103.39853,68.0554795 C105.268937,68.1792413 106.760962,68.8577977 108.063797,69.5320864 C110.574871,71.0044257 112.182991,72.83098 113.266537,74.5337724 C115.480926,77.8924131 115.704515,80.7175975 115.704515,80.7175975 Z M68.0413979,83.2525817 C67.740413,82.1771338 67.2244388,80.662118 66.3429829,78.9507903 C65.9345033,78.0673867 65.3626319,77.2010537 64.7305635,76.2664384 C64.1156942,75.31902 63.3675316,74.3758693 62.4903755,73.4583246 C60.740363,71.6445732 58.4485776,69.818019 55.4516274,68.8023182 C53.8865057,68.268862 52.4933753,68.0298736 50.4939753,68.0085353 L49.5738213,68.0640148 C49.0750462,68.1408325 48.5762712,68.2261855 48.0860957,68.3371444 C47.1186441,68.597471 46.520974,68.8620653 45.7943103,69.1778714 C43.1456427,70.5264489 41.4730263,72.3871444 40.3636818,74.1070074 C39.2758362,75.8610116 38.7297635,77.491254 38.5018749,78.7203372 C38.2481876,79.9238145 38.3083846,80.7175975 38.3083846,80.7175975 C38.3083846,80.7175975 39.0909455,80.5596944 40.2088896,80.1969442 C41.3612319,79.8640674 42.8446578,79.3007376 44.4484776,78.6947313 C46.0307985,78.075922 47.7335133,77.380295 49.1825409,76.8937829 C49.4964252,76.8041623 49.960802,76.6334563 50.1155942,76.624921 C50.1886906,76.612118 50.2574871,76.5694415 50.3262837,76.5139621 L51.1561422,76.4115385 C51.5087246,76.3176502 52.5062747,76.3902002 53.2501375,76.4968915 C56.5437728,77.051686 60.5167742,79.4970495 63.380431,81.4601686 C66.2612869,83.4787671 68.4068797,84.9852476 68.4068797,84.9852476 C68.4068797,84.9852476 68.3036848,84.3579031 68.0413979,83.2525817 Z M120,125.254795 C120,130.785669 115.386331,135.074658 111.882006,135.074658 C110.79846,141.75353 106.528774,144.591517 102.220389,144.591517 C97.9120044,144.591517 95.6503175,143.085037 95.6503175,143.085037 C95.6503175,143.085037 91.2817359,148.8549 85.5974201,148.8549 C80.5838708,148.8549 76.9075546,146.328451 76.9075546,146.328451 C76.9075546,146.328451 73.5881206,149 68.8841558,149 C62.8343583,149 58.8613569,143.469125 58.3625819,142.986881 C58.0744963,143.119178 55.8558072,144.608588 52.0418979,144.608588 C43.2230388,144.608588 42.3028849,135.185616 42.3028849,135.185616 C42.3028849,135.185616 34,134.690569 34,124.964594 C34,116.710959 36.6013699,114.854531 36.6013699,114.854531 C36.6013699,114.854531 38.0890955,120.897524 54.8582571,123.812329 C56.8834558,132.044626 66.020499,138.262592 76.9978501,138.262592 C87.9666017,138.262592 97.0950452,132.061697 99.1331433,123.837935 C108.072396,122.322919 114.074896,119.548946 117.488926,114.956955 C117.497525,114.956955 120,116.958483 120,125.254795 Z" id="Shape" fill="#263238"></path>
                                <path d="M76.5,141 C62.43675,141 51,131.3551 51,119.5 C51,107.6449 62.43675,98 76.5,98 C90.56325,98 102,107.6449 102,119.5 C102,131.3551 90.56325,141 76.5,141 Z" id="Path" fill="#FFD49C"></path>
                                <path d="M132,77 C132,77 131.491962,115.363342 131.778,119 C126.458538,106.152741 119.192308,102.490593 119.192308,102.490593 L119.192308,77 L132,77 Z M21,77 C21,77 21.5080385,115.363342 21.222,119 C26.5414615,106.152741 33.8076923,102.490593 33.8076923,102.490593 L33.8076923,77 L21,77 Z" id="Shape" fill="#795548"></path>
                                <path d="M77,38 C29.8228571,38 17,63.8312477 17,67.833152 C17,75.606819 21.2857143,80.6187885 21.2857143,80.6187885 C27.7142857,90.4765143 34.1428571,80.6187885 34.1428571,80.6187885 C34.3314286,80.4483134 47.6257143,63.5712731 77,63.5712731 C106.374286,63.5712731 119.668571,80.4483134 119.857143,80.6187885 C119.857143,80.6187885 126.285714,90.4765143 132.714286,80.6187885 C132.714286,80.6187885 137,75.606819 137,67.833152 C137,63.8312477 124.177143,38 77,38 Z" id="Path" fill="#FF8A80"></path>
                            </g>
                        </g>
                    </g>
                </g>
            </g>
        </g>
    </g>
</svg>