<?xml version="1.0" encoding="UTF-8"?>
<svg width="123px" height="123px" viewBox="0 0 123 123" version="1.1" xmlns="http://www.w3.org/2000/svg" xmlns:xlink="http://www.w3.org/1999/xlink">
    <title>Group 41</title>
    <defs>
        <circle id="path-1" cx="61.5" cy="61.5" r="61.5"></circle>
        <mask id="mask-2" maskContentUnits="userSpaceOnUse" maskUnits="objectBoundingBox" x="0" y="0" width="123" height="123" fill="white">
            <use xlink:href="#path-1"></use>
        </mask>
    </defs>
    <g id="Symbols" stroke="none" stroke-width="1" fill="none" fill-rule="evenodd">
        <g id="our-mission" transform="translate(-876.000000, -643.000000)">
            <g id="Group-41" transform="translate(876.000000, 643.000000)">
                <use id="Oval" stroke="#2C3E50" mask="url(#mask-2)" stroke-width="2" fill-opacity="0.109866696" fill="#00C2F3" stroke-dasharray="3" xlink:href="#path-1"></use>
                <ellipse id="Oval" fill-opacity="0.109866696" fill="#00C2F3" cx="61.5" cy="61.5" rx="49" ry="48.5"></ellipse>
                <g id="icons8-students" transform="translate(36.000000, 36.000000)" fill="#000000" fill-rule="nonzero">
                    <path d="M17.5,0 C14.472656,0 12,2.472656 12,5.5 C12,8.527344 14.472656,11 17.5,11 C20.527344,11 23,8.527344 23,5.5 C23,2.472656 20.527344,0 17.5,0 Z M17.5,2 C19.445313,2 21,3.554688 21,5.5 C21,7.445313 19.445313,9 17.5,9 C15.554688,9 14,7.445313 14,5.5 C14,3.554688 15.554688,2 17.5,2 Z M7.15625,9.78125 C6.003906,9.742188 4.941406,10.550781 4.5625,11.6875 C4.550781,11.699219 4.542969,11.707031 4.53125,11.71875 L1.28125,22.65625 L1.25,22.65625 C1.242188,22.675781 1.257813,22.699219 1.25,22.71875 C0.9921875,23.476563 1.00390625,24.289063 1.3125,24.96875 C1.628906,25.65625 2.261719,26.203125 3.0625,26.375 C3.070313,26.378906 3.082031,26.371094 3.09375,26.375 L7.375,27.375 C7.75,27.457031 8.113281,27.453125 8.46875,27.375 C8.558594,28.054688 8.804688,28.671875 9.0625,29.21875 C9.050781,29.230469 9.042969,29.238281 9.03125,29.25 L6.90625,37.21875 C6.808594,37.359375 3.0625,42.753906 1.96875,44.34375 C1.53125,44.996094 1.078125,45.738281 0.96875,46.65625 C0.859375,47.574219 1.269531,48.65625 2.1875,49.375 C2.1875,49.386719 2.1875,49.394531 2.1875,49.40625 C3.253906,50.207031 4.582031,50.09375 5.40625,49.59375 C6.230469,49.09375 6.785156,48.382813 7.15625,47.96875 C7.59375,47.464844 8.503906,46.261719 9.46875,44.96875 C10.414063,43.707031 11.328125,42.421875 11.75,41.84375 C11.757813,41.832031 11.765625,41.796875 11.78125,41.78125 C12.386719,41.058594 12.773438,40.394531 13,39.75 C13.007813,39.730469 13.023438,39.707031 13.03125,39.6875 C13.039063,39.667969 13.054688,39.644531 13.0625,39.625 C13.144531,39.445313 13.210938,39.269531 13.3125,39 C13.433594,38.675781 13.566406,38.265625 13.71875,37.84375 C13.820313,37.558594 13.898438,37.347656 14,37.0625 C14.609375,38.007813 14.722656,38.207031 15.375,39.21875 C17.890625,43.109375 20.371094,46.941406 21.09375,47.90625 C21.738281,48.769531 22.425781,49.496094 23.34375,49.875 C24.261719,50.253906 25.351563,50.136719 26.375,49.59375 C26.386719,49.582031 26.394531,49.574219 26.40625,49.5625 C27.40625,48.992188 27.902344,47.941406 27.9375,46.96875 C27.972656,45.996094 27.644531,45.074219 27.15625,44.28125 C26.367188,43 17.777344,29.085938 17.375,28.4375 L18.40625,24.40625 C18.535156,24.609375 18.632813,24.71875 18.71875,24.875 C18.746094,24.917969 18.777344,24.960938 18.8125,25 C19.132813,25.429688 19.570313,25.835938 20.375,26.25 C20.402344,26.265625 20.410156,26.265625 20.4375,26.28125 C21.347656,26.847656 23.433594,27.984375 24.65625,28.59375 C24.667969,28.605469 24.675781,28.613281 24.6875,28.625 C25.335938,28.921875 26.089844,29.140625 26.875,29.125 C27.660156,29.109375 28.570313,28.726563 29.0625,27.90625 C29.085938,27.875 29.105469,27.84375 29.125,27.8125 C29.503906,26.976563 29.40625,26.101563 29.09375,25.40625 C28.789063,24.722656 28.292969,24.183594 27.59375,23.90625 C27.585938,23.902344 27.601563,23.878906 27.59375,23.875 C27.589844,23.875 27.566406,23.875 27.5625,23.875 C27.273438,23.742188 26.003906,23.015625 24.90625,22.375 C23.964844,21.824219 23.363281,21.484375 23.125,21.34375 C23,21.078125 21.054688,16.992188 20,14.59375 L20.03125,14.59375 C19.503906,13.382813 18.988281,12.542969 18.28125,11.9375 C17.574219,11.332031 16.695313,11.09375 15.8125,11.09375 L13.59375,11.09375 C13.054688,11.09375 12.597656,11.28125 12.25,11.53125 C11.941406,11.214844 11.566406,10.964844 11.09375,10.84375 L11.03125,10.8125 L7.6875,9.84375 C7.675781,9.84375 7.667969,9.84375 7.65625,9.84375 C7.488281,9.800781 7.320313,9.785156 7.15625,9.78125 Z M7.15625,11.75 L10.53125,12.75 C10.550781,12.761719 10.574219,12.773438 10.59375,12.78125 C10.882813,12.84375 11.121094,13.285156 11.03125,13.6875 C10.960938,13.878906 10.949219,14.085938 11,14.28125 C10.640625,15.894531 10.222656,17.824219 9.75,19.9375 C9.316406,21.875 8.984375,23.410156 8.75,24.5 C8.746094,24.511719 8.722656,24.519531 8.71875,24.53125 C8.671875,24.621094 8.640625,24.714844 8.625,24.8125 C8.523438,25.320313 8.160156,25.515625 7.8125,25.4375 L3.53125,24.4375 C3.519531,24.425781 3.511719,24.417969 3.5,24.40625 C3.3125,24.367188 3.207031,24.304688 3.125,24.125 C3.042969,23.945313 3.007813,23.667969 3.125,23.34375 C3.136719,23.324219 3.148438,23.300781 3.15625,23.28125 L6.46875,12.28125 C6.636719,11.839844 6.902344,11.71875 7.15625,11.78125 L7.15625,11.75 Z M41,12 C38.25,12 36,14.25 36,17 C36,19.75 38.25,22 41,22 C43.75,22 46,19.75 46,17 C46,14.25 43.75,12 41,12 Z M13.59375,13.09375 L15.8125,13.09375 C16.429688,13.09375 16.683594,13.167969 17,13.4375 C17.316406,13.707031 17.714844,14.316406 18.1875,15.40625 C19.296875,17.929688 21.40625,22.4375 21.40625,22.4375 C21.492188,22.605469 21.621094,22.746094 21.78125,22.84375 C21.78125,22.84375 22.789063,23.472656 23.90625,24.125 C25.023438,24.777344 26.15625,25.441406 26.78125,25.71875 C26.800781,25.730469 26.824219,25.742188 26.84375,25.75 C26.921875,25.78125 27.167969,25.964844 27.28125,26.21875 C27.382813,26.441406 27.359375,26.675781 27.28125,26.90625 C27.1875,27.035156 27.109375,27.117188 26.8125,27.125 C26.492188,27.132813 25.996094,27 25.5625,26.8125 C25.546875,26.804688 25.519531,26.789063 25.5,26.78125 C24.324219,26.191406 22.136719,25 21.4375,24.5625 C21.40625,24.539063 21.375,24.519531 21.34375,24.5 C20.601563,24.128906 20.675781,24.167969 20.40625,23.8125 C19.820313,22.789063 18.8125,21.40625 18.8125,21.40625 C18.585938,21.089844 18.195313,20.9375 17.8125,21.007813 C17.429688,21.082031 17.125,21.371094 17.03125,21.75 L15.34375,28.34375 C15.265625,28.605469 15.300781,28.886719 15.4375,29.125 C15.4375,29.125 24.644531,44.023438 25.4375,45.3125 C25.75,45.820313 25.953125,46.453125 25.9375,46.90625 C25.921875,47.34375 25.800781,47.589844 25.4375,47.8125 C24.761719,48.171875 24.453125,48.148438 24.09375,48 C23.734375,47.851563 23.242188,47.425781 22.6875,46.6875 C22.210938,46.054688 19.574219,42.011719 17.0625,38.125 C14.550781,34.238281 12.09375,30.414063 11.75,29.875 C11.738281,29.863281 11.730469,29.855469 11.71875,29.84375 C10.90625,28.621094 10.148438,27.597656 10.46875,26 C10.480469,25.988281 10.488281,25.980469 10.5,25.96875 C10.578125,25.503906 11.101563,23.011719 11.6875,20.375 C12.269531,17.765625 12.898438,14.933594 13.25,13.375 C13.25,13.375 13.277344,13.351563 13.28125,13.34375 C13.28125,13.335938 13.28125,13.320313 13.28125,13.3125 C13.296875,13.285156 13.296875,13.273438 13.34375,13.21875 C13.417969,13.128906 13.425781,13.09375 13.59375,13.09375 Z M41,14 C42.667969,14 44,15.332031 44,17 C44,18.667969 42.667969,20 41,20 C39.332031,20 38,18.667969 38,17 C38,15.332031 39.332031,14 41,14 Z M33.875,20.90625 C33.457031,20.9375 33.070313,21.019531 32.71875,21.21875 C32.019531,21.621094 31.582031,22.28125 31.28125,23 C31.269531,23.019531 31.257813,23.042969 31.25,23.0625 C30.800781,24.292969 29.824219,27.707031 29.34375,29.15625 C29.339844,29.164063 29.347656,29.179688 29.34375,29.1875 C28.996094,30.1875 28.976563,31.152344 29.375,31.90625 C29.777344,32.667969 30.535156,33.054688 31.25,33.25 C31.261719,33.261719 31.269531,33.269531 31.28125,33.28125 C32.082031,33.460938 32.660156,33.726563 33.25,33.875 C33.789063,34.019531 34.316406,34.015625 34.78125,33.90625 C34.839844,34.082031 34.929688,34.242188 35,34.40625 L33.375,40.375 C33.246094,40.566406 30.667969,44.339844 29.875,45.53125 C29.535156,46.039063 29.175781,46.632813 29.09375,47.375 C29.015625,48.113281 29.367188,48.996094 30.0625,49.5625 L30.09375,49.5625 C30.5,49.886719 30.992188,50.117188 31.46875,50.1252808 C31.957031,50.132813 32.359375,49.976563 32.6875,49.78125 C33.339844,49.390625 33.757813,48.835938 34,48.59375 C34.023438,48.574219 34.042969,48.554688 34.0625,48.53125 C34.394531,48.132813 35.019531,47.261719 35.71875,46.3125 C36.417969,45.363281 37.167969,44.371094 37.4375,44.0625 C37.449219,44.050781 37.457031,44.042969 37.46875,44.03125 C37.96875,43.402344 38.234375,42.777344 38.40625,42.4375 C38.417969,42.398438 38.429688,42.355469 38.4375,42.3125 C38.421875,42.363281 38.523438,42.160156 38.625,41.9375 C38.726563,41.714844 38.832031,41.425781 38.96875,41.125 C38.996094,41.070313 39.003906,41.027344 39.03125,40.96875 C39.316406,41.414063 39.363281,41.480469 39.65625,41.9375 C41.496094,44.800781 43.273438,47.582031 43.78125,48.28125 C43.789063,48.300781 43.800781,48.324219 43.8125,48.34375 C44.296875,48.9375 44.800781,49.464844 45.53125,49.78125 C46.261719,50.097656 47.210938,50.023438 48,49.5625 C48.785156,49.089844 49.210938,48.242188 49.25,47.46875 C49.289063,46.707031 49.023438,45.984375 48.625,45.375 C48.625,45.371094 48.625,45.347656 48.625,45.34375 C47.972656,44.257813 42.019531,34.566406 41.59375,33.875 L41.96875,32.5625 C42.125,32.796875 42.355469,33.003906 42.5625,33.15625 C42.769531,33.308594 42.945313,33.417969 43.1875,33.5625 C43.207031,33.574219 43.230469,33.585938 43.25,33.59375 C43.847656,33.890625 46.167969,35.058594 47.15625,35.5 C47.164063,35.503906 47.179688,35.496094 47.1875,35.5 C47.699219,35.753906 48.253906,35.925781 48.875,35.90625 C49.480469,35.886719 50.191406,35.59375 50.59375,34.96875 L50.625,34.96875 C50.636719,34.949219 50.613281,34.925781 50.625,34.90625 L50.65625,34.90625 C51.085938,34.246094 51.042969,33.433594 50.78125,32.875 C50.511719,32.296875 50.101563,31.863281 49.5625,31.59375 C49.542969,31.59375 49.519531,31.59375 49.5,31.59375 C49.265625,31.492188 48.101563,30.917969 47.09375,30.40625 C46.234375,29.972656 45.652344,29.671875 45.4375,29.5625 C45.257813,29.195313 43.953125,26.433594 43.21875,24.78125 L43.1875,24.78125 C42.820313,23.855469 42.472656,23.144531 41.90625,22.65625 C41.324219,22.152344 40.578125,22 39.90625,22 L38.3125,22 C38.101563,22 37.898438,22.058594 37.71875,22.125 C37.40625,21.824219 37.050781,21.578125 36.625,21.4375 C36.59375,21.4375 36.5625,21.4375 36.53125,21.4375 C36.53125,21.4375 36.175781,21.328125 35.1875,21.03125 C34.75,20.90625 34.292969,20.875 33.875,20.90625 Z M34.03125,22.875 C34.171875,22.867188 34.363281,22.894531 34.625,22.96875 C35.570313,23.253906 35.914063,23.328125 35.96875,23.34375 C36.203125,23.421875 36.351563,23.53125 36.4375,23.625 C36.1875,24.722656 35.75,26.511719 35.375,28.15625 C35.03125,29.675781 34.761719,30.855469 34.65625,31.53125 C34.582031,31.703125 34.507813,31.847656 34.4375,31.90625 C34.339844,31.988281 34.273438,32.078125 33.75,31.9375 C33.539063,31.886719 32.71875,31.535156 31.71875,31.3125 C31.382813,31.210938 31.222656,31.097656 31.15625,30.96875 C31.082031,30.832031 31.007813,30.53125 31.25,29.84375 C31.25,29.832031 31.25,29.824219 31.25,29.8125 C31.769531,28.257813 32.769531,24.761719 33.125,23.78125 C33.125,23.777344 33.125,23.753906 33.125,23.75 C33.320313,23.292969 33.550781,23.066406 33.71875,22.96875 C33.804688,22.917969 33.890625,22.882813 34.03125,22.875 Z M38.53125,24 L39.90625,24 C40.335938,24 40.425781,24.039063 40.59375,24.1875 C40.761719,24.335938 41.050781,24.730469 41.375,25.5625 C41.375,25.574219 41.375,25.582031 41.375,25.59375 C42.191406,27.429688 43.8125,30.75 43.8125,30.75 C43.910156,30.9375 44.0625,31.089844 44.25,31.1875 C44.25,31.1875 45.171875,31.671875 46.1875,32.1875 C47.179688,32.6875 48.175781,33.164063 48.65625,33.375 L48.65625,33.40625 C48.71875,33.4375 48.914063,33.597656 48.96875,33.71875 C49.023438,33.839844 49.023438,33.78125 49,33.8125 C48.976563,33.84375 48.957031,33.875 48.9375,33.90625 C48.925781,33.925781 48.980469,33.902344 48.8125,33.90625 C48.644531,33.910156 48.34375,33.859375 48.0625,33.71875 C48.042969,33.707031 48.019531,33.695313 48,33.6875 C47.1875,33.328125 44.867188,32.167969 44.21875,31.84375 C44.207031,31.839844 44.167969,31.816406 44.15625,31.8125 C43.949219,31.6875 43.777344,31.574219 43.71875,31.53125 C43.652344,31.480469 43.667969,31.503906 43.625,31.4375 C43.195313,30.792969 42.40625,29.71875 42.40625,29.71875 C42.183594,29.421875 41.8125,29.269531 41.445313,29.328125 C41.078125,29.386719 40.773438,29.648438 40.65625,30 L39.53125,33.71875 C39.453125,33.996094 39.5,34.289063 39.65625,34.53125 C39.65625,34.53125 46.378906,45.472656 46.9375,46.40625 C46.945313,46.425781 46.957031,46.449219 46.96875,46.46875 C47.160156,46.753906 47.261719,47.125 47.25,47.375 C47.238281,47.625 47.214844,47.714844 47,47.84375 C46.589844,48.082031 46.539063,48.050781 46.34375,47.96875 C46.148438,47.886719 45.789063,47.570313 45.375,47.0625 C45.054688,46.617188 43.164063,43.679688 41.34375,40.84375 C39.507813,37.984375 37.664063,35.144531 37.4375,34.78125 C37.4375,34.769531 37.4375,34.761719 37.4375,34.75 C36.875,33.90625 36.390625,33.167969 36.53125,32.25 C36.539063,32.226563 36.554688,32.210938 36.5625,32.1875 C36.566406,32.167969 36.558594,32.148438 36.5625,32.125 C36.574219,32.09375 36.585938,32.0625 36.59375,32.03125 C36.609375,31.980469 36.644531,31.921875 36.65625,31.875 C36.71875,31.714844 36.742188,31.542969 36.71875,31.375 C36.820313,30.832031 37.007813,29.925781 37.3125,28.59375 C37.605469,27.308594 37.90625,26.105469 38.15625,25.03125 C38.324219,24.875 38.4375,24.664063 38.46875,24.4375 C38.503906,24.292969 38.523438,24.144531 38.53125,24 Z M10.46875,31.59375 C10.742188,32.019531 11.855469,33.742188 12.625,34.9375 C12.421875,35.503906 12.128906,36.386719 11.84375,37.1875 C11.695313,37.605469 11.554688,37.972656 11.4375,38.28125 C11.320313,38.589844 11.210938,38.863281 11.21875,38.84375 C11.195313,38.882813 11.175781,38.925781 11.15625,38.96875 C10.988281,39.472656 10.773438,39.953125 10.25,40.5625 C10.226563,40.582031 10.207031,40.601563 10.1875,40.625 C9.792969,41.167969 8.835938,42.464844 7.875,43.75 C6.921875,45.023438 5.925781,46.316406 5.65625,46.625 C5.226563,47.109375 4.75,47.648438 4.375,47.875 C4,48.101563 3.941406,48.210938 3.40625,47.8125 C2.921875,47.433594 2.925781,47.261719 2.96875,46.90625 C3.011719,46.550781 3.261719,46.015625 3.625,45.46875 C4.71875,43.878906 8.625,38.28125 8.625,38.28125 C8.695313,38.1875 8.746094,38.082031 8.78125,37.96875 L10.46875,31.59375 Z M36.40625,36.84375 C36.660156,37.242188 37.25,38.1875 37.75,38.96875 C37.59375,39.316406 37.386719,39.777344 37.15625,40.28125 C37.019531,40.582031 36.886719,40.886719 36.78125,41.125 C36.699219,41.3125 36.648438,41.421875 36.59375,41.5625 C36.371094,42.007813 36.21875,42.386719 35.9375,42.75 C35.929688,42.761719 35.914063,42.769531 35.90625,42.78125 C35.476563,43.277344 34.816406,44.1875 34.125,45.125 C33.445313,46.046875 32.792969,46.941406 32.59375,47.1875 C32.585938,47.195313 32.535156,47.242188 32.53125,47.25 C32.199219,47.585938 31.894531,47.9375 31.6875,48.0625 C31.578125,48.128906 31.511719,48.125 31.5,48.125 C31.488281,48.125 31.484375,48.144531 31.34375,48.03125 C31.332031,48.03125 31.324219,48.03125 31.3125,48.03125 C31.023438,47.800781 31.074219,47.773438 31.09375,47.59375 C31.113281,47.414063 31.269531,47.050781 31.53125,46.65625 C32.316406,45.476563 35.125,41.375 35.125,41.375 C35.183594,41.277344 35.226563,41.171875 35.25,41.0625 L36.40625,36.84375 Z" id="Shape"></path>
                </g>
            </g>
        </g>
    </g>
</svg>