<?xml version="1.0" encoding="UTF-8"?>
<svg width="402px" height="282px" viewBox="0 0 402 282" version="1.1" xmlns="http://www.w3.org/2000/svg" xmlns:xlink="http://www.w3.org/1999/xlink">
    <title>Group 13</title>
    <g id="landing-Page" stroke="none" stroke-width="1" fill="none" fill-rule="evenodd">
        <g id="Design-wireframes" transform="translate(-93.000000, -4599.000000)">
            <g id="Group-23" transform="translate(-12.000000, 760.000000)">
                <g id="Group-32" transform="translate(12.000000, 3614.000000)">
                    <g id="Group-43" transform="translate(83.000000, 213.000000)">
                        <g id="Group-13" transform="translate(10.000000, 12.000000)">
                            <rect id="Rectangle" fill="#2C3E50" x="0" y="0" width="402" height="282" rx="10"></rect>
                            <g id="icons8-chat_room" transform="translate(132.000000, 79.000000)" fill-rule="nonzero">
                                <path d="M88,4 C117.88,4 142,27.8966667 142,57.5 C142,72.1233333 136.12,85.32 126.52,94.95 L142,111 L88,111 C58.12,111 34,87.1033333 34,57.5 C34,27.8966667 58.12,4 88,4 Z" id="Path" fill="#2C3E50"></path>
                                <path d="M141.40625,114 L87.5,114 C55.7552083,114 30,88.46875 30,57 C30,25.53125 55.7552083,0 87.5,0 C119.244792,0 145,25.53125 145,57 C145,70.89375 139.96875,84.075 130.864583,94.40625 L143.921875,107.94375 C144.880208,109.0125 145.239583,110.4375 144.640625,111.8625 C144.041667,113.2875 142.84375,114 141.40625,114 Z M87.5,7.125 C59.7083333,7.125 37.1875,29.45 37.1875,57 C37.1875,84.55 59.7083333,106.875 87.5,106.875 L133.020833,106.875 L123.4375,96.9 C122.119792,95.475 122.119792,93.3375 123.4375,91.9125 C132.78125,82.53125 137.8125,70.0625 137.8125,57 C137.8125,29.45 115.291667,7.125 87.5,7.125 Z" id="Shape" fill="#FFFFFF"></path>
                                <path d="M58,27 C28.12,27 4,50.8966667 4,80.5 C4,95.1233333 9.88,108.32 19.48,117.95 L4,134 L58,134 C87.88,134 112,110.103333 112,80.5 C112,50.8966667 87.88,27 58,27 Z" id="Path" fill="#2C3E50"></path>
                                <path d="M57.5266081,138 L3.6453031,138 C2.2084683,138 0.891369736,137.16875 0.29268857,135.8625 C-0.305992596,134.55625 0.0532161037,133.0125 1.01110597,131.94375 L14.0623554,118.40625 C5.0821379,108.075 0.0532161037,94.89375 0.0532161037,81 C0.0532161037,49.53125 25.7965062,24 57.5266081,24 C89.2567099,24 115,49.53125 115,81 C115,112.46875 89.2567099,138 57.5266081,138 Z M12.0268394,130.875 L57.5266081,130.875 C85.3054142,130.875 107.815826,108.55 107.815826,81 C107.815826,53.45 85.3054142,31.125 57.5266081,31.125 C29.7478019,31.125 7.2373901,53.45 7.2373901,81 C7.2373901,94.18125 12.3860481,106.53125 21.6057381,115.9125 C22.9228366,117.3375 22.9228366,119.475 21.6057381,120.9 L12.0268394,130.875 Z" id="Shape" fill="#FFFFFF"></path>
                                <path d="M57.5,47 C38.9984609,47 24,61.9984609 24,80.5 C24,99.0015391 38.9984609,114 57.5,114 C76.0015391,114 91,99.0015391 91,80.5 C91,61.9984609 76.0015391,47 57.5,47 Z" id="Path" fill="#FCCA3D"></path>
                                <path d="M75.4166667,84.0769231 L39.5833333,84.0769231 C37.5527778,84.0769231 36,82.5269231 36,80.5 C36,78.4730769 37.5527778,76.9230769 39.5833333,76.9230769 L75.4166667,76.9230769 C77.4472222,76.9230769 79,78.4730769 79,80.5 C79,82.5269231 77.4472222,84.0769231 75.4166667,84.0769231 Z M63.4722222,72.1538462 L39.5833333,72.1538462 C37.5527778,72.1538462 36,70.6038462 36,68.5769231 C36,66.55 37.5527778,65 39.5833333,65 L63.4722222,65 C65.5027778,65 67.0555556,66.55 67.0555556,68.5769231 C67.0555556,70.6038462 65.5027778,72.1538462 63.4722222,72.1538462 Z M75.4166667,96 L57.5,96 C55.4694444,96 53.9166667,94.45 53.9166667,92.4230769 C53.9166667,90.3961538 55.4694444,88.8461538 57.5,88.8461538 L75.4166667,88.8461538 C77.4472222,88.8461538 79,90.3961538 79,92.4230769 C79,94.45 77.4472222,96 75.4166667,96 Z M39.5833333,88.8461538 C37.604313,88.8461538 36,90.4475969 36,92.4230769 C36,94.398557 37.604313,96 39.5833333,96 C41.5623537,96 43.1666667,94.398557 43.1666667,92.4230769 C43.1666667,90.4475969 41.5623537,88.8461538 39.5833333,88.8461538 Z M75.4166667,65 C73.4376463,65 71.8333333,66.601443 71.8333333,68.5769231 C71.8333333,70.5524031 73.4376463,72.1538462 75.4166667,72.1538462 C77.395687,72.1538462 79,70.5524031 79,68.5769231 C79,66.601443 77.395687,65 75.4166667,65 Z" id="Shape" fill="#FFFFFF"></path>
                            </g>
                        </g>
                    </g>
                </g>
            </g>
        </g>
    </g>
</svg>