<?xml version="1.0" encoding="UTF-8"?>
<svg width="34px" height="34px" viewBox="0 0 34 34" version="1.1" xmlns="http://www.w3.org/2000/svg" xmlns:xlink="http://www.w3.org/1999/xlink">
    <title>fb</title>
    <g id="landing-Page" stroke="none" stroke-width="1" fill="none" fill-rule="evenodd">
        <g id="Design-wireframes" transform="translate(-1662.000000, -6793.000000)" fill="#383D4A" fill-rule="nonzero">
            <g id="Group-23" transform="translate(-12.000000, 760.000000)">
                <g id="Group-38" transform="translate(12.000000, 5193.000000)">
                    <g id="Group-20" transform="translate(95.000000, 797.000000)">
                        <g id="Quick-Links" transform="translate(1.000000, 0.000000)">
                            <path d="M1583,43 C1573.62635,43 1566,50.6256087 1566,60 C1566,69.3743913 1573.62635,77 1583,77 C1592.37439,77 1600,69.3743913 1600,60 C1600,50.6256087 1592.37439,43 1583,43 Z M1588.17391,53.3478261 L1585.74217,53.3478261 C1584.30974,53.3478261 1583.73913,53.6841304 1583.73913,54.6826957 L1583.73913,57.0434783 L1588.17391,57.0434783 L1587.43478,60.7391304 L1583.73913,60.7391304 L1583.73913,70.3478261 L1579.30435,70.3478261 L1579.30435,60.7391304 L1577.08696,60.7391304 L1577.08696,57.0434783 L1579.30435,57.0434783 L1579.30435,54.9931304 C1579.30435,51.8703043 1580.55052,49.6521739 1584.16857,49.6521739 C1586.10657,49.6521739 1588.17391,50.3913043 1588.17391,50.3913043 L1588.17391,53.3478261 Z" id="fb"></path>
                        </g>
                    </g>
                </g>
            </g>
        </g>
    </g>
</svg>