<?xml version="1.0" encoding="UTF-8"?>
<svg width="123px" height="123px" viewBox="0 0 123 123" version="1.1" xmlns="http://www.w3.org/2000/svg" xmlns:xlink="http://www.w3.org/1999/xlink">
    <title>icon-progress</title>
    <defs>
        <circle id="path-1" cx="61.5" cy="61.5" r="61.5"></circle>
        <mask id="mask-2" maskContentUnits="userSpaceOnUse" maskUnits="objectBoundingBox" x="0" y="0" width="123" height="123" fill="white">
            <use xlink:href="#path-1"></use>
        </mask>
    </defs>
    <g id="Symbols" stroke="none" stroke-width="1" fill="none" fill-rule="evenodd">
        <g id="our-mission" transform="translate(-29.000000, -445.000000)">
            <g id="icon-progress" transform="translate(29.000000, 445.000000)">
                <use id="Oval" stroke="#2C3E50" mask="url(#mask-2)" stroke-width="2" fill-opacity="0.109866696" fill="#00C2F3" stroke-dasharray="3" xlink:href="#path-1"></use>
                <ellipse id="Oval" fill-opacity="0.109866696" fill="#00C2F3" cx="61.5" cy="61.5" rx="49" ry="48.5"></ellipse>
                <g id="icons8-graph_report" transform="translate(38.000000, 33.000000)" fill-rule="nonzero">
                    <path d="M28.7241379,5.31034483 L37.1724138,5.31034483 C39.8275862,5.31034483 42,7.48275862 42,10.137931 L42,49.7241379 C42,52.3793103 39.8275862,54.5517241 37.1724138,54.5517241 L6.27586207,54.5517241 C3.62068966,54.5517241 1.44827586,52.3793103 1.44827586,49.7241379 L1.44827586,10.137931 C1.44827586,7.48275862 3.62068966,5.31034483 6.27586207,5.31034483 L9.4137931,5.31034483" id="Path" fill="#FFFFFF"></path>
                    <path d="M44.8965517,27.0344828 C44.0758621,27.0344828 43.4482759,26.4068966 43.4482759,25.5862069 L43.4482759,20.7586207 C43.4482759,19.937931 44.0758621,19.3103448 44.8965517,19.3103448 C45.7172414,19.3103448 46.3448276,19.937931 46.3448276,20.7586207 L46.3448276,25.5862069 C46.3448276,26.4068966 45.7172414,27.0344828 44.8965517,27.0344828 Z" id="Path" fill="#71C2FF"></path>
                    <path d="M30.4137931,46.3448276 C30.0275862,46.3448276 29.6413793,46.2 29.4,45.9103448 L16.3172414,32.8275862 L12.4068966,40.262069 C12.0206897,40.9862069 11.1517241,41.2275862 10.4275862,40.8896552 C9.70344828,40.5034483 9.46206897,39.6344828 9.8,38.9103448 L14.6275862,29.737931 C14.8206897,29.3517241 15.2551724,29.062069 15.6896552,28.9655172 C16.1241379,28.9172414 16.6068966,29.062069 16.9448276,29.3517241 L30.1241379,42.5310345 L41.1793103,24.137931 C40.6,24.1862069 40.0206897,23.8965517 39.7310345,23.3655172 C39.3931034,22.6413793 39.6827586,21.7724138 40.3586207,21.4344828 L44.2206897,19.5034483 C44.8,19.2137931 45.4758621,19.3586207 45.9103448,19.7931034 C46.3448276,20.2758621 46.4413793,20.9517241 46.1034483,21.5310345 L31.6206897,45.6689655 C31.3793103,46.0551724 30.9931034,46.2965517 30.5586207,46.3448276 C30.5103448,46.3448276 30.462069,46.3448276 30.4137931,46.3448276 Z M8.20689655,46.3448276 C7.82068966,46.3448276 7.43448276,46.2 7.19310345,45.9103448 C6.90344828,45.6206897 6.75862069,45.2827586 6.75862069,44.8965517 C6.75862069,44.5103448 6.90344828,44.1241379 7.19310345,43.8827586 C7.72413793,43.3517241 8.68965517,43.3517241 9.22068966,43.8827586 C9.51034483,44.1724138 9.65517241,44.5103448 9.65517241,44.8965517 C9.65517241,45.2827586 9.51034483,45.6689655 9.22068966,45.9103448 C8.97931034,46.2 8.59310345,46.3448276 8.20689655,46.3448276 Z" id="Shape" fill="#71C2FF"></path>
                    <path d="M39.5862069,56 L6.27586207,56 C2.8,56 0,53.2 0,49.7241379 L0,10.137931 C0,6.66206897 2.8,3.86206897 6.27586207,3.86206897 L9.4137931,3.86206897 C10.2344828,3.86206897 10.862069,4.48965517 10.862069,5.31034483 C10.862069,6.13103448 10.2344828,6.75862069 9.4137931,6.75862069 L6.27586207,6.75862069 C4.39310345,6.75862069 2.89655172,8.25517241 2.89655172,10.137931 L2.89655172,49.7241379 C2.89655172,51.6068966 4.39310345,53.1034483 6.27586207,53.1034483 L39.5862069,53.1034483 C40.1172414,53.1034483 40.5517241,52.6689655 40.5517241,52.137931 L41.0344828,37.6068966 C41.0827586,36.7862069 41.7586207,36.1586207 42.5310345,36.2068966 C43.3517241,36.2551724 43.9793103,36.8827586 43.9310345,37.7034483 L43.4482759,52.1862069 C43.4482759,54.262069 41.7103448,56 39.5862069,56 Z" id="Path" fill="#444B54"></path>
                    <path d="M25.5862069,8.44827586 L17.862069,8.44827586 C15.9793103,8.44827586 14.4827586,6.95172414 14.4827586,5.06896552 L14.4827586,5.06896552 C14.4827586,3.1862069 15.9793103,1.68965517 17.862069,1.68965517 L25.5862069,1.68965517 C27.4689655,1.68965517 28.9655172,3.1862069 28.9655172,5.06896552 L28.9655172,5.06896552 C28.9655172,6.95172414 27.4689655,8.44827586 25.5862069,8.44827586 Z" id="Path" fill="#FFFFFF"></path>
                    <path d="M37.1724138,3.86206897 L30.2689655,3.86206897 C29.737931,1.7862069 27.8551724,0.24137931 25.5862069,0.24137931 L17.862069,0.24137931 C15.2068966,0.24137931 13.0344828,2.4137931 13.0344828,5.06896552 C13.0344828,7.72413793 15.2068966,9.89655172 17.862069,9.89655172 L25.5862069,9.89655172 C27.662069,9.89655172 29.4,8.59310345 30.1241379,6.75862069 L37.1724138,6.75862069 C39.0551724,6.75862069 40.5517241,8.25517241 40.5517241,10.137931 L40.5517241,13.5172414 C40.5517241,14.337931 41.1793103,14.9655172 42,14.9655172 C42.8206897,14.9655172 43.4482759,14.337931 43.4482759,13.5172414 L43.4482759,10.137931 C43.4482759,6.66206897 40.6482759,3.86206897 37.1724138,3.86206897 Z M25.5862069,7 L17.862069,7 C16.8,7 15.9310345,6.13103448 15.9310345,5.06896552 C15.9310345,4.00689655 16.8,3.13793103 17.862069,3.13793103 L25.5862069,3.13793103 C26.6482759,3.13793103 27.5172414,4.00689655 27.5172414,5.06896552 C27.5172414,6.13103448 26.6482759,7 25.5862069,7 Z" id="Shape" fill="#444B54"></path>
                </g>
            </g>
        </g>
    </g>
</svg>