<?xml version="1.0" encoding="UTF-8"?>
<svg width="123px" height="123px" viewBox="0 0 123 123" version="1.1" xmlns="http://www.w3.org/2000/svg" xmlns:xlink="http://www.w3.org/1999/xlink">
    <title>icon-certificate</title>
    <defs>
        <circle id="path-1" cx="61.5" cy="61.5" r="61.5"></circle>
        <mask id="mask-2" maskContentUnits="userSpaceOnUse" maskUnits="objectBoundingBox" x="0" y="0" width="123" height="123" fill="white">
            <use xlink:href="#path-1"></use>
        </mask>
    </defs>
    <g id="Symbols" stroke="none" stroke-width="1" fill="none" fill-rule="evenodd">
        <g id="our-mission" transform="translate(-29.000000, -255.000000)">
            <g id="icon-certificate" transform="translate(29.000000, 255.000000)">
                <use id="Oval" stroke="#2C3E50" mask="url(#mask-2)" stroke-width="2" fill-opacity="0.109866696" fill="#00C2F3" stroke-dasharray="3" xlink:href="#path-1"></use>
                <ellipse id="Oval" fill-opacity="0.109866696" fill="#00C2F3" cx="61.5" cy="61.5" rx="49" ry="48.5"></ellipse>
                <g id="icons8-certificate" transform="translate(44.000000, 40.000000)" fill="#000000" fill-rule="nonzero">
                    <path d="M0.8125,0 C0.335938,0.089844 -0.007812,0.511719 -0.000130493431,1 L-0.000130493431,41 C-0.000130493431,41.550781 0.449219,42 1,42 L7,42 L7,40 L2,40 L2,2 L32,2 L32,40 L19,40 L19,42 L33,42 C33.550781,42 34,41.550781 34,41 L34,1 C34,0.449219 33.550781,0 33,0 L1,0 C0.96875,0 0.9375,0 0.90625,0 C0.875,0 0.84375,0 0.8125,0 Z M7,12 L7,14 L27,14 L27,12 L7,12 Z M7,18 L7,20 L27,20 L27,18 L7,18 Z M13,26 C12.226563,26 11.589844,26.429688 11.125,27.03125 C10.429688,26.878906 9.679688,26.914063 9.0625,27.40625 C8.449219,27.898438 8.289063,28.65625 8.3125,29.375 C7.664063,29.730469 7.128906,30.265625 7,31.03125 C6.875,31.789063 7.214844,32.460938 7.6875,33 C7.40625,33.710938 7.378906,34.503906 7.75,35.125 C7.816406,35.238281 7.914063,35.3125 8,35.40625 L8,44 C7.996094,44.378906 8.207031,44.726563 8.546875,44.898438 C8.882813,45.070313 9.289063,45.039063 9.59375,44.8125 L13,42.25 L16.40625,44.8125 C16.710938,45.039063 17.117188,45.070313 17.453125,44.898438 C17.792969,44.726563 18.003906,44.378906 18,44 L18,35.40625 C18.085938,35.3125 18.183594,35.238281 18.25,35.125 C18.683594,34.402344 18.589844,33.664063 18.3125,33 C18.785156,32.460938 19.125,31.789063 19,31.03125 C18.871094,30.265625 18.335938,29.730469 17.6875,29.375 C17.710938,28.65625 17.550781,27.898438 16.9375,27.40625 C16.320313,26.914063 15.570313,26.878906 14.875,27.03125 C14.421875,26.457031 13.785156,26 13,26 Z M15,27.21875 C15.042969,27.25 15.125,27.3125 15.09375,27.28125 L15.0625,27.3125 C15.042969,27.28125 15.019531,27.25 15,27.21875 Z M13,28 C13.320313,28 13.351563,28.058594 13.4375,28.3125 C13.488281,28.464844 13.574219,28.605469 13.6875,28.71875 C13.738281,28.769531 13.800781,28.835938 14.0625,28.96875 C14.324219,29.101563 14.542969,29.09375 14.59375,29.09375 C14.777344,29.101563 14.964844,29.058594 15.125,28.96875 C15.273438,28.878906 15.542969,28.851563 15.6875,28.96875 C15.855469,29.105469 15.855469,29.152344 15.75,29.46875 C15.710938,29.578125 15.6875,29.695313 15.6875,29.8125 C15.6875,29.949219 15.757813,29.96875 15.8125,30.09375 C15.847656,30.542969 16.179688,30.917969 16.625,31 C16.78125,31.027344 16.972656,31.21875 17,31.375 C17.027344,31.546875 16.929688,31.753906 16.78125,31.84375 C16.492188,32.027344 16.3125,32.34375 16.3125,32.6875 L16.3125,33 C16.308594,33.210938 16.375,33.421875 16.5,33.59375 C16.527344,33.632813 16.570313,34.03125 16.53125,34.09375 C16.441406,34.242188 16.234375,34.339844 16.0625,34.3125 C15.695313,34.246094 15.320313,34.390625 15.09375,34.6875 C15.09375,34.699219 15.09375,34.707031 15.09375,34.71875 C15.058594,34.746094 15.074219,34.742188 15.03125,34.78125 C15.019531,34.792969 15.011719,34.769531 15,34.78125 C14.800781,34.96875 14.691406,35.226563 14.6875,35.5 C14.6875,35.765625 14.6875,35.769531 14.46875,35.84375 C14.425781,35.863281 14.382813,35.882813 14.34375,35.90625 C14.335938,35.902344 14.363281,35.90625 14.3125,35.90625 C14.246094,35.90625 14.050781,35.832031 13.90625,35.6875 C13.714844,35.5 13.453125,35.398438 13.1875,35.40625 L12.8125,35.40625 C12.546875,35.398438 12.285156,35.5 12.09375,35.6875 C11.929688,35.851563 11.75,35.917969 11.53125,35.84375 C11.410156,35.777344 11.3125,35.640625 11.3125,35.5 C11.3125,35.308594 11.21875,35.050781 11.09375,34.875 C10.980469,34.714844 10.878906,34.636719 10.8125,34.59375 C10.582031,34.363281 10.257813,34.257813 9.9375,34.3125 C9.765625,34.339844 9.558594,34.242188 9.46875,34.09375 C9.351563,33.894531 9.3125,33.820313 9.46875,33.625 C9.609375,33.449219 9.6875,33.226563 9.6875,33 L9.6875,32.6875 C9.6875,32.34375 9.507813,32.027344 9.21875,31.84375 C9.070313,31.753906 8.972656,31.546875 9,31.375 C9.027344,31.21875 9.21875,31.027344 9.375,31 C9.820313,30.917969 10.152344,30.542969 10.1875,30.09375 C10.242188,29.96875 10.3125,29.949219 10.3125,29.8125 C10.3125,29.695313 10.289063,29.578125 10.25,29.46875 C10.144531,29.152344 10.144531,29.105469 10.3125,28.96875 C10.457031,28.851563 10.726563,28.878906 10.875,28.96875 C11.183594,29.148438 11.566406,29.148438 11.875,28.96875 C11.886719,28.96875 11.894531,28.96875 11.90625,28.96875 C11.917969,28.957031 11.925781,28.949219 11.9375,28.9375 C11.957031,28.929688 11.980469,28.917969 12,28.90625 C12.261719,28.796875 12.46875,28.582031 12.5625,28.3125 C12.613281,28.15625 12.84375,28 13,28 Z M10,37.0625 C10.226563,37.351563 10.5,37.582031 10.84375,37.71875 C10.855469,37.730469 10.863281,37.738281 10.875,37.75 C11.632813,38.003906 12.363281,37.78125 12.96875,37.40625 C12.976563,37.402344 12.992188,37.410156 13,37.40625 L13.1875,37.40625 C13.542969,37.613281 13.859375,37.90625 14.3125,37.90625 C14.484375,37.90625 14.828125,37.832031 15.125,37.71875 C15.140625,37.703125 15.167969,37.695313 15.1875,37.6875 C15.207031,37.679688 15.230469,37.699219 15.25,37.6875 L15.25,37.65625 C15.558594,37.527344 15.804688,37.332031 16,37.09375 L16,42 L13.59375,40.1875 C13.242188,39.925781 12.757813,39.925781 12.40625,40.1875 L10,42 L10,37.0625 Z" id="Shape"></path>
                </g>
            </g>
        </g>
    </g>
</svg>