<?xml version="1.0" encoding="UTF-8"?>
<svg width="44px" height="30px" viewBox="0 0 44 30" version="1.1" xmlns="http://www.w3.org/2000/svg" xmlns:xlink="http://www.w3.org/1999/xlink">
    <title>icons8-india</title>
    <g id="landing-Page" stroke="none" stroke-width="1" fill="none" fill-rule="evenodd">
        <g id="Design-wireframes" transform="translate(-1137.000000, -71.000000)" fill-rule="nonzero">
            <g id="Group-8" transform="translate(120.000000, 51.000000)">
                <g id="search" transform="translate(292.000000, 0.000000)">
                    <g id="icons8-india" transform="translate(725.000000, 20.000000)">
                        <polygon id="Path" fill="#FF9800" points="0 0 44 0 44 10 0 10"></polygon>
                        <polygon id="Path" fill="#F5F5F5" points="0 10 44 10 44 20 0 20"></polygon>
                        <polygon id="Path" fill="#388E3C" points="0 20 44 20 44 30 0 30"></polygon>
                        <path d="M22,11.089 C19.84,11.089 18.089,12.84 18.089,15 C18.089,17.16 19.84,18.911 22,18.911 C24.16,18.911 25.911,17.16 25.911,15 C25.911,12.84 24.16,11.089 22,11.089 Z M22,18.422 C20.11,18.422 18.578,16.89 18.578,15 C18.578,13.11 20.11,11.578 22,11.578 C23.89,11.578 25.422,13.11 25.422,15 C25.422,16.89 23.89,18.422 22,18.422 Z" id="Shape" fill="#000088"></path>
                        <path d="M22,14.316 C21.6222372,14.316 21.316,14.6222372 21.316,15 C21.316,15.3777628 21.6222372,15.684 22,15.684 C22.3777628,15.684 22.684,15.3777628 22.684,15 C22.684,14.6222372 22.3777628,14.316 22,14.316 Z" id="Path" fill="#000088"></path>
                        <path d="M25.3941134,15.2732695 C25.2996727,15.2732695 25.2231134,15.3498288 25.2231134,15.4442695 C25.2231134,15.5387102 25.2996727,15.6152695 25.3941134,15.6152695 C25.4552058,15.6152695 25.5116575,15.5826771 25.5422037,15.5297695 C25.5727499,15.4768619 25.5727499,15.4116771 25.5422037,15.3587695 C25.5116575,15.3058619 25.4552058,15.2732695 25.3941134,15.2732695 L25.3941134,15.2732695 Z" id="Path" fill="#000088" transform="translate(25.394113, 15.444270) rotate(-82.502000) translate(-25.394113, -15.444270) "></path>
                        <polygon id="Path" fill="#000088" points="22 18.422 22.117 16.369 22 15.391 21.883 16.369"></polygon>
                        <path d="M25.162,16.139 C25.0675593,16.139 24.991,16.2155593 24.991,16.31 C24.991,16.4044407 25.0675593,16.481 25.162,16.481 C25.2230924,16.481 25.2795441,16.4484076 25.3100903,16.3955 C25.3406366,16.3425924 25.3406366,16.2774076 25.3100903,16.2245 C25.2795441,16.1715924 25.2230924,16.139 25.162,16.139 L25.162,16.139 Z" id="Path" fill="#000088" transform="translate(25.162000, 16.310000) rotate(-67.500000) translate(-25.162000, -16.310000) "></path>
                        <polygon id="Path" fill="#000088" points="21.114 18.306 21.759 16.353 21.899 15.378 21.533 16.292"></polygon>
                        <path d="M24.7154021,16.9108154 C24.6543097,16.9108154 24.597858,16.9434078 24.5673118,16.9963154 C24.5367655,17.049223 24.5367655,17.1144078 24.5673118,17.1673154 C24.597858,17.220223 24.6543097,17.2528154 24.7154021,17.2528154 C24.8098428,17.2528154 24.8864021,17.1762561 24.8864021,17.0818154 C24.8864021,16.9873747 24.8098428,16.9108154 24.7154021,16.9108154 L24.7154021,16.9108154 Z" id="Path" fill="#000088" transform="translate(24.715402, 17.081815) rotate(-52.500000) translate(-24.715402, -17.081815) "></path>
                        <polygon id="Path" fill="#000088" points="20.289 17.964 21.417 16.244 21.804 15.339 21.213 16.127"></polygon>
                        <path d="M24.0838042,17.5423692 C23.9893635,17.5423692 23.9128042,17.6189285 23.9128042,17.7133692 C23.9128042,17.8078099 23.9893635,17.8843692 24.0838042,17.8843692 C24.1782449,17.8843692 24.2548042,17.8078099 24.2548042,17.7133692 C24.2548042,17.6189285 24.1782449,17.5423692 24.0838042,17.5423692 L24.0838042,17.5423692 Z" id="Path" fill="#000088" transform="translate(24.083804, 17.713369) rotate(-37.500000) translate(-24.083804, -17.713369) "></path>
                        <polygon id="Path" fill="#000088" points="19.58 17.42 21.115 16.051 21.723 15.277 20.949 15.885"></polygon>
                        <path d="M23.3108436,17.9892409 C23.2164029,17.9892409 23.1398436,18.0658002 23.1398436,18.1602409 C23.1398436,18.2546816 23.2164029,18.3312409 23.3108436,18.3312409 C23.371936,18.3312409 23.4283877,18.2986485 23.4589339,18.2457409 C23.4894801,18.1928333 23.4894801,18.1276485 23.4589339,18.0747409 C23.4283877,18.0218333 23.371936,17.9892409 23.3108436,17.9892409 L23.3108436,17.9892409 Z" id="Path" fill="#000088" transform="translate(23.310844, 18.160241) rotate(-22.500000) translate(-23.310844, -18.160241) "></path>
                        <polygon id="Path" fill="#000088" points="19.036 16.711 20.873 15.786 21.661 15.195 20.756 15.582"></polygon>
                        <path d="M22.4473658,18.2215829 C22.3529251,18.2215829 22.2763658,18.2981422 22.2763658,18.3925829 C22.2763658,18.4870236 22.3529251,18.5635829 22.4473658,18.5635829 C22.5084582,18.5635829 22.56491,18.5309905 22.5954562,18.4780829 C22.6260024,18.4251753 22.6260024,18.3599905 22.5954562,18.3070829 C22.56491,18.2541753 22.5084582,18.2215829 22.4473658,18.2215829 L22.4473658,18.2215829 Z" id="Path" fill="#000088" transform="translate(22.447366, 18.392583) rotate(-7.498000) translate(-22.447366, -18.392583) "></path>
                        <polygon id="Path" fill="#000088" points="18.694 15.886 20.708 15.468 21.622 15.102 20.647 15.242"></polygon>
                        <path d="M21.5537475,18.2248524 C21.4593068,18.2248524 21.3827475,18.3014117 21.3827475,18.3958524 C21.3827475,18.4902931 21.4593068,18.5668524 21.5537475,18.5668524 C21.6148399,18.5668524 21.6712917,18.53426 21.7018379,18.4813524 C21.7323841,18.4284448 21.7323841,18.36326 21.7018379,18.3103524 C21.6712917,18.2574448 21.6148399,18.2248524 21.5537475,18.2248524 L21.5537475,18.2248524 Z" id="Path" fill="#000088" transform="translate(21.553748, 18.395852) rotate(-82.501000) translate(-21.553748, -18.395852) "></path>
                        <polygon id="Path" fill="#000088" points="18.578 15 20.631 15.117 21.609 15 20.631 14.883"></polygon>
                        <path d="M20.6915412,17.9913065 C20.5971005,17.9913065 20.5205412,18.0678659 20.5205412,18.1623065 C20.5205412,18.2567472 20.5971005,18.3333065 20.6915412,18.3333065 C20.7526336,18.3333066 20.8090853,18.3007141 20.8396316,18.2478066 C20.8701778,18.194899 20.8701778,18.1297141 20.8396316,18.0768065 C20.8090853,18.023899 20.7526336,17.9913065 20.6915412,17.9913065 L20.6915412,17.9913065 Z" id="Path" fill="#000088" transform="translate(20.691541, 18.162307) rotate(-67.500000) translate(-20.691541, -18.162307) "></path>
                        <polygon id="Path" fill="#000088" points="18.694 14.114 20.647 14.759 21.622 14.899 20.708 14.533"></polygon>
                        <path d="M19.9178042,17.5416308 C19.8233635,17.5416308 19.7468042,17.6181901 19.7468042,17.7126308 C19.7468042,17.8070715 19.8233635,17.8836308 19.9178042,17.8836308 C20.0122449,17.8836308 20.0888042,17.8070715 20.0888042,17.7126308 C20.0888042,17.6181901 20.0122449,17.5416308 19.9178042,17.5416308 L19.9178042,17.5416308 Z" id="Path" fill="#000088" transform="translate(19.917804, 17.712631) rotate(-52.500000) translate(-19.917804, -17.712631) "></path>
                        <polygon id="Path" fill="#000088" points="19.036 13.289 20.756 14.417 21.661 14.804 20.873 14.214"></polygon>
                        <path d="M19.2854021,16.9111846 C19.2243097,16.9111846 19.167858,16.943777 19.1373117,16.9966846 C19.1067655,17.0495922 19.1067655,17.114777 19.1373117,17.1676846 C19.167858,17.2205922 19.2243097,17.2531846 19.2854021,17.2531846 C19.3798428,17.2531846 19.4564021,17.1766253 19.4564021,17.0821846 C19.4564021,16.9877439 19.3798428,16.9111846 19.2854021,16.9111846 L19.2854021,16.9111846 Z" id="Path" fill="#000088" transform="translate(19.285402, 17.082185) rotate(-37.500000) translate(-19.285402, -17.082185) "></path>
                        <polygon id="Path" fill="#000088" points="19.58 12.58 20.949 14.115 21.723 14.723 21.115 13.949"></polygon>
                        <path d="M18.8389197,16.1376236 C18.744479,16.1376236 18.6679197,16.2141829 18.6679197,16.3086236 C18.6679197,16.4030643 18.744479,16.4796236 18.8389197,16.4796236 C18.9333604,16.4796236 19.0099197,16.4030643 19.0099197,16.3086236 C19.0099197,16.2141829 18.9333604,16.1376236 18.8389197,16.1376236 L18.8389197,16.1376236 Z" id="Path" fill="#000088" transform="translate(18.838920, 16.308624) rotate(-22.500000) translate(-18.838920, -16.308624) "></path>
                        <polygon id="Path" fill="#000088" points="20.289 12.036 21.214 13.873 21.805 14.661 21.418 13.756"></polygon>
                        <path d="M18.6072439,15.2757219 C18.5128032,15.2757219 18.4362439,15.3522812 18.4362439,15.4467219 C18.4362439,15.5411626 18.5128032,15.6177219 18.6072439,15.6177219 C18.7016846,15.6177219 18.7782439,15.5411626 18.7782439,15.4467219 C18.7782439,15.3522812 18.7016846,15.2757219 18.6072439,15.2757219 L18.6072439,15.2757219 Z" id="Path" fill="#000088" transform="translate(18.607244, 15.446722) rotate(-7.499000) translate(-18.607244, -15.446722) "></path>
                        <polygon id="Path" fill="#000088" points="21.114 11.694 21.532 13.708 21.898 14.622 21.758 13.647"></polygon>
                        <path d="M18.6071219,14.380139 C18.5126812,14.380139 18.4361219,14.4566983 18.4361219,14.551139 C18.4361219,14.6455797 18.5126812,14.722139 18.6071219,14.722139 C18.7015626,14.722139 18.7781219,14.6455797 18.7781219,14.551139 C18.7781219,14.4566983 18.7015626,14.380139 18.6071219,14.380139 Z" id="Path" fill="#000088" transform="translate(18.607122, 14.551139) rotate(-82.502000) translate(-18.607122, -14.551139) "></path>
                        <polygon id="Path" fill="#000088" points="22 11.578 21.883 13.631 22 14.609 22.117 13.631"></polygon>
                        <path d="M18.838,13.519 C18.7435593,13.519 18.667,13.5955593 18.667,13.69 C18.667,13.7844407 18.7435593,13.861 18.838,13.861 C18.9324407,13.861 19.009,13.7844407 19.009,13.69 C19.009,13.5955593 18.9324407,13.519 18.838,13.519 Z" id="Path" fill="#000088" transform="translate(18.838000, 13.690000) rotate(-67.505000) translate(-18.838000, -13.690000) "></path>
                        <polygon id="Path" fill="#000088" points="22.886 11.694 22.241 13.647 22.101 14.622 22.467 13.708"></polygon>
                        <path d="M19.2850108,12.7440219 C19.2239184,12.7440219 19.1674667,12.7766143 19.1369204,12.8295219 C19.1063742,12.8824295 19.1063742,12.9476143 19.1369204,13.0005219 C19.1674667,13.0534295 19.2239184,13.0860219 19.2850108,13.0860219 C19.3461032,13.0860219 19.402555,13.0534295 19.4331012,13.0005219 C19.4636474,12.9476143 19.4636474,12.8824295 19.4331012,12.8295219 C19.402555,12.7766143 19.3461032,12.7440219 19.2850108,12.7440219 L19.2850108,12.7440219 Z" id="Path" fill="#000088" transform="translate(19.285011, 12.915022) rotate(-52.504000) translate(-19.285011, -12.915022) "></path>
                        <polygon id="Path" fill="#000088" points="23.711 12.036 22.583 13.756 22.196 14.661 22.786 13.873"></polygon>
                        <path d="M19.9178042,12.1123692 C19.8233635,12.1123692 19.7468042,12.1889285 19.7468042,12.2833692 C19.7468042,12.3778099 19.8233635,12.4543692 19.9178042,12.4543692 C20.0122449,12.4543692 20.0888042,12.3778099 20.0888042,12.2833692 C20.0888042,12.1889285 20.0122449,12.1123692 19.9178042,12.1123692 Z" id="Path" fill="#000088" transform="translate(19.917804, 12.283369) rotate(-37.500000) translate(-19.917804, -12.283369) "></path>
                        <polygon id="Path" fill="#000088" points="24.42 12.58 22.885 13.949 22.277 14.723 23.051 14.115"></polygon>
                        <path d="M20.689463,11.6683003 C20.6283706,11.6683003 20.5719188,11.7008927 20.5413726,11.7538003 C20.5108264,11.8067079 20.5108264,11.8718927 20.5413726,11.9248003 C20.5719188,11.9777079 20.6283706,12.0103003 20.689463,12.0103003 C20.7505554,12.0103003 20.8070071,11.9777079 20.8375534,11.9248003 C20.8680996,11.8718927 20.8680996,11.8067079 20.8375534,11.7538003 C20.8070071,11.7008927 20.7505554,11.6683003 20.689463,11.6683003 Z" id="Path" fill="#000088" transform="translate(20.689463, 11.839300) rotate(-22.500000) translate(-20.689463, -11.839300) "></path>
                        <polygon id="Path" fill="#000088" points="24.964 13.289 23.127 14.214 22.339 14.804 23.244 14.417"></polygon>
                        <path d="M21.5533661,11.4355825 C21.4922737,11.4355825 21.435822,11.4681749 21.4052758,11.5210825 C21.3747296,11.57399 21.3747296,11.6391749 21.4052758,11.6920825 C21.435822,11.7449901 21.4922737,11.7775825 21.5533661,11.7775825 C21.6144586,11.7775825 21.6709103,11.7449901 21.7014565,11.6920825 C21.7320027,11.6391749 21.7320027,11.57399 21.7014565,11.5210825 C21.6709103,11.4681749 21.6144586,11.4355825 21.5533661,11.4355825 Z" id="Path" fill="#000088" transform="translate(21.553366, 11.606582) rotate(-7.505000) translate(-21.553366, -11.606582) "></path>
                        <polygon id="Path" fill="#000088" points="25.306 14.114 23.292 14.532 22.378 14.898 23.353 14.758"></polygon>
                        <path d="M22.446878,11.4378608 C22.3857855,11.4378608 22.3293338,11.4704532 22.2987876,11.5233608 C22.2682414,11.5762684 22.2682414,11.6414532 22.2987876,11.6943608 C22.3293338,11.7472684 22.3857855,11.7798608 22.446878,11.7798608 C22.5079704,11.7798608 22.5644221,11.7472684 22.5949683,11.6943608 C22.6255145,11.6414532 22.6255145,11.5762684 22.5949683,11.5233608 C22.5644221,11.4704532 22.5079704,11.4378608 22.446878,11.4378608 L22.446878,11.4378608 Z" id="Path" fill="#000088" transform="translate(22.446878, 11.608861) rotate(-82.495000) translate(-22.446878, -11.608861) "></path>
                        <polygon id="Path" fill="#000088" points="25.422 15 23.369 14.883 22.391 15 23.369 15.117"></polygon>
                        <path d="M23.3087654,11.6651522 C23.2476729,11.6651522 23.1912212,11.6977446 23.160675,11.7506522 C23.1301288,11.8035598 23.1301288,11.8687447 23.160675,11.9216522 C23.1912212,11.9745598 23.2476729,12.0071522 23.3087654,12.0071522 C23.3698578,12.0071522 23.4263095,11.9745598 23.4568557,11.9216522 C23.4874019,11.8687447 23.4874019,11.8035598 23.4568557,11.7506522 C23.4263095,11.6977446 23.3698578,11.6651522 23.3087654,11.6651522 Z" id="Path" fill="#000088" transform="translate(23.308765, 11.836152) rotate(-67.500000) translate(-23.308765, -11.836152) "></path>
                        <polygon id="Path" fill="#000088" points="25.306 15.886 23.353 15.241 22.378 15.101 23.292 15.467"></polygon>
                        <path d="M24.0834021,12.1128154 C23.9889614,12.1128154 23.9124021,12.1893747 23.9124021,12.2838154 C23.9124021,12.3782561 23.9889614,12.4548154 24.0834021,12.4548154 C24.1778428,12.4548154 24.2544021,12.3782561 24.2544021,12.2838154 C24.2544021,12.1893747 24.1778428,12.1128154 24.0834021,12.1128154 L24.0834021,12.1128154 Z" id="Path" fill="#000088" transform="translate(24.083402, 12.283815) rotate(-52.500000) translate(-24.083402, -12.283815) "></path>
                        <polygon id="Path" fill="#000088" points="24.964 16.711 23.244 15.583 22.339 15.196 23.127 15.787"></polygon>
                        <path d="M24.7147933,12.7453912 C24.6537009,12.7453912 24.5972492,12.7779836 24.5667029,12.8308912 C24.5361567,12.8837988 24.5361567,12.9489836 24.5667029,13.0018912 C24.5972492,13.0547988 24.6537009,13.0873912 24.7147933,13.0873912 C24.7758857,13.0873912 24.8323374,13.0547988 24.8628837,13.0018912 C24.8934299,12.9489836 24.8934299,12.8837988 24.8628837,12.8308912 C24.8323374,12.7779836 24.7758857,12.7453912 24.7147933,12.7453912 L24.7147933,12.7453912 Z" id="Path" fill="#000088" transform="translate(24.714793, 12.916391) rotate(-37.505000) translate(-24.714793, -12.916391) "></path>
                        <polygon id="Path" fill="#000088" points="24.42 17.42 23.051 15.885 22.277 15.277 22.885 16.051"></polygon>
                        <path d="M25.1613108,13.5195348 C25.0668701,13.5195348 24.9903108,13.5960941 24.9903108,13.6905348 C24.9903108,13.7849755 25.0668701,13.8615348 25.1613108,13.8615348 C25.2224032,13.8615348 25.278855,13.8289424 25.3094012,13.7760348 C25.3399474,13.7231273 25.3399474,13.6579424 25.3094012,13.6050348 C25.278855,13.5521273 25.2224032,13.5195348 25.1613108,13.5195348 L25.1613108,13.5195348 Z" id="Path" fill="#000088" transform="translate(25.161311, 13.690535) rotate(-22.497000) translate(-25.161311, -13.690535) "></path>
                        <polygon id="Path" fill="#000088" points="23.711 17.964 22.786 16.127 22.196 15.339 22.583 16.244"></polygon>
                        <path d="M25.3932353,14.3815914 C25.2987946,14.3815914 25.2222353,14.4581507 25.2222353,14.5525914 C25.2222353,14.6470321 25.2987946,14.7235914 25.3932353,14.7235914 C25.4543277,14.7235914 25.5107795,14.690999 25.5413257,14.6380914 C25.5718719,14.5851838 25.5718719,14.519999 25.5413257,14.4670914 C25.5107795,14.4141838 25.4543277,14.3815914 25.3932353,14.3815914 L25.3932353,14.3815914 Z" id="Path" fill="#000088" transform="translate(25.393235, 14.552591) rotate(-7.498000) translate(-25.393235, -14.552591) "></path>
                        <polygon id="Path" fill="#000088" points="22.886 18.306 22.468 16.292 22.102 15.378 22.242 16.353"></polygon>
                    </g>
                </g>
            </g>
        </g>
    </g>
</svg>