<?xml version="1.0" encoding="UTF-8"?>
<svg width="123px" height="123px" viewBox="0 0 123 123" version="1.1" xmlns="http://www.w3.org/2000/svg" xmlns:xlink="http://www.w3.org/1999/xlink">
    <title>icon=project</title>
    <defs>
        <circle id="path-1" cx="61.5" cy="61.5" r="61.5"></circle>
        <mask id="mask-2" maskContentUnits="userSpaceOnUse" maskUnits="objectBoundingBox" x="0" y="0" width="123" height="123" fill="white">
            <use xlink:href="#path-1"></use>
        </mask>
    </defs>
    <g id="Symbols" stroke="none" stroke-width="1" fill="none" fill-rule="evenodd">
        <g id="our-mission" transform="translate(-876.000000, -449.000000)">
            <g id="icon=project" transform="translate(876.000000, 449.000000)">
                <use id="Oval" stroke="#2C3E50" mask="url(#mask-2)" stroke-width="2" fill-opacity="0.109866696" fill="#00C2F3" stroke-dasharray="3" xlink:href="#path-1"></use>
                <ellipse id="Oval" fill-opacity="0.109866696" fill="#00C2F3" cx="61.5" cy="61.5" rx="49" ry="48.5"></ellipse>
                <g id="icons8-learning" transform="translate(38.000000, 38.000000)" fill="#000000" fill-rule="nonzero">
                    <path d="M21,0 C13.773438,0 8.445313,2.492188 5,6.398438 C1.554688,10.308594 0,15.558594 0,21 C0,25.40625 1.363281,29.507813 3.675781,32.867188 C5.769531,35.914063 7,39.519531 7,43.199219 L7,48 L9,48 L9,43.199219 C9,39.078125 7.628906,35.085938 5.324219,31.734375 C3.234375,28.695313 2,24.992188 2,21 C2,15.941406 3.445313,11.191406 6.5,7.726563 C9.554688,4.257813 14.226563,2 21,2 C27.800781,2 32.207031,3.980469 35.117188,7.007813 C38.027344,10.03125 39.472656,14.203125 40.007813,18.71875 L40.03125,18.921875 L44.828125,27.1875 C45.074219,27.632813 44.949219,28.078125 44.515625,28.324219 L40,30.582031 L40,36.597656 C40,40.339844 36.921875,43.25 33.191406,42.90625 L33.175781,42.902344 L29,42.632813 L29,48 L31,48 L31,44.765625 L33.007813,44.894531 C37.878906,45.351563 42,41.457031 42,36.597656 L42,31.816406 L45.484375,30.074219 C46.847656,29.316406 47.324219,27.566406 46.574219,26.214844 L46.570313,26.207031 L41.921875,18.199219 C41.328125,13.515625 39.804688,8.996094 36.558594,5.617188 C33.242188,2.171875 28.199219,0 21,0 Z M25,7 L25,9.101563 C24.363281,9.230469 23.773438,9.488281 23.25,9.835938 L21.757813,8.34375 L20.34375,9.757813 L21.835938,11.25 C21.488281,11.773438 21.230469,12.363281 21.101563,13 L19,13 L19,15 L21.101563,15 C21.230469,15.636719 21.488281,16.226563 21.835938,16.75 L20.34375,18.242188 L21.757813,19.65625 L23.25,18.164063 C23.773438,18.511719 24.363281,18.769531 25,18.898438 L25,21 L27,21 L27,18.898438 C27.636719,18.769531 28.226563,18.511719 28.75,18.164063 L30.242188,19.65625 L31.65625,18.242188 L30.164063,16.75 C30.511719,16.226563 30.769531,15.636719 30.898438,15 L33,15 L33,13 L30.898438,13 C30.769531,12.363281 30.511719,11.773438 30.164063,11.25 L31.65625,9.757813 L30.242188,8.34375 L28.75,9.835938 C28.226563,9.488281 27.636719,9.230469 27,9.101563 L27,7 L25,7 Z M26,11 C27.667969,11 29,12.332031 29,14 C29,15.667969 27.667969,17 26,17 C24.332031,17 23,15.667969 23,14 C23,12.332031 24.332031,11 26,11 Z M13,15 L13,17.101563 C12.363281,17.230469 11.78125,17.492188 11.253906,17.84375 L9.757813,16.34375 L8.34375,17.757813 L9.84375,19.257813 C9.496094,19.78125 9.238281,20.367188 9.109375,21 L7,21 L7,23 L9.101563,23 C9.230469,23.636719 9.488281,24.226563 9.835938,24.75 L8.34375,26.242188 L9.757813,27.65625 L11.25,26.164063 C11.773438,26.511719 12.363281,26.769531 13,26.898438 L13,29 L15,29 L15,26.898438 C15.636719,26.769531 16.226563,26.511719 16.75,26.164063 L18.242188,27.65625 L19.65625,26.242188 L18.164063,24.75 C18.511719,24.226563 18.769531,23.636719 18.898438,23 L21,23 L21,21 L18.890625,21 C18.761719,20.367188 18.503906,19.78125 18.15625,19.257813 L19.65625,17.757813 L18.242188,16.34375 L16.746094,17.84375 C16.21875,17.492188 15.636719,17.230469 15,17.101563 L15,15 L13,15 Z M14,19 C15.667969,19 17,20.332031 17,22 C17,23.667969 15.667969,25 14,25 C12.332031,25 11,23.667969 11,22 C11,20.332031 12.332031,19 14,19 Z" id="Shape"></path>
                </g>
            </g>
        </g>
    </g>
</svg>