<?xml version="1.0" encoding="UTF-8"?>
<svg width="16px" height="16px" viewBox="0 0 16 16" version="1.1" xmlns="http://www.w3.org/2000/svg" xmlns:xlink="http://www.w3.org/1999/xlink">
    <title>Shape</title>
    <g id="landing-Page" stroke="none" stroke-width="1" fill="none" fill-rule="evenodd">
        <g id="Design-wireframes" transform="translate(-151.000000, -555.000000)" fill="#FFFFFF" fill-rule="nonzero">
            <g id="Group-4" transform="translate(120.000000, 535.000000)">
                <path d="M39,20 C34.5855979,20 31,23.5855979 31,28 C31,32.4144021 34.5855979,36 39,36 C43.4144021,36 47,32.4144021 47,28 C47,23.5855979 43.4144021,20 39,20 Z M39,20.6956522 C43.0380435,20.6956522 46.3043478,23.9619565 46.3043478,28 C46.3043478,32.0380435 43.0380435,35.3043478 39,35.3043478 C34.9619565,35.3043478 31.6956522,32.0380435 31.6956522,28 C31.6956522,23.9619565 34.9619565,20.6956522 39,20.6956522 Z M36.5652174,23.9130435 L36.5652174,32.0869565 L37.0869565,31.7826087 L43,28.3043478 L43.5108696,28 L43,27.6956522 L37.0869565,24.2173913 L36.5652174,23.9130435 Z M37.2608696,25.1304348 L42.1304348,28 L37.2608696,30.8695652 L37.2608696,25.1304348 Z" id="Shape"></path>
            </g>
        </g>
    </g>
</svg>