<?xml version="1.0" encoding="UTF-8"?>
<svg width="32px" height="32px" viewBox="0 0 32 32" version="1.1" xmlns="http://www.w3.org/2000/svg" xmlns:xlink="http://www.w3.org/1999/xlink">
    <title>linked-in</title>
    <g id="landing-Page" stroke="none" stroke-width="1" fill="none" fill-rule="evenodd">
        <g id="Design-wireframes" transform="translate(-1615.000000, -6794.000000)" fill="#383D4A" fill-rule="nonzero">
            <g id="Group-23" transform="translate(-12.000000, 760.000000)">
                <g id="Group-38" transform="translate(12.000000, 5193.000000)">
                    <g id="Group-20" transform="translate(95.000000, 797.000000)">
                        <g id="Quick-Links" transform="translate(1.000000, 0.000000)">
                            <path d="M1547.19048,44 L1522.80952,44 C1520.70667,44 1519,45.7066667 1519,47.8095238 L1519,72.1904762 C1519,74.2933333 1520.70667,76 1522.80952,76 L1547.19048,76 C1549.29333,76 1551,74.2933333 1551,72.1904762 L1551,47.8095238 C1551,45.7066667 1549.29333,44 1547.19048,44 Z M1528.90476,56.1904762 L1528.90476,70.6666667 L1524.33333,70.6666667 L1524.33333,56.1904762 L1528.90476,56.1904762 Z M1524.33333,51.9771429 C1524.33333,50.9104762 1525.24762,50.0952381 1526.61905,50.0952381 C1527.99048,50.0952381 1528.85143,50.9104762 1528.90476,51.9771429 C1528.90476,53.0438095 1528.05143,53.9047619 1526.61905,53.9047619 C1525.24762,53.9047619 1524.33333,53.0438095 1524.33333,51.9771429 Z M1545.66667,70.6666667 L1541.09524,70.6666667 C1541.09524,70.6666667 1541.09524,63.6114286 1541.09524,63.047619 C1541.09524,61.5238095 1540.33333,60 1538.42857,59.9695238 L1538.36762,59.9695238 C1536.52381,59.9695238 1535.7619,61.5390476 1535.7619,63.047619 C1535.7619,63.7409524 1535.7619,70.6666667 1535.7619,70.6666667 L1531.19048,70.6666667 L1531.19048,56.1904762 L1535.7619,56.1904762 L1535.7619,58.1409524 C1535.7619,58.1409524 1537.23238,56.1904762 1540.18857,56.1904762 C1543.21333,56.1904762 1545.66667,58.2704762 1545.66667,62.4838095 L1545.66667,70.6666667 Z" id="linked-in"></path>
                        </g>
                    </g>
                </g>
            </g>
        </g>
    </g>
</svg>