<?xml version="1.0" encoding="UTF-8"?>
<svg width="586px" height="435px" viewBox="0 0 586 435" version="1.1" xmlns="http://www.w3.org/2000/svg" xmlns:xlink="http://www.w3.org/1999/xlink">
    <title>Group 246</title>
    <defs>
        <polygon id="path-1" points="0.244272564 0.330693844 21.2313332 0.330693844 21.2313332 22.0672218 0.244272564 22.0672218"></polygon>
        <polygon id="path-3" points="0 432.279534 583.653387 432.279534 583.653387 0.330693844 0 0.330693844"></polygon>
    </defs>
    <g id="landing-Page" stroke="none" stroke-width="1" fill="none" fill-rule="evenodd">
        <g id="Design-wireframes" transform="translate(-201.000000, -1729.000000)">
            <g id="Group-23" transform="translate(-12.000000, 760.000000)">
                <g id="Group-246" transform="translate(159.000000, 893.000000)">
                    <g id="Group-246" transform="translate(54.500000, 76.500000)">
                        <line x1="137" y1="195.5" x2="137" y2="204.5" id="Stroke-1" stroke="#6C6075" stroke-width="7.834" stroke-linecap="round" stroke-linejoin="round"></line>
                        <polyline id="Stroke-2" stroke="#B0D2DD" stroke-width="7.834" stroke-linecap="round" stroke-linejoin="round" points="92.4926054 103.747029 143.5 195.5 132.50239 195.277269 79.5 99.5"></polyline>
                        <g id="Group-245" transform="translate(0.500000, 0.500000)">
                            <path d="M157.65976,207.050513 C158.37766,207.050513 158.964509,206.463334 158.964509,205.745029 L158.964509,197.080706 C158.964509,196.363122 158.37766,195.775222 157.65976,195.775222 L151.807831,195.775222 C151.090651,195.775222 150.503802,196.363122 150.503802,197.080706 L150.503802,205.745029 C150.503802,206.463334 151.089931,207.050513 151.807831,207.050513 L157.65976,207.050513 Z" id="Fill-3" fill="#574D5E"></path>
                            <path d="M173.893444,216.719814 L105.323557,216.719814 C105.323557,216.719814 104.473166,210.241385 108.395333,205.909944 C110.363258,203.732696 113.530802,202.103723 118.607226,202.103723 L160.610494,202.103723 C165.501863,202.103723 168.609642,203.732696 170.578287,205.909944 C174.500454,210.23346 173.893444,216.719814 173.893444,216.719814" id="Fill-5" fill="#EA4444"></path>
                            <path d="M138.613017,205.295098 L109.012785,205.295098 C104.397199,209.594118 105.324637,216.718085 105.324637,216.718085 L134.924869,216.718085 C134.924149,216.716644 133.998151,209.593398 138.613017,205.295098" id="Fill-7" fill="#AF3C3C"></path>
                            <line x1="194.250264" y1="16.7114225" x2="179.691368" y2="23.1631945" id="Stroke-9" stroke="#6C6075" stroke-width="7.834" stroke-linecap="round" stroke-linejoin="round"></line>
                            <line x1="179.871599" y1="24.823292" x2="89.8568808" y2="103.311567" id="Stroke-11" stroke="#B0D2DD" stroke-width="7.834" stroke-linecap="round" stroke-linejoin="round"></line>
                            <line x1="171.754361" y1="19.0563948" x2="78.1335817" y2="99.0662933" id="Stroke-13" stroke="#C2E9F2" stroke-width="7.834" stroke-linecap="round" stroke-linejoin="round"></line>
                            <path d="M77.3252422,103.126191 C78.2260374,107.700429 82.7480151,110.664425 87.4320063,109.741508 C92.1080768,108.819312 95.1740929,104.359628 94.2732977,99.7853903 C93.3717824,95.2097115 88.8440442,92.2442739 84.1679737,93.1657498 C79.4839825,94.089387 76.4244469,98.5505118 77.3252422,103.126191" id="Fill-15" fill="#433B49"></path>
                            <path d="M77.3252422,103.126191 C78.2260374,107.700429 82.7480151,110.664425 87.4320063,109.741508 C92.1080768,108.819312 95.1740929,104.359628 94.2732977,99.7853903 C93.3717824,95.2097115 88.8440442,92.2442739 84.1679737,93.1657498 C79.4839825,94.089387 76.4244469,98.5505118 77.3252422,103.126191 Z" id="Stroke-17" stroke="#6C6075" stroke-width="6.341" stroke-linecap="round" stroke-linejoin="round"></path>
                            <path d="M163.706825,27.4156724 C164.60834,31.9927922 169.134638,34.9553479 173.815029,34.0331516 C178.4911,33.1109552 181.557116,28.6512714 180.6556,24.0741516 C179.754085,19.4984727 175.226347,16.5337556 170.550276,17.4559519 C165.869885,18.3788687 162.80603,22.8399935 163.706825,27.4156724" id="Fill-19" fill="#433B49"></path>
                            <path d="M163.706825,27.4156724 C164.60834,31.9927922 169.134638,34.9553479 173.815029,34.0331516 C178.4911,33.1109552 181.557116,28.6512714 180.6556,24.0741516 C179.754085,19.4984727 175.226347,16.5337556 170.550276,17.4559519 C165.869885,18.3788687 162.80603,22.8399935 163.706825,27.4156724 Z" id="Stroke-21" stroke="#6C6075" stroke-width="6.341" stroke-linecap="round" stroke-linejoin="round"></path>
                            <path d="M193.816788,21.9509386 L191.69189,56.8452631 C191.604043,58.2782697 192.625808,59.0217905 193.96224,58.4972913 L235.966948,42.0108704 C237.302659,41.4863712 237.516517,40.2781499 236.442188,39.3264145 L209.764679,15.6915309" id="Fill-23" fill="#C63C3C"></path>
                            <g id="Group-27" transform="translate(188.655756, 0.000000)">
                                <mask id="mask-2" fill="white">
                                    <use xlink:href="#path-1"></use>
                                </mask>
                                <g id="Clip-26"></g>
                                <path d="M0.915556467,12.1089423 C-0.937878331,7.69032496 1.17909848,2.68885075 5.63627074,0.938118636 C10.0956032,-0.813333943 15.2116305,1.35094559 17.0578647,5.77028336 L21.2313332,15.7285629 L5.08758491,22.0672218 L0.915556467,12.1089423 Z" id="Fill-25" fill="#EA4444" mask="url(#mask-2)"></path>
                            </g>
                            <line x1="219.086002" y1="33.1698894" x2="207.20357" y2="20.4594301" id="Stroke-28" stroke="#FFFFFF" stroke-width="4.764" stroke-linecap="round"></line>
                            <line x1="226.371354" y1="40.9630968" x2="222.783295" y2="37.1244546" id="Stroke-30" stroke="#FFFFFF" stroke-width="4.764" stroke-linecap="round"></line>
                            <line x1="193.186735" y1="58.801328" x2="236.879984" y2="41.6520784" id="Stroke-32" stroke="#8C2828" stroke-width="4.764" stroke-linecap="round"></line>
                            <path d="M155.24331,213.016187 C154.974007,210.913868 154.332434,208.275522 152.871432,205.809366 L160.612798,205.809366 C163.886912,205.808646 166.244389,206.650151 167.8206,208.38071 C169.054063,209.733745 169.660354,211.493122 169.955579,213.015467 L155.24331,213.016187 Z" id="Fill-34" fill="#FFFFFF"></path>
                            <polygon id="Fill-36" fill="#B8CC27" points="181.328929 164.250733 156.700712 169.600192 151.200892 144.254202 175.829109 138.904743"></polygon>
                            <polygon id="Fill-38" fill="#FFE32A" points="169.552345 136.863159 144.382643 135.585052 145.696032 109.681422 170.866455 110.959528"></polygon>
                            <polygon id="Fill-40" fill="#EF4D4D" points="353.887741 163.520397 328.718038 162.24229 330.031428 136.33866 355.20113 137.616766"></polygon>
                            <polygon id="Fill-42" fill="#E0B196" points="260.001475 399.413537 291.980786 399.413537 293.901187 347.199933 261.921876 347.199933"></polygon>
                            <mask id="mask-4" fill="white">
                                <use xlink:href="#path-3"></use>
                            </mask>
                            <g id="Clip-45"></g>
                            <polygon id="Fill-44" fill="#FFC41F" mask="url(#mask-4)" points="254.155307 386.120005 288.645468 386.120005 288.645468 338.077178 254.155307 338.077178"></polygon>
                            <polygon id="Fill-46" fill="#E58A28" mask="url(#mask-4)" points="247.503463 386.120077 281.993624 381.115721 281.993624 338.07725 247.503463 338.07725"></polygon>
                            <polygon id="Fill-47" fill="#347799" mask="url(#mask-4)" points="241.223747 386.120005 275.714628 386.120005 275.714628 343.082975 241.223747 343.082975"></polygon>
                            <polygon id="Fill-48" fill="#20496B" mask="url(#mask-4)" points="234.572551 386.120005 269.063432 386.120005 269.063432 343.082975 234.572551 343.082975"></polygon>
                            <polygon id="Fill-49" fill="#E07D46" mask="url(#mask-4)" points="254.803361 394.408245 293.46195 394.408245 293.46195 351.371215 254.803361 351.371215"></polygon>
                            <polygon id="Fill-50" fill="#FFE9CF" mask="url(#mask-4)" points="291.980786 399.413321 299.990015 399.413321 299.990015 347.199717 291.980786 347.199717"></polygon>
                            <path d="M575.167046,424.907727 C575.167046,422.7312 573.090392,420.949488 570.55362,420.949488 L86.1194807,420.949488 C83.5819887,420.949488 81.5060554,422.7312 81.5060554,424.907727 C81.5060554,427.084975 83.5819887,428.865967 86.1194807,428.865967 L570.55362,428.865967 C573.090392,428.865967 575.167046,427.084975 575.167046,424.907727" id="Fill-51" fill="#8A829E" mask="url(#mask-4)"></path>
                            <path d="M325.19716,275.531373 L325.19716,287.873674 C325.19716,294.661903 331.436481,300.215975 339.062638,300.215975 L367.204749,300.215975 C374.830906,300.215975 380.116867,294.046626 378.95109,286.505509 L375.792906,266.068053 C374.627129,258.527657 371.793692,252.358308 369.49526,252.358308 L365.314591,252.358308" id="Stroke-52" stroke="#918073" stroke-width="9.807" stroke-linecap="round" stroke-linejoin="round" mask="url(#mask-4)"></path>
                            <path d="M375.358782,252.358308 L339.06271,252.358308 C331.436553,252.358308 325.197232,256.472168 325.197232,261.5003 L325.197232,270.643012" id="Stroke-53" stroke="#214775" stroke-width="19.614" stroke-linecap="round" stroke-linejoin="round" mask="url(#mask-4)"></path>
                            <path d="M398.636958,414.719907 C398.636958,419.51821 394.749353,423.408005 389.953033,423.408005 C385.158152,423.408005 381.270548,419.51821 381.270548,414.719907" id="Fill-54" fill="#56698F" mask="url(#mask-4)"></path>
                            <path d="M457.781042,414.719907 C457.781042,419.51821 453.894157,423.408005 449.097837,423.408005 C444.302236,423.408005 440.414631,419.51821 440.414631,414.719907" id="Fill-55" fill="#56698F" mask="url(#mask-4)"></path>
                            <path d="M505.104618,414.719907 C505.104618,419.51821 501.217013,423.408005 496.420693,423.408005 C491.625092,423.408005 487.738208,419.51821 487.738208,414.719907" id="Fill-56" fill="#56698F" mask="url(#mask-4)"></path>
                            <polygon id="Fill-57" fill="#B7BEBC" mask="url(#mask-4)" points="410.864875 380.985245 426.507462 380.985245 426.507462 323.786737 410.864875 323.786737"></polygon>
                            <polygon id="Fill-58" fill="#7F8A99" mask="url(#mask-4)" points="410.864659 323.986234 410.864659 345.969089 426.507246 341.167905 426.507246 323.986234"></polygon>
                            <polygon id="Fill-59" fill="#B7BEBC" mask="url(#mask-4)" points="401.288003 390.473132 401.288003 395.291608 436.08419 395.291608 436.08419 386.735355"></polygon>
                            <path d="M438.961046,314.080549 C438.961046,309.405445 435.137527,305.579772 430.465056,305.579772 L406.906129,305.579772 C402.233658,305.579772 398.410859,309.405445 398.410859,314.080549 L398.410859,324.110154 C398.410859,328.785257 402.233658,332.610931 406.906129,332.610931 L430.465056,332.610931 C435.137527,332.610931 438.961046,328.785257 438.961046,324.110154 L438.961046,314.080549 Z" id="Fill-60" fill="#3E4C60" mask="url(#mask-4)"></path>
                            <path d="M467.688925,309.654294 C467.688925,304.979191 463.865406,301.153517 459.192936,301.153517 L378.178249,301.153517 C373.505059,301.153517 369.68226,304.979191 369.68226,309.654294 L369.68226,315.485745 C369.68226,320.160848 373.505059,323.986522 378.178249,323.986522 L459.192936,323.986522 C463.865406,323.986522 467.688925,320.160848 467.688925,315.485745 L467.688925,309.654294 Z" id="Fill-61" fill="#3E4C60" mask="url(#mask-4)"></path>
                            <path d="M507.724701,305.749441 C508.211462,310.399328 504.786136,314.204108 500.113665,314.204108 L398.678073,314.204108 C394.004883,314.204108 389.783891,310.399328 389.29713,305.749441 L381.489518,231.123584 C381.002757,226.473698 381.51256,218.952754 382.622172,214.411658 L407.319515,113.323809 C408.429128,108.781992 413.060555,104.199829 417.612055,103.142185 L474.178539,89.9879188 C478.730039,88.9295544 486.27771,88.0635544 490.95018,88.0635544 L500.113665,88.0635544 C504.786136,88.0635544 508.338192,91.8791418 508.006245,96.5434379 L499.635545,214.189754 C499.303598,218.85333 499.429608,226.473698 499.916369,231.123584 L507.724701,305.749441 Z" id="Fill-62" fill="#7AAEED" mask="url(#mask-4)"></path>
                            <path d="M493.657462,305.749441 C494.144223,310.399328 490.718897,314.204108 486.046426,314.204108 L386.526195,314.204108 C381.853004,314.204108 377.632012,310.399328 377.145251,305.749441 L369.337639,231.123584 C368.850878,226.473698 369.370042,218.954915 370.489735,214.41598 L399.64209,96.3164912 C400.761784,91.7775561 405.501219,88.0635544 410.17513,88.0635544 L472.887327,88.0635544 C477.560518,88.0635544 481.484845,91.8877874 481.609416,96.5614496 L484.738077,214.171742 C484.862648,218.844684 485.362369,226.473698 485.84913,231.123584 L493.657462,305.749441 Z" id="Fill-63" fill="#2E5389" mask="url(#mask-4)"></path>
                            <path d="M452.763159,255.869138 C453.725879,265.664592 453.725879,272.570258 470.417593,272.570258 L495.454084,272.570258 L494.170217,287.343411 L455.330893,292.161166 L438.961046,281.562393 L444.738088,260.044238 L452.763159,255.869138 Z" id="Fill-64" fill="#214775" mask="url(#mask-4)"></path>
                            <path d="M494.542056,300.602721 C494.542056,308.083318 488.425145,314.204397 480.948041,314.204397 L326.613951,314.204397 C319.137566,314.204397 313.020655,308.083318 313.020655,300.602721 L313.020655,296.804425 C313.020655,289.323107 319.137566,283.202749 326.613951,283.202749 L480.948041,283.202749 C488.425145,283.202749 494.542056,289.323107 494.542056,296.804425 L494.542056,300.602721 Z" id="Fill-65" fill="#4977A5" mask="url(#mask-4)"></path>
                            <path d="M428.899862,283.146913 C416.532829,283.146913 407.614164,307.780363 407.614164,307.780363 L347.09887,307.780363 L348.203442,283.146913 L428.899862,283.146913 Z" id="Fill-66" fill="#2E5389" mask="url(#mask-4)"></path>
                            <path d="M428.031469,301.452655 C428.031469,308.46567 433.766748,314.204181 440.775093,314.204181 L486.58604,314.204181 C493.595825,314.204181 499.634249,308.474315 500.00652,301.470666 L500.300305,295.936047 C500.672576,288.932399 495.241882,283.202533 488.232097,283.202533 L440.775093,283.202533 C433.766748,283.202533 428.031469,288.941044 428.031469,295.953339 L428.031469,301.452655 Z" id="Fill-67" fill="#CCB396" mask="url(#mask-4)"></path>
                            <path d="M381.437818,222.380875 C376.767508,222.539377 373.744695,218.927682 374.721097,214.355605 L399.90448,96.3764339 C400.880161,91.8043574 405.501507,88.0636985 410.174698,88.0636985 L486.045994,88.0636985 C490.719185,88.0636985 494.270521,91.8792859 493.938574,96.5428616 L485.838617,210.379354 C485.506669,215.04293 481.415288,218.988201 476.744258,219.147424 L381.437818,222.380875 Z" id="Fill-68" fill="#6589BD" mask="url(#mask-4)"></path>
                            <polyline id="Stroke-69" stroke="#B7BEBC" stroke-width="11.799" stroke-linecap="round" stroke-linejoin="round" mask="url(#mask-4)" points="342.067233 398.166771 418.685232 384.011778 496.420765 398.166771"></polyline>
                            <polyline id="Stroke-70" stroke="#B7BEBC" stroke-width="11.799" stroke-linecap="round" stroke-linejoin="round" mask="url(#mask-4)" points="389.953321 398.166771 418.68516 384.011778 448.533813 398.166771"></polyline>
                            <path d="M350.814164,414.719907 C350.814164,419.51821 346.926559,423.408005 342.130239,423.408005 C337.334638,423.408005 333.447753,419.51821 333.447753,414.719907" id="Fill-71" fill="#56698F" mask="url(#mask-4)"></path>
                            <path d="M333.447609,415.144838 C332.743391,415.144838 332.173103,414.573508 332.173103,413.868893 C332.173103,408.37534 336.640356,403.906291 342.130815,403.906291 C347.621993,403.906291 352.088526,408.37534 352.088526,413.868893 C352.088526,414.573508 351.518239,415.144838 350.81402,415.144838 L333.447609,415.144838 Z" id="Fill-72" fill="#B7BEBC" mask="url(#mask-4)"></path>
                            <path d="M342.130527,402.631714 C335.936569,402.631714 330.898309,407.672814 330.898309,413.869541 C330.898309,415.278052 332.039604,416.419991 333.446601,416.419991 L350.814452,416.419991 C352.222169,416.419991 353.362745,415.278052 353.362745,413.869541 C353.362745,407.672814 348.324484,402.631714 342.130527,402.631714 M342.130527,405.181443 C346.926127,405.181443 350.814452,409.071238 350.814452,413.869541 L333.446601,413.869541 C333.446601,409.071238 337.334926,405.181443 342.130527,405.181443" id="Fill-73" fill="#B7BEBC" mask="url(#mask-4)"></path>
                            <path d="M381.270404,415.144838 C380.566185,415.144838 379.995897,414.573508 379.995897,413.868893 C379.995897,408.37534 384.46315,403.906291 389.954329,403.906291 C395.444787,403.906291 399.91132,408.37534 399.91132,413.868893 C399.91132,414.573508 399.341033,415.144838 398.636814,415.144838 L381.270404,415.144838 Z" id="Fill-74" fill="#B7BEBC" mask="url(#mask-4)"></path>
                            <path d="M389.954041,402.631714 C383.760084,402.631714 378.721103,407.672814 378.721103,413.869541 C378.721103,415.278052 379.862398,416.419991 381.270116,416.419991 L398.637246,416.419991 C400.044964,416.419991 401.186259,415.278052 401.186259,413.869541 C401.186259,407.672814 396.147278,402.631714 389.954041,402.631714 M389.954041,405.181443 C394.749641,405.181443 398.637246,409.071238 398.637246,413.869541 L381.270116,413.869541 C381.270116,409.071238 385.15844,405.181443 389.954041,405.181443" id="Fill-75" fill="#B7BEBC" mask="url(#mask-4)"></path>
                            <path d="M440.414487,415.144838 C439.710268,415.144838 439.139981,414.573508 439.139981,413.868893 C439.139981,408.37534 443.607234,403.906291 449.098413,403.906291 C454.589591,403.906291 459.056124,408.37534 459.056124,413.868893 C459.056124,414.573508 458.485837,415.144838 457.781618,415.144838 L440.414487,415.144838 Z" id="Fill-76" fill="#B7BEBC" mask="url(#mask-4)"></path>
                            <path d="M449.098125,402.631714 C442.904167,402.631714 437.865906,407.672814 437.865906,413.869541 C437.865906,415.278052 439.006482,416.419991 440.414199,416.419991 L457.78205,416.419991 C459.189047,416.419991 460.330343,415.278052 460.330343,413.869541 C460.330343,407.672814 455.292082,402.631714 449.098125,402.631714 M449.098125,405.181443 C453.893725,405.181443 457.78205,409.071238 457.78205,413.869541 L440.414199,413.869541 C440.414199,409.071238 444.302524,405.181443 449.098125,405.181443" id="Fill-77" fill="#B7BEBC" mask="url(#mask-4)"></path>
                            <path d="M487.738064,415.144838 C487.033845,415.144838 486.463557,414.573508 486.463557,413.868893 C486.463557,408.37534 490.93081,403.906291 496.421269,403.906291 C501.912448,403.906291 506.378981,408.37534 506.378981,413.868893 C506.378981,414.573508 505.808693,415.144838 505.104474,415.144838 L487.738064,415.144838 Z" id="Fill-78" fill="#B7BEBC" mask="url(#mask-4)"></path>
                            <path d="M496.420981,402.631714 C490.227744,402.631714 485.188763,407.672814 485.188763,413.869541 C485.188763,415.278052 486.330058,416.419991 487.737776,416.419991 L505.104906,416.419991 C506.512624,416.419991 507.653199,415.278052 507.653199,413.869541 C507.653199,407.672814 502.614938,402.631714 496.420981,402.631714 M496.420981,405.181443 C501.216581,405.181443 505.104906,409.071238 505.104906,413.869541 L487.737776,413.869541 C487.737776,409.071238 491.62538,405.181443 496.420981,405.181443" id="Fill-79" fill="#B7BEBC" mask="url(#mask-4)"></path>
                            <path d="M429.380142,381.83525 L429.380142,361.861774 C429.380142,359.524583 427.468382,357.611746 425.131787,357.611746 L412.23983,357.611746 C409.903235,357.611746 407.991475,359.524583 407.991475,361.861774 L407.991475,381.83525" id="Fill-80" fill="#3E4C60" mask="url(#mask-4)"></path>
                            <line x1="342.130527" y1="407.94796" x2="342.130527" y2="398.747611" id="Stroke-81" stroke="#B7BEBC" stroke-width="11.799" stroke-linecap="round" stroke-linejoin="round" mask="url(#mask-4)"></line>
                            <line x1="389.953321" y1="407.94796" x2="389.953321" y2="398.747611" id="Stroke-82" stroke="#B7BEBC" stroke-width="11.799" stroke-linecap="round" stroke-linejoin="round" mask="url(#mask-4)"></line>
                            <line x1="449.098125" y1="407.94796" x2="449.098125" y2="398.747611" id="Stroke-83" stroke="#B7BEBC" stroke-width="11.799" stroke-linecap="round" stroke-linejoin="round" mask="url(#mask-4)"></line>
                            <line x1="496.420981" y1="407.94796" x2="496.420981" y2="398.747611" id="Stroke-84" stroke="#B7BEBC" stroke-width="11.799" stroke-linecap="round" stroke-linejoin="round" mask="url(#mask-4)"></line>
                            <path d="M441.962257,153.030053 C446.090361,153.432073 450.373279,153.834093 454.055667,155.996932 C455.65348,156.934978 457.138244,158.20516 458.448754,159.949407 C461.99649,164.674223 464.266839,172.88105 464.03714,187.424374 C463.528058,219.721419 462.168584,249.081845 469.627687,261.875158 C473.231588,268.056755 464.410131,255.506239 454.68932,255.226699 C444.292371,254.927705 432.797331,266.632394 432.166558,265.440023 C430.945336,263.133091 428.263832,230.2078 428.263832,230.2078 C428.263832,230.2078 425.925797,185.117442 428.969491,178.196647 C432.013906,171.275852 440.09226,161.628813 440.09226,161.628813 L441.962257,153.030053 Z" id="Fill-85" fill="#2E5389" mask="url(#mask-4)"></path>
                            <path d="M376.913536,223.441112 C372.259787,223.016038 369.251376,218.927394 370.227057,214.356038 L395.409721,96.3768662 C396.386122,91.8047897 401.008188,88.0634103 405.680658,88.0634103 L431.584822,88.0634103 C436.257292,88.0634103 439.82735,91.8804386 439.517724,96.5454552 L431.337121,219.874086 C431.027495,224.538382 426.967076,228.008866 422.314048,227.583791 L376.913536,223.441112 Z" id="Fill-86" fill="#2E5389" mask="url(#mask-4)"></path>
                            <path d="M333.482748,378.085874 C332.038308,382.582301 328.026133,391.895764 328.667706,396.874183 C329.31,401.851882 331.717161,403.4578 335.087762,403.939792 C338.457644,404.421784 345.3587,402.976529 349.852596,394.144338 C354.347211,385.312147 357.556519,378.781844 359.00024,374.713373 C360.208501,371.313494 357.075519,360.582155 353.062624,358.173637 C353.062624,358.173637 352.351924,364.39486 348.408875,371.983528 C344.236127,380.01312 339.741511,380.655055 337.975924,380.655055 C334.445469,380.655055 335.649409,377.443218 335.649409,374.713373 C335.649409,371.983528 333.482748,378.085874 333.482748,378.085874" id="Fill-87" fill="#24774B" mask="url(#mask-4)"></path>
                            <path d="M338.00847,383.918549 C333.983334,383.445203 332.680745,380.896195 333.723392,377.443722 C334.76676,373.99125 334.76676,359.137405 334.76676,359.137405 L353.223341,353.355666 L355.050134,362.304573 C355.050134,362.304573 350.249493,385.359481 338.00847,383.918549" id="Fill-88" fill="#3F2F36" mask="url(#mask-4)"></path>
                            <path d="M385.899526,378.477087 C386.54182,376.228513 387.825687,371.197499 388.788407,368.30699 C389.751128,365.416481 389.751128,358.778829 389.751128,358.778829 L408.154425,351.60587 L408.154425,358.029544 L402.697809,380.938919 L391.141564,392.715654 C391.141564,392.715654 385.043375,389.289839 385.150664,388.968511 C385.257233,388.647183 385.899526,378.477087 385.899526,378.477087" id="Fill-89" fill="#3F2F36" mask="url(#mask-4)"></path>
                            <path d="M411.580471,373.66106 C410.509022,376.333268 407.940567,384.683468 404.730539,392.391733 C401.520511,400.099277 397.877007,402.035169 390.063634,402.786614 C382.257462,403.531576 378.840057,399.033708 379.802777,393.997651 C380.766217,388.974563 387.057383,372.743187 388.784807,368.323849 C388.643675,368.747483 385.908167,377.129383 388.655916,380.669032 C389.388218,381.620047 390.524472,382.223798 392.213014,382.223798 C400.346093,382.223798 403.016796,374.406022 404.730539,370.019105 C406.445002,365.631468 408.050016,356.960661 408.050016,356.960661 C408.050016,356.960661 408.903287,358.135741 410.617751,361.880723 C410.880573,362.452052 411.105951,363.063007 411.304688,363.691974 C412.389819,367.199202 412.486307,371.393754 411.580471,373.66106" id="Fill-90" fill="#268E5A" mask="url(#mask-4)"></path>
                            <path d="M411.580471,373.66106 C410.509022,376.333268 407.940567,384.683468 404.730539,392.391733 C401.520511,400.099277 397.669629,403.741952 389.856257,404.493398 C382.050085,405.23836 378.840057,399.033708 379.802777,393.997651 C380.766217,388.974563 387.057383,372.743187 388.784807,368.323849 C388.643675,368.747483 385.908167,377.129383 388.655916,380.669032 C385.638864,389.770678 384.02665,393.74909 386.961615,396.684268 C390.171643,399.896105 398.51642,398.609353 403.651889,385.12007 C406.971366,376.410358 409.750798,368.323849 411.304688,363.691974 C412.389819,367.199202 412.486307,371.393754 411.580471,373.66106" id="Fill-91" fill="#24774B" mask="url(#mask-4)"></path>
                            <path d="M288.315176,209.968328 C292.635537,202.283119 294.795717,199.16134 300.556198,200.602272 C306.316679,202.043203 315.677461,206.606634 324.798463,206.606634 C333.918745,206.606634 327.678704,212.850192 327.678704,212.850192 L288.315176,209.968328 Z" id="Fill-92" fill="#FFB287" mask="url(#mask-4)"></path>
                            <path d="M367.067505,190.360201 C368.115193,185.746337 365.031175,185.974725 369.088714,181.036652 C373.145533,176.099299 389.224476,156.024958 399.840323,153.479552 C410.454729,150.932705 401.441736,178.406231 401.441736,178.406231 L385.092771,197.07134 L367.067505,190.360201 Z" id="Fill-93" fill="#268E5A" mask="url(#mask-4)"></path>
                            <path d="M384.12465,188.531298 C382.840783,194.098338 386.264669,202.234559 386.692384,195.596907 C387.1201,188.959255 389.688555,174.40008 391.400138,170.546308 C391.400138,170.546308 380.914622,174.40008 374.06685,183.606914 L384.12465,188.531298 Z" id="Fill-94" fill="#24774B" mask="url(#mask-4)"></path>
                            <path d="M373.35327,185.926598 C371.545199,185.564924 368.482784,183.152804 369.048031,181.344435 C369.613998,179.535345 374.954684,176.845846 384.987282,188.888433 C392.336936,197.709817 377.17607,206.303534 371.975795,190.144925 C370.889945,186.772425 373.35327,185.926598 373.35327,185.926598" id="Fill-95" fill="#1E5435" mask="url(#mask-4)"></path>
                            <path d="M300.976353,217.251734 C326.713463,221.959979 349.470964,217.046401 361.99641,209.286984 C369.455513,204.662313 375.111585,199.401471 379.348419,194.378383 C380.805821,192.650706 382.096169,190.954729 383.232423,189.31711 C384.066973,188.116094 381.960797,184.865351 377.91694,181.994295 C375.239756,180.09947 373.223588,179.572809 371.779867,179.68232 C370.393031,179.778142 369.519598,180.452498 369.089722,181.037516 C365.629833,185.726308 360.56421,190.974182 353.264961,195.50303 C339.693987,203.910867 322.148282,207.469248 301.117485,206.081631 L300.976353,217.251734 Z" id="Fill-96" fill="#FFB287" mask="url(#mask-4)"></path>
                            <path d="M371.779579,179.68196 C376.10642,183.099129 378.404132,189.014875 379.348851,194.378743 C380.805533,192.650346 382.095881,190.954369 383.232135,189.31747 C384.066685,188.115733 381.961229,184.865712 377.916651,181.993935 C375.240188,180.09983 373.22402,179.573169 371.779579,179.68196" id="Fill-97" fill="#F58D6C" mask="url(#mask-4)"></path>
                            <path d="M332.350798,359.153255 L332.439885,354.148899 C332.797755,333.313025 333.244192,312.424558 338.489831,290.875423 C340.955316,280.749995 346.334166,273.538132 354.477326,269.440842 C360.850578,266.234049 367.511134,265.704506 372.863341,265.278711 C375.36411,265.079862 378.47693,264.832742 379.719034,264.332739 C381.438538,263.641092 383.526712,263.030137 386.171493,262.256356 C401.233711,257.851428 405.543271,254.867979 406.72561,253.340591 C407.069078,246.445732 412.764754,222.227272 419.741417,222.227272 C426.938418,222.227272 432.773065,228.065207 432.773065,235.266263 C432.773065,257.063959 406.236689,283.55693 393.484424,287.286782 C391.942055,287.738514 390.020934,288.299757 389.436966,288.530306 C384.508154,290.513029 379.418049,290.91793 374.928474,291.274561 C365.026927,292.06203 364.888675,292.629757 363.812185,297.047654 C359.253485,315.775445 358.853131,334.037094 358.498862,354.597749 L358.409574,359.641731 C358.277083,366.758493 332.216667,366.352871 332.350798,359.153255" id="Fill-98" fill="#5B2727" mask="url(#mask-4)"></path>
                            <path d="M410.465242,353.618204 C410.609974,345.889046 410.189459,340.389729 409.782625,333.316916 C409.033762,320.31755 408.326663,308.03865 411.39988,295.418249 C412.703189,290.060864 420.095326,283.413846 433.416439,283.413846 C436.852566,283.413846 444.817151,286.535625 449.017982,281.492363 C455.292586,273.958452 456.492926,257.652147 456.492926,235.266551 C456.492926,228.064774 450.658279,222.22756 443.461278,222.22756 C436.264277,222.22756 430.429629,246.796888 430.429629,253.998665 C430.429629,259.420891 429.514433,261.437475 429.280413,261.863991 C428.053431,262.468462 424.012453,262.725668 421.565689,262.880568 C411.247227,263.535472 392.038903,264.753059 386.076805,289.246017 C382.082631,305.651026 382.936623,320.478214 383.761812,334.816205 C384.158565,341.703859 384.532996,348.208225 384.406986,354.9417 C384.298977,360.667962 397.082204,361.551254 404.437619,359.896343 C408.976878,358.875443 410.43788,355.074265 410.465242,353.618204" id="Fill-99" fill="#6D3232" mask="url(#mask-4)"></path>
                            <path d="M392.665499,202.601132 C392.204661,212.47872 390.63565,230.245408 389.044317,244.5834 C387.927504,254.589951 386.797729,262.925741 386.012864,265.764377 C385.96894,265.930084 385.911335,266.088587 385.84653,266.247809 C385.84653,266.255014 385.84653,266.261498 385.840049,266.261498 C385.804046,266.255014 385.767323,266.239884 385.738521,266.21827 C381.699703,265.296074 377.630644,264.770134 372.129384,265.267255 C372.712633,263.321998 373.259879,261.247056 373.771841,259.035225 C374.577589,255.540966 375.420059,251.074077 376.234447,246.102863 C379.279581,227.594094 382.037412,202.212081 381.979807,195.15872 C381.979807,195.15872 382.123819,195.115492 382.390241,195.05065 C383.175107,194.848919 384.990378,194.41664 386.876216,194.186091 C389.31794,193.883495 391.887834,193.897904 392.579092,195.15872 C392.860636,195.67025 392.860636,198.429635 392.665499,202.601132" id="Fill-100" fill="#268E5A" mask="url(#mask-4)"></path>
                            <path d="M383.522032,97.624497 C381.910537,118.921469 400.8654,138.048397 422.088453,139.836594 C443.310785,141.62479 462.295891,133.234965 465.026359,112.052547 L467.362954,91.2087483 C470.093422,70.0256101 454.921035,51.2697216 433.646138,49.5276351 L426.211517,48.918121 C404.93662,47.1767549 386.211456,63.1761409 384.599962,84.4731126 L383.522032,97.624497 Z" id="Fill-101" fill="#A54134" mask="url(#mask-4)"></path>
                            <path d="M462.339094,206.923928 C462.202283,209.798587 461.993466,212.68045 461.719843,215.555109 C461.237402,220.547938 460.559826,228.120034 459.717355,236.196457 C458.299557,249.762829 456.426681,264.74852 454.252819,271.311964 C452.747893,275.872513 447.498655,274.373944 441.169326,271.658508 C436.294519,269.561232 430.778859,266.737006 425.832045,265.389735 C421.720502,264.266528 418.365022,264.164943 415.440857,264.568403 L415.433657,264.568403 C415.095949,264.605147 414.771202,264.662785 414.447175,264.720422 C408.953116,265.699535 404.899177,268.379668 399.852276,269.043217 C399.758668,269.056906 399.672261,269.064111 399.585853,269.07852 C399.419519,269.092929 399.276227,269.114543 399.138696,269.129673 C395.538395,269.518004 402.594985,267.752863 390.995536,265.389735 C389.029052,264.994199 391.089144,256.528725 393.378215,244.071869 C396.014355,229.67624 398.945,209.935475 396.30958,191.13852 C395.898425,188.220633 395.200687,185.093811 394.473426,181.916557 C391.989219,171.08075 389.137781,159.733412 396.100762,154.618104 L396.100762,154.610899 C397.965718,153.242014 400.528412,152.312613 403.985421,151.959585 C404.121512,151.945176 404.266244,151.930766 404.410256,151.923562 C404.655077,151.901948 404.899177,151.880334 405.143998,151.866645 L412.647024,151.404826 L436.711434,149.927871 C447.729074,149.927871 454.634451,157.636856 458.514855,169.221948 C460.517342,175.216224 461.697521,182.240766 462.223885,189.769635 C462.597596,195.281199 462.626398,201.073745 462.339094,206.923928" id="Fill-102" fill="#3CAF78" mask="url(#mask-4)"></path>
                            <path d="M444.891677,226.527732 L435.149264,239.114272 L415.441218,264.568331 L415.434017,264.568331 C415.095589,264.605075 414.771562,264.662712 414.447535,264.72035 C408.953476,265.699463 404.899537,268.379596 399.851916,269.043145 C399.758308,269.056834 399.6719,269.064039 399.585493,269.079168 C399.42708,269.100062 399.283068,269.114471 399.139056,269.129601 C398.483801,269.208132 398.001361,269.244155 397.605328,269.252016 C396.568441,269.265769 396.100402,269.043145 394.782692,268.574122 C393.464982,268.120228 391.297601,267.422097 386.862031,266.491975 C386.85483,266.484771 386.847629,266.484771 386.840429,266.484771 C386.559605,266.427854 386.264381,266.362292 385.961955,266.304654 C385.918752,266.29745 385.875548,266.283761 385.839545,266.261426 C385.803542,266.254942 385.767539,266.239812 385.738737,266.218198 C383.974589,265.288797 386.73962,257.896817 388.53257,244.64745 C389.951089,234.187005 390.771957,220.072358 388.28775,202.60106 C387.898917,199.877699 387.430878,197.075807 386.876432,194.186019 C386.689216,193.221315 386.4948,192.247965 386.285982,191.260927 C384.21941,181.448182 383.607359,168.977638 388.813394,160.713173 C391.751239,156.03735 396.546839,152.701593 403.985061,151.959513 C404.121872,151.945103 404.265884,151.930694 404.409896,151.92349 C404.654717,151.901876 404.899537,151.880262 405.144358,151.866573 L412.647384,151.404754 C413.900289,155.223223 414.238717,165.5475 418.868704,165.208881 C428.380698,164.510029 432.542646,165.943756 433.637137,176.693107 C435.242871,192.399263 435.545297,204.186085 435.545297,204.186085 L443.278743,204.214904 L444.891677,226.527732 Z" id="Fill-103" fill="#268E5A" mask="url(#mask-4)"></path>
                            <path d="M453.412869,115.3878 C452.933309,119.328028 455.738663,122.908743 459.675952,123.387132 C463.614681,123.864801 467.1941,121.060028 467.67222,117.1198 L468.407401,111.067166 C468.885521,107.126938 466.081607,103.545502 462.142878,103.067112 C458.204869,102.589444 454.62617,105.395658 454.14661,109.335166 L453.412869,115.3878 Z" id="Fill-104" fill="#FFB287" mask="url(#mask-4)"></path>
                            <path d="M436.717194,149.924053 C437.193874,157.673384 426.616191,164.732508 418.871224,165.210177 L416.803211,165.3377 C409.058964,165.815369 405.623558,159.620083 405.146878,151.870751 L436.717194,149.924053 Z" id="Fill-105" fill="#FFFFFF" mask="url(#mask-4)"></path>
                            <path d="M408.762084,150.838396 C409.119234,156.638146 410.39662,160.753447 416.488329,160.378085 L418.574343,160.249842 C424.666772,159.873759 433.359338,155.1439 433.002188,149.34415 L432.503187,141.243952 C432.146037,135.444201 426.868716,131.006852 420.777007,131.382214 L418.690993,131.510457 C412.598564,131.886541 407.906652,136.939168 408.263802,142.738198 L408.762084,150.838396 Z" id="Fill-106" fill="#FFB287" mask="url(#mask-4)"></path>
                            <path d="M432.66052,143.793104 C432.875098,147.274395 424.344545,152.039557 419.901054,152.63178 C415.457563,153.222562 408.945339,153.811182 408.701239,149.839974 L407.463455,129.741858 L431.596991,126.52858 L432.66052,143.793104 Z" id="Fill-107" fill="#F58D6C" mask="url(#mask-4)"></path>
                            <path d="M387.304436,112.046855 C386.507329,131.392085 396.856753,143.565077 416.071558,145.141456 C435.287083,146.718556 458.12523,131.571481 460.488468,112.354494 L462.138126,100.831363 C464.501363,81.614376 450.895827,68.6049235 431.610456,67.0220599 L414.223884,65.5955374 C394.937793,64.0133943 388.815122,75.4039601 388.017295,94.7491897 L387.304436,112.046855 Z" id="Fill-108" fill="#FFB287" mask="url(#mask-4)"></path>
                            <path d="M431.794863,104.766547 C431.726458,104.766547 431.658052,104.763666 431.588926,104.757902 C430.926471,104.703867 430.326661,104.394787 429.896785,103.88902 C429.467629,103.382532 429.260972,102.739156 429.316416,102.077769 C429.420105,100.797501 430.506676,99.7946123 431.789103,99.7946123 C431.857509,99.7946123 431.926634,99.7974942 431.99504,99.8032579 C433.359554,99.9149301 434.379879,101.118108 434.26827,102.484111 C434.162421,103.763659 433.07585,104.766547 431.794863,104.766547" id="Fill-112" fill="#422B27" mask="url(#mask-4)"></path>
                            <path d="M431.788527,99.5702592 C430.39161,99.5702592 429.206391,100.663206 429.091902,102.059469 C428.969491,103.547951 430.081984,104.85992 431.569629,104.982399 C431.645235,104.988163 431.720121,104.991045 431.794287,104.991045 C433.191924,104.991045 434.377143,103.898098 434.491633,102.501835 C434.550678,101.780649 434.325299,101.079635 433.85726,100.527758 C433.389221,99.9751611 432.733966,99.6387035 432.013186,99.5796253 C431.937579,99.5731411 431.863413,99.5702592 431.788527,99.5702592 M431.788527,100.01983 C431.850452,100.01983 431.913097,100.021991 431.976463,100.027035 C433.220006,100.129341 434.145284,101.221567 434.043755,102.465812 C433.947267,103.647376 432.958625,104.541474 431.794287,104.541474 C431.732362,104.541474 431.669717,104.539312 431.606352,104.534269 C430.363528,104.431963 429.43681,103.340457 429.539059,102.095492 C429.636267,100.914649 430.62491,100.01983 431.788527,100.01983" id="Fill-113" fill="#422B27" mask="url(#mask-4)"></path>
                            <path d="M428.385163,101.199016 C428.340519,101.748732 428.748793,102.230724 429.298199,102.276113 C429.846885,102.320782 430.329325,101.911557 430.374689,101.362562 C430.419332,100.812847 430.010338,100.330855 429.460932,100.285466 C428.911527,100.240076 428.429806,100.649301 428.385163,101.199016" id="Fill-114" fill="#FFFFFF" mask="url(#mask-4)"></path>
                            <path d="M445.914091,73.7956641 C440.108246,73.3194361 415.24961,71.2797972 404.288854,70.3806557 C399.735914,70.0067339 395.748941,69.6018321 393.305777,66.9476358 C385.424719,58.3820168 388.292718,42.9698105 388.292718,42.9698105 C388.292718,42.9698105 391.651079,46.0843845 410.507293,47.6319453 C430.22038,49.2486707 445.940733,47.6996691 458.756363,63.5088521 C461.95415,67.4541233 445.914091,73.7956641 445.914091,73.7956641" id="Fill-115" fill="#A54134" mask="url(#mask-4)"></path>
                            <path d="M430.96089,68.7861927 C430.718229,71.7458666 427.350508,72.1752642 433.744642,72.6997634 C440.314471,73.2386719 450.393873,77.2365371 449.222335,91.5349032 C448.734854,97.4809082 448.253134,103.358469 448.037116,105.994654 C447.823258,108.604181 452.978169,110.300158 454.642228,106.594802 C456.849932,101.676181 461.774423,103.032098 462.143094,103.067401 C464.875002,103.32893 464.819558,81.3878616 463.546491,79.4390013 C462.272705,77.4894206 456.306287,68.8359048 454.385886,67.3798433 C452.465486,65.9230612 437.711454,59.664374 437.711454,59.664374 C437.711454,59.664374 432.727197,57.6240146 430.711029,60.0563075 C428.695581,62.4886003 430.96089,68.7861927 430.96089,68.7861927" id="Fill-116" fill="#A54134" mask="url(#mask-4)"></path>
                            <path d="M437.155279,95.3069023 C436.786608,95.3069023 436.422258,95.1469589 436.173117,94.8385995 C434.425531,92.6757609 432.383441,91.9581769 429.131649,92.3652401 C428.442551,92.4509755 427.811059,91.9603383 427.723931,91.2694115 C427.638244,90.5777642 428.128605,89.9473566 428.819863,89.8601802 C432.946528,89.3450471 435.821728,90.3904431 438.134561,93.2514131 C438.573077,93.7932035 438.48883,94.5878774 437.947345,95.0259206 C437.713326,95.2154032 437.433222,95.3069023 437.155279,95.3069023" id="Fill-117" fill="#8E3925" mask="url(#mask-4)"></path>
                            <path d="M393.777272,92.4668978 C393.543973,92.4668978 393.308513,92.4027764 393.097535,92.2673288 C392.510686,91.8919661 392.340032,91.1117015 392.715904,90.5245218 C394.804798,87.2608113 399.362779,87.0641241 402.711778,88.2651408 C403.367753,88.5000126 403.709782,89.2219195 403.475042,89.8782639 C403.238862,90.5338879 402.518082,90.8761092 401.862827,90.6412373 C399.343337,89.739214 396.124668,89.8775434 394.840081,91.8854819 C394.599581,92.2615651 394.192027,92.4668978 393.777272,92.4668978" id="Fill-118" fill="#8E3925" mask="url(#mask-4)"></path>
                            <path d="M396.940856,110.26997 C396.934376,114.239017 393.711387,117.449413 389.746015,117.441502 C385.778484,117.433563 382.569176,114.211639 382.577082,110.242593 L382.587178,104.14601 C382.594378,100.176243 385.816647,96.9651266 389.783459,96.9730371 C393.75027,96.9809769 396.958858,100.204341 396.953105,104.173388 L396.940856,110.26997 Z" id="Fill-119" fill="#FFB287" mask="url(#mask-4)"></path>
                            <path d="M414.449479,264.717324 C417.611263,264.153919 421.251167,264.136628 425.83363,265.390959 C430.777562,266.736069 436.292503,269.563177 441.16875,271.657572 C454.671318,257.297966 456.638522,205.817076 456.638522,205.817076 L454.250803,212.126196 C454.250803,212.126196 435.246256,220.759538 435.406109,221.693262 C435.531399,222.459117 421.915782,259.94784 414.449479,264.717324" id="Fill-120" fill="#268E5A" mask="url(#mask-4)"></path>
                            <path d="M459.717643,236.196313 C458.299125,249.762685 456.426969,264.748376 454.252387,271.31182 C452.747461,275.872369 447.498223,274.3738 441.168894,271.658364 C436.294807,269.561808 430.779147,266.737582 425.831613,265.389591 C421.72007,264.266384 418.36459,264.164799 415.441146,264.568259 L415.433945,264.568259 C415.095517,264.605003 414.77149,264.66264 414.447463,264.720278 C408.953404,265.699391 404.899465,268.379524 399.851844,269.043073 C399.758236,269.056762 399.671828,269.063967 399.585421,269.079096 C399.427728,269.09999 399.282996,269.114399 399.138984,269.129529 C398.483729,269.20806 398.001289,269.244083 397.605256,269.251288 C396.568369,269.265697 396.10033,269.043073 394.78262,268.57405 C393.46491,268.120877 391.297529,267.422025 386.861959,266.491903 C386.855478,266.484699 386.847557,266.484699 386.840357,266.484699 C386.559533,266.427782 386.264309,266.362219 385.961883,266.304582 C385.91868,266.297378 385.875476,266.283689 385.839473,266.261354 C385.80419,266.25487 385.767467,266.23974 385.738665,266.218126 C381.699127,265.29665 377.630788,264.76999 372.129528,265.267832 C372.712777,263.321853 373.260023,261.246912 373.771985,259.035081 C374.577733,255.541542 375.420203,251.073933 376.234591,246.102719 L388.533218,244.647378 L389.044461,244.583256 L393.378503,244.071725 L435.149192,239.1142 L459.717643,236.196313 Z" id="Fill-121" fill="#24774B" mask="url(#mask-4)"></path>
                            <path d="M458.367531,60.3857765 C459.67372,56.3583722 453.168697,47.2358331 453.168697,47.2358331 C453.168697,47.2358331 448.754008,53.2099363 450.289176,56.7265303 C451.824344,60.2438448 457.061342,64.4131809 458.367531,60.3857765" id="Fill-122" fill="#A54134" mask="url(#mask-4)"></path>
                            <path d="M457.42526,59.2920373 C462.269825,57.3474998 471.500996,66.1162902 471.500996,66.1162902 C471.500996,66.1162902 464.541614,69.2618443 459.653846,66.743816 C456.044185,64.8842935 453.269073,60.9606363 457.42526,59.2920373" id="Fill-123" fill="#A54134" mask="url(#mask-4)"></path>
                            <path d="M400.543965,102.202337 C400.47556,102.202337 400.407154,102.199455 400.338028,102.193692 C399.676293,102.139657 399.076483,101.830577 398.646607,101.32481 C398.217451,100.818322 398.010794,100.174946 398.065518,99.5135586 C398.169927,98.2332907 399.256498,97.2304022 400.538205,97.2304022 C400.606611,97.2304022 400.675736,97.233284 400.744142,97.2390478 C402.109376,97.3514404 403.129701,98.553898 403.017372,99.9199013 C402.912243,101.199449 401.825672,102.202337 400.543965,102.202337" id="Fill-124" fill="#422B27" mask="url(#mask-4)"></path>
                            <path d="M429.685375,120.825084 C429.685375,120.825084 424.374212,133.585976 411.490896,132.628476 C397.241626,131.570112 398.469328,118.505184 398.469328,118.505184 L429.685375,120.825084 Z" id="Fill-125" fill="#8E2B30" mask="url(#mask-4)"></path>
                            <path d="M410.321086,113.477196 C406.833115,113.196214 404.02848,110.981502 404.347467,108.98365 C404.462677,108.25598 405.265544,107.433928 406.579653,108.189697 C407.183064,108.536962 408.849283,109.021115 410.652314,109.158003 C412.454624,109.294171 413.460548,109.012469 414.503915,108.789845 C416.776425,108.305692 417.404317,109.236534 417.400733,109.97213 C417.389916,111.993036 413.811937,113.724316 410.321086,113.477196" id="Fill-126" fill="#F58D6C" mask="url(#mask-4)"></path>
                            <path d="M404.147794,130.336386 C408.098044,126.214601 417.226967,127.100774 424.33324,128.139686 C421.401875,130.792441 417.188083,133.052543 411.490968,132.628909 C408.314782,132.392596 405.911222,131.558296 404.088029,130.406992 C404.108911,130.383216 404.125472,130.359441 404.147794,130.336386" id="Fill-127" fill="#D85365" mask="url(#mask-4)"></path>
                            <path d="M429.610777,120.99216 C429.40268,121.445333 428.749585,122.772431 427.596769,124.299098 C427.596769,124.299098 428.553729,123.152837 428.039606,123.26523 C428.039606,123.26523 403.643248,124.304141 400.534749,120.576451 L399.788766,118.603815 L429.685663,120.825012 L429.610777,120.99216 Z" id="Fill-128" fill="#FFFFFF" mask="url(#mask-4)"></path>
                            <path d="M458.274715,111.380208 C458.45617,109.826884 459.858847,108.715925 461.409857,108.896042 C461.506345,108.906849 461.595632,108.936388 461.68852,108.957281 C461.965743,108.903967 462.250887,108.878751 462.546832,108.913333 C464.097121,109.093449 465.211054,110.499078 465.030319,112.052403 L464.591083,115.718854 C464.410347,117.272899 463.00551,118.383857 461.45306,118.20302 C461.357292,118.191493 461.268005,118.161954 461.175117,118.141781 C460.898614,118.195095 460.61275,118.220311 460.317526,118.185729 C458.768676,118.005612 457.655463,116.600704 457.836918,115.04738 L458.274715,111.380208 Z" id="Fill-129" fill="#F58D6C" mask="url(#mask-4)"></path>
                            <path d="M396.100546,154.610251 C385.13259,160.402076 381.702224,172.559938 382.104737,192.946241 L383.425328,202.603366 L393.244068,202.603366 L396.100546,154.610251 Z" id="Fill-130" fill="#268E5A" mask="url(#mask-4)"></path>
                            <path d="M444.571755,202.354157 C448.624253,193.457844 449.237744,187.789939 449.978686,183.903025 L443.812811,196.106997 L432.980946,187.14224 L431.908777,187.845414 L430.875491,188.865594 C430.661633,193.528449 430.325365,201.371441 430.108627,207.506929 C430.069743,208.589068 432.894539,209.032155 434.977673,209.05593 C438.670862,209.099158 442.770884,206.308794 444.571755,202.354157" id="Fill-131" fill="#268E5A" mask="url(#mask-4)"></path>
                            <path d="M444.805198,161.444158 C440.022559,158.640105 439.337781,162.156699 426.725928,180.625842 C426.725928,180.625842 429.294383,185.130195 429.552164,185.265642 C429.811386,185.40109 437.062391,188.707308 437.062391,188.707308 L447.169155,171.460075 L444.805198,161.444158 Z" id="Fill-132" fill="#3CAF78" mask="url(#mask-4)"></path>
                            <path d="M430.783683,185.926598 C428.976332,185.564924 425.913196,183.152804 426.478443,181.344435 C427.045131,179.535345 432.385097,176.845846 442.418415,188.888433 C449.767348,197.709817 434.606482,206.303534 429.406928,190.144925 C428.321077,186.772425 430.783683,185.926598 430.783683,185.926598" id="Fill-133" fill="#1E5435" mask="url(#mask-4)"></path>
                            <path d="M358.542137,217.251734 C384.285007,221.959979 407.042508,217.046401 419.567954,209.286984 C426.94425,204.713466 432.554959,199.52395 436.778832,194.545531 C438.287358,192.759496 439.623069,191.006603 440.797487,189.31711 C441.638518,188.116094 439.533782,184.865351 435.488484,181.994295 C434.288144,181.146306 433.222455,180.568493 432.278456,180.20826 C429.113791,178.975543 427.342444,180.105954 426.661987,181.037516 C423.201378,185.726308 418.136475,190.974182 410.837225,195.50303 C397.259771,203.910867 379.720546,207.469248 358.68975,206.081631 L358.542137,217.251734 Z" id="Fill-134" fill="#FFB287" mask="url(#mask-4)"></path>
                            <path d="M435.4887,181.994295 C434.28836,181.146306 433.222671,180.568493 432.278672,180.20826 C432.670385,180.562009 433.0945,180.979158 433.556058,181.467634 C436.965543,185.051952 437.459504,190.807034 436.779048,194.545531 C438.287574,192.759496 439.622565,191.006603 440.797703,189.31711 C441.638734,188.116094 439.533278,184.865351 435.4887,181.994295" id="Fill-135" fill="#F58D6C" mask="url(#mask-4)"></path>
                            <path d="M393.813131,299.744358 C391.532701,289.177285 390.45261,274.888285 398.253742,269.364473 C406.054154,263.840661 416.255246,261.079115 432.576129,267.923541 C448.897732,274.767967 407.974554,278.249979 407.494274,278.610212 C407.013994,278.970445 393.813131,299.744358 393.813131,299.744358" id="Fill-136" fill="#6D3232" mask="url(#mask-4)"></path>
                            <path d="M425.845222,277.507755 L425.846663,277.506314 L425.843782,277.509196 C425.843782,277.508475 425.844502,277.508475 425.845222,277.507755" id="Fill-137" fill="#6D4739" mask="url(#mask-4)"></path>
                            <path d="M405.726454,221.879935 C422.857405,222.524031 438.263092,227.993808 440.139568,229.612695 C440.835866,230.091085 441.035323,230.30074 441.033163,230.941955 C441.059805,229.813705 441.093648,228.637185 441.138292,227.397263 C437.020988,224.746669 422.626266,220.451251 407.605811,219.578767 C406.475317,220.578053 405.821502,221.123446 405.821502,221.123446 C405.783339,221.405148 405.753096,221.656591 405.726454,221.879935" id="Fill-138" fill="#FF9676" mask="url(#mask-4)"></path>
                            <path d="M374.781438,224.903154 C375.993299,224.60272 377.362853,224.303006 378.911703,224.017701 C383.577692,223.151701 389.865257,222.3772 398.245317,221.92835 C400.750407,221.795064 403.257656,221.785698 405.726742,221.880079 C405.753384,221.656735 405.783627,221.405292 405.82107,221.12359 C405.82107,221.12359 406.475605,220.578197 407.606099,219.578191 C404.439275,219.39159 401.245808,219.36061 398.116427,219.527758 C391.887186,219.860613 385.260473,220.509032 379.523034,221.49535 C377.882737,221.779934 376.320926,222.090455 374.856324,222.428354 C374.832562,223.161788 374.8052,223.996087 374.781438,224.903154" id="Fill-139" fill="#A2A2C9" mask="url(#mask-4)"></path>
                            <path d="M440.878638,235.255672 C440.821753,234.255666 440.790071,233.261423 440.772069,232.272223 L440.828954,232.253491 C440.826074,233.430732 440.862797,234.623824 440.917521,235.821959 C440.90528,235.633197 440.889439,235.443714 440.878638,235.255672" id="Fill-140" fill="#CC2B33" mask="url(#mask-4)"></path>
                            <path d="M413.342674,239.935891 C413.341234,239.913556 413.341954,239.894104 413.341234,239.871769 C413.485966,239.719751 413.602616,239.56269 413.679662,239.398423 C413.662381,239.43949 413.598296,239.605197 413.537811,239.871049 L413.342674,239.935891 Z" id="Fill-141" fill="#CC2B33" mask="url(#mask-4)"></path>
                            <path d="M438.541971,283.266511 C425.546326,283.266511 417.372203,287.041031 413.38883,297.317757 C409.406898,307.593762 414.856313,307.804138 414.856313,307.804138 C414.856313,307.804138 431.625073,305.496486 433.721168,305.28683 C435.817263,305.077175 442.942978,301.511589 442.942978,301.511589 L438.541971,283.266511 Z" id="Fill-142" fill="#4977A5" mask="url(#mask-4)"></path>
                            <path d="M428.031469,301.452655 C428.031469,308.46567 433.766748,314.204181 440.775093,314.204181 L486.58604,314.204181 C493.595825,314.204181 499.634249,308.474315 500.00652,301.470666 L500.300305,295.936047 C500.672576,288.932399 495.241882,283.202533 488.232097,283.202533 L440.775093,283.202533 C433.766748,283.202533 428.031469,288.941044 428.031469,295.953339 L428.031469,301.452655 Z" id="Fill-143" fill="#7AAEED" mask="url(#mask-4)"></path>
                            <path d="M437.865474,258.974058 L437.865474,287.583758 C437.865474,295.709173 444.510189,302.356911 452.631028,302.356911 L478.330694,302.356911 C486.452252,302.356911 492.024798,295.795629 490.715008,287.776843 L488.081748,271.649214 C486.772679,263.630429 483.819712,257.068426 481.521281,257.068426 L477.341331,257.068426" id="Stroke-144" stroke="#2E5389" stroke-width="9.807" stroke-linecap="round" stroke-linejoin="round" mask="url(#mask-4)"></path>
                            <path d="M496.113731,286.505797 C497.278069,294.046914 491.992107,300.215543 484.36739,300.215543 L456.22528,300.215543 C448.599123,300.215543 442.359802,294.661471 442.359802,287.873242 L442.359802,281.402017" id="Stroke-145" stroke="#CCDDD8" stroke-width="9.807" stroke-linecap="round" stroke-linejoin="round" mask="url(#mask-4)"></path>
                            <path d="M496.113731,286.505797 L492.954827,266.068341 C492.794974,265.03015 492.602718,264.018616 492.38526,263.045267" id="Stroke-146" stroke="#E1EFEA" stroke-width="9.807" stroke-linecap="round" stroke-linejoin="round" mask="url(#mask-4)"></path>
                            <path d="M492.385404,263.045627 C491.02017,256.946883 488.639651,252.358236 486.656605,252.358236 L482.476656,252.358236" id="Stroke-147" stroke="#7F8A99" stroke-width="9.807" stroke-linecap="round" stroke-linejoin="round" mask="url(#mask-4)"></path>
                            <line x1="442.359514" y1="275.531373" x2="442.359514" y2="281.401729" id="Stroke-148" stroke="#7F8A99" stroke-width="9.807" stroke-linecap="round" stroke-linejoin="round" mask="url(#mask-4)"></line>
                            <path d="M490.595118,252.358308 L456.224488,252.358308 C448.599051,252.358308 442.35973,257.283413 442.35973,263.302185 L442.35973,274.246782" id="Stroke-149" stroke="#7AAEED" stroke-width="19.614" stroke-linecap="round" stroke-linejoin="round" mask="url(#mask-4)"></path>
                            <path d="M485.643985,243.365813 L451.273354,243.365813 C443.647917,243.365813 437.408596,249.60865 437.408596,257.238384 L437.408596,274.246422" id="Stroke-150" stroke="#2E5389" stroke-width="19.614" stroke-linecap="round" stroke-linejoin="round" mask="url(#mask-4)"></path>
                            <path d="M197.08514,415.57193 C197.08514,419.899769 193.578448,423.407717 189.253766,423.407717 C184.928365,423.407717 181.422392,419.899769 181.422392,415.57193" id="Fill-151" fill="#404963" mask="url(#mask-4)"></path>
                            <path d="M136.486175,415.57193 C136.486175,419.899769 132.979482,423.407717 128.654801,423.407717 C124.33012,423.407717 120.823427,419.899769 120.823427,415.57193" id="Fill-152" fill="#404963" mask="url(#mask-4)"></path>
                            <path d="M260.070385,415.57193 C260.070385,419.899769 256.563692,423.407717 252.239011,423.407717 C247.91433,423.407717 244.407637,419.899769 244.407637,415.57193" id="Fill-153" fill="#56698F" mask="url(#mask-4)"></path>
                            <path d="M210.15452,415.57193 C210.15452,419.899769 206.647827,423.407717 202.323146,423.407717 C197.997745,423.407717 194.491772,419.899769 194.491772,415.57193" id="Fill-154" fill="#56698F" mask="url(#mask-4)"></path>
                            <polygon id="Fill-155" fill="#934631" mask="url(#mask-4)" points="522.049361 424.229769 536.76307 424.229769 536.76307 222.505804 522.049361 222.505804"></polygon>
                            <polygon id="Fill-156" fill="#934631" mask="url(#mask-4)" points="469.286955 424.23121 483.994903 424.23121 483.994903 222.506524 469.286955 222.506524"></polygon>
                            <polygon id="Fill-157" fill="#D36F54" mask="url(#mask-4)" points="476.992318 424.23121 483.998503 424.23121 483.998503 222.507965 476.992318 222.507965"></polygon>
                            <polygon id="Fill-158" fill="#7A392A" mask="url(#mask-4)" points="483.998575 318.869774 483.998575 424.230705 469.179738 424.230705 469.179738 325.440422"></polygon>
                            <polygon id="Fill-159" fill="#934631" mask="url(#mask-4)" points="146.173648 424.229769 160.886637 424.229769 160.886637 222.505804 146.173648 222.505804"></polygon>
                            <polygon id="Fill-160" fill="#934631" mask="url(#mask-4)" points="94.1752255 424.229769 108.888934 424.229769 108.888934 222.505804 94.1752255 222.505804"></polygon>
                            <polygon id="Fill-161" fill="#E0B196" mask="url(#mask-4)" points="116.386201 412.728972 264.878443 412.728972 264.878443 262.257509 116.386201 262.257509"></polygon>
                            <polygon id="Fill-162" fill="#EFCBAB" mask="url(#mask-4)" points="203.046158 412.728972 264.878443 412.728972 264.878443 262.257509 203.046158 262.257509"></polygon>
                            <path d="M380.184697,216.854901 C381.373516,217.28502 381.312311,217.635887 380.048606,217.635887 L275.541237,217.635887 C274.276812,217.635887 273.242085,216.600577 273.242085,215.336159 L273.242085,212.257609 C273.242085,210.992471 274.276812,209.957882 275.541237,209.957882 L358.79243,209.957882 C360.056856,209.957882 362.064384,210.308748 363.253203,210.738867 L380.184697,216.854901 Z" id="Fill-163" fill="#43535B" mask="url(#mask-4)"></path>
                            <path d="M385.411469,215.335871 C385.411469,216.601009 384.377463,217.635598 383.113758,217.635598 L361.205928,217.635598 C359.942222,217.635598 358.906776,216.601009 358.906776,215.335871 L358.906776,212.258041 C358.906776,210.992903 359.940062,210.017392 361.202328,210.09088 L383.116638,211.358179 C384.378903,211.430946 385.411469,212.526054 385.411469,213.790472 L385.411469,215.335871 Z" id="Fill-164" fill="#61778C" mask="url(#mask-4)"></path>
                            <polygon id="Fill-165" fill="#EFCBAB" mask="url(#mask-4)" points="203.049543 369.975013 203.049543 412.731782 264.876786 412.731782 264.876786 353.430234"></polygon>
                            <polygon id="Fill-166" fill="#E0B196" mask="url(#mask-4)" points="93.3975605 250.69187 537.110139 250.69187 537.110139 222.571366 93.3975605 222.571366"></polygon>
                            <polygon id="Fill-167" fill="#FFE9CF" mask="url(#mask-4)" points="482.963777 250.78481 537.133181 250.78481 537.133181 235.947536 482.963777 235.947536"></polygon>
                            <polygon id="Fill-168" fill="#96725E" mask="url(#mask-4)" points="93.3975605 235.948256 483.609671 235.948256 483.609671 221.845136 93.3975605 221.845136"></polygon>
                            <line x1="390.979262" y1="167.473089" x2="384.527524" y2="197.190145" id="Stroke-169" stroke="#5B2727" stroke-width="5.904" stroke-linecap="round" stroke-linejoin="round" mask="url(#mask-4)"></line>
                            <line x1="363.690855" y1="166.818113" x2="369.691116" y2="200.919925" id="Stroke-170" stroke="#37BCF7" stroke-width="5.904" stroke-linecap="round" stroke-linejoin="round" mask="url(#mask-4)"></line>
                            <path d="M376.516207,198.959393 C376.621335,198.972362 376.722144,198.981007 376.823672,198.981007 C378.142102,198.981007 379.284838,197.987485 379.438931,196.642375 L381.490382,178.91243 L381.763285,176.550743 L382.291089,172.013249 C382.457423,170.566553 381.420536,169.256026 379.974655,169.088878 C378.528775,168.921729 377.219705,169.959921 377.051931,171.406616 L376.498925,176.181864 L376.230343,178.49456 L374.199773,196.035022 C374.033439,197.486761 375.069606,198.792245 376.516207,198.959393" id="Fill-171" fill="#FF506E" mask="url(#mask-4)"></path>
                            <path d="M379.658765,177.439654 C378.534031,177.204061 377.32433,177.237203 376.314086,177.709828 L376.509222,176.028981 C377.509385,175.539065 378.719807,175.503762 379.84238,175.738634 C380.666849,175.912266 381.2717,176.167311 381.763501,176.551319 L381.568364,178.234327 C381.075843,177.863288 380.473153,177.611124 379.658765,177.439654" id="Fill-172" fill="#CFF8FF" mask="url(#mask-4)"></path>
                            <path d="M374.40247,186.147204 C374.145409,186.324439 374.730097,184.075144 374.822265,183.668081 C375.165014,182.156544 375.324147,180.623392 375.494801,179.085918 C375.688497,177.34167 375.502002,174.698281 376.430879,173.124063 C377.006207,172.148552 378.526974,173.033284 377.948766,174.012397 C377.451205,174.854622 377.545532,176.449013 377.441124,177.389221 C377.27551,178.876263 377.173261,180.386359 376.938522,181.863314 C376.695862,183.395745 376.346632,184.899357 375.986602,186.407293 C375.846911,186.99159 375.797226,187.31508 375.289584,187.665946 C374.354226,188.311484 373.475753,186.786258 374.40247,186.147204" id="Fill-173" fill="#CFF8FF" mask="url(#mask-4)"></path>
                            <polygon id="Fill-174" fill="#FFE32A" mask="url(#mask-4)" points="361.35066 220.583601 389.800236 220.583601 389.800236 184.769241 361.35066 184.769241"></polygon>
                            <polygon id="Fill-175" fill="#FFAE2C" mask="url(#mask-4)" points="361.35066 220.583601 375.399033 220.583601 375.399033 184.769241 361.35066 184.769241"></polygon>
                            <polygon id="Fill-176" fill="#FFE32A" mask="url(#mask-4)" points="358.71452 192.301712 392.068425 192.301712 392.068425 184.769962 358.71452 184.769962"></polygon>
                            <polygon id="Fill-177" fill="#E58741" mask="url(#mask-4)" points="361.35066 196.10289 389.800236 196.10289 389.800236 192.334854 361.35066 192.334854"></polygon>
                            <polygon id="Fill-178" fill="#FFAE2C" mask="url(#mask-4)" points="358.71452 192.301712 377.371998 192.301712 377.371998 184.769962 358.71452 184.769962"></polygon>
                            <polygon id="Fill-179" fill="#FFFFFF" mask="url(#mask-4)" points="384.636685 192.301712 388.89296 192.301712 388.89296 184.769962 384.636685 184.769962"></polygon>
                            <polygon id="Fill-180" fill="#E0B196" mask="url(#mask-4)" points="74.7883263 230.174443 492.883325 230.174443 492.883325 215.339329 74.7883263 215.339329"></polygon>
                            <polygon id="Fill-181" fill="#FFE9CF" mask="url(#mask-4)" points="490.824674 230.173002 560.319838 230.173002 560.319838 215.335727 490.824674 215.335727"></polygon>
                            <polygon id="Fill-182" fill="#D36F54" mask="url(#mask-4)" points="116.387641 415.798156 264.877002 415.798156 264.877002 407.365103 116.387641 407.365103"></polygon>
                            <polygon id="Fill-183" fill="#8E7262" mask="url(#mask-4)" points="116.386201 415.795995 203.046158 415.795995 203.046158 407.362221 116.386201 407.362221"></polygon>
                            <path d="M192.653026,194.589407 C192.485972,206.000867 191.267631,213.468496 182.793243,213.468496 L167.983046,213.468496 C166.407554,213.468496 166.037443,214.114754 165.963277,215.335943 C164.702452,236.166774 166.214578,410.399922 166.214578,410.399922 C166.214578,418.868278 165.764541,430.362591 150.448861,430.362591 L0.000216018042,430.362591" id="Stroke-184" stroke="#43535B" stroke-width="5.321" mask="url(#mask-4)"></path>
                            <path d="M192.677292,186.923218 C192.677292,189.630729 192.688093,192.196308 192.65281,194.589696" id="Stroke-185" stroke="#303E44" stroke-width="5.321" mask="url(#mask-4)"></path>
                            <polygon id="Fill-186" fill="#934631" mask="url(#mask-4)" points="484.112489 250.62321 469.133078 250.62321 469.133078 260.472699 476.623143 255.547594 484.112489 255.547594"></polygon>
                            <path d="M175.626484,182.361588 C175.684809,184.882499 184.189439,186.923578 186.70893,186.923578 L337.708421,186.923578 C340.219991,186.923578 342.219598,184.882499 342.163207,182.361588 L339.672745,74.1540958 C339.615141,71.6375085 337.521206,69.5928263 335.009636,69.5928263 L177.590088,69.5928263 C175.070598,69.5928263 173.079632,71.6375085 173.136017,74.1540958 L175.626484,182.361588 Z" id="Fill-187" fill="#61778C" mask="url(#mask-4)"></path>
                            <path d="M333.890719,182.360508 C333.953308,184.88502 331.95082,186.921057 329.439971,186.921057 L172.022583,186.921057 C169.499493,186.921057 167.413478,184.88502 167.355874,182.360508 L164.869445,74.1530151 C164.806861,71.6349869 166.803587,69.5924661 169.320198,69.5924661 L326.737585,69.5924661 C329.254195,69.5924661 331.34741,71.6349869 331.405015,74.1530151 L333.890719,182.360508 Z" id="Fill-188" fill="#43535B" mask="url(#mask-4)"></path>
                            <path d="M276.863124,186.81839 C276.863124,186.81839 276.612543,186.850091 276.156745,186.921417 L226.158649,186.921417 C232.482217,172.74481 259.182767,140.820966 260.171409,140.570244 C261.455997,140.248916 268.761727,140.248916 268.761727,140.248916 L276.863124,186.81839 Z" id="Fill-189" fill="#A0A6BA" mask="url(#mask-4)"></path>
                            <path d="M224.611311,194.692146 L227.34754,184.15173 C227.765175,182.487454 229.457316,181.125773 231.127856,181.125773 L246.090705,181.125773 C247.761245,181.125773 248.769329,182.487454 248.351694,184.15173 L245.615466,194.692146 C245.19063,196.363627 243.498489,197.710898 241.827949,197.710898 L226.8651,197.710898 C225.19528,197.710898 224.186476,196.363627 224.611311,194.692146 M265.352314,135.68599 L242.778429,135.68599 C240.258218,135.68599 237.694804,137.732113 237.061871,140.246539 L230.494203,166.702046 L220.247747,208.906938 C220.002927,209.886772 220.082133,210.801763 220.427762,211.543843 C220.953406,212.710998 222.120623,213.467487 223.653631,213.467487 L246.242638,213.467487 C248.747727,213.467487 251.318342,211.428569 251.951995,208.906938 L256.041937,192.048036 L257.287641,186.918319 L268.758919,140.246539 C269.399052,137.732113 267.872525,135.68599 265.352314,135.68599" id="Fill-190" fill="#61778C" mask="url(#mask-4)"></path>
                            <polygon id="Fill-191" fill="#61778C" mask="url(#mask-4)" points="265.993312 141.404039 267.913712 136.721011 265.513032 131.437834 251.952139 130.476733 260.112581 141.043806"></polygon>
                            <path d="M248.351838,184.151802 L245.61561,194.692218 C245.190774,196.363699 243.498633,197.71097 241.828093,197.71097 L226.865244,197.71097 C225.194704,197.71097 224.18662,196.363699 224.611455,194.692218 L227.347684,184.151802 C227.765319,182.487526 229.45746,181.125845 231.128,181.125845 L246.090849,181.125845 C247.761389,181.125845 248.769473,182.487526 248.351838,184.151802 M262.2634,129.540488 L239.682314,129.540488 C237.162104,129.540488 234.60589,131.586611 233.972237,134.101037 L216.28036,206.976161 C215.639506,209.497792 217.166034,211.543915 219.686244,211.543915 L242.26733,211.543915 C244.78034,211.543915 247.343754,209.497792 247.977407,206.976161 L265.287653,135.686062 L265.669285,134.101037 C266.310138,131.586611 264.77641,129.540488 262.2634,129.540488" id="Fill-192" fill="#506175" mask="url(#mask-4)"></path>
                            <path d="M282.379576,213.035928 C282.379576,214.301066 281.34485,215.335655 280.081144,215.335655 L208.592134,215.335655 C207.328428,215.335655 206.293702,214.301066 206.293702,213.035928 L206.293702,209.958098 C206.293702,208.69296 207.328428,207.65765 208.592134,207.65765 L280.081144,207.65765 C281.34485,207.65765 282.379576,208.69296 282.379576,209.958098 L282.379576,213.035928 Z" id="Fill-193" fill="#506175" mask="url(#mask-4)"></path>
                            <path d="M285.4448,213.035928 C285.4448,214.301066 284.410074,215.335655 283.146368,215.335655 L261.239259,215.335655 C259.974833,215.335655 258.940107,214.301066 258.940107,213.035928 L258.940107,209.958098 C258.940107,208.69296 259.974833,207.65765 261.239259,207.65765 L283.146368,207.65765 C284.410074,207.65765 285.4448,208.69296 285.4448,209.958098 L285.4448,213.035928 Z" id="Fill-194" fill="#61778C" mask="url(#mask-4)"></path>
                            <path d="M229.813098,193.4278 C229.736051,193.556043 229.691408,193.601433 229.678447,193.562527 C229.665486,193.524343 229.710129,193.485438 229.813098,193.4278" id="Fill-195" fill="#BFCBD1" mask="url(#mask-4)"></path>
                            <polygon id="Fill-196" fill="#FF4A42" mask="url(#mask-4)" points="545.614338 195.528391 545.614338 215.61498 448.880018 215.61498 448.880018 211.081088 451.486636 211.081088 451.486636 200.062283 448.880018 200.062283 448.880018 195.528391"></polygon>
                            <polygon id="Fill-197" fill="#E63C3D" mask="url(#mask-4)" points="494.952778 195.528391 494.952778 215.61498 448.88045 215.61498 448.88045 211.081088 451.487068 211.081088 451.487068 200.062283 448.88045 200.062283 448.88045 195.528391"></polygon>
                            <polygon id="Fill-198" fill="#D1E0E5" mask="url(#mask-4)" points="450.728125 211.079935 489.997324 211.079935 489.997324 200.064012 450.728125 200.064012"></polygon>
                            <path d="M228.928504,196.851094 L231.664733,186.31356 C232.085968,184.645681 233.778829,183.290485 235.448649,183.290485 L248.429173,183.290485 C248.370128,182.044079 247.457812,181.129087 246.093298,181.129087 L231.128288,181.129087 C229.458468,181.129087 227.765607,182.484284 227.344372,184.152162 L224.608143,194.689696 C224.186908,196.359736 225.195712,197.712771 226.865532,197.712771 L228.850738,197.712771 C228.838497,197.438274 228.852898,197.152969 228.928504,196.851094" id="Fill-199" fill="#334251" mask="url(#mask-4)"></path>
                            <path d="M397.6054,269.251216 C396.568513,269.266345 396.100474,269.043001 394.782764,268.574698 C395.682839,268.805247 396.618917,269.027871 397.6054,269.251216" id="Fill-200" fill="#492323" mask="url(#mask-4)"></path>
                            <path d="M496.150958,424.481355 L562.50738,424.481355 C569.705822,424.481355 572.460052,419.765186 572.460052,412.625369 L572.460052,340.755294 C572.460052,338.518247 570.395639,336.709157 567.855987,336.709157 L512.141334,336.709157 C509.601682,336.709157 507.54519,338.518247 507.54519,340.755294 L506.151154,360.262628 L502.045371,417.693126 C502.045371,419.923688 493.611306,424.481355 496.150958,424.481355" id="Fill-201" fill="#E83434" mask="url(#mask-4)"></path>
                            <path d="M510.046607,355.428518 L568.338355,355.428518 C570.614466,355.428518 572.45998,353.582685 572.45998,351.305292 L572.45998,335.921904 C572.45998,333.684137 570.396287,331.875047 567.855915,331.875047 L512.141262,331.875047 C509.60161,331.875047 507.545118,333.684137 507.545118,335.921904 L507.545118,352.92562 C507.545118,354.308194 508.664812,355.428518 510.046607,355.428518" id="Fill-202" fill="#912626" mask="url(#mask-4)"></path>
                            <path d="M534.020937,351.515884 L534.020937,357.500794 C534.020937,360.791883 536.712522,363.484984 540.002477,363.484984 C543.291712,363.484984 545.983296,360.791883 545.983296,357.500794 L545.983296,351.515884" id="Fill-203" fill="#912626" mask="url(#mask-4)"></path>
                            <polygon id="Fill-204" fill="#912626" mask="url(#mask-4)" points="513.533642 380.709522 504.639459 392.0266 496.152831 424.481427 514.612292 424.481427 519.325086 402.269464"></polygon>
                            <path d="M481.816577,322.877365 L481.816577,347.701738 C481.816577,349.9323 483.88027,350.306942 486.420642,350.306942 L572.300774,350.306942 C574.840427,350.306942 576.904119,349.9323 576.904119,347.701738 L576.904119,336.708869 C576.904119,336.18365 576.883237,335.672839 576.842194,335.175718 C575.420075,317.525744 549.408622,318.831229 549.408622,318.831229 L486.420642,318.831229 C483.88027,318.831229 481.816577,320.640318 481.816577,322.877365" id="Fill-205" fill="#B8CC27" mask="url(#mask-4)"></path>
                            <path d="M512.118148,349.676751 L572.300774,349.676751 C574.840427,349.676751 576.904119,347.860456 576.904119,345.630614 L576.904119,347.701954 C576.904119,349.931796 574.840427,351.74809 572.300774,351.74809 L512.118148,351.74809 C509.579216,351.74809 507.514803,349.931796 507.514803,347.701954 L507.514803,345.630614 C507.514803,347.860456 509.579216,349.676751 512.118148,349.676751" id="Fill-206" fill="#85A520" mask="url(#mask-4)"></path>
                            <path d="M481.816577,322.973763 L481.816577,335.176294 L576.842194,335.176294 C576.359033,329.189223 573.053237,325.384442 568.89129,322.973763 L481.816577,322.973763 Z" id="Fill-207" fill="#D5E22B" mask="url(#mask-4)"></path>
                            <path d="M514.013922,351.746001 C510.045671,351.746001 507.572984,350.077402 507.572984,345.070885 C507.572984,340.064367 497.737683,352.666756 497.737683,352.666756 L507.227355,354.047169 L513.438594,353.529875 L514.013922,351.746001 Z" id="Fill-208" fill="#912626" mask="url(#mask-4)"></path>
                            <path d="M507.544686,346.394524 L507.544686,412.517443 C507.544686,418.036212 506.104566,424.485102 497.197422,424.485102 L489.081624,424.485102 C488.707913,424.485102 488.355083,424.469972 488.009454,424.433949 C481.003269,423.864781 480.045589,417.583039 480.045589,412.971336 L480.045589,324.440488 C480.045589,322.221453 482.061038,320.427493 484.531564,320.399395 C484.697178,320.39147 484.862792,320.399395 485.034886,320.413084 C492.50191,321.011791 504.908546,323.908784 506.442994,335.947769 C506.536602,336.689128 507.544686,345.580398 507.544686,346.394524" id="Fill-209" fill="#B23232" mask="url(#mask-4)"></path>
                            <path d="M496.57781,424.434237 L488.009814,424.434237 C481.002909,423.865069 480.045229,417.582606 480.045229,412.971625 L480.045229,390.298563 C484.898435,389.470027 491.018946,390.233721 491.234964,390.233721 C491.724605,390.233721 503.389579,402.337548 503.389579,402.337548 C503.389579,412.11427 504.196046,424.434237 496.57781,424.434237" id="Fill-210" fill="#912626" mask="url(#mask-4)"></path>
                            <path d="M580.206027,392.928624 L580.206027,416.235695 C580.206027,417.107459 580.155622,418.022451 579.997209,418.901419 C579.478046,421.848125 577.808226,424.48503 573.077431,424.48503 L517.755211,424.48503 L517.27277,418.901419 L515.241481,395.479073 L513.952573,380.709522 L564.703132,380.709522 C570.161188,381.148286 580.206027,383.274381 580.206027,392.928624" id="Fill-211" fill="#E83434" mask="url(#mask-4)"></path>
                            <path d="M579.997209,418.901275 C579.478046,421.847981 577.808226,424.484886 573.077431,424.484886 L517.755211,424.484886 L517.27277,418.901275 L579.997209,418.901275 Z" id="Fill-212" fill="#242D38" mask="url(#mask-4)"></path>
                            <path d="M514.097593,382.714075 L522.785839,397.190396 C522.854965,398.17167 523.670793,398.932482 524.653675,398.932482 L581.781086,398.932482 C582.815813,398.932482 583.653963,398.09386 583.653963,397.05855 L583.653963,392.931722 C583.653963,383.318545 573.711372,381.171557 568.234595,380.716223 C568.17843,380.711179 568.125146,380.709018 568.068981,380.709018 L513.956461,380.709018 C512.870611,380.709018 514.021987,381.629773 514.097593,382.714075" id="Fill-213" fill="#B8CC27" mask="url(#mask-4)"></path>
                            <path d="M529.034665,392.931434 L529.034665,416.237064 C529.034665,420.041124 528.048182,424.481355 521.91255,424.481355 L506.757444,424.481355 C512.913238,424.481355 513.430962,417.314161 513.53465,413.778835 C513.596575,411.485592 513.575694,398.27585 513.554812,389.264262 C513.548331,384.368697 513.53465,380.70873 513.53465,380.70873 C518.220082,381.089136 526.281155,382.705141 528.475898,389.264262 C528.835208,390.348563 529.034665,391.56471 529.034665,392.931434" id="Fill-214" fill="#B23232" mask="url(#mask-4)"></path>
                            <path d="M501.149904,370.62091 L501.149904,397.335786 C501.149904,397.46619 501.149904,397.595153 501.135503,397.724837 C501.042615,400.290416 499.962525,402.595907 498.269663,404.288282 C496.491115,406.067832 494.03571,407.170145 491.321803,407.170145 C486.02144,407.170145 481.70828,402.977034 481.506663,397.724837 C481.492262,397.595153 481.492262,397.46619 481.492262,397.335786 L481.492262,370.62091 C481.492262,365.188598 485.89255,360.787272 491.321803,360.787272 C496.750336,360.787272 501.149904,365.188598 501.149904,370.62091" id="Fill-215" fill="#76E2FF" mask="url(#mask-4)"></path>
                            <polygon id="Fill-216" fill="#76E2FF" mask="url(#mask-4)" points="486.821139 368.66816 495.821891 368.66816 495.821891 359.662336 486.821139 359.662336"></polygon>
                            <polygon id="Fill-217" fill="#76E2FF" mask="url(#mask-4)" points="486.104679 361.339581 496.537631 361.339581 496.537631 359.542739 486.104679 359.542739"></polygon>
                            <path d="M494.284707,351.137351 L488.357892,351.137351 C487.113628,351.137351 486.104823,352.146004 486.104823,353.391689 L486.104823,359.659022 L496.537775,359.659022 L496.537775,353.391689 C496.537775,352.146004 495.52897,351.137351 494.284707,351.137351" id="Fill-218" fill="#EF8935" mask="url(#mask-4)"></path>
                            <path d="M501.149904,375.390467 L501.149904,397.335858 C501.149904,397.466262 501.149904,397.595225 501.135503,397.724909 L481.506663,397.724909 C481.492262,397.595225 481.492262,397.466262 481.492262,397.335858 L481.492262,375.390467 L501.149904,375.390467 Z" id="Fill-219" fill="#EF8935" mask="url(#mask-4)"></path>
                            <polygon id="Fill-220" fill="#F7AE1E" mask="url(#mask-4)" points="501.149904 375.390467 501.149904 392.85456 488.981608 390.462613 496.131085 375.390467"></polygon>
                            <path d="M487.816838,397.724909 C487.806757,397.595225 487.806757,397.466262 487.806757,397.335858 L487.806757,370.620983 C487.806757,366.81332 489.374328,363.517909 491.66412,361.884613 L491.66412,361.339941 L491.145676,361.339941 L491.145676,359.659094 L491.145676,359.543099 L491.145676,353.391761 C491.145676,352.146076 491.875817,351.137423 492.776613,351.137423 L488.357603,351.137423 C487.11334,351.137423 486.104535,352.146076 486.104535,353.391761 L486.104535,359.543099 L486.104535,359.659094 L486.104535,361.339941 L486.820995,361.339941 L486.820995,361.884613 C483.658491,363.517909 481.49255,366.81332 481.49255,370.620983 L481.49255,397.335858 C481.49255,397.466262 481.49255,397.595225 481.506231,397.724909 C481.708568,402.977106 486.021728,407.170217 491.321371,407.170217 C492.039271,407.170217 492.737729,407.088084 493.411706,406.941829 C490.296725,406.010988 487.943569,402.267447 487.816838,397.724909" id="Fill-221" fill="#766EB7" mask="url(#mask-4)"></path>
                            <path d="M535.60939,398.888678 C530.893716,398.888678 529.053242,397.853368 529.053242,394.055072 L529.053242,408.486724 L535.60939,398.888678 Z" id="Fill-222" fill="#E83434" mask="url(#mask-4)"></path>
                            <path d="M503.559009,389.637968 L503.559009,410.751941 C503.559009,414.711622 502.525003,419.329808 496.14383,419.329808 L486.419418,419.329808 C480.69566,419.329808 479.943197,414.543033 479.943197,411.078312 L479.943197,389.637968 L503.559009,389.637968 Z" id="Fill-223" fill="#B23232" mask="url(#mask-4)"></path>
                            <path d="M503.552673,389.424782 L503.552673,406.171291 C503.552673,409.218141 502.757726,412.771479 497.846916,412.771479 L496.375833,412.771479 C491.971945,412.771479 491.393737,409.088458 491.393737,406.422734 L491.393737,389.424782 L503.552673,389.424782 Z" id="Fill-224" fill="#E83434" mask="url(#mask-4)"></path>
                            <polygon id="Fill-225" fill="#B23232" mask="url(#mask-4)" points="479.924331 389.473341 503.663994 389.473341 503.663994 396.422235 479.924331 400.982784"></polygon>
                            <polygon id="Fill-226" fill="#D1DAF2" mask="url(#mask-4)" points="479.924403 394.902484 503.664066 394.902484 503.664066 387.95287 479.924403 387.95287"></polygon>
                            <polygon id="Fill-227" fill="#E9F0FF" mask="url(#mask-4)" points="491.470567 387.953591 503.664066 387.95287 503.664066 394.937787 491.470567 394.937787"></polygon>
                            <path d="M535.978565,351.71358 L535.978565,356.809435 C535.978565,359.571701 538.393646,361.85774 541.444541,362.085407 C541.610155,362.099096 541.78297,362.1063 541.955784,362.1063 C542.204205,362.1063 542.451905,362.091891 542.693846,362.064513 C545.640332,361.740304 547.938764,359.503257 547.938764,356.809435 L547.938764,352.922522 L547.938764,351.71358 L535.978565,351.71358 Z" id="Fill-228" fill="#F18930" mask="url(#mask-4)"></path>
                            <path d="M541.452174,361.811414 C539.096857,361.106078 537.398235,359.124797 537.398235,356.812101 L537.398235,351.710482 L547.939916,351.710482 L547.939916,352.920865 L547.939916,356.812101 C547.939916,356.977088 547.932715,357.15 547.911113,357.308502 C547.896712,357.474209 547.86791,357.639916 547.831907,357.798419 C547.803104,357.942512 547.767101,358.086605 547.723898,358.224214 C547.679974,358.360382 547.63029,358.497271 547.572685,358.634159 C547.543883,358.706206 547.50788,358.778252 547.471877,358.843094 C547.471877,358.850299 547.471877,358.857504 547.464676,358.864708 C547.421472,358.965574 547.371068,359.066439 547.313463,359.160099 C547.241457,359.289783 547.15505,359.426672 547.068643,359.549151 C546.967835,359.700449 546.852625,359.845262 546.730215,359.988635 C546.651008,360.0895 546.5574,360.183161 546.463792,360.276821 C546.362984,360.385612 546.254975,360.485757 546.146966,360.579417 C546.031756,360.680282 545.916547,360.774663 545.794137,360.860399 C545.772535,360.882013 545.757414,360.896422 545.736532,360.903627 C545.614122,360.997287 545.484511,361.083743 545.347699,361.163715 C545.326097,361.177404 545.311696,361.191813 545.290094,361.206222 C545.146082,361.292678 544.99487,361.37193 544.836457,361.451181 C544.75725,361.487204 544.677323,361.523948 544.598837,361.552046 C544.490828,361.602479 544.382819,361.652911 544.267609,361.688935 C543.986786,361.797004 543.698762,361.884181 543.396336,361.948302 C543.165917,361.998735 542.928297,362.041963 542.683477,362.064297 L541.452174,361.811414 Z" id="Fill-229" fill="#DFDDDE" mask="url(#mask-4)"></path>
                            <path d="M541.452174,361.811414 C541.596186,355.298402 545.153283,353.475623 547.939916,352.920865 L547.939916,356.812101 C547.939916,356.977088 547.932715,357.143515 547.911113,357.308502 C547.911113,357.358935 547.903913,357.409367 547.888792,357.467004 C547.87511,357.575074 547.859989,357.683865 547.831907,357.798419 C547.803104,357.928103 547.774302,358.057787 547.731098,358.18747 C547.659092,358.418019 547.572685,358.648569 547.464676,358.864708 C547.421472,358.965574 547.371068,359.066439 547.313463,359.160099 C547.14785,359.448286 546.953433,359.729267 546.730215,359.988635 C546.651008,360.0895 546.5574,360.190366 546.463792,360.276821 C545.902146,360.853194 545.210888,361.315013 544.426022,361.624093 C544.375618,361.652911 544.317293,361.675246 544.267609,361.688935 C544.130798,361.746572 543.986786,361.7898 543.842774,361.833028 C543.727564,361.869051 543.612354,361.89787 543.489944,361.926688 C543.374734,361.955507 543.252324,361.984326 543.129914,362.00666 C542.985902,362.027554 542.834689,362.049168 542.683477,362.064297 L541.452174,361.811414 Z" id="Fill-230" fill="#E9F0FF" mask="url(#mask-4)"></path>
                            <path d="M507.39909,334.41822 L480.049046,334.41822 L480.049046,323.052871 C480.049046,320.829513 482.063774,319.039876 484.52782,319.005293 C484.693433,318.999529 484.866248,319.005293 485.038342,319.019702 C492.498885,319.620571 505.866802,322.382837 507.39909,334.41822" id="Fill-231" fill="#85A520" mask="url(#mask-4)"></path>
                            <path d="M528.47561,389.264406 L513.554524,389.264406 C513.548763,384.368841 513.534362,380.708874 513.534362,380.708874 C518.220514,381.088559 526.280867,382.705285 528.47561,389.264406" id="Fill-232" fill="#242D38" mask="url(#mask-4)"></path>
                            <path d="M504.255163,334.41822 L482.880178,334.41822 L482.880178,325.535596 C482.880178,323.797832 484.45495,322.399408 486.38111,322.372751 C486.510001,322.366987 486.644652,322.372751 486.779304,322.383558 C492.610351,322.853301 503.058423,325.011817 504.255163,334.41822" id="Fill-233" fill="#242D38" mask="url(#mask-4)"></path>
                            <path d="M533.014005,398.947036 L533.014005,403.204989 C533.014005,405.546503 534.928645,407.462942 537.269561,407.462942 C539.609756,407.462942 541.524396,405.546503 541.524396,403.204989 L541.524396,398.947036" id="Fill-234" fill="#912626" mask="url(#mask-4)"></path>
                            <path d="M534.406241,398.947036 C534.406241,398.947036 534.406962,400.640851 534.406962,402.714352 C534.406962,404.679062 536.125745,406.305154 538.295286,406.467259 C538.413376,406.476625 538.535786,406.481668 538.658917,406.481668 C538.835331,406.481668 539.011746,406.471581 539.184561,406.452129 C541.280656,406.22158 542.915912,404.630071 542.915912,402.714352 L542.915912,399.947763 L542.915912,398.947036 L534.406241,398.947036 Z" id="Fill-235" fill="#F18930" mask="url(#mask-4)"></path>
                            <path d="M538.300471,406.272012 C536.625611,405.769848 535.41663,404.360616 535.41663,402.715072 L535.41663,398.947036 L542.916776,398.947036 L542.916776,399.947036 L542.916776,402.715072 C542.916776,402.833229 542.911016,402.955708 542.896615,403.068821 C542.885814,403.186257 542.865652,403.304413 542.83973,403.416806 C542.818848,403.519833 542.793646,403.622139 542.762683,403.719402 C542.731721,403.817385 542.695718,403.914648 542.655394,404.01119 C542.635233,404.063064 542.609311,404.114217 542.583388,404.160327 C542.583388,404.16537 542.583388,404.170413 542.578348,404.176177 C542.547385,404.247503 542.512102,404.31955 542.471059,404.385833 C542.419935,404.478052 542.35873,404.576036 542.296804,404.663212 C542.224798,404.770561 542.143432,404.872868 542.056304,404.975174 C542.00014,405.04722 541.933174,405.114224 541.866209,405.180506 C541.794923,405.257596 541.717876,405.328922 541.64155,405.395205 C541.558743,405.467972 541.476656,405.534255 541.390249,405.596215 C541.375127,405.611345 541.364327,405.621432 541.348485,405.626475 C541.261358,405.692758 541.16919,405.754718 541.072702,405.810914 C541.056861,405.821001 541.04606,405.831808 541.031659,405.841174 C540.92869,405.903134 540.821401,405.95933 540.709072,406.016247 C540.652907,406.042184 540.596022,406.0674 540.539138,406.087573 C540.462811,406.123596 540.385765,406.15962 540.303678,406.184836 C540.104221,406.261926 539.899724,406.323165 539.684426,406.369996 C539.519533,406.406019 539.351038,406.436999 539.176784,406.451408 L538.300471,406.272012 Z" id="Fill-236" fill="#DFDDDE" mask="url(#mask-4)"></path>
                            <path d="M538.300471,406.272012 C538.403439,401.637976 540.933731,400.341858 542.916776,399.947042 L542.916776,402.715072 C542.916776,402.833229 542.911016,402.950665 542.896615,403.068821 C542.896615,403.104844 542.890854,403.140147 542.880773,403.181214 C542.870692,403.257583 542.860612,403.335393 542.83973,403.416806 C542.818848,403.509026 542.798686,403.601966 542.767724,403.694185 C542.71732,403.857731 542.655394,404.021997 542.578348,404.176177 C542.547385,404.247503 542.512102,404.31955 542.471059,404.385833 C542.352969,404.591165 542.215438,404.790734 542.056304,404.975174 C542.00014,405.04722 541.933174,405.118546 541.866209,405.180506 C541.466575,405.590452 540.974774,405.918984 540.416007,406.138726 C540.380724,406.15962 540.339681,406.174749 540.303678,406.184836 C540.20647,406.226623 540.104221,406.256883 540.001253,406.287142 C539.919886,406.313799 539.837799,406.333972 539.750672,406.354145 C539.668585,406.375039 539.581458,406.395212 539.49433,406.410342 C539.392082,406.426192 539.284073,406.441322 539.176784,406.451408 L538.300471,406.272012 Z" id="Fill-237" fill="#E9F0FF" mask="url(#mask-4)"></path>
                            <path d="M570.457132,398.947036 L570.457132,403.204989 C570.457132,405.546503 572.371772,407.462942 574.712688,407.462942 C577.052883,407.462942 578.967523,405.546503 578.967523,403.204989 L578.967523,398.947036" id="Fill-238" fill="#912626" mask="url(#mask-4)"></path>
                            <path d="M571.849369,398.947036 C571.849369,398.947036 571.850089,400.640851 571.850089,402.714352 C571.850089,404.679062 573.568872,406.305154 575.738414,406.467259 C575.856503,406.476625 575.978914,406.481668 576.102044,406.481668 C576.278459,406.481668 576.454873,406.471581 576.627688,406.452129 C578.723783,406.22158 580.359039,404.630071 580.359039,402.714352 L580.359039,399.947763 L580.359039,398.947036 L571.849369,398.947036 Z" id="Fill-239" fill="#F18930" mask="url(#mask-4)"></path>
                            <path d="M575.743598,406.272012 C574.068738,405.769848 572.859757,404.360616 572.859757,402.715072 L572.859757,398.947036 L580.359903,398.947036 L580.359903,399.947036 L580.359903,402.715072 C580.359903,402.833229 580.354143,402.955708 580.339742,403.068821 C580.328941,403.186257 580.308779,403.304413 580.282857,403.416806 C580.261975,403.519833 580.236773,403.622139 580.205811,403.719402 C580.174848,403.817385 580.138845,403.914648 580.098522,404.01119 C580.07836,404.063064 580.052438,404.114217 580.026516,404.160327 C580.026516,404.16537 580.026516,404.170413 580.021475,404.176177 C579.990513,404.247503 579.95523,404.31955 579.914186,404.385833 C579.863062,404.478052 579.801857,404.576036 579.739932,404.663212 C579.667926,404.770561 579.586559,404.872868 579.499432,404.975174 C579.443267,405.04722 579.376301,405.114224 579.309336,405.180506 C579.23805,405.257596 579.161003,405.328922 579.084677,405.395205 C579.00187,405.467972 578.919783,405.534255 578.833376,405.596215 C578.818255,405.611345 578.807454,405.621432 578.791613,405.626475 C578.704485,405.692758 578.612318,405.754718 578.515829,405.810914 C578.499988,405.821001 578.489187,405.831808 578.474786,405.841174 C578.371817,405.903134 578.264528,405.95933 578.152199,406.016247 C578.096034,406.042184 578.03915,406.0674 577.982265,406.087573 C577.905939,406.123596 577.828892,406.15962 577.746805,406.184836 C577.547349,406.261926 577.342852,406.323165 577.127554,406.369996 C576.96266,406.406019 576.794166,406.436999 576.619911,406.451408 L575.743598,406.272012 Z" id="Fill-240" fill="#DFDDDE" mask="url(#mask-4)"></path>
                            <path d="M575.743598,406.272012 C575.846567,401.637976 578.376858,400.341858 580.359903,399.947042 L580.359903,402.715072 C580.359903,402.833229 580.354143,402.950665 580.339742,403.068821 C580.339742,403.104844 580.333981,403.140147 580.3239,403.181214 C580.31382,403.257583 580.303739,403.335393 580.282857,403.416806 C580.261975,403.509026 580.241814,403.601966 580.210851,403.694185 C580.160447,403.857731 580.098522,404.021997 580.021475,404.176177 C579.990513,404.247503 579.95523,404.31955 579.914186,404.385833 C579.796096,404.591165 579.658565,404.790734 579.499432,404.975174 C579.443267,405.04722 579.376301,405.118546 579.309336,405.180506 C578.909702,405.590452 578.417901,405.918984 577.859135,406.138726 C577.823852,406.15962 577.782808,406.174749 577.746805,406.184836 C577.649597,406.226623 577.547349,406.256883 577.44438,406.287142 C577.363013,406.313799 577.280926,406.333972 577.193799,406.354145 C577.111712,406.375039 577.024585,406.395212 576.937458,406.410342 C576.835209,406.426192 576.7272,406.441322 576.619911,406.451408 L575.743598,406.272012 Z" id="Fill-241" fill="#E9F0FF" mask="url(#mask-4)"></path>
                            <path d="M513.431034,408.847101 C513.431034,416.411993 512.800981,424.427176 522.6118,424.427176 L505.870402,424.427176 L511.360861,416.411993 L513.431034,408.847101 Z" id="Fill-242" fill="#912626" mask="url(#mask-4)"></path>
                            <path d="M495.769831,364.513161 C495.059851,364.198317 494.223141,364.306387 493.799746,365.030455 C493.441156,365.643572 493.601009,366.684645 494.316029,367.00165 C495.16498,367.378454 495.824555,368.08451 495.8872,369.031202 C495.938325,369.807865 496.512213,370.472134 497.327321,370.472134 C498.066822,370.472134 498.819285,369.811467 498.767441,369.031202 C498.64071,367.115484 497.56134,365.308555 495.769831,364.513161" id="Fill-243" fill="#FFFFFF" mask="url(#mask-4)"></path>
                            <path d="M507.572768,345.239978 C507.572768,345.083637 507.563408,344.944587 507.544686,344.821387 L507.544686,336.879692 C507.544686,336.065565 507.495002,335.280257 507.401394,334.538178 C506.288181,325.803249 498.947888,321.955961 492.15124,320.272232 L489.75056,320.272232 C489.545343,320.272232 489.344446,320.287362 489.145709,320.310417 C495.902034,322.012878 503.145839,325.865209 504.251131,334.538178 C504.344739,335.280257 504.394423,336.065565 504.394423,336.879692 L504.394423,344.821387 C504.413144,344.944587 504.422505,345.083637 504.422505,345.239978 C504.422505,349.367527 506.106726,351.222727 508.920001,351.747946 L514.813693,351.747946 C511.213392,351.377627 507.572768,349.367527 507.572768,345.239978" id="Fill-244" fill="#85A520" mask="url(#mask-4)"></path>
                        </g>
                    </g>
                </g>
            </g>
        </g>
    </g>
</svg>