<?xml version="1.0" encoding="UTF-8"?>
<svg width="27px" height="25px" viewBox="0 0 27 25" version="1.1" xmlns="http://www.w3.org/2000/svg" xmlns:xlink="http://www.w3.org/1999/xlink">
    <title>search icon</title>
    <g id="landing-Page" stroke="none" stroke-width="1" fill="none" fill-rule="evenodd">
        <g id="Design-wireframes" transform="translate(-1074.000000, -73.000000)" fill="#FFFFFF" fill-rule="nonzero">
            <g id="Group-8" transform="translate(120.000000, 51.000000)">
                <g id="search" transform="translate(292.000000, 0.000000)">
                    <g id="search-button" transform="translate(651.000000, 10.000000)">
                        <g id="search-icon" transform="translate(12.000000, 12.000000)">
                            <path d="M9.51931818,2.89090909 C7.14734848,2.89090909 4.92045455,4.15909091 3.70795455,6.20075758 C3.60113636,6.38030303 3.66022727,6.61325758 3.84015152,6.71969697 C3.90075758,6.75606061 3.96742424,6.77310606 4.03333333,6.77310606 C4.16287879,6.77310606 4.28863636,6.70719697 4.3594697,6.58787879 C5.43636364,4.775 7.41325758,3.64848485 9.51931818,3.64848485 C9.72878788,3.64848485 9.89810606,3.47916667 9.89810606,3.26969697 C9.89810606,3.06022727 9.72878788,2.89090909 9.51931818,2.89090909 Z" id="Path"></path>
                            <path d="M3.39659091,7.82045455 C3.19318182,7.77348485 2.98939394,7.89924242 2.94166667,8.1030303 C2.82840909,8.58636364 2.76439394,8.88598485 2.76439394,9.42386364 C2.76439394,9.63333333 2.93409091,9.80265152 3.14318182,9.80265152 C3.35265152,9.80265152 3.5219697,9.63333333 3.5219697,9.42386364 C3.5219697,8.96742424 3.57310606,8.72916667 3.67916667,8.27537879 C3.72689394,8.07159091 3.60037879,7.86818182 3.39659091,7.82045455 Z" id="Path"></path>
                            <path d="M24.0958333,20.7549242 L17.9814394,14.6409091 C17.8325758,14.4920455 17.6829545,14.3863636 17.5382576,14.3087121 C18.3386364,12.9375 18.7996212,11.344697 18.7996212,9.64545455 C18.7996212,4.5280303 14.6367424,0.365151515 9.51931818,0.365151515 C4.40227273,0.365151515 0.239015152,4.5280303 0.239015152,9.64545455 C0.239015152,14.7628788 4.40227273,18.9253788 9.51931818,18.9253788 C11.3412879,18.9253788 13.0405303,18.3958333 14.4753788,17.4856061 C14.5530303,17.6140152 14.6503788,17.7378788 14.7670455,17.8545455 L20.8814394,23.9693182 C21.3117424,24.3984848 21.8814394,24.6344697 22.4890152,24.6344697 C23.0962121,24.6344697 23.6662879,24.3984848 24.0962121,23.9693182 C24.5253788,23.5401515 24.7613636,22.9689394 24.7613636,22.3625 C24.7609848,21.755303 24.525,21.1848485 24.0958333,20.7549242 Z M1.75416667,9.64583333 C1.75416667,5.36401515 5.2375,1.88068182 9.51931818,1.88068182 C13.8015152,1.88068182 17.2844697,5.36401515 17.2844697,9.64583333 C17.2844697,13.9280303 13.8007576,17.4106061 9.51931818,17.4106061 C5.2375,17.4106061 1.75416667,13.9280303 1.75416667,9.64583333 Z M23.0242424,22.8981061 C22.7375,23.1837121 22.2386364,23.1837121 21.9522727,22.8981061 L15.8382576,16.7837121 C15.7852273,16.7310606 15.7655303,16.6958333 15.7628788,16.6958333 C15.7640152,16.6795455 15.7848485,16.5234848 16.217803,16.0912879 C16.6496212,15.6583333 16.8056818,15.6386364 16.8106061,15.6356061 C16.8204545,15.6386364 16.8556818,15.6583333 16.9102273,15.7125 L23.0238636,21.8265152 C23.1674242,21.9700758 23.2458333,22.1602273 23.2458333,22.3628788 C23.2454545,22.5643939 23.1670455,22.7545455 23.0242424,22.8981061 Z" id="Shape" stroke="#FFFFFF" stroke-width="0.5"></path>
                        </g>
                    </g>
                </g>
            </g>
        </g>
    </g>
</svg>