<?xml version="1.0" encoding="UTF-8"?>
<svg width="126px" height="21px" viewBox="0 0 126 21" version="1.1" xmlns="http://www.w3.org/2000/svg" xmlns:xlink="http://www.w3.org/1999/xlink">
    <title>Group 25</title>
    <defs>
        <linearGradient x1="63.4265181%" y1="-6.11112109%" x2="50%" y2="95.3631489%" id="linearGradient-1">
            <stop stop-color="#FFDF00" offset="0%"></stop>
            <stop stop-color="#FEBC00" offset="100%"></stop>
        </linearGradient>
    </defs>
    <g id="landing-Page" stroke="none" stroke-width="1" fill="none" fill-rule="evenodd">
        <g id="Design-wireframes" transform="translate(-502.000000, -6238.000000)" fill="url(#linearGradient-1)" fill-rule="nonzero">
            <g id="Group-23" transform="translate(-12.000000, 760.000000)">
                <g id="Group-38" transform="translate(12.000000, 5193.000000)">
                    <g id="Group-28" transform="translate(252.000000, 148.000000)">
                        <g id="Group-25" transform="translate(250.000000, 137.000000)">
                            <path d="M4.9,20.825 C4.8125,20.825 4.725,20.78125 4.6375,20.7375 C4.50625,20.65 4.41875,20.43125 4.4625,20.25625 L6.3875,13.08125 L0.6125,8.4 C0.4375,8.3125 0.39375,8.09375 0.4375,7.91875 C0.48125,7.74375 0.65625,7.6125 0.83125,7.6125 L8.26875,7.21875 L10.9375,0.2625 C11.025,0.13125 11.2,-8.52651283e-14 11.375,-8.52651283e-14 C11.55,-8.52651283e-14 11.725,0.13125 11.76875,0.2625 L14.4375,7.21875 L21.875,7.6125 C22.05,7.6125 22.225,7.74375 22.26875,7.91875 C22.3125,8.09375 22.26875,8.26875 22.1375,8.4 L16.3625,13.08125 L18.2875,20.25625 C18.33125,20.43125 18.2875,20.60625 18.1125,20.7375 C17.98125,20.825 17.7625,20.86875 17.63125,20.7375 L11.375,16.7125 L5.11875,20.7375 C5.03125,20.825 4.9875,20.825 4.9,20.825 Z" id="icon-star"></path>
                            <path d="M30.4782797,20.825 C30.3907797,20.825 30.3032797,20.78125 30.2157797,20.7375 C30.0845297,20.65 29.9970297,20.43125 30.0407797,20.25625 L31.9657797,13.08125 L26.1907797,8.4 C26.0157797,8.3125 25.9720297,8.09375 26.0157797,7.91875 C26.0595297,7.74375 26.2345297,7.6125 26.4095297,7.6125 L33.8470297,7.21875 L36.5157797,0.2625 C36.6032797,0.13125 36.7782797,-8.52651283e-14 36.9532797,-8.52651283e-14 C37.1282797,-8.52651283e-14 37.3032797,0.13125 37.3470297,0.2625 L40.0157797,7.21875 L47.4532797,7.6125 C47.6282797,7.6125 47.8032797,7.74375 47.8470297,7.91875 C47.8907797,8.09375 47.8470297,8.26875 47.7157797,8.4 L41.9407797,13.08125 L43.8657797,20.25625 C43.9095297,20.43125 43.8657797,20.60625 43.6907797,20.7375 C43.5595297,20.825 43.3407797,20.86875 43.2095297,20.7375 L36.9532797,16.7125 L30.6970297,20.7375 C30.6095297,20.825 30.5657797,20.825 30.4782797,20.825 Z" id="Path"></path>
                            <path d="M56.4782797,20.825 C56.3907797,20.825 56.3032797,20.78125 56.2157797,20.7375 C56.0845297,20.65 55.9970297,20.43125 56.0407797,20.25625 L57.9657797,13.08125 L52.1907797,8.4 C52.0157797,8.3125 51.9720297,8.09375 52.0157797,7.91875 C52.0595297,7.74375 52.2345297,7.6125 52.4095297,7.6125 L59.8470297,7.21875 L62.5157797,0.2625 C62.6032797,0.13125 62.7782797,-8.52651283e-14 62.9532797,-8.52651283e-14 C63.1282797,-8.52651283e-14 63.3032797,0.13125 63.3470297,0.2625 L66.0157797,7.21875 L73.4532797,7.6125 C73.6282797,7.6125 73.8032797,7.74375 73.8470297,7.91875 C73.8907797,8.09375 73.8470297,8.26875 73.7157797,8.4 L67.9407797,13.08125 L69.8657797,20.25625 C69.9095297,20.43125 69.8657797,20.60625 69.6907797,20.7375 C69.5595297,20.825 69.3407797,20.86875 69.2095297,20.7375 L62.9532797,16.7125 L56.6970297,20.7375 C56.6095297,20.825 56.5657797,20.825 56.4782797,20.825 Z" id="Path"></path>
                            <path d="M82.4782797,20.825 C82.3907797,20.825 82.3032797,20.78125 82.2157797,20.7375 C82.0845297,20.65 81.9970297,20.43125 82.0407797,20.25625 L83.9657797,13.08125 L78.1907797,8.4 C78.0157797,8.3125 77.9720297,8.09375 78.0157797,7.91875 C78.0595297,7.74375 78.2345297,7.6125 78.4095297,7.6125 L85.8470297,7.21875 L88.5157797,0.2625 C88.6032797,0.13125 88.7782797,-8.52651283e-14 88.9532797,-8.52651283e-14 C89.1282797,-8.52651283e-14 89.3032797,0.13125 89.3470297,0.2625 L92.0157797,7.21875 L99.4532797,7.6125 C99.6282797,7.6125 99.8032797,7.74375 99.8470297,7.91875 C99.8907797,8.09375 99.8470297,8.26875 99.7157797,8.4 L93.9407797,13.08125 L95.8657797,20.25625 C95.9095297,20.43125 95.8657797,20.60625 95.6907797,20.7375 C95.5595297,20.825 95.3407797,20.86875 95.2095297,20.7375 L88.9532797,16.7125 L82.6970297,20.7375 C82.6095297,20.825 82.5657797,20.825 82.4782797,20.825 Z" id="Path"></path>
                            <path d="M108.47828,20.825 C108.39078,20.825 108.30328,20.78125 108.21578,20.7375 C108.08453,20.65 107.99703,20.43125 108.04078,20.25625 L109.96578,13.08125 L104.19078,8.4 C104.01578,8.3125 103.97203,8.09375 104.01578,7.91875 C104.05953,7.74375 104.23453,7.6125 104.40953,7.6125 L111.84703,7.21875 L114.51578,0.2625 C114.60328,0.13125 114.77828,-8.52651283e-14 114.95328,-8.52651283e-14 C115.12828,-8.52651283e-14 115.30328,0.13125 115.34703,0.2625 L118.01578,7.21875 L125.45328,7.6125 C125.62828,7.6125 125.80328,7.74375 125.84703,7.91875 C125.89078,8.09375 125.84703,8.26875 125.71578,8.4 L119.94078,13.08125 L121.86578,20.25625 C121.90953,20.43125 121.86578,20.60625 121.69078,20.7375 C121.55953,20.825 121.34078,20.86875 121.20953,20.7375 L114.95328,16.7125 L108.69703,20.7375 C108.60953,20.825 108.56578,20.825 108.47828,20.825 Z" id="Path"></path>
                        </g>
                    </g>
                </g>
            </g>
        </g>
    </g>
</svg>