<?xml version="1.0" encoding="UTF-8"?>
<svg width="123px" height="123px" viewBox="0 0 123 123" version="1.1" xmlns="http://www.w3.org/2000/svg" xmlns:xlink="http://www.w3.org/1999/xlink">
    <title>Group 41</title>
    <defs>
        <circle id="path-1" cx="61.5" cy="61.5" r="61.5"></circle>
        <mask id="mask-2" maskContentUnits="userSpaceOnUse" maskUnits="objectBoundingBox" x="0" y="0" width="123" height="123" fill="white">
            <use xlink:href="#path-1"></use>
        </mask>
    </defs>
    <g id="Symbols" stroke="none" stroke-width="1" fill="none" fill-rule="evenodd">
        <g id="our-mission" transform="translate(-876.000000, -255.000000)">
            <g id="Group-41" transform="translate(876.000000, 255.000000)">
                <use id="Oval" stroke="#2C3E50" mask="url(#mask-2)" stroke-width="2" fill-opacity="0.109866696" fill="#00C2F3" stroke-dasharray="3" xlink:href="#path-1"></use>
                <ellipse id="Oval" fill-opacity="0.109866696" fill="#00C2F3" cx="61.5" cy="61.5" rx="49" ry="48.5"></ellipse>
                <g id="icons8-approximate" transform="translate(40.000000, 41.000000)" fill="#000000" fill-rule="nonzero">
                    <path d="M5,0 C2.2504839,0 0,2.2504839 0,5 L0,37 C0,39.749516 2.2504839,42 5,42 L37,42 C39.749516,42 42,39.749516 42,37 L42,5 C42,2.2504839 39.749516,0 37,0 L5,0 Z M5,2 L37,2 C38.668484,2 40,3.3315161 40,5 L40,37 C40,38.668484 38.668484,40 37,40 L5,40 C3.3315161,40 2,38.668484 2,37 L2,5 C2,3.3315161 3.3315161,2 5,2 Z M14,14 C12.316,14 9.949,14.313609 8,14.974609 L8,17.107422 C9.722,16.387422 12.275,16 14,16 C15.745,16 17.307625,16.313688 18.640625,16.929688 C19.138625,17.159688 19.871516,17.539016 20.603516,17.916016 C21.345516,18.299016 22.086797,18.679063 22.591797,18.914062 C24.138797,19.634063 25.958,20 28,20 C29.684,20 32.051,19.686391 34,19.025391 L34,16.892578 C32.279,17.611578 29.725,18 28,18 C26.251,18 24.714594,17.697563 23.433594,17.101562 C22.947594,16.875563 22.236484,16.507672 21.521484,16.138672 C20.761484,15.745672 19.997516,15.352281 19.478516,15.113281 C17.880516,14.374281 16.037,14 14,14 Z M14,22 C12.316,22 9.949,22.313609 8,22.974609 L8,25.107422 C9.722,24.387422 12.275,24 14,24 C15.745,24 17.307625,24.313688 18.640625,24.929688 C19.138625,25.159688 19.871516,25.539016 20.603516,25.916016 C21.345516,26.299016 22.086797,26.679063 22.591797,26.914062 C24.138797,27.634063 25.958,28 28,28 C29.684,28 32.051,27.686391 34,27.025391 L34,24.892578 C32.279,25.611578 29.725,26 28,26 C26.251,26 24.714594,25.697563 23.433594,25.101562 C22.947594,24.875563 22.236484,24.507672 21.521484,24.138672 C20.761484,23.745672 19.997516,23.352281 19.478516,23.113281 C17.880516,22.374281 16.037,22 14,22 Z" id="Shape"></path>
                </g>
            </g>
        </g>
    </g>
</svg>