<?xml version="1.0" encoding="UTF-8"?>
<svg width="37px" height="30px" viewBox="0 0 37 30" version="1.1" xmlns="http://www.w3.org/2000/svg" xmlns:xlink="http://www.w3.org/1999/xlink">
    <title>twitter</title>
    <g id="landing-Page" stroke="none" stroke-width="1" fill="none" fill-rule="evenodd">
        <g id="Design-wireframes" transform="translate(-1711.000000, -6796.000000)" fill="#383D4A" fill-rule="nonzero">
            <g id="Group-23" transform="translate(-12.000000, 760.000000)">
                <g id="Group-38" transform="translate(12.000000, 5193.000000)">
                    <g id="Group-20" transform="translate(95.000000, 797.000000)">
                        <g id="Quick-Links" transform="translate(1.000000, 0.000000)">
                            <path d="M1651.47321,49.8839286 C1650.15346,50.4698664 1648.73884,50.8632814 1647.25167,51.0418529 C1648.76953,50.1322543 1649.93583,48.6925221 1650.4827,46.9793529 C1649.06529,47.8191964 1647.48884,48.4302457 1645.81752,48.7594864 C1644.47824,47.330915 1642.56975,46.4408486 1640.45759,46.4408486 C1636.40067,46.4408486 1633.11105,49.7276786 1633.11105,53.7845986 C1633.11105,54.359375 1633.17801,54.9202007 1633.30357,55.4587057 C1627.19866,55.1517857 1621.7885,52.2276786 1618.16406,47.7829243 C1617.53069,48.8710936 1617.17076,50.1322543 1617.17076,51.4771207 C1617.17076,54.0245536 1618.4654,56.2734379 1620.43806,57.5931921 C1619.2327,57.5541293 1618.09989,57.2220986 1617.10938,56.6724329 C1617.10938,56.703125 1617.10938,56.7338171 1617.10938,56.7645093 C1617.10938,60.3247771 1619.64286,63.2907364 1622.99944,63.96875 C1622.3856,64.1361607 1621.73549,64.2254464 1621.06585,64.2254464 C1620.59152,64.2254464 1620.13114,64.1808036 1619.68192,64.0915179 C1620.61942,67.0072543 1623.33147,69.1361607 1626.54297,69.1947543 C1624.03181,71.1646207 1620.86496,72.3364957 1617.42188,72.3364957 C1616.82757,72.3364957 1616.24442,72.3030136 1615.67243,72.2332593 C1618.9202,74.3203129 1622.78181,75.53404 1626.9308,75.53404 C1640.44085,75.53404 1647.82924,64.3426343 1647.82924,54.6383929 C1647.82924,54.3203129 1647.82087,53.9994421 1647.80971,53.6869421 C1649.24386,52.6517857 1650.48828,51.3571429 1651.47321,49.8839286 Z" id="twitter"></path>
                        </g>
                    </g>
                </g>
            </g>
        </g>
    </g>
</svg>