<?xml version="1.0" encoding="UTF-8"?>
<svg width="461px" height="452px" viewBox="0 0 461 452" version="1.1" xmlns="http://www.w3.org/2000/svg" xmlns:xlink="http://www.w3.org/1999/xlink">
    <title>banner-accountReg</title>
    <defs>
        <polygon id="path-1" points="0.103284 0.372993231 104.94498 0.372993231 104.94498 27.9766875 0.103284 27.9766875"></polygon>
        <polygon id="path-3" points="0 0.503501646 145.62294 0.503501646 145.62294 5.30825473 0 5.30825473"></polygon>
    </defs>
    <g id="Account-Page" stroke="none" stroke-width="1" fill="none" fill-rule="evenodd">
        <g id="Sign-up" transform="translate(-99.000000, -279.000000)">
            <g id="banner-accountReg" transform="translate(99.000000, 279.000000)">
                <g id="Group-42" transform="translate(6.000000, 0.000000)">
                    <path d="M0.550848,141.28724 L127.642608,140.889808 L95.223288,134.261376 C95.223288,134.261376 96.546828,97.8061432 80.666628,105.096961 C64.787568,112.38778 64.126368,128.296473 64.126368,128.296473 C64.126368,128.296473 58.171008,113.713694 49.570848,119.016211 C40.969548,124.31987 36.998928,133.59899 36.998928,133.59899 C36.998928,133.59899 33.911808,123.107018 28.397628,122.512013 C23.683728,122.00266 14.715348,131.982995 10.015128,137.596149 L0.550848,141.28724 Z" id="Fill-1" fill="#FFFFFF"></path>
                    <g id="Group-5" transform="translate(349.980000, 172.448864)">
                        <mask id="mask-2" fill="white">
                            <use xlink:href="#path-1"></use>
                        </mask>
                        <g id="Clip-4"></g>
                        <path d="M0.103284,27.9766875 L104.945664,27.6820398 L78.201264,22.7563977 C78.201264,22.7563977 79.292244,-4.32835227 66.193644,1.08951136 C53.093904,6.50623295 52.548984,18.3252614 52.548984,18.3252614 C52.548984,18.3252614 47.635584,7.49067614 40.541364,11.430733 C33.446004,15.3696477 30.170784,22.2641761 30.170784,22.2641761 C30.170784,22.2641761 27.624024,14.4685739 23.075424,14.0277443 C19.185744,13.6497273 11.788284,21.0638864 7.911144,25.2346364 L0.103284,27.9766875 Z" id="Fill-3" fill="#FFFFFF" mask="url(#mask-2)"></path>
                    </g>
                    <path d="M179.524806,49.9164085 L284.366046,49.5886415 L257.621646,44.1205278 C257.621646,44.1205278 258.713766,14.0481869 245.614026,20.0621983 C232.515426,26.0773517 231.969366,39.200596 231.969366,39.200596 C231.969366,39.200596 227.058246,27.1702892 219.961746,31.5454653 C212.867526,35.9194994 209.592306,43.5746301 209.592306,43.5746301 C209.592306,43.5746301 207.045546,34.9190676 202.496946,34.4279881 C198.607266,34.0088574 191.209806,42.240721 187.332666,46.8717153 L179.524806,49.9164085 Z" id="Fill-6" fill="#FFFFFF"></path>
                    <path d="M348.823128,101.640789 L354.568728,118.222147 C354.811548,118.923363 354.396588,119.642852 353.688648,119.888391 L345.763368,122.644147 C345.158028,122.855426 344.380548,122.551641 344.136588,121.850426 L338.390988,105.269068 C332.242968,105.047511 326.519028,101.167982 324.357588,94.9301301 C321.578268,86.9095449 325.830468,78.1089426 333.862908,75.3154994 C341.889648,72.5243403 350.668788,76.7921642 353.449248,84.8127494 C355.610688,91.0506017 353.516508,97.6481983 348.823128,101.640789 L348.823128,101.640789 Z M300.964788,42.4588517 C297.469548,32.3734483 302.807028,21.3184483 312.874368,17.818079 C322.934868,14.3188517 333.966648,19.6796131 337.461888,29.7661585 L340.918368,39.7442097 L304.422408,52.4369028 L300.964788,42.4588517 Z M363.953208,31.7339028 L355.980048,34.5067892 L352.522428,24.5287381 C346.145268,6.12467557 326.002608,-3.64780739 307.647468,2.73508466 C289.283208,9.12140284 279.540768,29.2876415 285.916788,47.691704 L289.375548,57.6697551 L281.376168,60.4517778 C275.156328,62.6148119 271.813848,69.5104824 273.976428,75.7494767 L296.476608,140.679329 C298.671108,147.011971 305.563548,150.363874 311.783388,148.20084 L394.360428,119.481823 C400.681728,117.283386 404.025348,110.371727 401.830848,104.040227 L379.330668,39.1092324 C377.168088,32.8713801 370.273368,29.5354653 363.953208,31.7339028 L363.953208,31.7339028 Z" id="Fill-8" fill="#B2EDFB"></path>
                    <path d="M309.33387,352.502722 C307.37193,348.672302 311.96613,344.571216 316.19667,343.81404 C320.42607,343.056864 325.21863,343.635881 328.58847,340.963495 C333.08577,337.394603 332.85549,329.610421 337.83957,326.76216 C341.83983,324.474643 347.13513,326.657091 351.37365,324.849234 C356.63817,322.603972 358.11903,315.256052 363.28437,312.789234 C367.40205,310.822631 372.78627,313.045052 374.88843,317.100455 C376.98945,321.157001 376.02273,326.398989 373.10889,329.914205 C370.83003,332.664251 367.45563,334.590881 366.03975,337.870836 C363.82245,343.007756 367.32225,349.231904 365.28165,354.440773 C361.51395,364.062506 343.71285,361.166279 340.62003,371.026699 C339.93261,373.221711 340.22217,375.588029 340.04205,377.882398 C339.50967,384.704978 334.70799,390.666455 328.77657,394.065182 C322.84629,397.46391 315.90825,398.642501 309.09219,399.119876 C306.30831,399.315165 303.37281,399.37341 300.88989,398.094319 C298.55403,396.889461 296.92839,394.648768 295.65957,392.345262 C287.47437,377.467836 284.09997,358.081614 309.33387,352.502722" id="Fill-10" fill="#4ABB9A"></path>
                    <path d="M178.048506,344.595314 C182.450046,341.681956 180.002466,334.523615 175.932666,331.160291 C171.861726,327.798109 166.387446,325.527723 164.391306,320.636342 C161.725986,314.104984 166.650786,305.918802 163.032426,299.864819 C160.128846,295.005416 153.152046,294.143172 149.705826,289.654933 C145.423986,284.076041 148.256886,275.322263 144.215586,269.567495 C140.993946,264.978757 133.897446,264.108518 129.212046,267.178336 C124.525506,270.248155 122.408526,276.439183 123.411726,281.957547 C124.196046,286.274478 126.647046,290.370995 126.189906,294.733609 C125.473986,301.564183 117.988746,306.11295 117.039126,312.916115 C115.284666,325.479757 136.068006,333.121183 133.447146,345.534075 C132.864606,348.296683 131.131806,350.653865 129.945066,353.215473 C126.413346,360.836342 127.966026,370.109751 132.266106,377.321768 C136.567326,384.536069 143.279646,389.982484 150.282666,394.605484 C153.144066,396.494427 156.249426,398.32741 159.673986,398.456461 C162.896766,398.577518 165.981606,397.161382 168.724446,395.462018 C186.421806,384.488103 201.685266,365.787109 178.048506,344.595314" id="Fill-12" fill="#FFAB27"></path>
                    <path d="M293.525262,360.350859 C299.680122,357.691035 305.223942,352.771103 309.819282,348.019052 C322.214502,335.201876 329.899242,318.462915 333.940542,301.232876 C337.597662,285.640529 338.413902,269.518273 337.648962,253.560472 C337.583982,252.209432 335.479542,252.201438 335.543382,253.560472 C337.261362,289.411563 330.155742,333.40658 298.127442,355.228785 C296.337642,356.447347 294.457782,357.667052 292.461642,358.529296 C291.221322,359.066057 292.292922,360.883052 293.525262,360.350859" id="Fill-14" fill="#FC816C"></path>
                    <path d="M334.230216,295.20082 C334.230216,295.20082 336.258276,283.586218 351.618636,281.747524 C351.618636,281.747524 346.015536,295.492041 334.230216,295.20082" id="Fill-16" fill="#FC816C"></path>
                    <path d="M329.194836,312.365991 C329.194836,312.365991 333.873396,301.547395 349.238316,303.351827 C349.238316,303.351827 340.586856,315.406116 329.194836,312.365991" id="Fill-18" fill="#FC816C"></path>
                    <path d="M322.669932,327.497066 C322.669932,327.497066 329.650152,318.003242 344.219352,323.210969 C344.219352,323.210969 333.092952,333.016572 322.669932,327.497066" id="Fill-20" fill="#FC816C"></path>
                    <path d="M336.589218,277.165638 C336.589218,277.165638 338.583078,265.74861 353.682378,263.940752 C353.682378,263.940752 348.175038,277.452291 336.589218,277.165638" id="Fill-22" fill="#FC816C"></path>
                    <path d="M336.794076,257.324768 C336.794076,257.324768 328.197336,249.567995 334.687356,235.791501 C334.687356,235.791501 343.189476,247.642507 336.794076,257.324768" id="Fill-24" fill="#FC816C"></path>
                    <path d="M336.846402,269.093204 C336.846402,269.093204 325.469202,266.988414 323.805942,251.846034 C323.805942,251.846034 337.240842,257.48888 336.846402,269.093204" id="Fill-26" fill="#FC816C"></path>
                    <path d="M335.711988,286.487127 C335.711988,286.487127 324.334788,284.38348 322.670388,269.241099 C322.670388,269.241099 336.105288,274.883945 335.711988,286.487127" id="Fill-28" fill="#FC816C"></path>
                    <path d="M332.757336,302.779091 C332.757336,302.779091 321.555696,299.881722 320.954916,284.659398 C320.954916,284.659398 333.963456,291.231869 332.757336,302.779091" id="Fill-30" fill="#FC816C"></path>
                    <path d="M327.595074,319.054381 C327.595074,319.054381 316.392294,316.157011 315.791514,300.934687 C315.791514,300.934687 328.801194,307.508301 327.595074,319.054381" id="Fill-32" fill="#FC816C"></path>
                    <path d="M295.479108,401.212445 L180.197748,401.212445 C166.883688,401.212445 156.090168,390.399559 156.090168,377.06161 L156.090168,104.196116 C156.090168,90.858167 166.883688,80.0441386 180.197748,80.0441386 L295.479108,80.0441386 C308.794308,80.0441386 319.587828,90.858167 319.587828,104.196116 L319.587828,377.06161 C319.587828,390.399559 308.794308,401.212445 295.479108,401.212445" id="Fill-34" fill="#4C4C4C"></path>
                    <path d="M295.15626,389.861199 L180.52128,389.861199 C171.19608,389.861199 163.63674,382.288295 163.63674,372.946364 L163.63674,106.403233 C163.63674,97.0613011 171.19608,89.4883977 180.52128,89.4883977 L295.15626,89.4883977 C304.48146,89.4883977 312.0408,97.0613011 312.0408,106.403233 L312.0408,372.946364 C312.0408,382.288295 304.48146,389.861199 295.15626,389.861199" id="Fill-36" fill="#FFFFFF"></path>
                    <path d="M282.245532,89.4881693 L272.594292,89.4881693 C269.633712,89.4881693 267.232872,91.893317 267.232872,94.8603511 L267.232872,98.6987659 C267.232872,101.6658 264.832032,104.069806 261.870312,104.069806 L218.831892,104.069806 C215.870172,104.069806 213.470472,101.6658 213.470472,98.6987659 L213.470472,94.8603511 C213.470472,91.893317 211.069632,89.4881693 208.107912,89.4881693 L180.703452,89.4881693 L180.703452,86.7324136 L282.245532,86.7324136 L282.245532,89.4881693 Z" id="Fill-38" fill="#4C4C4C"></path>
                    <path d="M241.962606,135.780639 C242.593026,135.443736 243.026226,134.785918 243.026226,134.021889 C243.026226,132.915247 242.131326,132.019884 241.028946,132.019884 C239.924286,132.019884 239.029386,132.915247 239.029386,134.021889 C239.029386,134.785918 239.464866,135.443736 240.093006,135.780639 C238.832166,136.180355 237.911046,137.36694 237.911046,138.757952 L237.911046,140.332832 L244.145706,140.332832 L244.145706,138.757952 C244.145706,137.36694 243.223446,136.180355 241.962606,135.780639" id="Fill-40" fill="#34336C"></path>
                </g>
                <text id="Create-Account" font-family="Montserrat-Regular, Montserrat" font-size="6.0268" font-weight="normal" fill="#34336C">
                    <tspan x="220" y="149">C</tspan>
                    <tspan x="224.333269" y="149" letter-spacing="-0.0783484">r</tspan>
                    <tspan x="226.593319" y="149" letter-spacing="-0.090402">e</tspan>
                    <tspan x="230.052702" y="149">a</tspan>
                    <tspan x="233.608514" y="149" letter-spacing="-0.1145092">t</tspan>
                    <tspan x="235.826377" y="149">e </tspan>
                    <tspan x="241.045586" y="149" letter-spacing="-0.030134">A</tspan>
                    <tspan x="245.306533" y="149" letter-spacing="-0.0542412">cc</tspan>
                    <tspan x="251.875745" y="149">ount</tspan>
                </text>
                <path d="M272.87949,346 L213.12051,346 C212.502455,346 212,345.496958 212,344.873047 L212,333.125802 C212,332.503042 212.502455,332 213.12051,332 L272.87949,332 C273.497545,332 274,332.503042 274,333.125802 L274,344.873047 C274,345.496958 273.497545,346 272.87949,346" id="Fill-43" fill="#BD3D61"></path>
                <text id="Register" font-family="Montserrat-Regular, Montserrat" font-size="4.4893" font-weight="normal" fill="#F3F4E9">
                    <tspan x="232" y="338">Regis</tspan>
                    <tspan x="244.43985" y="338" letter-spacing="-0.0852967">t</tspan>
                    <tspan x="246.091913" y="338">er</tspan>
                </text>
                <text id="Email-Address" font-family="Montserrat-Regular, Montserrat" font-size="4.1015" font-weight="normal" fill="#34336C">
                    <tspan x="190" y="169">Email </tspan>
                    <tspan x="202.79668" y="169" letter-spacing="-0.02091765">A</tspan>
                    <tspan x="205.69603" y="169">dd</tspan>
                    <tspan x="211.257664" y="169" letter-spacing="-0.05290935">r</tspan>
                    <tspan x="212.796137" y="169">ess</tspan>
                </text>
                <text id="youremail@gmail.c" font-family="Montserrat-Regular, Montserrat" font-size="4.1015" font-weight="normal" letter-spacing="-0.06193265" fill="#34336C">
                    <tspan x="195" y="184">y</tspan>
                    <tspan x="197.099558" y="184">ou</tspan>
                    <tspan x="202.431508" y="184" letter-spacing="-0.05290935">r</tspan>
                    <tspan x="203.96998" y="184">email@gmail</tspan>
                    <tspan x="231.454132" y="184">.</tspan>
                    <tspan x="232.200195" y="184">c</tspan>
                </text>
                <g id="Group-49" transform="translate(190.000000, 175.000000)">
                    <path d="M109.820312,17.33796 L3.155072,17.33796 C1.417712,17.33796 0.009812,15.9382933 0.009812,14.2110933 L0.009812,3.54416 C0.009812,1.81809333 1.417712,0.417293333 3.155072,0.417293333 L109.820312,0.417293333 C111.557672,0.417293333 112.965572,1.81809333 112.965572,3.54416 L112.965572,14.2110933 C112.965572,15.9382933 111.557672,17.33796 109.820312,17.33796 Z" id="Stroke-46" stroke="#34336C" stroke-width="0.5"></path>
                    <text id="Country" font-family="Montserrat-Regular, Montserrat" font-size="4.1015" font-weight="normal" letter-spacing="-0.0943345" fill="#34336C">
                        <tspan x="0.009698" y="31.3619096">C</tspan>
                        <tspan x="2.7700075" y="31.3619096">ount</tspan>
                        <tspan x="12.543882" y="31.3619096" letter-spacing="0.06111235">r</tspan>
                        <tspan x="14.3112183" y="31.3619096">y</tspan>
                    </text>
                </g>
                <text id="Your-text" font-family="Montserrat-Regular, Montserrat" font-size="4.1015" font-weight="normal" letter-spacing="-0.24609" fill="#34336C">
                    <tspan x="195" y="222">Y</tspan>
                    <tspan x="197.112272" y="222">our </tspan>
                    <tspan x="205.163517" y="222" letter-spacing="-0.0771082">t</tspan>
                    <tspan x="206.673689" y="222" letter-spacing="-0.0623428">e</tspan>
                    <tspan x="209.02713" y="222">xt</tspan>
                </text>
                <g id="Group-53" transform="translate(190.000000, 212.000000)">
                    <path d="M109.820312,18.1058344 L3.155072,18.1058344 C1.417712,18.1058344 0.009812,16.6778656 0.009812,14.9157406 L0.009812,4.03311562 C0.009812,2.27099062 1.417712,0.843021875 3.155072,0.843021875 L109.820312,0.843021875 C111.557672,0.843021875 112.965572,2.27099062 112.965572,4.03311562 L112.965572,14.9157406 C112.965572,16.6778656 111.557672,18.1058344 109.820312,18.1058344 Z" id="Stroke-50" stroke="#34336C" stroke-width="0.5"></path>
                    <text id="City" font-family="Montserrat-Regular, Montserrat" font-size="4.1015" font-weight="normal" fill="#34336C">
                        <tspan x="0.009698" y="34.3293178">Ci</tspan>
                        <tspan x="4.06198" y="34.3293178" letter-spacing="-0.0401947">t</tspan>
                        <tspan x="5.6459793" y="34.3293178">y</tspan>
                    </text>
                </g>
                <text id="Your-City" font-family="Montserrat-Regular, Montserrat" font-size="4.1015" font-weight="normal" letter-spacing="-0.24609" fill="#34336C">
                    <tspan x="195" y="262">Y</tspan>
                    <tspan x="197.112272" y="262">our Ci</tspan>
                    <tspan x="209.215799" y="262" letter-spacing="-0.041015">t</tspan>
                    <tspan x="210.798978" y="262">y</tspan>
                </text>
                <g id="Group-57" transform="translate(190.000000, 252.000000)">
                    <path d="M109.820312,18.2085094 L3.155072,18.2085094 C1.417712,18.2085094 0.009812,16.7816969 0.009812,15.0184156 L0.009812,4.13694688 C0.009812,2.37482188 1.417712,0.946853125 3.155072,0.946853125 L109.820312,0.946853125 C111.557672,0.946853125 112.965572,2.37482188 112.965572,4.13694688 L112.965572,15.0184156 C112.965572,16.7816969 111.557672,18.2085094 109.820312,18.2085094 Z" id="Stroke-54" stroke="#34336C" stroke-width="0.5"></path>
                    <text id="Password" font-family="Montserrat-Regular, Montserrat" font-size="4.1015" font-weight="normal" letter-spacing="-0.06111235" fill="#34336C">
                        <tspan x="0.009698" y="34.629596">P</tspan>
                        <tspan x="2.83194015" y="34.629596">as</tspan>
                        <tspan x="7.25745865" y="34.629596" letter-spacing="-0.04060485">s</tspan>
                        <tspan x="9.1814723" y="34.629596">w</tspan>
                        <tspan x="12.6640559" y="34.629596">o</tspan>
                        <tspan x="15.2356964" y="34.629596" letter-spacing="-0.05290935">r</tspan>
                        <tspan x="16.7741691" y="34.629596">d</tspan>
                    </text>
                </g>
                <text id="Entry-password" font-family="Montserrat-Regular, Montserrat" font-size="4.1015" font-weight="normal" fill="#34336C">
                    <tspan x="195" y="302">Ent</tspan>
                    <tspan x="202.185828" y="302" letter-spacing="0.0615225">r</tspan>
                    <tspan x="203.953575" y="302">y </tspan>
                    <tspan x="207.251181" y="302" letter-spacing="-0.0123045">p</tspan>
                    <tspan x="210.007388" y="302">as</tspan>
                    <tspan x="214.432907" y="302" letter-spacing="-0.04060485">s</tspan>
                    <tspan x="216.356921" y="302" letter-spacing="-0.0615225">w</tspan>
                    <tspan x="219.839094" y="302">o</tspan>
                    <tspan x="222.410735" y="302" letter-spacing="-0.0533195">r</tspan>
                    <tspan x="223.948797" y="302">d</tspan>
                </text>
                <g id="Group-145" transform="translate(0.000000, 175.000000)">
                    <path d="M300.681782,135.657843 L193.795622,135.657843 C192.054664,135.657843 190.643848,134.250045 190.643848,132.51281 L190.643848,121.783905 C190.643848,120.04781 192.054664,118.638872 193.795622,118.638872 L300.681782,118.638872 C302.42274,118.638872 303.833556,120.04781 303.833556,121.783905 L303.833556,132.51281 C303.833556,134.250045 302.42274,135.657843 300.681782,135.657843 Z" id="Stroke-58" stroke="#34336C" stroke-width="0.5"></path>
                    <line x1="242.27857" y1="5.00982428" x2="242.27857" y2="11.0160506" id="Stroke-60" stroke="#00C4E4" stroke-width="0.5"></line>
                    <path d="M300.740842,274.596484 C300.740842,273.269619 268.142425,272.194677 227.930172,272.194677 C187.716776,272.194677 155.118359,273.269619 155.118359,274.596484 C155.118359,275.924488 187.716776,276.99943 227.930172,276.99943 C268.142425,276.99943 300.740842,275.924488 300.740842,274.596484" id="Fill-62" fill="#6D55B1"></path>
                    <path d="M235.619633,120.867867 C235.619633,120.867867 242.855348,132.016262 244.493494,127.185291 C246.13164,122.35432 247.133491,119.397373 247.133491,119.397373 C247.133491,119.397373 245.078383,116.035756 243.990855,117.069661 C242.853064,118.151443 241.377133,116.186225 241.377133,116.186225 L235.619633,120.867867 Z" id="Fill-64" fill="#FFBB9A"></path>
                    <path d="M271.381933,63.2096901 L274.371492,45.8863609 C276.334068,45.2548465 278.353763,43.7421757 277.661492,41.4007848 C277.315357,40.2323691 276.398041,39.6122539 275.317367,39.2053033 C274.910686,39.0514144 272.821308,38.4529576 272.675086,39.2565996 C272.67737,39.2452004 273.812877,33.0132704 273.812877,33.0132704 L253.452575,23.2088383 C253.452575,23.2088383 251.597381,35.6430605 251.574534,35.78783 C251.604235,35.594044 249.595964,35.1449165 249.324082,35.1734144 C248.301669,35.2817066 247.30553,36.2335379 246.903419,37.1272333 C245.84445,39.4845831 247.893846,42.464328 250.452735,42.5042251 C250.452735,42.5042251 250.801155,48.0829823 252.097735,50.0618794 C253.394315,52.0407765 259.380287,53.4086778 259.380287,53.4086778 L258.72343,60.9515132 L271.381933,63.2096901 Z" id="Fill-66" fill="#FFBB9A"></path>
                    <path d="M278.25849,64.6295716 C269.057914,62.0533576 256.136667,59.7860613 256.136667,59.7860613 L247.564389,120.705543 L283.677851,119.592983 L278.25849,64.6295716 Z" id="Fill-68" fill="#00C2F3"></path>
                    <path d="M278.25849,64.6295716 C290.271559,67.7700449 302.13041,70.1410737 314.483903,71.4177815 C311.733098,58.932263 310.226323,49.3865922 306.632455,38.7807979 C310.06525,37.9133206 316.762914,36.204584 320.195709,35.3382465 C320.195709,35.3382465 331.569056,74.8785716 328.116841,80.1506909 C322.24282,89.1218432 292.982382,83.2147897 292.982382,83.2147897 L279.140393,80.7537074 L278.25849,64.6295716 Z" id="Fill-70" fill="#00C2F3"></path>
                    <path d="M216.408089,78.0413872 C216.408089,78.0413872 255.174114,59.1187535 256.955055,59.8163831 C258.737138,60.5140128 260.250766,69.2845395 260.250766,69.2845395 C260.250766,69.2845395 246.19744,78.2055354 224.467447,88.2858276 L244.232579,115.133169 L234.385426,122.179 C234.385426,122.179 207.245211,91.7409181 208.277905,85.4508523 C209.074131,80.5959428 216.408089,78.0413872 216.408089,78.0413872" id="Fill-72" fill="#00C2F3"></path>
                    <path d="M319.611048,35.4859798 C319.611048,35.4859798 318.007173,24.2954078 317.815257,23.9762309 C317.62334,23.6570539 317.62334,21.6815765 314.742305,22.1580621 C314.742305,22.1580621 314.550389,18.6117782 312.887111,18.5479428 C311.222691,18.4841074 309.367496,18.9309551 309.367496,18.9309551 C309.367496,18.9309551 307.495166,9.8389716 306.278552,8.26360535 C304.951128,6.54232963 303.095934,11.0757823 305.974684,22.1580621 C305.974684,22.1580621 307.570562,29.694058 307.09534,29.9721979 C305.806757,30.7211239 304.036097,30.5854737 301.58459,26.4031156 C298.981149,21.9608564 295.736843,23.4655477 297.336149,26.9137988 C298.935455,30.3620498 301.204184,34.8225477 302.675545,36.0365601 C304.146906,37.2494325 307.256413,37.0670457 307.256413,37.0670457 L307.712215,38.5079016 L319.611048,35.4859798 Z" id="Fill-74" fill="#FFBB9A"></path>
                    <path d="M283.677965,119.593325 C279.327854,185.515905 264.560552,266.874111 264.560552,266.874111 L279.023986,272.98293 L248.222503,272.98293 L268.424017,129.113918 L261.504736,129.113918 L210.402354,273.075263 L179.635142,273.075263 L197.138399,266.706543 L248.222503,116.023103 L283.677965,119.593325 Z" id="Fill-76" fill="#2C3E50"></path>
                    <path d="M276.269411,39.6649181 C277.990949,36.2292062 280.004932,27.8929881 274.777487,25.5755354 C272.065522,24.3717823 269.253029,22.6402473 267.176216,21.2529675 C263.991314,19.1247412 260.03189,18.2800621 256.337494,19.3025683 C255.744609,19.4667165 255.165432,19.6764613 254.62281,19.9432021 C250.974109,21.730593 248.510036,31.4039346 248.510036,31.4039346 L252.095907,32.3010498 C252.095907,32.3010498 256.095314,50.0450086 262.673029,53.6927453 L269.24389,55.081165 L273.131345,55.9520621 L276.269411,39.6649181 Z" id="Fill-78" fill="#D06940"></path>
                    <path d="M271.504737,24.3449942 C271.532153,23.281451 271.491028,22.2247473 271.382504,21.1669037 C271.337952,20.7360148 270.657105,20.7325951 270.701657,21.1669037 C270.811324,22.2247473 270.852449,23.281451 270.825032,24.3449942 C270.813608,24.7815827 271.493313,24.7815827 271.504737,24.3449942" id="Fill-80" fill="#D06940"></path>
                    <path d="M271.504737,24.4791626 C271.963966,24.1884835 272.118185,23.6470226 272.372931,23.1887757 C272.682511,22.6324959 273.037785,22.104714 273.425046,21.6008704 C273.691216,21.2531955 273.099473,20.9157798 272.837872,21.2577551 C272.528292,21.661286 272.238133,22.0784959 271.976532,22.5162243 C271.751487,22.8923971 271.537865,23.6550021 271.162028,23.8932449 C270.793046,24.1257881 271.134612,24.7139856 271.504737,24.4791626" id="Fill-82" fill="#D06940"></path>
                    <g id="Group-86" transform="translate(0.000000, 254.201646)">
                        <mask id="mask-4" fill="white">
                            <use xlink:href="#path-3"></use>
                        </mask>
                        <g id="Clip-85"></g>
                        <path d="M145.62294,2.90530823 C145.62294,1.57844403 113.024523,0.503501646 72.8111271,0.503501646 C32.5988736,0.503501646 -0.000685416667,1.57844403 -0.000685416667,2.90530823 C-0.000685416667,4.23331235 32.5988736,5.30825473 72.8111271,5.30825473 C113.024523,5.30825473 145.62294,4.23331235 145.62294,2.90530823" id="Fill-84" fill="#6D55B1" mask="url(#mask-4)"></path>
                    </g>
                    <path d="M97.8624208,4.86904444 C96.4961569,4.556707 95.2201396,4.50883045 93.4734694,4.34696214 C90.8666014,4.10415967 88.4893479,5.78895802 86.5176326,7.50567407 C84.544775,9.22239012 83.1236778,11.4737276 81.8465181,13.753563 C80.5419417,16.0824148 79.3253271,18.7806 80.0952785,21.3362955 C80.2917646,21.9871885 80.6150528,22.6187029 80.6059139,23.2980938 C80.5773549,25.4103613 77.6586222,26.2083037 76.7458757,28.115386 C75.6183653,30.470456 77.9213653,33.6451267 76.3597576,35.7402955 C75.5806674,36.7867399 74.0807472,37.1161761 73.3427819,38.1911185 C72.7624625,39.0357975 72.7864521,40.1392379 72.8321465,41.161744 C72.8424278,41.3726288 72.8618479,41.6063119 73.017209,41.7499416 C73.1462958,41.868493 73.3347854,41.8912914 73.5095667,41.9072502 C81.8488028,42.7074724 90.1035042,40.9075424 98.4427403,41.7077646 C99.4503028,41.8046576 100.465862,41.9004107 101.469997,41.7829992 C102.911657,41.6131514 104.261928,41.0112749 105.582497,40.4093984 C112.791938,37.132135 120.008233,36.2817564 127.052032,32.6647975 C127.346761,32.5131885 127.659768,32.3433407 127.808275,32.0469621 C127.921369,31.8189786 127.919084,31.5522379 127.89281,31.300316 C127.70432,29.4479498 126.332344,27.7699909 124.552546,27.2125712 C122.716772,26.6380527 120.516584,27.1396165 118.983535,25.9791802 C117.878872,25.1424807 117.477903,23.6731267 117.331681,22.2961062 C117.03581,19.4976082 117.355671,16.2613819 115.325695,14.3087029 C113.736671,12.7800733 111.185778,12.6136453 109.588758,11.0918551 C108.680581,10.2255177 108.190508,9.01834486 107.455969,7.99925844 C105.308331,5.01495391 101.649348,3.28341893 97.8624208,4.86904444" id="Fill-87" fill="#5F4456"></path>
                    <path d="M83.9248156,101.032843 L37.4375726,247.832584 L19.1403747,254.872716 L46.2931559,254.872716 L98.7812219,116.569921 C99.1182184,115.681926 99.9704198,115.093728 100.920864,115.093728 C102.281416,115.093728 103.34267,116.271263 103.19759,117.620926 L89.367024,254.872716 L116.852232,254.872716 L98.500201,248.818613 C98.500201,248.818613 115.599062,169.008415 119.404267,144.037378 C123.209472,119.065201 117.694152,101.421555 117.694152,101.421555 C117.694152,101.421555 99.8756038,95.7835222 83.9248156,101.032843" id="Fill-89" fill="#49648F"></path>
                    <path d="M84.4698361,48.197544 C88.7308431,43.7564247 105.669774,43.2446016 111.792829,45.7535605 C117.917027,48.2636593 129.184135,80.7216757 129.184135,80.7216757 L117.978715,85.1114988 L111.025162,57.975758 L89.2334819,54.9800543 L84.4698361,48.197544 Z" id="Fill-91" fill="#EF5059"></path>
                    <path d="M113.100261,61.9617082 C113.100261,61.9617082 115.009147,57.4681527 115.415827,54.000523 C115.82365,50.5328934 111.098845,47.1404984 111.098845,47.1404984 L85.459692,53.7713996 L87.0532858,69.0109593 L83.2914906,99.802416 L115.869345,101.009589 L112.595338,62.089379" id="Fill-93" fill="#EF5059"></path>
                    <path d="M87.4122156,62.8395588 C87.302549,62.8395588 87.1928823,62.8053613 87.0992087,62.7358263 C86.8695941,62.5625588 86.8227573,62.2365424 86.9941115,62.0074189 L88.8161774,59.5862337 C88.9898163,59.3559704 89.3165316,59.3080938 89.5461462,59.4825012 C89.7769031,59.6546288 89.8225976,59.9795053 89.6489587,60.2097687 L87.8291774,62.6309539 C87.7263649,62.767744 87.5698615,62.8395588 87.4122156,62.8395588" id="Fill-95" fill="#3196BD"></path>
                    <path d="M71.1374538,105.048203 C73.0966031,103.909426 75.0557524,102.771788 77.0160441,101.63415" id="Fill-97" fill="#6DCBEE"></path>
                    <path d="M96.5159198,44.5323667 C96.1595031,41.134272 97.9004615,37.6871609 92.4068469,35.4916794 C84.8329927,32.464058 83.2096976,6.40439959 96.8894719,6.34611678 C110.570389,6.28812798 109.89868,23.489486 109.843847,28.5963173 C109.790156,33.7031486 105.283541,35.0037947 104.157173,36.8527412 C103.030805,38.7005477 104.002955,44.5323667 104.002955,44.5323667 L96.5159198,44.5323667 Z" id="Fill-99" fill="#FFBB9A"></path>
                    <path d="M88.7542615,24.7964016 C88.7542615,26.4698008 87.5787719,27.8274428 86.1279733,27.8274428 C84.6771747,27.8274428 83.5016851,26.4698008 83.5016851,24.7964016 C83.5016851,23.1218626 84.6771747,21.7653605 86.1279733,21.7653605 C87.5787719,21.7653605 88.7542615,23.1218626 88.7542615,24.7964016" id="Fill-101" fill="#FFBB9A"></path>
                    <path d="M113.297661,22.4547827 C113.297661,24.1281819 112.12103,25.4858239 110.671373,25.4858239 C109.220575,25.4858239 108.043943,24.1281819 108.043943,22.4547827 C108.043943,20.7802436 109.220575,19.4237416 110.671373,19.4237416 C112.12103,19.4237416 113.297661,20.7802436 113.297661,22.4547827" id="Fill-103" fill="#FFBB9A"></path>
                    <path d="M29.0167719,142.508521 C20.2731399,142.508521 13.1847892,135.435331 13.1847892,126.710401 C13.1847892,117.985471 20.2731399,110.912282 29.0167719,110.912282 C37.7604038,110.912282 44.8487545,117.985471 44.8487545,126.710401 C44.8487545,135.435331 37.7604038,142.508521 29.0167719,142.508521 L29.0167719,142.508521 Z M167.313293,77.6312449 L163.256768,67.3742654 L48.5637128,112.304121 C44.1370635,106.333233 37.0315774,102.460932 29.0167719,102.460932 C15.5951712,102.460932 4.71532396,113.318648 4.71532396,126.710401 C4.71532396,140.103294 15.5951712,150.95987 29.0167719,150.95987 C42.4383726,150.95987 53.3182198,140.103294 53.3182198,126.710401 C53.3182198,125.715253 53.2508205,124.734924 53.1342997,123.771693 L140.47923,88.4752819 L145.276005,99.0035617 L155.929664,94.1326934 L152.179293,85.7554383 L155.630366,83.93157 L159.692602,91.991928 L167.313293,87.9304012 L163.092268,79.3377016 L167.313293,77.6312449 Z" id="Fill-105" fill="#B2EDFB"></path>
                    <path d="M84.4698361,48.197544 C84.4698361,48.197544 55.5521069,73.890149 55.3921764,78.6584247 C55.2345306,83.4278403 72.4304924,108.511729 72.4304924,108.511729 L81.0267597,103.088001 L68.987416,80.5997045 L88.5754819,61.9620502 C88.5754819,61.9620502 89.2163465,66.2925975 90.783666,67.4701325 L91.6552875,50.3246305 L84.4698361,48.197544 Z" id="Fill-107" fill="#EF5059"></path>
                    <path d="M107.099553,12.3391531 C103.340042,12.5317992 86.6798479,14.223437 86.6798479,14.223437 C86.6798479,14.223437 89.1153618,4.24345761 96.8891292,3.85132593 C107.099553,3.33722305 107.099553,12.3391531 107.099553,12.3391531" id="Fill-109" fill="#5F4456"></path>
                    <path d="M86.6998392,22.8783761 C86.6998392,22.8783761 100.200263,21.6164872 102.566093,15.2568864 C102.566093,15.2568864 107.048718,20.9758535 109.673864,20.6885942 C109.673864,20.6885942 110.104534,13.1651374 108.4721,12.1471909 C106.839666,11.1292444 86.1275163,13.2278329 86.1275163,13.2278329 C86.1275163,13.2278329 85.5928913,18.0394255 86.6998392,22.8783761" id="Fill-111" fill="#5F4456"></path>
                    <path d="M72.7923924,108.206345 C72.7923924,108.206345 76.4810764,115.966905 76.6924132,116.154991 C76.90375,116.343078 77.3492708,117.777094 79.3312674,116.783086 C79.3312674,116.783086 80.2702882,119.313703 81.4926146,118.986547 C82.7137986,118.658251 83.9601146,117.918444 83.9601146,117.918444 C83.9601146,117.918444 85.4406146,119.885942 86.5384236,118.846337 C87.8212951,117.630045 86.6081076,116.279242 85.691934,114.814448 C85.691934,114.814448 82.8348889,109.703057 83.1170521,109.396419 C83.882434,108.562 85.198434,108.263341 87.9218229,110.747222 C90.8119965,113.386131 92.8282639,111.564543 90.8885347,109.422637 C88.9499479,107.280732 86.2985278,104.551769 84.9562535,104.002329 C83.6151215,103.452888 81.4000833,104.283888 81.4000833,104.283888 L80.7432257,103.340037 L72.7923924,108.206345 Z" id="Fill-113" fill="#FFBB9A"></path>
                    <path d="M131.914035,91.935844 C131.914035,91.935844 129.842934,97.8098399 126.226219,98.7970086 C122.608361,99.7830374 102.32574,103.892441 102.32574,103.892441 L102.32574,95.8879387 L131.914035,91.935844 Z" id="Fill-115" fill="#FC816C"></path>
                    <path d="M102.325968,96.8472934 L100.780354,96.8472934 C100.780354,96.8472934 100.433076,95.7643716 100.213743,95.4087173 C99.5808747,94.3827914 91.0897045,93.3055691 91.2450656,94.4135691 C91.4015691,95.5227091 92.7975344,95.7962893 95.7905205,96.3491494 C95.7905205,96.3491494 84.5930969,99.0598737 85.6463538,99.9455897 C86.6996108,100.830166 93.685149,98.7965527 93.685149,98.7965527 C93.685149,98.7965527 86.1078677,101.255355 86.6436351,102.932174 C86.9520726,103.893125 94.631024,101.633808 94.631024,101.633808 C94.631024,101.633808 86.8104198,104.425466 88.1961038,105.367038 C89.5829302,106.30747 98.2306038,104.188363 99.0622427,103.893125 C99.8938816,103.596746 100.213743,101.992882 100.213743,101.992882 L102.325968,101.633808 L102.325968,96.8472934 Z" id="Fill-117" fill="#FFBB9A"></path>
                    <path d="M95.9503368,0.80136214 C96.2473507,2.03703292 96.3718681,3.57592181 97.0824167,4.65542387 C97.3771458,5.10341152 98.1014028,4.68620165 97.8055312,4.23479424 C97.149816,3.23736626 97.0321528,1.72241564 96.7579861,0.579078189 C96.6323264,0.0569958848 95.8246771,0.278139918 95.9503368,0.80136214" id="Fill-119" fill="#5F4456"></path>
                    <path d="M97.7698896,4.73316626 C98.1971326,3.97398107 98.6540771,3.23417449 99.1418653,2.5137465 C99.444591,2.06689877 98.720334,1.64740905 98.4187507,2.09197695 C97.9309625,2.81240494 97.4740181,3.55221152 97.046775,4.31139671 C96.7828896,4.7810428 97.5060042,5.20281235 97.7698896,4.73316626" id="Fill-121" fill="#5F4456"></path>
                    <path d="M99.3896434,22.298956 C99.3587997,23.2599066 99.3816469,24.2140177 99.4947406,25.1704086 C99.5518587,25.6594333 99.5050219,26.5326103 99.8454455,26.9053634 C100.039647,27.1173881 100.44747,27.1037091 100.69422,27.1424663 C101.611536,27.283816 102.536848,27.3886885 103.457591,27.5117996 C103.40847,27.3921082 103.359348,27.2735568 103.309084,27.1550053 C102.526567,27.8959519 101.682362,28.4419724 100.691935,28.8603222 C100.445185,28.9651947 100.657664,29.3254086 100.903272,29.2205362 C101.929112,28.7873675 102.799591,28.212849 103.604956,27.450244 C103.751178,27.3111741 103.624376,27.1162481 103.457591,27.0934498 C102.498008,26.965779 100.543428,27.0740712 100.045359,26.0629642 C99.578133,25.1134128 99.7746191,23.3112029 99.8077476,22.298956 C99.8168865,22.0299354 99.3976399,22.0299354 99.3896434,22.298956" id="Fill-123" fill="#FFA077"></path>
                    <path d="M103.686977,25.1715486 C103.806925,24.2197173 103.200332,21.9888984 104.403238,21.5283716 C105.472488,21.1180012 106.147623,22.0059971 106.31555,22.9065321 C106.42179,23.4707914 106.521175,24.0361905 106.62513,24.6015897 C106.673109,24.8660506 107.076363,24.7543387 107.028384,24.4910177 C106.775922,23.1060177 106.716519,20.7372687 104.646561,21.0188284 C102.72054,21.2810095 103.424234,23.946137 103.268873,25.1715486 C103.234602,25.4371494 103.653849,25.4348695 103.686977,25.1715486" id="Fill-125" fill="#55433D"></path>
                    <path d="M92.8846965,25.7420774 C93.0046444,24.7891062 92.3980507,22.5594272 93.6009569,22.0989004 C94.6702069,21.68853 95.3453424,22.5765259 95.5132694,23.4770609 C95.619509,24.0413202 95.7188944,24.6067193 95.8228493,25.1721185 C95.8708285,25.4354395 96.2740819,25.3237276 96.2261028,25.0615465 C95.973641,23.6754066 95.9142382,21.3077975 93.8454222,21.5893572 C91.918259,21.8515383 92.6219535,24.5166658 92.4665924,25.7420774 C92.4323215,26.0076782 92.8515681,26.0053984 92.8846965,25.7420774" id="Fill-127" fill="#55433D"></path>
                    <path d="M95.7378576,28.1644025 C96.1879479,31.6400115 102.084816,32.3376412 104.251875,30.2276535 C104.446076,30.0395671 104.149062,29.7443284 103.956003,29.9324148 C102.146503,31.6935877 96.5603576,31.2820774 96.1571042,28.1644025 C96.1228333,27.9022214 95.7035868,27.8988016 95.7378576,28.1644025" id="Fill-129" fill="#FFA077"></path>
                    <path d="M95.6541226,28.7482683 C95.7740705,28.3800749 96.1464802,28.1406922 96.534883,28.2056675 C96.797626,28.2501243 96.9118622,27.8465934 96.645692,27.8032765 C96.0265323,27.699544 95.4473552,28.0358198 95.2508691,28.6365564 C95.1674767,28.8930379 95.5707302,29.0036099 95.6541226,28.7482683" id="Fill-131" fill="#FFA077"></path>
                    <path d="M95.13035,26.7796305 C95.3165549,27.2458568 94.4906278,28.0073218 93.2317458,28.2763424 C92.6240097,28.4119926 91.9877146,28.3914741 91.6312979,28.2774823 C91.2840201,28.1646305 91.0395549,28.0415193 90.9116104,27.8215152 C90.8556347,27.7098033 90.8590618,27.5695934 90.9470236,27.4202642 C91.0327007,27.2720749 91.2029125,27.1227457 91.4108222,27.0041942 C91.8346382,26.7727909 92.2790167,26.6143424 92.8456278,26.4900914 C93.9434368,26.2575481 94.9441451,26.3077045 95.13035,26.7796305" id="Fill-133" fill="#FF837A"></path>
                    <path d="M108.863815,25.8239235 C109.05002,26.2901498 108.224093,27.0516148 106.966353,27.3206354 C106.357475,27.4562856 105.72118,27.4357671 105.364763,27.3217753 C105.018628,27.2089235 104.77302,27.0858123 104.645076,26.8658082 C104.5891,26.7540963 104.592527,26.6138864 104.680489,26.4645572 C104.766166,26.3163679 104.936378,26.1681786 105.14543,26.0484872 C105.568103,25.8182239 106.012482,25.6586354 106.579093,25.5343844 C107.676902,25.3018412 108.67761,25.3519975 108.863815,25.8239235" id="Fill-135" fill="#FF837A"></path>
                    <path d="M85.9523924,23.2251391 C85.1298924,23.253637 84.6912257,24.0196617 84.7643368,24.7868263 C84.8385903,25.5642502 85.3857813,26.1592872 86.1751528,26.2140033 C86.4436076,26.2333819 86.4424653,25.8150321 86.1751528,25.7967934 C85.0682049,25.719279 84.7152153,23.6856658 85.9523924,23.6434889 C86.2208472,23.6332296 86.2219896,23.2160198 85.9523924,23.2251391" id="Fill-137" fill="#FFA077"></path>
                    <path d="M84.8340208,24.3650568 C85.2315625,24.8632008 85.8370139,25.1253819 86.473309,25.0843449 C86.7394792,25.0672461 86.7417639,24.6500362 86.473309,24.667135 C85.9341146,24.7013325 85.4657465,24.4893078 85.1298924,24.0698181 C84.9619653,23.8600733 84.6672361,24.1564519 84.8340208,24.3650568" id="Fill-139" fill="#FFA077"></path>
                    <path d="M110.463578,23.9431733 C111.36947,24.1586177 111.869824,23.336737 111.98406,22.5536136 C112.10972,21.689556 111.57738,20.8517165 110.656637,20.7685025 C110.389324,20.7434243 110.390467,21.1617741 110.656637,21.1857123 C111.244953,21.2392885 111.637925,21.8263461 111.588803,22.3735066 C111.541967,22.9035683 111.274654,23.7060704 110.575529,23.5407823 C110.312786,23.4780868 110.201977,23.8804778 110.463578,23.9431733" id="Fill-141" fill="#FFA077"></path>
                    <path d="M110.716839,22.7108082 C111.112096,22.3551539 111.361131,21.8980469 111.437669,21.3714049 C111.475367,21.108084 111.072114,20.9940922 111.034416,21.259693 C110.967016,21.7213597 110.768245,22.1032321 110.420968,22.4155695 C110.219912,22.5956765 110.516926,22.8909152 110.716839,22.7108082" id="Fill-143" fill="#FFA077"></path>
                </g>
            </g>
        </g>
    </g>
</svg>