<?xml version="1.0" encoding="UTF-8"?>
<svg width="492px" height="340px" viewBox="0 0 492 340" version="1.1" xmlns="http://www.w3.org/2000/svg" xmlns:xlink="http://www.w3.org/1999/xlink">
    <title>banner-sign-in</title>
    <defs>
        <linearGradient x1="0.0425262609%" y1="49.9960599%" x2="99.9912109%" y2="49.9960599%" id="linearGradient-1">
            <stop stop-color="#808080" stop-opacity="0.25" offset="0%"></stop>
            <stop stop-color="#808080" stop-opacity="0.12" offset="54%"></stop>
            <stop stop-color="#808080" stop-opacity="0.1" offset="100%"></stop>
        </linearGradient>
    </defs>
    <g id="Account-Page" stroke="none" stroke-width="1" fill="none" fill-rule="evenodd">
        <g id="Sign-In" transform="translate(-80.000000, -337.000000)" fill-rule="nonzero">
            <g id="banner-sign-in" transform="translate(80.000000, 337.000000)">
                <path d="M277.906815,46.601487 C246.413631,46.6436183 216.100124,37.7159851 187.105328,27.7982652 C158.110533,17.8805452 129.339033,6.77472119 98.4314746,2.06864932 C78.5539033,-0.95638166 55.9504337,-0.678314746 40.4123916,10.3053284 C25.4557621,20.8718711 21.1246592,38.3605948 19.0349442,54.5179678 C17.4634449,66.6728625 16.7387856,79.4302354 22.6245353,90.5486989 C26.7112763,98.2671623 33.7050805,104.628996 38.6344486,111.98513 C55.8408922,137.575713 45.4934325,170.265428 28.7714994,196.450062 C20.930855,208.735564 11.7462206,220.511276 5.81833953,233.500372 C-0.109541512,246.489467 -2.54052045,261.218587 3.50532838,274.039157 C9.49640644,286.745973 23.0289963,295.968525 37.5516729,302.267162 C67.0436183,315.083519 101.380669,317.830483 134.795043,318.88798 C208.760843,321.234696 282.869888,316.448575 356.780917,311.662454 C384.13259,309.892937 411.606444,308.110781 438.393556,302.983395 C453.265923,300.139529 468.580669,295.917968 479.126146,286.665923 C492.511276,274.919703 495.249814,255.741512 485.509046,241.956134 C469.174721,218.834449 426.103841,214.473854 414.391326,189.456258 C407.93259,175.683519 413.502354,159.888476 421.705328,146.612887 C439.29938,118.127881 469.583395,92.6131351 470.093185,60.7534077 C470.442875,38.8745973 454.694176,17.530855 431.172243,8.02180917 C406.516976,-1.93804213 372.900372,0.62354399 355.626518,19.1866171 C337.863941,38.3100372 305.713507,46.571995 277.906815,46.601487 Z" id="Path" fill="#00B0FF" opacity="0.1"></path>
                <path d="M418.166295,272.320198 C418.166295,272.320198 412.988352,268.903346 407.856753,271.334325 C407.856753,271.334325 409.436679,274.376208 415.933333,274.089715 L418.166295,272.320198 Z" id="Path" fill="#00B0FF"></path>
                <path d="M418.823544,272.501363 C418.823544,272.501363 420.399257,278.500867 416.447336,282.583395 C416.447336,282.583395 414.071128,280.110285 416.447336,274.051797 L418.823544,272.501363 Z" id="Path" fill="#00B0FF"></path>
                <path d="M425.261214,266.742007 C425.261214,266.742007 424.877819,261.639901 413.354857,263.333581 C413.354857,263.333581 413.300124,266.62404 417.344734,268.1829 C421.389343,269.74176 423.243123,268.427261 425.261214,266.742007 Z" id="Path" fill="#00B0FF"></path>
                <path d="M425.985874,266.708302 C425.985874,266.708302 430.856258,268.271375 426.512515,279.078067 C426.512515,279.078067 423.297893,278.361834 422.720694,274.060223 C422.143494,269.758612 423.854027,268.275589 425.985874,266.708302 Z" id="Path" fill="#00B0FF"></path>
                <path d="M432.490954,259.470136 C432.490954,259.470136 433.152416,251.073358 421.376704,251.932838 C421.376704,251.932838 420.534077,259.516481 430.413879,261.488228 L432.490954,259.470136 Z" id="Path" fill="#00B0FF"></path>
                <path d="M440.272615,249.990582 C440.272615,249.990582 438.658984,240.47311 426.887482,243.30855 C426.887482,243.30855 426.845353,251.536803 438.351425,252.257249 L440.272615,249.990582 Z" id="Path" fill="#00B0FF"></path>
                <path d="M445.960347,240.19083 C445.960347,240.19083 443.255514,230.921933 431.593556,233.694176 C431.593556,233.694176 434.370012,242.03197 445.18513,241.901363 L445.960347,240.19083 Z" id="Path" fill="#00B0FF"></path>
                <path d="M451.361586,230.618587 C451.361586,230.618587 448.71995,221 437.45824,223.877571 C437.45824,223.877571 441.216357,233.015861 450.615861,232.244857 L451.361586,230.618587 Z" id="Path" fill="#00B0FF"></path>
                <path d="M454.841636,221.526642 C454.841636,221.526642 452.810905,209.763569 442.311772,212.367286 C442.311772,212.367286 445.362082,223.068649 454.070632,223.241388 L454.841636,221.526642 Z" id="Path" fill="#00B0FF"></path>
                <path d="M458.106815,210.542999 C458.106815,210.542999 455.66741,198.687237 445.046097,202.116729 C445.046097,202.116729 449.208674,213.323668 457.352664,212.165056 L458.106815,210.542999 Z" id="Path" fill="#00B0FF"></path>
                <path d="M460.112268,200.321933 C460.112268,200.321933 456.240397,188.461958 448.028996,188.782156 C448.028996,188.782156 451.98513,201.307807 459.425527,202.685502 L460.112268,200.321933 Z" id="Path" fill="#00B0FF"></path>
                <path d="M461.409913,190.345229 C461.409913,190.345229 457.196778,176.071128 450.514746,177.170756 C450.514746,177.170756 453.430235,188.082776 461.173978,192.569765 L461.409913,190.345229 Z" id="Path" fill="#00B0FF"></path>
                <path d="M462.142999,178.443123 C462.142999,178.443123 458.191078,166.549442 451.610161,166.073358 C451.610161,166.073358 454.298141,177.777447 462.012392,181.535564 L462.142999,178.443123 Z" id="Path" fill="#00B0FF"></path>
                <path d="M462.939281,167.337299 C462.939281,167.337299 458.014126,155.430979 453.670384,155.161338 C453.670384,155.161338 455.810657,166.886493 462.517968,169.292193 L462.939281,167.337299 Z" id="Path" fill="#00B0FF"></path>
                <path d="M463.482776,157.006691 C463.482776,157.006691 460.453532,144.07658 456.101363,143.00223 C456.101363,143.00223 456.695415,153.581413 463.04461,157.975713 L463.482776,157.006691 Z" id="Path" fill="#00B0FF"></path>
                <path d="M465.125898,143.474102 C465.125898,143.474102 461.940768,133.16456 458.414374,131.593061 C458.414374,131.593061 459.109542,143.747955 464.312763,145.993556 L465.125898,143.474102 Z" id="Path" fill="#00B0FF"></path>
                <path d="M466.486741,134.626518 L467.127138,116.451053 C467.127138,116.451053 460.533581,130.152169 466.010657,137.815861 L466.486741,134.626518 Z" id="Path" fill="#00B0FF"></path>
                <path d="M471.576208,116.547955 C471.576208,116.547955 476.324411,103.27658 477.474597,102.535068 C477.474597,102.535068 468.163569,111.146716 469.073606,122.223048 L471.576208,116.547955 Z" id="Path" fill="#00B0FF"></path>
                <path d="M432.811152,259.406939 C432.811152,259.406939 441.161586,258.315737 440.913011,270.116729 C440.913011,270.116729 433.367286,271.346964 430.902602,261.58513 L432.811152,259.406939 Z" id="Path" fill="#00B0FF"></path>
                <path d="M440.668649,249.670383 C440.668649,249.670383 450.316729,249.640892 449.516233,261.71995 C449.516233,261.71995 441.414374,263.169269 438.743247,251.953903 L440.668649,249.670383 Z" id="Path" fill="#00B0FF"></path>
                <path d="M446.053036,240.97026 C446.053036,240.97026 454.812144,236.862454 460.415613,247.466914 C460.415613,247.466914 452.326394,250.88798 445.277819,242.685006 L446.053036,240.97026 Z" id="Path" fill="#00B0FF"></path>
                <path d="M451.55539,230.707063 C451.55539,230.707063 460.525155,226.338042 465.791574,236.693928 C465.791574,236.693928 456.44684,239.912763 450.813879,232.345973 L451.55539,230.707063 Z" id="Path" fill="#00B0FF"></path>
                <path d="M454.727881,221.783643 C454.727881,221.783643 463.360595,213.538538 470.249071,221.876332 C470.249071,221.876332 461.430979,228.663693 454.331846,223.62057 L454.727881,221.783643 Z" id="Path" fill="#00B0FF"></path>
                <path d="M457.618092,210.260719 C457.618092,210.260719 466.301363,201.834449 473.135068,210.648327 C473.135068,210.648327 463.390087,217.570508 457.30632,212.030235 L457.618092,210.260719 Z" id="Path" fill="#00B0FF"></path>
                <path d="M459.240149,199.984882 C459.240149,199.984882 465.930607,189.452045 473.80917,191.802974 C473.80917,191.802974 466.865923,202.955143 459.315985,202.457993 L459.240149,199.984882 Z" id="Path" fill="#00B0FF"></path>
                <path d="M461.211896,190.277819 C461.211896,190.277819 467.952912,177.01487 474.331599,179.323668 C474.331599,179.323668 469.469641,189.519455 461.039157,192.514994 L461.211896,190.277819 Z" id="Path" fill="#00B0FF"></path>
                <path d="M461.679554,177.752169 C461.679554,177.752169 468.610161,167.31202 475.102602,168.5886 C475.102602,168.5886 469.435936,179.176208 461.005452,180.772986 L461.679554,177.752169 Z" id="Path" fill="#00B0FF"></path>
                <path d="M462.218835,167.105576 C462.218835,167.105576 467.590582,155.388848 471.95539,155.308798 C471.95539,155.308798 469.376952,166.941264 462.581165,169.094176 L462.218835,167.105576 Z" id="Path" fill="#00B0FF"></path>
                <path d="M463.272119,156.753903 C463.272119,156.753903 469.242131,144.889715 473.72912,144.864436 C473.72912,144.864436 470.674597,155.009665 463.470136,157.794548 L463.272119,156.753903 Z" id="Path" fill="#00B0FF"></path>
                <path d="M464.169517,144.215613 C464.169517,144.215613 468.63544,134.399009 472.334572,133.286741 C472.334572,133.286741 470.101611,145.252045 464.662454,146.819331 L464.169517,144.215613 Z" id="Path" fill="#00B0FF"></path>
                <path d="M467.017596,134.268401 L476.998513,119.063197 C476.998513,119.063197 474.44114,134.061958 465.559851,137.179678 L467.017596,134.268401 Z" id="Path" fill="#00B0FF"></path>
                <path d="M473.868154,117.773978 C473.868154,117.773978 485.466914,109.769021 485.888228,108.475589 C485.888228,108.475589 479.989839,119.686741 469.035688,121.666914 L473.868154,117.773978 Z" id="Path" fill="#00B0FF"></path>
                <path d="M474.563321,114.171747 C474.563321,114.171747 487.881041,101.36803 491.281041,101.38066 C491.281041,101.38066 480.297398,101.882032 474.243123,113.489219 L474.563321,114.171747 Z" id="Path" fill="#00B0FF"></path>
                <path d="M464.300124,146.115737 L464.784634,146.178934 C467.287237,126.592069 470.935812,115.001735 475.056258,113.581908 L474.896159,113.118463 C470.527138,114.635192 466.853284,126.048575 464.300124,146.115737 Z" id="Path" fill="#444053"></path>
                <path d="M460.617844,192.957373 L461.350929,193.016357 C461.506815,191.187856 461.624783,189.317224 461.704833,187.450805 C462.404213,171.238662 463.486989,156.349442 464.911029,145.188848 L464.489715,144.662206 C463.061462,155.848079 461.671128,171.183891 460.971747,187.421314 C460.891698,189.275093 460.77373,191.137299 460.617844,192.957373 Z" id="Path" fill="#444053"></path>
                <path d="M404.498885,281.664932 C404.625279,281.610161 417.530112,275.846592 430.923668,262.103346 C438.770714,254.054101 445.290855,244.810718 450.240892,234.717968 C456.434201,222.108055 460.20917,206.612144 461.47311,191.558612 L460.710533,191.916729 C457.866667,225.706072 442.484511,248.794052 430.253779,261.37026 C416.99083,274.991326 404.229244,280.695911 404.10285,280.750682 L404.498885,281.664932 Z" id="Path" fill="#444053"></path>
                <path d="M437.913259,36.3298637 L33.0815366,36.3298637 C31.0897527,36.3298637 29.4750929,37.9445235 29.4750929,39.9363073 L29.4750929,50.4438662 L441.519703,50.4438662 L441.519703,39.9363073 C441.519703,38.979819 441.139739,38.0625059 440.4634,37.3861666 C439.78706,36.7098272 438.869747,36.3298637 437.913259,36.3298637 Z" id="Path" fill="#3F3D56"></path>
                <path d="M29.4750929,50.4438662 L29.4750929,286.901859 C29.4750929,290.918002 32.7308205,294.17373 36.7469641,294.17373 L434.247831,294.17373 C438.263975,294.17373 441.519703,290.918002 441.519703,286.901859 L441.519703,50.4438662 L29.4750929,50.4438662 Z" id="Path" fill="#FFFFFF"></path>
                <circle id="Oval" fill="#FA5959" opacity="0.8" cx="36.0012392" cy="43.2815366" r="1.68525403"></circle>
                <circle id="Oval" fill="#FED253" opacity="0.8" cx="40.6356877" cy="43.2815366" r="1.68525403"></circle>
                <circle id="Oval" fill="#8CCF4D" opacity="0.8" cx="45.2701363" cy="43.2815366" r="1.68525403"></circle>
                <rect id="Rectangle" fill="#000000" opacity="0.05" x="67.7767038" y="89.8703841" width="331.152416" height="145.614374"></rect>
                <rect id="Rectangle" fill="#3F3D56" x="70.3045849" y="90.9742255" width="326.096654" height="142.403965"></rect>
                <path d="M159.201735,127.624287 C141.284988,127.624287 126.760595,142.148681 126.760595,160.065428 C126.760595,177.982174 141.284988,192.506568 159.201735,192.506568 C177.118482,192.506568 191.642875,177.982174 191.642875,160.065428 C191.642875,151.461502 188.224979,143.209971 182.141085,137.126077 C176.057191,131.042183 167.80566,127.624287 159.201735,127.624287 L159.201735,127.624287 Z M165.020074,160.844857 L165.020074,176.205948 L153.551921,176.205948 L153.551921,160.844857 C150.297559,158.381423 148.980304,154.114648 150.279613,150.245387 C151.578922,146.376127 155.204407,143.769138 159.285998,143.769138 C163.367588,143.769138 166.993073,146.376127 168.292382,150.245387 C169.591691,154.114648 168.274436,158.381423 165.020074,160.844857 L165.020074,160.844857 Z" id="Shape" fill="#00B0FF"></path>
                <path d="M159.201735,127.624287 C141.284988,127.624287 126.760595,142.148681 126.760595,160.065428 C126.760595,177.982174 141.284988,192.506568 159.201735,192.506568 C177.118482,192.506568 191.642875,177.982174 191.642875,160.065428 C191.642875,151.461502 188.224979,143.209971 182.141085,137.126077 C176.057191,131.042183 167.80566,127.624287 159.201735,127.624287 L159.201735,127.624287 Z M165.020074,160.844857 L165.020074,176.205948 L153.551921,176.205948 L153.551921,160.844857 C150.297559,158.381423 148.980304,154.114648 150.279613,150.245387 C151.578922,146.376127 155.204407,143.769138 159.285998,143.769138 C163.367588,143.769138 166.993073,146.376127 168.292382,150.245387 C169.591691,154.114648 168.274436,158.381423 165.020074,160.844857 L165.020074,160.844857 Z" id="Shape" fill="#000000" opacity="0.05"></path>
                <path d="M159.201735,118.35539 C136.165917,118.35539 117.491698,137.02961 117.491698,160.065428 C117.491698,183.101245 136.165917,201.775465 159.201735,201.775465 C182.237552,201.775465 200.911772,183.101245 200.911772,160.065428 C200.911772,149.003238 196.517334,138.394127 188.695185,130.571977 C180.873036,122.749828 170.263924,118.35539 159.201735,118.35539 L159.201735,118.35539 Z M166.68005,161.068154 L166.68005,180.815118 L151.934077,180.815118 L151.934077,161.068154 C147.748248,157.900453 146.0536,152.413068 147.724331,147.436709 C149.395062,142.46035 154.057731,139.107329 159.307063,139.107329 C164.556395,139.107329 169.219064,142.46035 170.889795,147.436709 C172.560526,152.413068 170.865878,157.900453 166.68005,161.068154 Z" id="Shape" fill="#00C2F3"></path>
                <rect id="Rectangle" fill="#FFFFFF" x="218.185626" y="154.592565" width="134.820322" height="14.3246592"></rect>
                <rect id="Rectangle" fill="#00B0FF" x="323.935316" y="180.714002" width="29.070632" height="14.3246592"></rect>
                <path d="M231.457001,161.540025 L229.017596,161.540025 L231.187361,159.374473 C231.268161,159.291132 231.268161,159.158682 231.187361,159.075341 C231.147806,159.035461 231.093963,159.013029 231.037794,159.013029 C230.981625,159.013029 230.927782,159.035461 230.888228,159.075341 L228.718463,161.245105 L228.718463,158.801487 C228.718463,158.685144 228.624149,158.59083 228.507807,158.59083 C228.392405,158.593072 228.299391,158.686086 228.29715,158.801487 L228.29715,161.245105 L226.131599,159.062701 C226.092044,159.022821 226.038201,159.000389 225.982032,159.000389 C225.925863,159.000389 225.87202,159.022821 225.832466,159.062701 C225.751665,159.146043 225.751665,159.278492 225.832466,159.361834 L228.00223,161.527385 L225.558612,161.527385 C225.443211,161.529627 225.350197,161.622641 225.347955,161.738042 C225.347955,161.854385 225.44227,161.948699 225.558612,161.948699 L228.00223,161.948699 L225.832466,164.118463 C225.751665,164.201805 225.751665,164.334254 225.832466,164.417596 C225.916662,164.49626 226.047402,164.49626 226.131599,164.417596 L228.29715,162.247831 L228.29715,164.687237 C228.29715,164.803579 228.391464,164.897893 228.507807,164.897893 C228.624149,164.897893 228.718463,164.803579 228.718463,164.687237 L228.718463,162.247831 L230.888228,164.417596 C230.972424,164.49626 231.103165,164.49626 231.187361,164.417596 C231.268161,164.334254 231.268161,164.201805 231.187361,164.118463 L229.017596,161.948699 L231.457001,161.948699 C231.573344,161.948699 231.667658,161.854385 231.667658,161.738042 C231.660963,161.626663 231.568581,161.539824 231.457001,161.540025 L231.457001,161.540025 Z" id="Path" fill="#00B0FF"></path>
                <path d="M240.304585,161.540025 L237.86518,161.540025 L240.034944,159.374473 C240.115745,159.291132 240.115745,159.158682 240.034944,159.075341 C239.99539,159.035461 239.941547,159.013029 239.885378,159.013029 C239.829209,159.013029 239.775366,159.035461 239.735812,159.075341 L237.566047,161.245105 L237.566047,158.801487 C237.566047,158.685144 237.471733,158.59083 237.35539,158.59083 C237.239989,158.593072 237.146975,158.686086 237.144734,158.801487 L237.144734,161.245105 L234.979182,159.062701 C234.939628,159.022821 234.885785,159.000389 234.829616,159.000389 C234.773447,159.000389 234.719604,159.022821 234.68005,159.062701 C234.599249,159.146043 234.599249,159.278492 234.68005,159.361834 L236.849814,161.527385 L234.406196,161.527385 C234.290794,161.529627 234.19778,161.622641 234.195539,161.738042 C234.195539,161.854385 234.289853,161.948699 234.406196,161.948699 L236.849814,161.948699 L234.68005,164.118463 C234.599249,164.201805 234.599249,164.334254 234.68005,164.417596 C234.764246,164.49626 234.894986,164.49626 234.979182,164.417596 L237.144734,162.247831 L237.144734,164.687237 C237.144734,164.803579 237.239048,164.897893 237.35539,164.897893 C237.471733,164.897893 237.566047,164.803579 237.566047,164.687237 L237.566047,162.247831 L239.735812,164.417596 C239.820008,164.49626 239.950748,164.49626 240.034944,164.417596 C240.115745,164.334254 240.115745,164.201805 240.034944,164.118463 L237.86518,161.948699 L240.304585,161.948699 C240.420927,161.948699 240.515242,161.854385 240.515242,161.738042 C240.508547,161.626663 240.416165,161.539824 240.304585,161.540025 Z" id="Path" fill="#00B0FF"></path>
                <path d="M249.152169,161.540025 L246.712763,161.540025 L248.882528,159.374473 C248.963329,159.291132 248.963329,159.158682 248.882528,159.075341 C248.842974,159.035461 248.789131,159.013029 248.732962,159.013029 C248.676793,159.013029 248.62295,159.035461 248.583395,159.075341 L246.413631,161.245105 L246.413631,158.801487 C246.413631,158.685144 246.319316,158.59083 246.202974,158.59083 C246.087573,158.593072 245.994559,158.686086 245.992317,158.801487 L245.992317,161.245105 L243.826766,159.062701 C243.787211,159.022821 243.733369,159.000389 243.6772,159.000389 C243.621031,159.000389 243.567188,159.022821 243.527633,159.062701 C243.446832,159.146043 243.446832,159.278492 243.527633,159.361834 L245.697398,161.527385 L243.253779,161.527385 C243.138378,161.529627 243.045364,161.622641 243.043123,161.738042 C243.043123,161.854385 243.137437,161.948699 243.253779,161.948699 L245.697398,161.948699 L243.527633,164.118463 C243.446832,164.201805 243.446832,164.334254 243.527633,164.417596 C243.611829,164.49626 243.74257,164.49626 243.826766,164.417596 L245.992317,162.247831 L245.992317,164.687237 C245.992317,164.803579 246.086631,164.897893 246.202974,164.897893 C246.319316,164.897893 246.413631,164.803579 246.413631,164.687237 L246.413631,162.247831 L248.583395,164.417596 C248.667591,164.49626 248.798332,164.49626 248.882528,164.417596 C248.963329,164.334254 248.963329,164.201805 248.882528,164.118463 L246.712763,161.948699 L249.152169,161.948699 C249.268511,161.948699 249.362825,161.854385 249.362825,161.738042 C249.356131,161.626663 249.263749,161.539824 249.152169,161.540025 L249.152169,161.540025 Z" id="Path" fill="#00B0FF"></path>
                <path d="M257.999752,161.540025 L255.560347,161.540025 L257.730112,159.374473 C257.810912,159.291132 257.810912,159.158682 257.730112,159.075341 C257.690557,159.035461 257.636714,159.013029 257.580545,159.013029 C257.524376,159.013029 257.470533,159.035461 257.430979,159.075341 L255.261214,161.245105 L255.261214,158.801487 C255.261214,158.685144 255.1669,158.59083 255.050558,158.59083 C254.935156,158.593072 254.842142,158.686086 254.839901,158.801487 L254.839901,161.245105 L252.674349,159.062701 C252.634795,159.022821 252.580952,159.000389 252.524783,159.000389 C252.468614,159.000389 252.414771,159.022821 252.375217,159.062701 C252.294416,159.146043 252.294416,159.278492 252.375217,159.361834 L254.544981,161.527385 L252.101363,161.527385 C251.985962,161.529627 251.892948,161.622641 251.890706,161.738042 C251.890706,161.854385 251.985021,161.948699 252.101363,161.948699 L254.544981,161.948699 L252.375217,164.118463 C252.294416,164.201805 252.294416,164.334254 252.375217,164.417596 C252.459413,164.49626 252.590153,164.49626 252.674349,164.417596 L254.839901,162.247831 L254.839901,164.687237 C254.839901,164.803579 254.934215,164.897893 255.050558,164.897893 C255.1669,164.897893 255.261214,164.803579 255.261214,164.687237 L255.261214,162.247831 L257.430979,164.417596 C257.515175,164.49626 257.645915,164.49626 257.730112,164.417596 C257.810912,164.334254 257.810912,164.201805 257.730112,164.118463 L255.560347,161.948699 L257.999752,161.948699 C258.116095,161.948699 258.210409,161.854385 258.210409,161.738042 C258.203714,161.626663 258.111332,161.539824 257.999752,161.540025 L257.999752,161.540025 Z" id="Path" fill="#00B0FF"></path>
                <path d="M266.847336,161.540025 L264.407931,161.540025 L266.577695,159.374473 C266.658496,159.291132 266.658496,159.158682 266.577695,159.075341 C266.538141,159.035461 266.484298,159.013029 266.428129,159.013029 C266.37196,159.013029 266.318117,159.035461 266.278563,159.075341 L264.108798,161.245105 L264.108798,158.801487 C264.108798,158.685144 264.014484,158.59083 263.898141,158.59083 C263.78274,158.593072 263.689726,158.686086 263.687485,158.801487 L263.687485,161.245105 L261.521933,159.062701 C261.482379,159.022821 261.428536,159.000389 261.372367,159.000389 C261.316198,159.000389 261.262355,159.022821 261.2228,159.062701 C261.142,159.146043 261.142,159.278492 261.2228,159.361834 L263.392565,161.527385 L260.948947,161.527385 C260.833545,161.529627 260.740531,161.622641 260.73829,161.738042 C260.73829,161.854385 260.832604,161.948699 260.948947,161.948699 L263.392565,161.948699 L261.2228,164.118463 C261.142,164.201805 261.142,164.334254 261.2228,164.417596 C261.306997,164.49626 261.437737,164.49626 261.521933,164.417596 L263.687485,162.247831 L263.687485,164.687237 C263.687485,164.803579 263.781799,164.897893 263.898141,164.897893 C264.014484,164.897893 264.108798,164.803579 264.108798,164.687237 L264.108798,162.247831 L266.278563,164.417596 C266.362759,164.49626 266.493499,164.49626 266.577695,164.417596 C266.658496,164.334254 266.658496,164.201805 266.577695,164.118463 L264.407931,161.948699 L266.847336,161.948699 C266.963678,161.948699 267.057993,161.854385 267.057993,161.738042 C267.051298,161.626663 266.958916,161.539824 266.847336,161.540025 L266.847336,161.540025 Z" id="Path" fill="#00B0FF"></path>
                <path d="M275.694919,161.540025 L273.255514,161.540025 L275.425279,159.374473 C275.50608,159.291132 275.50608,159.158682 275.425279,159.075341 C275.385725,159.035461 275.331882,159.013029 275.275713,159.013029 C275.219544,159.013029 275.165701,159.035461 275.126146,159.075341 L272.956382,161.245105 L272.956382,158.801487 C272.956382,158.685144 272.862067,158.59083 272.745725,158.59083 C272.630324,158.593072 272.53731,158.686086 272.535068,158.801487 L272.535068,161.245105 L270.369517,159.062701 C270.329962,159.022821 270.276119,159.000389 270.21995,159.000389 C270.163781,159.000389 270.109938,159.022821 270.070384,159.062701 C269.989583,159.146043 269.989583,159.278492 270.070384,159.361834 L272.240149,161.527385 L269.79653,161.527385 C269.681129,161.529627 269.588115,161.622641 269.585874,161.738042 C269.585874,161.854385 269.680188,161.948699 269.79653,161.948699 L272.240149,161.948699 L270.070384,164.118463 C269.989583,164.201805 269.989583,164.334254 270.070384,164.417596 C270.15458,164.49626 270.285321,164.49626 270.369517,164.417596 L272.535068,162.247831 L272.535068,164.687237 C272.535068,164.803579 272.629382,164.897893 272.745725,164.897893 C272.862067,164.897893 272.956382,164.803579 272.956382,164.687237 L272.956382,162.247831 L275.126146,164.417596 C275.210342,164.49626 275.341083,164.49626 275.425279,164.417596 C275.50608,164.334254 275.50608,164.201805 275.425279,164.118463 L273.255514,161.948699 L275.694919,161.948699 C275.811262,161.948699 275.905576,161.854385 275.905576,161.738042 C275.898882,161.626663 275.8065,161.539824 275.694919,161.540025 L275.694919,161.540025 Z" id="Path" fill="#00B0FF"></path>
                <path d="M284.542503,161.540025 L282.103098,161.540025 L284.272862,159.374473 C284.353663,159.291132 284.353663,159.158682 284.272862,159.075341 C284.233308,159.035461 284.179465,159.013029 284.123296,159.013029 C284.067127,159.013029 284.013284,159.035461 283.97373,159.075341 L281.803965,161.245105 L281.803965,158.801487 C281.803965,158.685144 281.709651,158.59083 281.593309,158.59083 C281.477907,158.593072 281.384893,158.686086 281.382652,158.801487 L281.382652,161.245105 L279.2171,159.062701 C279.177546,159.022821 279.123703,159.000389 279.067534,159.000389 C279.011365,159.000389 278.957522,159.022821 278.917968,159.062701 C278.837167,159.146043 278.837167,159.278492 278.917968,159.361834 L281.087732,161.527385 L278.644114,161.527385 C278.528713,161.529627 278.435699,161.622641 278.433457,161.738042 C278.433457,161.854385 278.527771,161.948699 278.644114,161.948699 L281.087732,161.948699 L278.917968,164.118463 C278.837167,164.201805 278.837167,164.334254 278.917968,164.417596 C279.002164,164.49626 279.132904,164.49626 279.2171,164.417596 L281.382652,162.247831 L281.382652,164.687237 C281.382652,164.803579 281.476966,164.897893 281.593309,164.897893 C281.709651,164.897893 281.803965,164.803579 281.803965,164.687237 L281.803965,162.247831 L283.97373,164.417596 C284.057926,164.49626 284.188666,164.49626 284.272862,164.417596 C284.353663,164.334254 284.353663,164.201805 284.272862,164.118463 L282.103098,161.948699 L284.542503,161.948699 C284.658846,161.948699 284.75316,161.854385 284.75316,161.738042 C284.746465,161.626663 284.654083,161.539824 284.542503,161.540025 L284.542503,161.540025 Z" id="Path" fill="#00B0FF"></path>
                <path d="M293.390087,161.540025 L290.950682,161.540025 L293.120446,159.374473 C293.201247,159.291132 293.201247,159.158682 293.120446,159.075341 C293.080892,159.035461 293.027049,159.013029 292.97088,159.013029 C292.914711,159.013029 292.860868,159.035461 292.821314,159.075341 L290.651549,161.245105 L290.651549,158.801487 C290.651549,158.685144 290.557235,158.59083 290.440892,158.59083 C290.325491,158.593072 290.232477,158.686086 290.230235,158.801487 L290.230235,161.245105 L288.064684,159.062701 C288.02513,159.022821 287.971287,159.000389 287.915118,159.000389 C287.858949,159.000389 287.805106,159.022821 287.765551,159.062701 C287.684751,159.146043 287.684751,159.278492 287.765551,159.361834 L289.935316,161.527385 L287.491698,161.527385 C287.376296,161.529627 287.283282,161.622641 287.281041,161.738042 C287.281041,161.854385 287.375355,161.948699 287.491698,161.948699 L289.935316,161.948699 L287.765551,164.118463 C287.684751,164.201805 287.684751,164.334254 287.765551,164.417596 C287.849747,164.49626 287.980488,164.49626 288.064684,164.417596 L290.230235,162.247831 L290.230235,164.687237 C290.230235,164.803579 290.32455,164.897893 290.440892,164.897893 C290.557235,164.897893 290.651549,164.803579 290.651549,164.687237 L290.651549,162.247831 L292.821314,164.417596 C292.90551,164.49626 293.03625,164.49626 293.120446,164.417596 C293.201247,164.334254 293.201247,164.201805 293.120446,164.118463 L290.950682,161.948699 L293.390087,161.948699 C293.506429,161.948699 293.600743,161.854385 293.600743,161.738042 C293.594049,161.626663 293.501667,161.539824 293.390087,161.540025 L293.390087,161.540025 Z" id="Path" fill="#00B0FF"></path>
                <path d="M302.23767,161.540025 L299.798265,161.540025 L301.96803,159.374473 C302.048831,159.291132 302.048831,159.158682 301.96803,159.075341 C301.928475,159.035461 301.874632,159.013029 301.818463,159.013029 C301.762294,159.013029 301.708451,159.035461 301.668897,159.075341 L299.499133,161.245105 L299.499133,158.801487 C299.499133,158.685144 299.404818,158.59083 299.288476,158.59083 C299.173075,158.593072 299.080061,158.686086 299.077819,158.801487 L299.077819,161.245105 L296.912268,159.062701 C296.872713,159.022821 296.81887,159.000389 296.762701,159.000389 C296.706532,159.000389 296.652689,159.022821 296.613135,159.062701 C296.532334,159.146043 296.532334,159.278492 296.613135,159.361834 L298.7829,161.527385 L296.339281,161.527385 C296.22388,161.529627 296.130866,161.622641 296.128625,161.738042 C296.128625,161.854385 296.222939,161.948699 296.339281,161.948699 L298.7829,161.948699 L296.613135,164.118463 C296.532334,164.201805 296.532334,164.334254 296.613135,164.417596 C296.697331,164.49626 296.828072,164.49626 296.912268,164.417596 L299.077819,162.247831 L299.077819,164.687237 C299.077819,164.803579 299.172133,164.897893 299.288476,164.897893 C299.404818,164.897893 299.499133,164.803579 299.499133,164.687237 L299.499133,162.247831 L301.668897,164.417596 C301.753093,164.49626 301.883834,164.49626 301.96803,164.417596 C302.048831,164.334254 302.048831,164.201805 301.96803,164.118463 L299.798265,161.948699 L302.23767,161.948699 C302.354013,161.948699 302.448327,161.854385 302.448327,161.738042 C302.441633,161.626663 302.34925,161.539824 302.23767,161.540025 L302.23767,161.540025 Z" id="Path" fill="#00B0FF"></path>
                <path d="M311.085254,161.540025 L308.645849,161.540025 L310.815613,159.374473 C310.896414,159.291132 310.896414,159.158682 310.815613,159.075341 C310.776059,159.035461 310.722216,159.013029 310.666047,159.013029 C310.609878,159.013029 310.556035,159.035461 310.516481,159.075341 L308.346716,161.245105 L308.346716,158.801487 C308.346716,158.685144 308.252402,158.59083 308.136059,158.59083 C308.020658,158.593072 307.927644,158.686086 307.925403,158.801487 L307.925403,161.245105 L305.759851,159.062701 C305.720297,159.022821 305.666454,159.000389 305.610285,159.000389 C305.554116,159.000389 305.500273,159.022821 305.460719,159.062701 C305.379918,159.146043 305.379918,159.278492 305.460719,159.361834 L307.630483,161.527385 L305.186865,161.527385 C305.071464,161.529627 304.97845,161.622641 304.976208,161.738042 C304.976208,161.854385 305.070522,161.948699 305.186865,161.948699 L307.630483,161.948699 L305.460719,164.118463 C305.379918,164.201805 305.379918,164.334254 305.460719,164.417596 C305.544915,164.49626 305.675655,164.49626 305.759851,164.417596 L307.925403,162.247831 L307.925403,164.687237 C307.925403,164.803579 308.019717,164.897893 308.136059,164.897893 C308.252402,164.897893 308.346716,164.803579 308.346716,164.687237 L308.346716,162.247831 L310.516481,164.417596 C310.600677,164.49626 310.731417,164.49626 310.815613,164.417596 C310.896414,164.334254 310.896414,164.201805 310.815613,164.118463 L308.645849,161.948699 L311.085254,161.948699 C311.201597,161.948699 311.295911,161.854385 311.295911,161.738042 C311.289216,161.626663 311.196834,161.539824 311.085254,161.540025 L311.085254,161.540025 Z" id="Path" fill="#00B0FF"></path>
                <path d="M319.932838,161.540025 L317.493432,161.540025 L319.663197,159.374473 C319.743998,159.291132 319.743998,159.158682 319.663197,159.075341 C319.623643,159.035461 319.5698,159.013029 319.513631,159.013029 C319.457462,159.013029 319.403619,159.035461 319.364064,159.075341 L317.1943,161.245105 L317.1943,158.801487 C317.1943,158.685144 317.099986,158.59083 316.983643,158.59083 C316.868242,158.593072 316.775228,158.686086 316.772986,158.801487 L316.772986,161.245105 L314.607435,159.062701 C314.567881,159.022821 314.514038,159.000389 314.457869,159.000389 C314.4017,159.000389 314.347857,159.022821 314.308302,159.062701 C314.227501,159.146043 314.227501,159.278492 314.308302,159.361834 L316.478067,161.527385 L314.034449,161.527385 C313.919047,161.529627 313.826033,161.622641 313.823792,161.738042 C313.823792,161.854385 313.918106,161.948699 314.034449,161.948699 L316.478067,161.948699 L314.308302,164.118463 C314.227501,164.201805 314.227501,164.334254 314.308302,164.417596 C314.392498,164.49626 314.523239,164.49626 314.607435,164.417596 L316.772986,162.247831 L316.772986,164.687237 C316.772986,164.803579 316.867301,164.897893 316.983643,164.897893 C317.099986,164.897893 317.1943,164.803579 317.1943,164.687237 L317.1943,162.247831 L319.364064,164.417596 C319.448261,164.49626 319.579001,164.49626 319.663197,164.417596 C319.743998,164.334254 319.743998,164.201805 319.663197,164.118463 L317.493432,161.948699 L319.932838,161.948699 C320.04918,161.948699 320.143494,161.854385 320.143494,161.738042 C320.1368,161.626663 320.044418,161.539824 319.932838,161.540025 L319.932838,161.540025 Z" id="Path" fill="#00B0FF"></path>
                <path d="M387.760099,212.792813 C387.748149,212.283532 387.684627,211.776772 387.570508,211.280297 C387.191326,209.856258 386.336059,208.133086 384.928872,207.703346 C383.47599,207.258523 382.072666,206.665569 380.741016,205.933829 C380.488228,201.417348 381.524659,196.795539 380.395539,192.418092 C379.974226,190.8171 379.279058,189.283519 379.09368,187.64461 C378.861958,185.605452 379.418092,183.431475 378.604957,181.552416 C377.96456,180.069393 376.557373,179.024535 375.044857,178.476828 C373.532342,177.92912 371.901859,177.78166 370.296654,177.634201 C368.274349,177.469888 361.727138,176.694672 359.443618,178.502107 L359.443618,178.502107 C359.286119,178.624378 359.144576,178.765921 359.022305,178.92342 L359.022305,178.92342 C358.971849,178.992906 358.926777,179.066147 358.887485,179.142503 L358.866419,179.176208 C358.820645,179.264028 358.782583,179.355657 358.752664,179.450062 L358.752664,179.450062 C358.720809,179.553421 358.696865,179.659054 358.681041,179.766047 C358.681041,179.799752 358.681041,179.833457 358.681041,179.867162 C358.681041,179.900867 358.681041,180.014622 358.681041,180.090458 L358.681041,180.204213 C358.681041,180.28005 358.681041,180.355886 358.681041,180.435936 C358.681041,180.515985 358.681041,180.494919 358.681041,180.524411 C358.710533,180.903594 358.765304,181.282776 358.765304,181.657745 C358.769795,181.844447 358.752831,182.031047 358.714746,182.213879 C358.57445,182.710774 358.33671,183.174798 358.015366,183.578934 L358.015366,183.578934 L357.939529,183.688476 C357.893185,183.755886 357.84684,183.819083 357.804709,183.886493 C357.762577,183.953903 357.728872,184.004461 357.695167,184.063445 C357.661462,184.122429 357.627757,184.160347 357.598265,184.215118 C357.557587,184.28454 357.52101,184.356287 357.488724,184.429988 C357.488724,184.472119 357.442379,184.510037 357.425527,184.552169 C357.37281,184.666084 357.330506,184.784534 357.299133,184.906072 C357.200464,185.272133 357.191792,185.656628 357.273854,186.026766 C357.387451,186.499399 357.58279,186.948538 357.851053,187.353903 C357.956382,187.526642 358.070136,187.695167 358.188104,187.863693 L358.483024,188.263941 C358.427954,188.654829 358.398399,189.048889 358.394548,189.443618 C358.394962,192.116676 359.621789,194.641764 361.722924,196.294176 C361.889841,198.073421 361.871486,199.865192 361.668154,201.640644 C361.630235,202.0114 361.583891,202.386369 361.533333,202.757125 C361.482776,203.127881 361.444857,203.372243 361.3943,203.679802 C360.777784,203.768082 360.149426,203.720631 359.55316,203.540768 C359.278106,203.418077 358.99685,203.309793 358.710533,203.216357 C357.484511,202.908798 356.233209,204.130607 355.019827,203.759851 C355.019827,203.818835 354.986121,203.873606 354.965056,203.928377 C354.711773,203.770963 354.420595,203.685066 354.122429,203.679802 C353.401983,203.646097 352.816357,203.123668 352.293928,202.630731 L350.688724,201.118216 C350.584077,201.025608 350.490741,200.920958 350.410657,200.806444 C350.324374,200.642608 350.259252,200.468476 350.216853,200.288228 C349.947212,199.416109 349.294176,198.720942 348.662206,198.05948 C348.54244,197.908631 348.383604,197.793512 348.202974,197.726642 C348.133148,197.716134 348.062143,197.716134 347.992317,197.726642 C347.949334,197.667776 347.902908,197.611503 347.853284,197.558116 C347.744245,197.432944 347.627451,197.314743 347.503594,197.204213 C346.736803,196.496406 346.660967,195.889715 345.995291,195.097646 C345.414693,194.342239 344.888147,193.546788 344.419579,192.717224 C344.364808,192.274845 344.288971,191.819827 344.196283,191.360595 C343.983874,190.309227 343.675009,189.279676 343.273606,188.285006 L342.430979,186.418587 L342.334077,186.515489 C341.723172,185.605452 341.070136,185.108302 340.484511,185.22627 C339.50285,185.428501 339.01834,187.332838 339.174226,189.8228 L339.511276,192.350682 C339.511276,192.413879 339.540768,192.477076 339.557621,192.540273 C339.496979,192.839848 339.465934,193.14466 339.464932,193.45031 C339.464932,193.804213 339.793556,194.065428 339.966295,194.381413 C340.242786,194.809452 340.389141,195.308521 340.387608,195.818092 C340.366543,195.999257 340.311772,196.171995 340.303346,196.348947 C340.326285,196.744775 340.463888,197.12538 340.69938,197.444362 L342.805948,200.983395 L343.227261,201.724907 L343.25254,201.758612 C343.385501,202.017351 343.579224,202.239987 343.8171,202.407435 C343.899647,203.293596 344.134836,204.158805 344.512268,204.964808 C344.583891,205.124907 344.663941,205.27658 344.748203,205.428253 C345.31464,206.359261 345.981495,207.225324 346.736803,208.010905 L347.739529,209.135812 C348.729616,210.239653 349.719703,211.347708 350.794052,212.367286 C351.178619,212.776377 351.64328,213.101926 352.159108,213.323668 C352.673399,213.529279 353.258385,213.444102 353.692689,213.100372 C353.692689,213.6228 353.692689,214.145229 353.692689,214.667658 C354.011212,214.687263 354.294199,214.877672 354.432351,215.165344 C354.570504,215.453016 354.542197,215.792921 354.358364,216.053779 C353.473606,218.324659 352.580421,220.616605 351.240644,222.651549 C352.186337,223.211319 353.063051,223.880167 353.852788,224.644362 C354.365273,225.212298 354.821051,225.82894 355.213631,226.485502 C355.251549,226.797274 355.281041,227.104833 355.297893,227.412392 C355.609665,232.434449 353.66741,237.418587 351.927385,242.204709 C351.426022,243.561338 350.878315,244.981165 350.920446,246.392565 C350.590255,246.596119 350.274886,246.822791 349.976704,247.07088 C350.322181,247.972491 350.187361,248.7772 350.149442,249.742007 C350.136895,250.320414 350.01837,250.891615 349.799752,251.427261 C349.616579,251.798539 349.414071,252.15996 349.193061,252.510037 C348.101859,254.43544 347.86171,256.723172 347.642627,258.922429 C347.51202,260.249566 348.026022,261.871623 347.423544,263.059727 C346.3829,265.098885 345.460223,267.272862 345.316976,269.539529 C345.311973,270.049561 345.246924,270.557229 345.123172,271.052045 C344.992565,271.473358 344.760843,271.831475 344.642875,272.244362 C344.521447,272.797543 344.492971,273.367081 344.558612,273.929616 C344.638787,275.949127 344.338657,277.965714 343.673854,279.874349 C343.147212,281.378439 342.565799,282.987856 342.978686,284.534077 C341.962243,285.601787 341.334527,286.980388 341.19653,288.448079 C341.185659,288.823567 341.140531,289.197278 341.06171,289.56456 C340.932958,289.940079 340.763419,290.300348 340.556134,290.63891 C339.707996,292.183507 339.310915,293.935334 339.410161,295.694672 C338.146221,297.409418 337.51425,299.524411 337.139281,301.626766 C336.764312,303.72912 336.6,305.869393 336.119703,307.946468 C335.479306,310.693432 334.320694,313.469888 334.093185,316.284263 C332.728129,317.156382 332.13829,318.845849 331.877076,320.442627 C331.615861,322.039405 331.57373,323.716233 330.903841,325.19083 C330.558364,325.957621 330.061214,326.644362 329.73259,327.428005 C329.502124,328.051923 329.332803,328.696752 329.227014,329.353408 C329.024783,330.381413 328.847831,331.527385 329.096406,332.513259 C328.739007,332.891764 328.321999,333.209145 327.861958,333.452788 C327.929368,333.191574 327.984139,332.930359 328.030483,332.664932 C326.943494,333.650805 324.971747,333.305328 324.103841,334.489219 C323.562161,335.282638 323.748728,336.362858 324.525155,336.928625 C324.796715,337.094132 325.090333,337.220374 325.397274,337.303594 C327.503841,337.977695 329.669393,338.65601 331.834944,338.297893 C332.090976,338.270282 332.338845,338.19148 332.563817,338.066171 C332.8455,337.858775 333.077257,337.591032 333.242131,337.282528 C333.566543,336.768525 333.890954,336.254523 334.211152,335.74052 C334.987119,335.972135 335.776426,336.156447 336.574721,336.292441 C336.654771,336.966543 336.713755,337.640644 336.743247,338.314746 C337.16456,338.399009 337.72912,338.424287 337.927138,338.032466 C337.987197,337.88431 338.011727,337.724148 337.998761,337.564808 C337.998761,337.265675 338.040892,336.869641 338.066171,336.46518 L338.150434,336.46518 C339.435852,336.517059 340.714839,336.258371 341.879058,335.711029 C341.428253,331.978191 342.915489,328.329616 344.204709,324.799009 C345.565551,321.083024 346.73259,317.299628 347.908055,313.516233 C348.750682,310.853532 349.681784,308.275093 350.507559,305.608178 C351.546799,302.23767 352.590252,298.867162 353.637918,295.496654 C354.092937,294.013631 354.552169,292.54746 355.074597,291.072862 C356.174355,288.088988 357.479332,285.184814 358.980173,282.381165 C359.401487,281.584882 359.8228,280.797026 360.168278,279.971252 C360.589591,278.964312 360.888724,277.911029 361.225774,276.870384 C361.960249,274.735098 362.844392,272.654265 363.871623,270.643371 C363.901115,270.5886 363.922181,270.538042 363.951673,270.487485 C364.292937,271.882032 364.634201,273.297646 364.86171,274.70062 C365.169641,276.420888 365.193836,278.179968 364.933333,279.908055 C364.731103,281.083519 364.347708,282.246344 364.394052,283.438662 C364.457249,285.085998 365.337794,286.58166 365.771747,288.170012 C366.051485,289.358654 366.209589,290.572668 366.243618,291.793309 C366.361586,293.689219 367.389591,295.816853 366.664932,297.57373 C364.410905,303.139281 365.502107,309.425279 364.2171,315.268897 C363.555638,318.268649 361.52912,321.087237 361.689219,324.154399 C361.80157,326.331185 361.992565,328.502354 362.262206,330.667906 C362.327127,331.351177 362.505097,332.018918 362.788848,332.643866 C362.956948,332.972679 363.149909,333.288176 363.366047,333.587608 C363.180669,333.659232 363.024783,333.848823 362.889963,334.249071 C362.544486,335.302354 362.889963,336.608426 363.825279,337.198265 C364.206371,337.40207 364.617321,337.544268 365.042875,337.619579 C365.61571,337.782415 366.208436,337.864659 366.803965,337.863941 C366.989249,337.853949 367.173644,337.831427 367.355886,337.79653 C368.007091,338.070174 368.672288,338.309251 369.348699,338.512763 C369.348699,338.685502 369.382404,338.85824 369.40347,339.030979 C369.405781,339.213538 369.485399,339.386555 369.622553,339.507063 C369.727725,339.556138 369.844016,339.576489 369.959603,339.566047 L372.247336,339.566047 C372.247336,339.376456 372.247336,339.182652 372.247336,338.993061 C372.77676,339.048253 373.304815,338.876827 373.700867,338.52119 C373.903505,338.263282 374.0473,337.964187 374.122181,337.644857 C374.745725,335.529864 375.365056,333.413466 375.980173,331.295663 C376.717726,328.954758 377.024634,326.499499 376.885998,324.049071 C376.072862,316.284263 377.859232,308.494176 377.277819,300.708302 C376.927915,296.028589 377.168552,291.323441 377.994052,286.703841 C378.183643,285.658984 378.415366,284.597274 378.499628,283.556629 C378.685006,281.593309 378.457497,279.608922 378.59653,277.65824 C378.642875,276.975713 378.735564,276.297398 378.819827,275.619083 C379.39706,271.409021 379.699641,267.16585 379.725651,262.916481 C379.712748,261.508485 379.625555,260.102152 379.464436,258.703346 C379.90368,258.591487 380.302387,258.357812 380.614622,258.029244 C380.989591,257.54052 380.892689,256.853779 380.888476,256.230235 C380.888476,254.738786 381.516233,253.331599 382.021809,251.924411 C382.670656,249.983483 383.202467,248.005373 383.614374,246.000743 C384.04967,244.385301 384.287343,242.723009 384.322181,241.05031 C384.322181,240.881784 384.313755,240.713259 384.296902,240.544734 C384.455673,240.434689 384.588055,240.290795 384.684511,240.12342 C384.794485,239.876555 384.86282,239.613182 384.886741,239.34399 C385.038414,238.269641 385.1943,237.191078 385.345973,236.112515 C385.458323,235.340107 385.569269,234.569104 385.67881,233.799504 L387.018587,224.450558 C387.132342,223.637423 387.25031,222.828501 387.364064,222.019579 L387.713755,219.601239 C387.751673,219.314746 387.793804,219.028253 387.823296,218.758612 C388.851301,217.039653 387.869641,214.747708 387.760099,212.792813 Z M376.582652,247.795539 C376.085502,246.615861 375.622057,245.406691 375.740025,244.134325 L375.69368,244.134325 C375.804548,243.742806 375.785328,243.325878 375.63891,242.946221 C375.508302,242.638662 375.280793,242.377447 375.14176,242.069888 C374.992366,241.694482 374.915178,241.29425 374.91425,240.890211 C374.809618,238.327759 375.011881,235.76199 375.516729,233.247584 C375.571499,232.952664 375.630483,232.653532 375.685254,232.358612 C375.861976,232.256514 376.023627,232.130314 376.165551,231.983643 C376.387167,231.731022 376.570303,231.44709 376.709046,231.141016 C377.18513,230.184634 377.619083,229.2114 378.019331,228.221314 C378.149938,227.901115 378.339529,227.530359 378.663941,227.45031 C378.59653,229.914994 378.849318,232.430235 377.846592,234.654771 C377.656106,235.013491 377.514413,235.396059 377.425279,235.792317 C377.33259,236.420074 377.593804,237.056258 377.501115,237.679802 C377.454771,238.004213 377.315737,238.303346 377.260967,238.623544 C377.176306,238.943551 377.269554,239.284388 377.505328,239.516729 C377.561142,239.55585 377.622111,239.587044 377.686493,239.609418 C377.661214,239.777943 377.640149,239.950682 377.623296,240.114994 C377.589591,240.460471 377.572739,240.784882 377.551673,240.987113 C377.454725,242.017725 377.416745,243.053035 377.437918,244.08798 C377.437918,245.204461 377.48005,246.320942 377.463197,247.458488 C377.478783,247.78506 377.42419,248.111178 377.303098,248.41487 C377.219581,248.571526 377.111475,248.713771 376.9829,248.836183 C376.860719,248.457001 376.725898,248.124164 376.582652,247.795539 Z" id="Shape" fill="url(#linearGradient-1)"></path>
                <ellipse id="Oval" fill="#FBBEBE" transform="translate(341.974498, 192.318923) rotate(-11.580000) translate(-341.974498, -192.318923) " cx="341.974498" cy="192.318923" rx="2.37620818" ry="6.7283767"></ellipse>
                <path d="M362.957373,334.32912 C362.611896,335.373978 362.957373,336.68005 363.892689,337.248823 C364.271604,337.450784 364.679485,337.592903 365.101859,337.670136 C365.673448,337.831592 366.264786,337.912422 366.858736,337.910285 C367.587608,337.87658 368.286989,337.590087 369.015861,337.488971 C369.09997,337.467806 369.189001,337.479878 369.264436,337.522677 C369.338358,337.601899 369.372436,337.71033 369.357125,337.817596 C369.364951,338.231886 369.395896,338.645417 369.449814,339.056258 C369.45105,339.239058 369.530861,339.412494 369.668897,339.532342 C369.774069,339.581417 369.890361,339.601768 370.005948,339.591326 L372.289467,339.591326 C372.341193,337.585182 372.121526,335.581251 371.636431,333.633953 C371.604779,333.484906 371.547776,333.342399 371.467906,333.212639 C371.274153,333.000468 371.019592,332.853323 370.739033,332.791326 C370.180716,332.559069 369.577697,332.454008 368.97373,332.483767 C368.236431,332.580669 367.621314,333.056753 366.993556,333.452788 C366.365799,333.848823 365.510533,334.198513 364.747955,333.996283 C363.985378,333.794052 363.349195,333.157869 362.957373,334.32912 Z" id="Path" fill="#3F3D56"></path>
                <path d="M329.429244,332.479554 C328.787253,333.166973 327.999915,333.702421 327.124659,334.04684 L326.737051,334.232218 C326.683421,334.252544 326.63767,334.289441 326.606444,334.337546 C326.591452,334.403864 326.606907,334.473411 326.648575,334.527138 C327.31127,335.552186 328.574607,336.011738 329.741016,335.652045 C329.991875,335.589244 330.224313,335.467972 330.419331,335.298141 C330.74049,334.9172 330.924461,334.439468 330.94176,333.941512 C331.069297,333.427865 331.04737,332.888466 330.878563,332.386865 C330.292937,331.068154 330.078067,331.666419 329.429244,332.479554 Z" id="Path" fill="#FBBEBE"></path>
                <path d="M338.184139,337.670136 C338.197105,337.829476 338.172575,337.989638 338.112515,338.137794 C337.914498,338.525403 337.362577,338.504337 336.932838,338.420074 C336.867721,336.990608 336.694487,335.568122 336.414622,334.164808 C335.597274,334.12689 335.007435,334.902107 334.569269,335.597274 L333.440149,337.387856 C333.276841,337.696169 333.046492,337.96395 332.766047,338.171499 C332.540288,338.294977 332.292792,338.373661 332.037175,338.403222 C329.88005,338.761338 327.701859,338.083024 325.62057,337.408922 C325.313982,337.326654 325.020425,337.201857 324.748451,337.038166 C323.976594,336.471444 323.790544,335.396072 324.327138,334.602974 C325.199257,333.423296 327.158364,333.760347 328.245353,332.7829 C328.131913,333.470646 327.945481,334.144341 327.689219,334.792565 C329.142751,334.573482 330.120198,333.242131 331.29145,332.35316 C331.585723,332.103527 331.94008,331.935062 332.319455,331.864436 C332.603396,331.840604 332.889284,331.870622 333.162082,331.952912 C334.512661,332.293003 335.776119,332.914682 336.869641,333.7772 C337.31202,334.12689 338.002974,334.619827 338.196778,335.159108 C338.403222,335.803717 338.184139,336.983395 338.184139,337.670136 Z" id="Path" fill="#3F3D56"></path>
                <circle id="Oval" fill="#FBBEBE" cx="367.166295" cy="189.957621" r="8.70433705"></circle>
                <path d="M384.313755,241.349442 C384.278626,243.013521 384.04238,244.667245 383.610161,246.274597 C383.198061,248.270882 382.666245,250.24057 382.017596,252.172986 C381.516233,253.57596 380.888476,254.983147 380.892689,256.470384 C380.892689,257.089715 380.993804,257.776456 380.614622,258.26518 C380.276949,258.608251 379.851304,258.851685 379.384387,258.968773 C378.911896,259.09412 378.527145,259.436642 378.347955,259.89145 C377.952396,259.300435 377.656363,258.648592 377.471623,257.961834 C376.716068,255.647418 376.013879,253.320363 375.365056,250.980669 C375.244539,250.707256 375.266607,250.391999 375.42404,250.138042 C375.530961,250.045089 375.655669,249.974851 375.790582,249.931599 C376.222401,249.755511 376.618034,249.501278 376.957621,249.18166 C377.116997,249.040209 377.248466,248.870156 377.345229,248.680297 C377.467671,248.37837 377.52371,248.053631 377.509542,247.728129 C377.509542,246.611648 377.509542,245.49938 377.48005,244.3829 C377.462387,243.352102 377.501769,242.321117 377.598017,241.294672 C377.598017,241.092441 377.635936,240.76803 377.669641,240.422553 C377.732838,239.76109 377.859232,238.9943 378.217348,238.737299 C378.752416,238.379182 380.353408,238.85948 380.960099,238.943742 C382.004957,239.086989 383.066667,239.255514 384.086245,239.453532 C384.234364,240.074717 384.3107,240.710849 384.313755,241.349442 L384.313755,241.349442 Z" id="Path" fill="#3F3D56"></path>
                <path d="M349.167782,199.702602 C348.830731,200.376704 348.021809,200.701115 347.398265,201.126642 L345.262206,202.592813 C344.973826,202.852677 344.591859,202.98355 344.204709,202.955143 C343.853541,202.825463 343.569503,202.559653 343.416853,202.217844 C343.418141,202.206646 343.418141,202.195337 343.416853,202.184139 L342.974473,201.442627 L340.867906,197.91202 C340.633709,197.595858 340.497469,197.217904 340.476084,196.825031 C340.476084,196.643866 340.539281,196.475341 340.556134,196.294176 C340.561833,195.785337 340.415098,195.286438 340.13482,194.86171 C339.966295,194.545725 339.629244,194.284511 339.63767,193.930607 C339.621537,193.46557 339.701868,193.00223 339.873606,192.569765 C340.094636,192.1697 340.411716,191.830903 340.796283,191.583891 C340.9943,191.440644 341.19653,191.305824 341.407187,191.162577 C341.519029,191.086203 341.642946,191.029229 341.77373,190.994052 C342.12342,190.922429 342.468897,191.213135 342.8228,191.225774 C344.343742,192.245353 344.929368,194.174969 346.125898,195.565304 C346.8,196.357373 346.86741,196.964064 347.629988,197.671871 C347.752169,197.781413 347.870136,197.89938 347.983891,198.021561 C348.134653,198.185999 348.262228,198.370274 348.363073,198.569269 C348.502107,198.931599 349.34052,199.357125 349.167782,199.702602 Z" id="Path" fill="#3F3D56"></path>
                <path d="M364.107559,198.666171 C364.735316,199.993309 365.22404,201.451053 365.042875,202.908798 C365.005786,203.303699 364.880526,203.685239 364.676332,204.025279 C364.069641,204.956382 362.797274,205.124907 361.689219,205.179678 C361.217632,205.140056 360.749944,205.291903 360.391574,205.600991 C360.087109,206.043502 360.120016,206.635821 360.471623,207.041884 C360.827706,207.421923 361.26984,207.710899 361.760843,207.884511 C363.513507,208.655514 365.405204,209.291698 367.309542,209.114746 C368.1943,209.030483 369.053779,208.773482 369.934325,208.642875 C370.894258,208.538914 371.858992,208.485473 372.824535,208.482776 C373.970508,208.440644 375.112268,208.32689 376.254027,208.213135 L379.279058,207.914002 C379.444393,207.916375 379.604833,207.857897 379.729864,207.74969 C379.95316,207.488476 379.666667,207.105081 379.3886,206.907063 C377.783395,205.718959 375.740025,204.901611 374.825774,203.115242 C374.404461,202.272615 374.273854,201.269888 373.962082,200.359851 C373.65031,199.449814 373.15316,198.628253 372.959356,197.701363 C372.856019,196.888245 372.809562,196.068906 372.820322,195.249318 C372.830914,194.422878 372.530102,193.622717 371.977695,193.007931 C371.375217,192.447584 370.503098,192.304337 369.68575,192.270632 C367.671871,192.182156 365.527385,192.662454 364.099133,194.08228 C363.715737,194.465675 363.387113,194.924907 362.991078,195.270384 C362.595043,195.615861 362.055762,195.716976 362.316976,196.171995 C362.578191,196.627014 363.092193,196.909294 363.37026,197.309542 C363.65172,197.74142 363.898269,198.19507 364.107559,198.666171 L364.107559,198.666171 Z" id="Path" fill="#FBBEBE"></path>
                <path d="M381.267658,210.922181 C380.736394,214.166388 379.872354,217.34724 378.689219,220.414374 C378.094447,221.799405 377.58786,223.220664 377.172491,224.669641 C376.848079,225.975713 376.911276,227.374473 376.612144,228.684758 C376.241388,230.315242 375.870632,231.949938 375.571499,233.593061 C375.069643,236.102165 374.868803,238.662166 374.973234,241.218835 C374.974186,241.621506 375.051383,242.020354 375.200743,242.3943 C375.339777,242.697646 375.563073,242.95886 375.69368,243.270632 C375.891195,243.82424 375.848428,244.435194 375.575713,244.955886 C375.35952,245.43817 375.066399,245.882121 374.707807,246.270384 C370.781165,247.441636 366.580669,247.05824 362.489715,247.306815 C358.718959,247.534325 354.906072,248.309542 351.190087,247.664932 C350.768773,245.979678 351.472367,244.214374 352.074845,242.571252 C353.823296,237.79777 355.757125,232.82627 355.445353,227.825279 C355.412674,227.241961 355.346559,226.660999 355.247336,226.085254 C354.636431,222.542007 355.302107,218.872367 356.36803,215.438662 C357.029492,213.298389 357,211.019083 356.848327,208.790335 C356.773255,208.066621 356.763384,207.337624 356.818835,206.612144 C356.879784,205.871336 357.154996,205.164275 357.610905,204.5772 C357.610905,204.547708 357.648823,204.518216 357.669888,204.488724 C357.690954,204.459232 357.855266,204.463445 357.985874,204.488724 L357.985874,204.488724 C358.053188,204.517288 358.129216,204.517288 358.19653,204.488724 L358.242875,204.459232 C358.279441,204.433197 358.32849,204.433197 358.365056,204.459232 C358.461958,204.518216 358.516729,204.720446 358.727385,204.758364 C359.038654,204.805454 359.352327,204.834993 359.666914,204.84684 C360.045295,204.858083 360.421215,204.911786 360.787608,205.006939 L360.838166,205.006939 C361.386064,205.099358 361.948442,205.051527 362.472862,204.867906 C362.821865,204.780722 363.158686,204.650522 363.475589,204.480297 C363.568278,204.379182 364.14969,204.286493 364.267658,204.21487 C364.651053,203.983147 364.566791,202.896159 364.64684,202.449566 C364.691101,202.001664 364.797448,201.562095 364.962825,201.143494 C365.3525,200.516165 366.0281,200.123117 366.766047,200.094424 C367.491502,200.077145 368.216577,200.142162 368.927385,200.288228 C370.498885,200.511524 372.108302,200.473606 373.65031,200.835936 C374.425527,201.0171 375.272367,201.290954 375.984387,200.937051 C376.178191,200.983395 376.207683,201.151921 376.207683,201.358364 C376.189526,201.55449 376.149968,201.748042 376.089715,201.935564 C375.820074,203.098389 376.734325,204.168525 377.576952,205.011152 C377.932962,205.408362 378.353083,205.743035 378.819827,206.001239 C379.24114,206.195043 379.662454,206.275093 380.083767,206.48575 C380.424991,206.667828 380.714799,206.933003 380.926394,207.256753 C381.169265,207.627965 381.332785,208.045372 381.406691,208.482776 C381.497136,209.297963 381.450139,210.122549 381.267658,210.922181 L381.267658,210.922181 Z" id="Path" fill="#3F3D56"></path>
                <path d="M381.267658,210.922181 C380.736394,214.166388 379.872354,217.34724 378.689219,220.414374 C378.094447,221.799405 377.58786,223.220664 377.172491,224.669641 C376.848079,225.975713 376.911276,227.374473 376.612144,228.684758 C376.241388,230.315242 375.870632,231.949938 375.571499,233.593061 C375.483024,233.643618 375.390335,233.689963 375.297646,233.732094 C374.773468,233.982414 374.217955,234.160972 373.646097,234.262949 C372.618973,234.387221 371.57886,234.353119 370.562082,234.161834 L364.549938,233.357125 C362.148451,233.032714 359.591078,232.640892 357.808922,231.014622 C356.818835,230.121437 356.170012,228.94176 355.457993,227.804213 C355.425313,227.220896 355.359199,226.639933 355.259975,226.064188 C354.649071,222.520942 355.314746,218.851301 356.380669,215.417596 C357.042131,213.277323 357.012639,210.998017 356.860967,208.769269 C356.785894,208.045555 356.776024,207.316559 356.831475,206.591078 C356.892423,205.850271 357.167635,205.143209 357.623544,204.556134 C357.746601,204.520049 357.871849,204.491904 357.998513,204.471871 L357.998513,204.471871 C358.083298,204.454707 358.169171,204.443445 358.255514,204.438166 L358.377695,204.438166 C358.519615,204.438687 358.660995,204.455652 358.799009,204.488724 C359.086049,204.580114 359.367418,204.688441 359.641636,204.813135 L359.692193,204.813135 C360.053407,204.932117 360.432807,204.986317 360.812887,204.973234 C361.369021,204.973234 361.942007,204.884758 362.498141,204.84684 C363.185133,204.739561 363.888259,204.865649 364.495167,205.204957 C364.886855,205.519746 365.258345,205.858871 365.607435,206.220322 C366.029002,206.55142 366.503283,206.809212 367.010409,206.9829 C370.637042,208.367196 374.660566,208.282554 378.225774,206.746964 C378.568241,206.552252 378.956798,206.453294 379.350682,206.460471 C379.641629,206.517425 379.917277,206.63515 380.159603,206.805948 C380.412392,206.953408 380.660967,207.096654 380.917968,207.227261 C381.160839,207.598473 381.324359,208.01588 381.398265,208.453284 C381.494818,209.277709 381.450654,210.112544 381.267658,210.922181 L381.267658,210.922181 Z" id="Path" fill="#000000" opacity="0.1"></path>
                <path d="M384.937299,208.133086 C383.259617,207.620651 381.647663,206.913654 380.134325,206.026518 C379.891333,205.856916 379.615946,205.739303 379.325403,205.681041 C378.930475,205.676346 378.541198,205.775118 378.196283,205.967534 C374.63249,207.502874 370.61036,207.587518 366.98513,206.20347 C366.478734,206.028124 366.004717,205.770475 365.582156,205.440892 C365.231982,205.080558 364.860562,204.741497 364.469888,204.425527 C363.083767,203.528129 361.166791,204.581413 359.616357,204.004213 C359.341356,203.881394 359.060093,203.773108 358.77373,203.679802 C357.547708,203.372243 356.30062,204.594052 355.095663,204.223296 C354.64735,205.441816 354.315832,206.700176 354.105576,207.981413 C353.934222,209.452781 353.842803,210.93236 353.831722,212.413631 C353.831722,213.302602 353.789591,214.191574 353.831722,215.080545 C354.131938,215.129667 354.397831,215.302345 354.564808,215.556629 C354.676775,215.853773 354.652114,216.185157 354.497398,216.462454 C353.616853,218.724907 352.723668,221.012639 351.388104,223.039157 C352.329374,223.600018 353.203019,224.267268 353.991822,225.027757 C355.466419,226.586617 356.191078,228.773234 357.783643,230.214126 C359.578439,231.836183 362.135812,232.232218 364.524659,232.552416 L370.536803,233.357125 C371.555019,233.547694 372.596197,233.583205 373.625031,233.462454 C374.195551,233.358375 374.749579,233.178422 375.272367,232.927385 C375.613883,232.784587 375.925463,232.578773 376.19083,232.320694 C376.412995,232.068488 376.596186,231.78447 376.734325,231.478067 C377.210409,230.525898 377.644362,229.552664 378.04461,228.566791 C378.183643,228.2171 378.3943,227.808426 378.773482,227.778934 C381.006444,225.765056 383.113011,223.70062 385.345973,221.686741 C386.243325,220.943063 387.048173,220.094366 387.743247,219.15886 C388.851301,217.51995 387.844362,215.198513 387.743247,213.21834 C387.731017,212.71186 387.667495,212.207922 387.553656,211.71425 C387.191326,210.277571 386.340273,208.558612 384.937299,208.133086 Z" id="Path" fill="#00B0FF"></path>
                <path d="M349.167782,199.702602 C348.830731,200.376704 348.021809,200.701115 347.398265,201.126642 L345.262206,202.592813 C344.973826,202.852677 344.591859,202.98355 344.204709,202.955143 C343.853541,202.825463 343.569503,202.559653 343.416853,202.217844 C343.416853,202.120942 343.416853,202.015613 343.416853,201.914498 C343.40062,201.573464 343.446297,201.23231 343.551673,200.907559 C343.76082,200.431128 344.085126,200.014163 344.495415,199.694176 C345.288594,198.943078 346.232017,198.368695 347.263445,198.008922 C347.42423,197.946378 347.599035,197.928897 347.769021,197.958364 C347.834525,197.975466 347.897036,198.002459 347.954399,198.038414 C348.105161,198.202851 348.232736,198.387126 348.333581,198.586121 C348.502107,198.931599 349.34052,199.357125 349.167782,199.702602 Z" id="Path" fill="#000000" opacity="0.1"></path>
                <path d="M354.198265,204.143247 C353.482032,204.109542 352.896406,203.591326 352.373978,203.098389 L350.7772,201.615366 C350.670343,201.525002 350.576736,201.420048 350.499133,201.303594 C350.41285,201.139758 350.347727,200.965626 350.305328,200.785378 C349.966786,199.934329 349.436174,199.173015 348.754895,198.560843 C348.636132,198.409912 348.476843,198.295925 348.295663,198.232218 C348.124368,198.200613 347.947625,198.218141 347.785874,198.282776 C346.75417,198.641967 345.810631,199.21642 345.017844,199.96803 C344.607805,200.288267 344.283553,200.705163 344.074102,201.181413 C343.968175,201.506039 343.922484,201.847294 343.939281,202.188352 C343.949174,203.301548 344.19923,204.399494 344.672367,205.407187 C344.74399,205.563073 344.82404,205.718959 344.908302,205.870632 C345.470503,206.799726 346.134674,207.663149 346.888476,208.444857 L347.891202,209.565551 C348.877076,210.669393 349.862949,211.773234 350.933086,212.7886 C351.316688,213.197752 351.781674,213.522094 352.298141,213.740768 C352.826707,213.956475 353.431484,213.85893 353.865428,213.48798 C354.067255,213.254347 354.219226,212.981946 354.31202,212.687485 C354.960843,211.00223 355.57596,209.249566 355.613879,207.433705 C355.622955,206.706491 355.592011,205.979328 355.52119,205.255514 C355.457993,204.488724 354.914498,204.189591 354.198265,204.143247 Z" id="Path" fill="#00B0FF"></path>
                <path d="M379.729864,263.127138 C379.705411,267.365227 379.404233,271.597196 378.828253,275.796035 C378.74399,276.474349 378.651301,277.152664 378.604957,277.830979 C378.465923,279.798513 378.693432,281.774473 378.508055,283.729368 C378.411152,284.786865 378.192069,285.835936 378.006691,286.868154 C377.183309,291.475224 376.942676,296.167566 377.290458,300.834696 C377.871871,308.599504 376.089715,316.368525 376.898637,324.112268 C376.996679,325.618084 376.913221,327.130228 376.650062,328.616109 C376.49929,329.538098 376.281025,330.447772 375.997026,331.337794 C375.381908,333.447171 374.763982,335.553738 374.143247,337.657497 C374.070223,337.977478 373.92624,338.276964 373.721933,338.533829 C373.28714,338.909833 372.711411,339.080249 372.142007,339.001487 C369.711029,338.925651 367.423296,337.87658 365.215613,336.852788 C364.961743,336.752652 364.726689,336.610196 364.520446,336.431475 C364.061214,335.95539 364.099133,335.205452 363.896902,334.577695 C363.694672,333.949938 363.146964,333.360099 362.835192,332.715489 C362.578852,332.105734 362.423736,331.458232 362.37596,330.798513 C362.095085,328.641388 361.904089,326.475836 361.802974,324.301859 C361.642875,321.243123 363.66518,318.428748 364.330855,315.454275 C365.594796,309.606444 364.524659,303.337299 366.77026,297.7886 C367.478067,296.035936 366.450062,293.912515 366.348947,292.025031 C366.312551,290.807357 366.154474,289.596375 365.877076,288.410161 C365.455762,286.826022 364.566791,285.334572 364.503594,283.69145 C364.457249,282.503346 364.840644,281.344734 365.038662,280.173482 C365.301371,278.449779 365.27717,276.694492 364.967038,274.978686 C364.743742,273.563073 364.402478,272.14746 364.061214,270.765551 L363.985378,270.921437 C362.958855,272.92776 362.07609,275.00444 361.343742,277.135812 C361.006691,278.16803 360.711772,279.221314 360.290458,280.22404 C359.944981,281.066667 359.519455,281.83767 359.102354,282.62974 C357.606319,285.422964 356.304195,288.31579 355.205204,291.287732 C354.682776,292.745477 354.223544,294.236927 353.768525,295.698885 L350.646592,305.810409 C349.803965,308.468897 348.881289,311.03891 348.055514,313.693185 C346.888476,317.485006 345.721437,321.243123 344.364808,324.950682 C343.100867,328.468649 341.596778,332.113011 342.047584,335.828996 C340.885916,336.37501 339.60998,336.633665 338.327385,336.583147 C336.155946,336.391069 334.025642,335.874116 332.007683,335.049566 C331.202974,334.750434 330.368773,334.413383 329.825279,333.751921 C328.889963,332.610161 329.121685,330.937546 329.403965,329.484015 C329.510305,328.828847 329.679615,328.18547 329.909542,327.562825 C330.22974,326.787608 330.752169,326.100867 331.080793,325.334077 C331.742255,323.863693 331.784387,322.199504 332.045601,320.602726 C332.306815,319.005948 332.888228,317.320694 334.253284,316.452788 C334.485006,313.64684 335.639405,310.87881 336.275589,308.136059 C336.755886,306.058984 336.915985,303.922924 337.295167,301.816357 C337.674349,299.709789 338.285254,297.603222 339.557621,295.896902 C339.457233,294.137469 339.854384,292.385331 340.703594,290.84114 C340.908747,290.502033 341.076835,290.141845 341.204957,289.766791 C341.283524,289.400889 341.32865,289.028599 341.339777,288.654523 C341.479085,287.190495 342.105071,285.815402 343.11772,284.748947 C342.696406,283.211152 343.282032,281.605948 343.808674,280.114498 C344.471971,278.21132 344.772088,276.200535 344.693432,274.186617 C344.628106,273.624257 344.655145,273.054999 344.773482,272.501363 C344.89145,272.08005 345.123172,271.721933 345.257993,271.317472 C345.378174,270.82209 345.441778,270.314675 345.447584,269.804957 C345.611896,267.525651 346.534572,265.376952 347.554151,263.342007 C348.160843,262.153903 347.64684,260.540273 347.773234,259.217348 C347.992317,257.018092 348.232466,254.742999 349.323668,252.826022 C349.525898,252.463693 349.744981,252.118216 349.926146,251.743247 C350.145688,251.207882 350.264248,250.636508 350.275836,250.057993 C350.313755,249.093185 350.448575,248.292689 350.103098,247.395291 C352.357125,245.520446 355.432714,244.993804 358.365056,244.86741 C361.297398,244.741016 364.263445,245.006444 367.13259,244.3829 C367.975217,244.193309 368.817844,243.932094 369.706815,243.8057 C371.724907,243.510781 373.772491,243.970012 375.765304,244.425031 C375.62627,245.688971 376.089715,246.902354 376.607931,248.077819 C378.631155,252.839194 379.692178,257.953869 379.729864,263.127138 L379.729864,263.127138 Z" id="Path" fill="#33313F"></path>
                <path d="M369.807931,264.091945 L364.967038,274.978686 C364.743742,273.563073 364.402478,272.14746 364.061214,270.765551 L363.985378,270.921437 L363.985378,270.693928 L366.6228,264.892441 L369.807931,264.091945 Z" id="Path" fill="#000000" opacity="0.1"></path>
                <path d="M384.313755,241.349442 C384.034484,241.558389 383.701057,241.682693 383.35316,241.707559 C382.819503,241.726504 382.286547,241.653828 381.777447,241.492689 L377.985626,240.544734 C377.86673,240.515464 377.751011,240.474539 377.640149,240.422553 C377.703346,239.76109 377.82974,238.9943 378.187856,238.737299 C378.722924,238.379182 380.323916,238.85948 380.930607,238.943742 C381.975465,239.086989 383.037175,239.255514 384.056753,239.453532 C384.214812,240.073561 384.301045,240.70971 384.313755,241.349442 Z" id="Path" fill="#000000" opacity="0.1"></path>
                <path d="M387.51995,216.281289 C387.6,216.630979 387.713755,216.976456 387.781165,217.330359 C387.894513,218.198657 387.864624,219.07967 387.692689,219.93829 L387.347212,222.348203 L387.001735,224.770756 L385.666171,234.094424 L385.337546,236.403222 L384.874102,239.62627 C384.852212,239.894457 384.78378,240.156783 384.671871,240.401487 C384.391495,240.86668 383.895895,241.159606 383.35316,241.180917 C382.819607,241.197825 382.286993,241.125196 381.777447,240.966047 L377.985626,240.013879 C377.81943,239.984322 377.66144,239.91969 377.522181,239.824287 C377.286344,239.593731 377.192964,239.254024 377.277819,238.935316 C377.33259,238.615118 377.471623,238.315985 377.517968,237.995787 C377.610657,237.372243 377.349442,236.731846 377.442131,236.112515 C377.533026,235.718125 377.674643,235.337176 377.863445,234.979182 C379.127385,232.185874 378.3943,228.924907 378.82404,225.89145 C379.2108,223.504032 380.219229,221.260494 381.747955,219.386369 C382.69137,218.203422 383.775071,217.139528 384.975217,216.218092 C385.447088,215.851549 386.197026,215.097398 386.791078,214.954151 C387.553656,214.794052 387.393556,215.750434 387.51995,216.281289 Z" id="Path" fill="#00B0FF"></path>
                <path d="M358.824287,179.989343 C358.546221,180.874102 358.980173,181.847336 358.782156,182.748947 C358.567286,183.743247 357.63197,184.434201 357.366543,185.432714 C356.945229,186.953656 358.234449,188.339777 359.178191,189.603717 C362.675093,194.29715 362.215861,200.793804 361.019331,206.519455 C360.056588,211.11314 358.725139,215.62175 357.037918,220.001487 C356.511276,221.36233 355.929864,222.744238 354.893432,223.763817 C356.831475,223.207683 358.891698,222.647336 360.833953,223.186617 C363.294424,223.869145 365.417844,226.257993 367.91202,225.714498 C369.411896,225.38166 370.46518,224.05031 371.813383,223.313011 C374.341264,221.952169 377.387361,222.807435 380.205948,223.245601 C380.813303,223.388891 381.448863,223.356748 382.038662,223.152912 C382.489554,222.91053 382.87209,222.558424 383.150929,222.12912 C384.40881,220.515291 385.162158,218.565967 385.316481,216.525651 C385.451345,214.470485 384.6981,212.456205 383.247831,210.993804 C382.649566,210.429244 381.933333,209.974226 381.474102,209.30855 C381.02747,208.531109 380.788094,207.651946 380.778934,206.75539 C380.446097,202.120942 381.575217,197.389591 380.412392,192.906815 C379.991078,191.310037 379.304337,189.780669 379.118959,188.145973 C378.887237,186.111029 379.439157,183.932838 378.630235,182.070632 C377.994052,180.591822 376.591078,179.542751 375.078563,179.00347 C373.566047,178.464188 371.948203,178.312515 370.342999,178.160843 C368.034201,177.967038 359.789095,176.976952 358.824287,179.989343 Z" id="Path" fill="#33313F"></path>
                <g id="Group" opacity="0.1" transform="translate(354.745973, 178.636927)" fill="#000000">
                    <path d="M6.27335812,27.8825279 C5.31535301,32.4572179 3.99096767,36.9474477 2.31301115,41.3097893 C2.60371747,40.7325898 2.84807931,40.1258984 3.07980173,39.5234201 C4.76893823,35.1443335 6.10043334,30.6355669 7.06121437,26.0413879 C8.26195787,20.3115242 8.72118959,13.8232962 5.22428748,9.12565056 C4.38166047,8.00495663 3.29888476,6.79157373 3.33680297,5.47707559 C3.02537728,5.87464487 2.78323686,6.32189248 2.62057001,6.8 C2.19925651,8.32094176 3.48847584,9.7070632 4.43221809,10.9710037 C7.9291202,15.660223 7.46988848,22.1568773 6.27335812,27.8825279 Z" id="Path"></path>
                    <path d="M4.08674102,3.68649318 C4.42487048,3.26658178 4.6768505,2.78409731 4.82825279,2.26666667 C4.89338983,1.64078826 4.87639316,1.00907872 4.77769517,0.387608426 C4.45314552,0.631852957 4.20948223,0.967990874 4.07831475,1.35241636 C3.82973978,2.09814126 4.11623296,2.9070632 4.08674102,3.68649318 Z" id="Path"></path>
                    <path d="M29.197026,41.6384139 C28.9180614,42.0665292 28.5354702,42.4172378 28.0847584,42.6579926 C27.4957881,42.8660614 26.8590019,42.8982666 26.2520446,42.7506815 C23.4334572,42.329368 20.3536555,41.4614622 17.8594796,42.8223048 C16.5070632,43.5553903 15.4579926,44.886741 13.9539033,45.2237918 C11.4639405,45.7799257 9.34052045,43.3910781 6.88004957,42.6959108 C5.13581165,42.2114002 3.29888476,42.6116481 1.54200743,43.1172243 C1.19291166,43.8617005 0.721535822,44.5424185 0.147459727,45.1311029 C2.08550186,44.574969 4.14572491,44.0146221 6.08798017,44.5539033 C8.54845105,45.2364312 10.6718711,47.6252788 13.1660471,47.0817844 C14.6659232,46.7489467 15.7192069,45.417596 17.0674102,44.6802974 C19.5952912,43.3194548 22.6413879,44.1747212 25.4599752,44.6128872 C26.06733,44.7561774 26.70289,44.7240341 27.292689,44.5201983 C27.7435814,44.2778167 28.1261172,43.9257099 28.4049566,43.4964064 C29.1684889,42.489259 29.7580479,41.3614071 30.1491945,40.1596035 C29.867643,40.6747149 29.5494337,41.1689249 29.197026,41.6384139 L29.197026,41.6384139 Z" id="Path"></path>
                </g>
            </g>
        </g>
    </g>
</svg>