<?xml version="1.0" encoding="UTF-8"?>
<svg width="64px" height="64px" viewBox="0 0 64 64" version="1.1" xmlns="http://www.w3.org/2000/svg" xmlns:xlink="http://www.w3.org/1999/xlink">
    <title>icon-parent</title>
    <g id="Account-Page" stroke="none" stroke-width="1" fill="none" fill-rule="evenodd">
        <g id="Sign-up" transform="translate(-974.000000, -697.000000)">
            <g id="Group-17" transform="translate(730.000000, 47.000000)">
                <g id="Group" transform="translate(1.000000, 568.000000)">
                    <g id="Group-13" transform="translate(190.000000, 41.000000)">
                        <g id="icon-coding" transform="translate(53.000000, 41.000000)">
                            <circle id="Oval" fill-opacity="0.0861560315" fill="#00C2F3" cx="32" cy="32" r="32"></circle>
                            <g id="icons8-family" transform="translate(15.000000, 14.000000)" fill="#000000" fill-rule="nonzero">
                                <path d="M8.60869565,0 C6.45652174,0 4.69565217,1.76086957 4.69565217,3.91304348 C4.69565217,6.06521739 6.45652174,7.82608696 8.60869565,7.82608696 C10.7608696,7.82608696 12.5217391,6.06521739 12.5217391,3.91304348 C12.5217391,1.76086957 10.7608696,0 8.60869565,0 Z M25.0434783,0 C22.8913043,0 21.1304348,1.76086957 21.1304348,3.91304348 C21.1304348,6.06521739 22.8913043,7.82608696 25.0434783,7.82608696 C27.1956522,7.82608696 28.9565217,6.06521739 28.9565217,3.91304348 C28.9565217,1.76086957 27.1956522,0 25.0434783,0 Z M8.60869565,1.56521739 C9.9140627,1.56521739 10.9565217,2.60767643 10.9565217,3.91304348 C10.9565217,5.21841052 9.9140627,6.26086957 8.60869565,6.26086957 C7.30332861,6.26086957 6.26086957,5.21841052 6.26086957,3.91304348 C6.26086957,2.60767643 7.30332861,1.56521739 8.60869565,1.56521739 Z M25.0434783,1.56521739 C26.3488453,1.56521739 27.3913043,2.60767643 27.3913043,3.91304348 C27.3913043,5.21841052 26.3488453,6.26086957 25.0434783,6.26086957 C23.7381112,6.26086957 22.6956522,5.21841052 22.6956522,3.91304348 C22.6956522,2.60767643 23.7381112,1.56521739 25.0434783,1.56521739 Z M5.08695652,8.60869565 C2.72078843,8.60869565 0.782608696,10.5468754 0.782608696,12.9130435 L0.782608696,22.548913 C0.776494957,22.5978261 0.776494957,22.6467391 0.782608696,22.6956522 C0.779551826,22.7690217 0.788723217,22.8454482 0.807065217,22.9157609 C0.923234087,24.0988453 1.91983696,25.0434783 3.13043478,25.0434783 C3.40557104,25.0434783 3.66542139,24.9853938 3.91304348,24.8967391 L3.91304348,33.9211957 C3.91304348,35.0645384 4.84850583,36 5.99184783,36 L7.3125,36 C7.81691557,36 8.2449047,35.7646062 8.60869565,35.4619565 C8.97248661,35.7646062 9.40047574,36 9.9048913,36 L11.2255435,36 C12.3688863,36 13.3043478,35.0645384 13.3043478,33.9211957 L13.3043478,28.8097826 C13.5519699,28.8984373 13.811821,28.9565217 14.0869565,28.9565217 L14.0869565,34.0434783 C14.0869565,35.1134515 14.9735058,36 16.0434783,36 L18.3913043,36 C19.4612776,36 20.3478261,35.1134515 20.3478261,34.0434783 L20.3478261,28.9565217 C20.6229623,28.9565217 20.8828127,28.8984373 21.1304348,28.8097826 L21.1304348,33.6521739 C21.1304348,34.9391982 22.1912366,36 23.4782609,36 C24.0774457,36 24.6277174,35.7646062 25.0434783,35.388587 C25.4592391,35.7646062 26.0095109,36 26.6086957,36 C27.8957199,36 28.9565217,34.9391982 28.9565217,33.6521739 L28.9565217,27.3913043 L30.986413,27.3913043 C31.5,27.3913043 31.9860736,27.1253395 32.2581522,26.7065217 C32.2581522,26.6973503 32.2581522,26.6912366 32.2581522,26.6820652 C32.5302308,26.2601906 32.5913721,25.7557743 32.4538043,25.2880435 C32.4538043,25.2788721 32.4538043,25.2727583 32.4538043,25.263587 L32.1358696,24.2608696 C32.9276497,24.2608696 33.6430025,23.8756797 34.0190217,23.2581522 C34.395041,22.6406254 34.4531254,21.870245 34.2146739,21.1304348 C33.4962634,18.9110058 31.0597826,11.4945652 31.0597826,11.4945652 C30.9130435,11.0421196 30.637908,10.3726221 30.0570652,9.75815217 C29.4762232,9.14368226 28.5591037,8.60869565 27.3913043,8.60869565 L25.875,8.60869565 C25.8597149,8.60869565 25.8413721,8.60869565 25.826087,8.60869565 L22.6956522,8.60869565 C21.524796,8.60869565 20.6107341,9.14368226 20.0298913,9.75815217 C19.7333562,10.076087 19.7486413,10.5743888 20.0665761,10.8709239 C20.3845109,11.167459 20.8828127,11.1521739 21.1793478,10.8342391 C21.5339674,10.455163 21.9711279,10.173913 22.6956522,10.173913 L25.826087,10.173913 C25.8505435,10.173913 25.875,10.173913 25.8994565,10.173913 L27.3913043,10.173913 C28.1127717,10.173913 28.5529891,10.4582199 28.9076087,10.8342391 C29.2622283,11.2102583 29.5037366,11.7055025 29.5923913,11.9836957 C29.5923913,11.9836957 32.0044156,19.3817935 32.7228261,21.5951087 C32.8481656,21.9802993 32.7961957,22.267663 32.6983696,22.4266304 C32.6005435,22.5855978 32.4721471,22.6956522 32.1358696,22.6956522 C31.811821,22.6956522 31.530571,22.4847149 31.4266304,22.2065217 C31.4235736,22.200408 31.4296873,22.1881797 31.4266304,22.1820652 C31.4144022,22.1056388 31.3899457,22.0322692 31.3532609,21.9619565 L29.1766304,15.4076087 C29.0604623,15.0438177 28.6997283,14.8145384 28.3206522,14.8695652 C28.0883152,14.9001363 27.8834917,15.0346471 27.761209,15.2333562 C27.6358696,15.4320652 27.6083562,15.6766304 27.6847826,15.8967391 L29.8858696,22.5 C29.9011547,22.5672558 29.9256112,22.6345109 29.9592391,22.6956522 L30.9619565,25.7527174 L30.9619565,25.7771739 C30.9650134,25.8016304 30.9405569,25.8138587 30.9375,25.826087 L25.0923913,25.826087 C25.0771062,25.826087 25.0587634,25.826087 25.0434783,25.826087 L22.6956522,25.826087 L22.6956522,21.1304348 C22.6956522,19.4093069 21.2863453,18 19.5652174,18 L14.8695652,18 C13.1484373,18 11.7391304,19.4093069 11.7391304,21.1304348 L11.7391304,22.5733696 C11.7391304,22.5978261 11.7391304,22.6222826 11.7391304,22.6467391 L11.7391304,33.9211957 C11.7391304,34.2207884 11.5220786,34.4347826 11.2255435,34.4347826 L9.9048913,34.4347826 C9.6052993,34.4347826 9.39130435,34.2207884 9.39130435,33.9211957 L9.39130435,23.9918478 C9.39436122,23.7656254 9.29653513,23.5516304 9.12839713,23.4018344 C8.96025835,23.2520384 8.73403513,23.1817257 8.51086957,23.2092391 C8.11650835,23.2581522 7.82303009,23.5944297 7.82608696,23.9918478 L7.82608696,33.9211957 C7.82608696,34.2207884 7.60903513,34.4347826 7.3125,34.4347826 L5.99184783,34.4347826 C5.69225583,34.4347826 5.47826087,34.2207884 5.47826087,33.9211957 L5.47826087,14.8695652 C5.48743226,14.6433428 5.39571991,14.426291 5.23369565,14.2734373 C5.06861452,14.1175276 4.84544817,14.0411003 4.62228261,14.0625 C4.5886547,14.0686145 4.55502757,14.0777851 4.52445652,14.0869565 C4.16066557,14.1694975 3.90387209,14.4966037 3.91304348,14.8695652 L3.91304348,22.5733696 C3.91304348,22.5978261 3.91304348,22.6222826 3.91304348,22.6467391 L3.91304348,22.6956522 C3.91304348,23.1389264 3.57370904,23.4782609 3.13043478,23.4782609 C2.70550252,23.4782609 2.37228261,23.163383 2.34782609,22.7445652 C2.34782609,22.7292801 2.34782609,22.7109373 2.34782609,22.6956522 C2.35394061,22.6467391 2.35394061,22.5978261 2.34782609,22.548913 L2.34782609,12.9130435 C2.34782609,11.3967391 3.5675953,10.173913 5.08695652,10.173913 L12.1304348,10.173913 C12.7173913,10.173913 13.2523779,10.3512232 13.6956522,10.6630435 C13.9218754,10.8525819 14.2336957,10.8984373 14.5027174,10.7822692 C14.774796,10.6661003 14.9582199,10.4093069 14.9765627,10.1158286 C14.9979623,9.82235035 14.8512232,9.544158 14.6005435,9.39130435 C13.9035326,8.90217391 13.0444975,8.60869565 12.1304348,8.60869565 L5.08695652,8.60869565 Z M17.2173913,10.9565217 C15.4962634,10.9565217 14.0869565,12.3658286 14.0869565,14.0869565 C14.0869565,15.8080844 15.4962634,17.2173913 17.2173913,17.2173913 C18.9385192,17.2173913 20.3478261,15.8080844 20.3478261,14.0869565 C20.3478261,12.3658286 18.9385192,10.9565217 17.2173913,10.9565217 Z M17.2173913,12.5217391 C18.0917123,12.5217391 18.7826087,13.2126363 18.7826087,14.0869565 C18.7826087,14.9612776 18.0917123,15.6521739 17.2173913,15.6521739 C16.343071,15.6521739 15.6521739,14.9612776 15.6521739,14.0869565 C15.6521739,13.2126363 16.343071,12.5217391 17.2173913,12.5217391 Z M14.8695652,19.5652174 L19.5652174,19.5652174 C20.4395384,19.5652174 21.1304348,20.2561145 21.1304348,21.1304348 L21.1304348,26.4619565 C21.1304348,26.486413 21.1304348,26.5108696 21.1304348,26.5353261 L21.1304348,26.6086957 C21.1304348,27.0519699 20.7911003,27.3913043 20.3478261,27.3913043 L19.5652174,27.3913043 C19.1341714,27.3913043 18.7826087,27.742867 18.7826087,28.173913 L18.7826087,34.0434783 C18.7826087,34.2666438 18.6144699,34.4347826 18.3913043,34.4347826 L16.0434783,34.4347826 C15.8203127,34.4347826 15.6521739,34.2666438 15.6521739,34.0434783 L15.6521739,28.173913 C15.6521739,27.742867 15.3006112,27.3913043 14.8695652,27.3913043 L14.0869565,27.3913043 C13.6436823,27.3913043 13.3043478,27.0519699 13.3043478,26.6086957 L13.3043478,21.1304348 C13.3043478,20.2561145 13.995245,19.5652174 14.8695652,19.5652174 Z M22.6956522,27.3913043 L24.2608696,27.3913043 L24.2608696,33.6521739 C24.2608696,34.0954482 23.9215351,34.4347826 23.4782609,34.4347826 C23.0349866,34.4347826 22.6956522,34.0954482 22.6956522,33.6521739 L22.6956522,27.3913043 Z M25.826087,27.3913043 L27.3913043,27.3913043 L27.3913043,33.6521739 C27.3913043,34.0954482 27.0519699,34.4347826 26.6086957,34.4347826 C26.1654214,34.4347826 25.826087,34.0954482 25.826087,33.6521739 L25.826087,27.3913043 Z" id="Shape"></path>
                            </g>
                        </g>
                    </g>
                </g>
            </g>
        </g>
    </g>
</svg>