<?xml version="1.0" encoding="UTF-8"?>
<svg width="64px" height="64px" viewBox="0 0 64 64" version="1.1" xmlns="http://www.w3.org/2000/svg" xmlns:xlink="http://www.w3.org/1999/xlink">
    <title>icon-instructor</title>
    <g id="Account-Page" stroke="none" stroke-width="1" fill="none" fill-rule="evenodd">
        <g id="Sign-up" transform="translate(-1164.000000, -697.000000)">
            <g id="Group-17" transform="translate(730.000000, 47.000000)">
                <g id="Group" transform="translate(1.000000, 568.000000)">
                    <g id="Group-13" transform="translate(380.000000, 41.000000)">
                        <g id="icon-instructor" transform="translate(53.000000, 41.000000)">
                            <circle id="Oval" fill-opacity="0.0861560315" fill="#00C2F3" cx="32" cy="32" r="32"></circle>
                            <g id="icons8-training" transform="translate(14.000000, 14.000000)" fill="#000000" fill-rule="nonzero">
                                <path d="M7.82608696,0 C5.67391304,0 3.91304348,1.76086957 3.91304348,3.91304348 C3.91304348,6.06521739 5.67391304,7.82608696 7.82608696,7.82608696 C9.97826087,7.82608696 11.7391304,6.06521739 11.7391304,3.91304348 C11.7391304,1.76086957 9.97826087,0 7.82608696,0 Z M21.1304348,0 L21.1304348,1.56521739 L13.3043478,1.56521739 L13.3043478,3.13043478 L34.4347826,3.13043478 L34.4347826,23.4782609 L14.0869565,23.4782609 L14.0869565,25.0434783 L20.7391304,25.0434783 L16.4347826,33.6521739 L18,33.6521739 L21.9130435,25.826087 L25.826087,33.6521739 L27.3913043,33.6521739 L23.0869565,25.0434783 L35.2173913,25.0434783 C35.6484373,25.0434783 36,24.6919156 36,24.2608696 L36,2.34782609 C36,1.91678009 35.6484373,1.56521739 35.2173913,1.56521739 L22.6956522,1.56521739 L22.6956522,0 L21.1304348,0 Z M7.82608696,1.56521739 C9.131454,1.56521739 10.173913,2.60767643 10.173913,3.91304348 C10.173913,5.21841052 9.131454,6.26086957 7.82608696,6.26086957 C6.52071991,6.26086957 5.47826087,5.21841052 5.47826087,3.91304348 C5.47826087,2.60767643 6.52071991,1.56521739 7.82608696,1.56521739 Z M4.30434783,8.60865538 C1.93512209,8.60865538 -4.2934406e-17,10.5438177 -4.2934406e-17,12.9130435 L-4.2934406e-17,22.548913 C-0.00305686957,22.582541 -0.00305686957,22.6131112 -4.2934406e-17,22.6467391 L-4.2934406e-17,22.6956522 C-0.00305686957,22.7690217 0.00611452174,22.8454482 0.0244565217,22.9157609 C0.140625391,24.0988453 1.13722826,25.0434783 2.34782609,25.0434783 C2.62296235,25.0434783 2.8828127,24.9853938 3.13043478,24.8967391 L3.13043478,33.2608696 C3.13043478,34.7649457 4.36548913,36 5.86956522,36 C6.63383191,36 7.32778513,35.6790083 7.82608696,35.1684783 C8.32438878,35.6790083 9.01834278,36 9.7826087,36 C11.2866848,36 12.5217391,34.7649457 12.5217391,33.2608696 L12.5217391,13.3043478 L21.1304348,13.3043478 C22.417459,13.3043478 23.4782609,12.243546 23.4782609,10.9565217 C23.4782609,9.68478261 22.4449732,8.63620904 21.1793478,8.60865538 C21.1640627,8.60865538 21.1457199,8.60865538 21.1304348,8.60865538 L10.173913,8.60865538 C9.87126339,8.60563878 9.59612791,8.77683443 9.46467391,9.04891304 L7.82608696,12.326087 L6.1875,9.04891304 C6.056046,8.77683443 5.78091052,8.60563878 5.47826087,8.60865538 L4.30434783,8.60865538 Z M4.30434783,10.173913 L4.98913043,10.173913 L7.11684783,14.4293478 C7.24524496,14.7044841 7.5234373,14.8817935 7.82608696,14.8817935 C8.12873661,14.8817935 8.40692974,14.7044841 8.53532609,14.4293478 L10.6630435,10.173913 L21.1304348,10.173913 C21.1548913,10.173913 21.1793478,10.173913 21.2038043,10.173913 C21.6103938,10.2105978 21.9130435,10.5407609 21.9130435,10.9565217 C21.9130435,11.399796 21.573709,11.7391304 21.1304348,11.7391304 L11.7391304,11.7391304 C11.3080844,11.7391304 10.9565217,12.0906931 10.9565217,12.5217391 L10.9565217,33.2608696 C10.9565217,33.9181388 10.4398779,34.4347826 9.7826087,34.4347826 C9.16508191,34.4347826 8.66678009,33.982337 8.60869565,33.3831522 L8.60869565,33.1875 C8.60869565,33.1630435 8.60869565,33.138587 8.60869565,33.1141304 L8.60869565,25.0434783 C8.61786704,24.8172558 8.5261547,24.600204 8.36413043,24.4473503 C8.1990493,24.2914406 7.97588296,24.2150134 7.75271739,24.236413 C7.71908948,24.2425276 7.68546235,24.2516982 7.6548913,24.2608696 C7.29110035,24.3434105 7.03430687,24.6705167 7.04347826,25.0434783 L7.04347826,33.1141304 C7.04042139,33.1477583 7.04042139,33.1783286 7.04347826,33.2119565 L7.04347826,33.3831522 C6.98539383,33.982337 6.48709278,34.4347826 5.86956522,34.4347826 C5.212296,34.4347826 4.69565217,33.9181388 4.69565217,33.2608696 L4.69565217,14.8695652 C4.7017667,14.6280569 4.59476922,14.3987776 4.40828843,14.2459239 C4.22486452,14.093071 3.97724165,14.0349866 3.74184783,14.0869565 C3.37805687,14.1694975 3.12126339,14.4966037 3.13043478,14.8695652 L3.13043478,22.5733696 C3.13043478,22.5978261 3.13043478,22.6222826 3.13043478,22.6467391 L3.13043478,22.6956522 C3.13043478,23.1389264 2.79110035,23.4782609 2.34782609,23.4782609 C1.92289383,23.4782609 1.58967391,23.163383 1.56521739,22.7445652 C1.56521739,22.7292801 1.56521739,22.7109373 1.56521739,22.6956522 C1.57133191,22.6467391 1.57133191,22.5978261 1.56521739,22.548913 L1.56521739,12.9130435 C1.56521739,11.3906254 2.78192974,10.173913 4.30434783,10.173913 Z" id="Shape"></path>
                            </g>
                        </g>
                    </g>
                </g>
            </g>
        </g>
    </g>
</svg>