<?xml version="1.0" encoding="UTF-8"?>
<svg width="64px" height="64px" viewBox="0 0 64 64" version="1.1" xmlns="http://www.w3.org/2000/svg" xmlns:xlink="http://www.w3.org/1999/xlink">
    <title>icon-student</title>
    <g id="Account-Page" stroke="none" stroke-width="1" fill="none" fill-rule="evenodd">
        <g id="Sign-up" transform="translate(-784.000000, -697.000000)">
            <g id="Group-17" transform="translate(730.000000, 47.000000)">
                <g id="Group" transform="translate(1.000000, 568.000000)">
                    <g id="Group-13" transform="translate(0.000000, 41.000000)">
                        <g id="icon-student" transform="translate(53.000000, 41.000000)">
                            <circle id="Oval" fill-opacity="0.0861560315" fill="#00C2F3" cx="32" cy="32" r="32"></circle>
                            <g id="icons8-students" transform="translate(22.000000, 17.000000)" fill="#000000" fill-rule="nonzero">
                                <path d="M11.8095238,0 C10.1789688,0 8.85714286,1.32182598 8.85714286,2.95238095 C8.85714286,4.58293593 10.1789688,5.9047619 11.8095238,5.9047619 C13.4400788,5.9047619 14.7619048,4.58293593 14.7619048,2.95238095 C14.7619048,1.32182598 13.4400788,0 11.8095238,0 Z M2.49972102,6.30840774 L0.369047619,15.1194204 L3.23781626,15.8142677 L5.3713728,7.00325517 L2.49972102,6.30840774 Z M10.3304503,7.38095238 C8.88761143,7.38095238 7.69219681,8.41973891 7.43573233,9.7884115 L6.01720614,15.4308036 L6.02297243,15.453869 C5.95326185,15.705403 5.9047619,15.9644376 5.9047619,16.2380952 C5.9047619,17.1555417 6.33210325,17.9655215 6.98883929,18.5071609 L6.99172243,18.5186944 L11.4491252,22.759859 L13.9632621,28.7338173 L14.2688808,29.494978 L17.007905,28.3993672 L14.2140993,21.4134109 L14.2112163,21.4105279 L11.6480655,17.2068452 L11.7114959,16.950242 C11.7252702,16.8950162 11.7441271,16.8423044 11.7547439,16.7859007 L12.5649185,13.559617 L14.084357,15.7018233 L19.2077757,17.5643609 L20.2168891,14.7907362 L15.9584265,13.2424663 L12.9772141,9.04454981 C12.4975245,8.06403812 11.4984122,7.38095238 10.3304503,7.38095238 Z M5.98260792,20.5398058 L5.26757816,22.6589466 L1.53385417,27.8111983 L3.9240141,29.543992 L7.79036495,24.210101 C7.87893638,24.0890534 7.94635695,23.9568177 7.99507124,23.8151034 L8.3295199,22.817522 L5.98260792,20.5398058 Z" id="Shape"></path>
                            </g>
                        </g>
                    </g>
                </g>
            </g>
        </g>
    </g>
</svg>