<?xml version="1.0" encoding="UTF-8"?>
<svg width="27px" height="28px" viewBox="0 0 27 28" version="1.1" xmlns="http://www.w3.org/2000/svg" xmlns:xlink="http://www.w3.org/1999/xlink">
    <title>icon-date</title>
    <g id="Account-Page" stroke="none" stroke-width="1" fill="none" fill-rule="evenodd" opacity="0.900000036">
        <g id="Sign-up" transform="translate(-1531.000000, -549.000000)" fill="#000000" fill-rule="nonzero">
            <g id="Group-17" transform="translate(730.000000, 47.000000)">
                <g id="icons8-calendar" transform="translate(801.000000, 502.000000)">
                    <path d="M5.83333333,0 C5.1953125,0 4.66666667,0.528645833 4.66666667,1.16666667 L4.66666667,2.33333333 L1.16666667,2.33333333 C0.861328417,2.33333333 0.551432583,2.44498683 0.332682583,2.66601592 C0.1116535,2.88476592 0,3.19466175 0,3.5 L0,26.8333333 C0,27.1386722 0.1116535,27.448568 0.332682583,27.6695965 C0.551432583,27.8883465 0.861328417,28 1.16666667,28 L25.6666667,28 C25.9720055,28 26.2819013,27.8883465 26.5029298,27.6695965 C26.7216798,27.448568 26.8333333,27.1386722 26.8333333,26.8333333 L26.8333333,3.5 C26.8333333,3.19466175 26.7216798,2.88476592 26.5029298,2.66601592 C26.2819013,2.44498683 25.9720055,2.33333333 25.6666667,2.33333333 L22.1666667,2.33333333 L22.1666667,1.16666667 C22.1666667,0.528645833 21.6380208,0 21,0 L19.8333333,0 C19.1953125,0 18.6666667,0.528645833 18.6666667,1.16666667 L18.6666667,2.33333333 L8.16666667,2.33333333 L8.16666667,1.16666667 C8.16666667,0.528645833 7.63802083,0 7,0 L5.83333333,0 Z M5.83333333,1.16666667 L7,1.16666667 L7,4.66666667 L5.83333333,4.66666667 L5.83333333,1.16666667 Z M19.8333333,1.16666667 L21,1.16666667 L21,4.66666667 L19.8333333,4.66666667 L19.8333333,1.16666667 Z M1.16666667,3.5 L4.66666667,3.5 L4.66666667,4.66666667 C4.66666667,5.3046875 5.1953125,5.83333333 5.83333333,5.83333333 L7,5.83333333 C7.63802083,5.83333333 8.16666667,5.3046875 8.16666667,4.66666667 L8.16666667,3.5 L18.6666667,3.5 L18.6666667,4.66666667 C18.6666667,5.3046875 19.1953125,5.83333333 19.8333333,5.83333333 L21,5.83333333 C21.6380208,5.83333333 22.1666667,5.3046875 22.1666667,4.66666667 L22.1666667,3.5 L25.6666667,3.5 L25.6666667,7.58333333 L1.16666667,7.58333333 L1.16666667,3.5 Z M1.16666667,8.75 L25.6666667,8.75 L25.6666667,26.8333333 L1.16666667,26.8333333 L1.16666667,8.75 Z M4.66666667,11.0833333 L4.66666667,24.5 L22.1666667,24.5 L22.1666667,11.0833333 L4.66666667,11.0833333 Z M5.83333333,12.25 L8.75,12.25 L8.75,15.1666667 L5.83333333,15.1666667 L5.83333333,12.25 Z M9.91666667,12.25 L12.8333333,12.25 L12.8333333,15.1666667 L9.91666667,15.1666667 L9.91666667,12.25 Z M14,12.25 L16.9166667,12.25 L16.9166667,15.1666667 L14,15.1666667 L14,12.25 Z M18.0833333,12.25 L21,12.25 L21,15.1666667 L18.0833333,15.1666667 L18.0833333,12.25 Z M5.83333333,16.3333333 L8.75,16.3333333 L8.75,19.25 L5.83333333,19.25 L5.83333333,16.3333333 Z M9.91666667,16.3333333 L12.8333333,16.3333333 L12.8333333,19.25 L9.91666667,19.25 L9.91666667,16.3333333 Z M14,16.3333333 L16.9166667,16.3333333 L16.9166667,19.25 L14,19.25 L14,16.3333333 Z M18.0833333,16.3333333 L21,16.3333333 L21,19.25 L18.0833333,19.25 L18.0833333,16.3333333 Z M5.83333333,20.4166667 L8.75,20.4166667 L8.75,23.3333333 L5.83333333,23.3333333 L5.83333333,20.4166667 Z M9.91666667,20.4166667 L12.8333333,20.4166667 L12.8333333,23.3333333 L9.91666667,23.3333333 L9.91666667,20.4166667 Z M14,20.4166667 L16.9166667,20.4166667 L16.9166667,23.3333333 L14,23.3333333 L14,20.4166667 Z M18.0833333,20.4166667 L21,20.4166667 L21,23.3333333 L18.0833333,23.3333333 L18.0833333,20.4166667 Z" id="icon-date"></path>
                </g>
            </g>
        </g>
    </g>
</svg>